<mxfile host="app.diagrams.net" modified="2023-08-11T05:19:19.927Z" agent="Mozilla/5.0 (Windows NT 10.0; Win64; x64) AppleWebKit/537.36 (KHTML, like Gecko) Chrome/115.0.0.0 Safari/537.36 Edg/115.0.1901.200" etag="uejGKgg4GsN15EoLh_vH" version="21.6.8" type="device">
  <diagram name="Page-1" id="3CGU5L2qb9g3FVdpCeR6">
    <mxGraphModel dx="2213" dy="1273" grid="1" gridSize="10" guides="1" tooltips="1" connect="1" arrows="1" fold="1" page="1" pageScale="1" pageWidth="850" pageHeight="1100" math="0" shadow="0">
      <root>
        <mxCell id="0" />
        <mxCell id="1" parent="0" />
        <mxCell id="-mBPuyFU1Wo2kqZGpeOI-16" value="" style="shape=image;verticalLabelPosition=bottom;labelBackgroundColor=default;verticalAlign=top;aspect=fixed;imageAspect=0;image=data:image/png,iVBORw0KGgoAAAANSUhEUgAAA88AAATLCAYAAACkvYVbAAAAAXNSR0IArs4c6QAAAARnQU1BAACxjwv8YQUAAAAJcEhZcwAAFxEAABcRAcom8z8AAP+lSURBVHhe7N0HgFxVfud7Z+/u23XYbD/v2rM79rP9vLbH9oxnPPPs8SQmzzAw5BwkspAEQxAZkSUyIkeREQMIGLIASYDIaYgiihxFRsTz6ntU/9bpq1td3VJVq6v1/cBRpZvqVtXt+7vn3HN/JUmSJEmSpAEZniVJkiRJasPwLEmSJElSG4ZnSZIkSZLaMDxLkiRJktSG4VmSJEmSpDYMz5IkSZIktWF4liRJkiSpDcOzJEmSJEltGJ4lSZIkSWrD8CxJkiRJUhuGZ0mSJEmS2jA8S5IkSZLUhuFZkiRJkqQ2DM+SJEmSJLVheJYkSZIkqQ3DsyRJkiRJbRieJUmSJElqw/AsSZIkSVIbhmdJkiRJktowPEuSJEmS1IbhWZIkSZKkNgzPkiRJkiS1YXiWJEmSJKkNw7MkSZIkSW0YniVJkiRJasPwLEmSJElSG4ZnSZIkSZLaMDxLkiRJktSG4VmSJEmSpDYMz5IkSZIktWF4liRJkiSpDcOzJEmSJEltGJ4lSZIkSWrD8CxJkiRJUhuGZ0mSJEmS2jA8S5IkSZLUhuFZkiRJkqQ2DM+SJEmSJLVheJYkSZIkqQ3DsyRJkiRJbRieJUmSJElqw/AsSZIkSVIbhmdJkiRJktowPEuSJEmS1IbhWZIkSZKkNgzPkiRJkiS1YXiWJEmSJKkNw7MkSZIkSW0YniVJkiRJasPwLEmSJElSG4ZnSZIkSZLaMDxLkiRJktSG4VmSJEmSpDYMz5IkSZIktWF4liRJkiSpDcOzJEmSJEltGJ4lSZIkSWrD8CxJkiRJUhuGZ0mSJEmS2jA8S5IkSZLUhuFZkiRJkqQ2DM+SJEmSJLVheJYkSZIkqQ3DsyRJkiRJbRieJUmSJElqw/AsSZIkSVIbhmdJkiRJktowPEuSJEmS1IbhWZIkSZKkNgzPkiRJkiS1YXiWJEmSJKkNw7MkSZIkSW0YniVJkiRJasPwLEmSJElSG4ZnSZIkSZLaMDxLkiRJktSG4VmSJEmSpDYMz5IkSZIktWF4liRJkiSpDcOzJEmSJEltGJ4lSZIkSWrD8CxJkiRJUhuGZ0mSJEmS2jA8S5IkSZLUhuFZkiRJkqQ2DM+SJEmSJLVheJYkSZIkqQ3DsyRJkiRJbRieJUmSJElqw/AsSZIkSVIbhmdJkiRJktowPEuSJEmS1IbhWZIkSZKkNgzPkiRJkiS1YXiWJEmSJKkNw7MkSZIkSW0YniVJkiRJasPwLEmSJElSG4ZnSZIkSZLaMDxLkiRJktSG4VmSJEmSpDYMz5IkSZIktWF4liRJkiSpDcOzJEmSJEltGJ4lSZIkSWrD8CxJkiRJUhuGZ0mSJEmS2jA8S5IkSZLUhuFZkiRJkqQ2DM+SJEmSJLVheJYkSZIkqQ3DsyRJkiRJbRieJUmSJElqw/AsSZIkSVIbhmdJkiRJktowPEuSJEmS1IbhWZIkSZKkNgzPkiRJkiS1YXiWJEmSJKkNw7MkSZIkSW0YniVJkiRJasPwLEmSJElSG4ZnSZIkSZLaMDxLkiRJktSG4VmSJEmSpDYMz5IkSZIktWF4liRJkiSpDcOzJEmSJEltGJ4lSZIkSWrD8CxJkiRJUhuGZ0mSJEmS2jA8S5IkSZLUhuFZkiRJkqQ2DM+SJEmSJLVheJYkSZIkqQ3DsyRJkiRJbRieJUmSJElqw/AsSZIkSVIbhmdJkiRJktowPEuSJEmS1IbhWZIkSZKkNgzPkiRJkiS1YXiWJEmSJKkNw7MkSZIkSW0YniVJkiRJasPwLEmSJElSG4ZnSZIkSZLaMDxLkiRJktSG4VmSJEmSpDYMz5IkSZIktWF4lnrcp59+2ry3RN1zdQY7nFYcPiM/J2lwqr+V8rG/I0nS8jI8S6PIJ598stQOYt1zJXcoRyY+lyj45OOPF982Pk8KytelldlSv4Pmb4NSbgPjuVDelySpHcOz1OPKncIIVajuJFa50ziyxedZ7vjj42aIRgzjZ6mVGd///Lto/g54/OkAgRnla5IkDZbhWepx7CSWobmdcmfRHceRL8Jx3We8+PPzM9TKK7ZhQ9kGSpK0rAzPUo+jOe9Qw3PscMatJI0G7777brr77rvTzJkz04knnpgOP/zwXE444YR02WWXpfvuuy+99957zaElSRoaw7M0ChCCX3311bTFFlukb37zm7Xl29/+drryyiv7ho9bA/TI9+yzz6Y111qr3+f5rW99K33jG99IO++8c1q0aFFzSGnlw/f/F7/4Rdp4443T5z//+fQHf/AH6Td+4zfSr/zKr/Qrv/mbv5n+7//7/87DbLbZZumqq64ySEuShsTwLPWIdoF32rRpS+0sVgtBKxiae8c111xd+3lS1lhjjRHXZLX8bkWz89JHH32UXn/99X7fZb+PvSefV9z8fMvPEm+88UZ6//33m486o+47Mnv27HxgsC4styuMs8oqq6Trr7++ObXF8+D86bp5rQzifZfvv+43jNdee63fayvrOpO0cjE8Sz2k3Ekpd1QWLFiQ/uqv/qp2B7EsG2644YgLWmrvuOOOS7/2a7/W9zn+6q/+at/9Qw89tDnUyFHdiS6/c7fddltuIXH77bfnx+5w96b4TKvbog8++CAdc8wxaa+99srhmdc6tc2pToffxe///u/3+138+q//et/jVqX8/VB+7/d+Lzftjs74VuZtZHyW1d9luU4efvjhtPXWW6err756qeEaTzTvSNLoZHiWehA7LOVOy5577tlyx7As1NC8/fbbzbHUKwib5ecYnzE7/dddd11zqJGlugv95ptvpgMPPDD9p//0n/KBnhdeeKH5ymJlL+Ia+arbINx7773pJz/5Sf5+7rPPPs1nlw5iy6qczimnnNKvtpl51pV4vTpc3I/nCd2TJ++bW0VoiXKdczDk+OOPT//zf/7P3Pz9wQcfbL6yWNnjuSSNVoZnqVc1d1LoAIcdmdgJHKj85V/+ZXriiSfyeOoNhM5/+qd/6vsMy53///W//ld67LHHmkOOHNWau2uuuSb967/+a997WH/99fuFFHbQV+bavl5Hfwv77bdf+sM//MP8+f72b/92uvzyy5uvdkYZ4miqzUGY+D1wS8uMMgwvS/ntf/Pb6eyzz27OZeUOgdXf4y233JJ+9KMf9a0rmruXB2L9DUtaWRiepR7DTkrsSLKz0qpWsq7823/7b9ONN96Yx1VvuOOOO9L/9X/9X7WfJ6H6nXfeaQ65YpXfy7h98skn0/bbb5/+/b//9/2We999982vl+Oo9/DZ0at1eXCHwsG8hx56qDlUZ7377jvpxz/+cZ5Pq23db/3Wb+Xa0f/n//l/0p//+Z/n8qd/+qfpv/7X/1o7fFn+3//3/12pDzBWf8MvvfRSbtn0H//jf+y3nrbaauv8uiStbAzPUg9hh4ZLU8WODR3d/O7v/m6/nZq6EjuZ3C6pWVmyg9RpQ5lup5ahW++lE5Zn2R555JG0ww47pG233TZts802uXCfct555zWH6u77bzXteL56i+tnzUp/+7d/u9R38d/8m3+TLrroouZQiw1l2Rl2KMMvZXnHX07t5j3U9zekYYuawcHMpxwe5ThcEorzmjkgF59tbGe++tWv5hYT3cBpCpyuEPOsFlo4nH/++en555/PBxdjeemR+/7770977713+t//+3/XjhvL340m50NVnW+57pdXOZ24Xzftu+66K/1//9//t9R6ook755uHTi5baajTzcMWwy/rMpXz7bu1Vl1Sk+FZ6hHVP+bUOH7ve99baseGHUBK2XFO7BRSDj744Dz+slhqh6JxGyUes8OaS3EOa7weYpxy57aVeD1u68bhcZTycSmei550q68PBvPGYMaPXohjfVSHj2m0mk5+rTm/gTDcJ83pxPI1Hiy+bSrn03fbXKbytary9Xgf8V5i/DxcMa14vMkmm9R+/2hq/uADD+ThEMsc41dL+XrclgeQWolxq8PxOF6rez3w/GB7Xeb9VpcT3I/Hde+jDs/n5WoOX1WOx71yOF6L8WMa8Vx+vfk4v9Z8Dp980rxWfHPYKOVylM/jnnvuSf/lv/yXvs+1LHQmVYpxQvXxUOy2226186Rw+TaakLdDKPzc5z631PjxPf3iF7/YN51Y1nKZW90fKsatTisKn8mnny75nOL5qvgsy9fL4crn+T4zfP79ND/bvnGK6YRJkyYttW4o1ELPmTO7OVT9bziU9+uU48Sw3OblbC5TTL+dPGzzPcZ43FJCq8d9z/N/Y70zHU4tKZejb5im8j7icSxv9XVJo4PhWeoh5R9japCpxavbudloo41y7U/1eUp1x7adoewADHrYxnAxbPW2iufbTTcPw21zp6W9we+QhcEsx0DKwFe3U1c1mHnFNGJYbvO0B/neynHbYbrVddb3PirPL1y4MP3jP/5jv+9dFGqyqk3Nq8s/GINZ7nJ6MXz18WAw7EDDl69zO9j3UMrhpW/ZFq/XVgZ6LWN5mB63zafaKZc7j1eUOuecc06/HuDLwmXzBtJqmu0QZtZYc41+84rt2+/9/u+l62YN3HleOd/LLrss/Yf/8B/6pkGJ90NrnvLyVcONz2Hxd2BJcFse5efY737xOJ4LrOsf/OAHfeu5LDSDp2a/1Go6PF6m30OL6dUZzDBDEQcZ0O1ll9R7DM9Sjyj/EL/88svpS1/6Ut6RiR2+2In84z/+49w8kZAcz8drlK99/WuDPk+2WsPHDhXNH+l1lVsuS/Pee+/l29KHH36Ybr3ttjR16tS0+eabpw022CDtsssuuTkl59CVBrOTwetMk/nEfLmlsEwff7yk8yne26xZs9L++++fNtpwwzxvmpdeeumlOdQtq+pysgzUvnEQg3MCN9tss3wpMGpc6TzpkksuSU8//XS/cWIaZWklXo/3Ges81jeFHbu8c1dML3b2PmqsL4aPdcV48Rhl4GXd8l6OOuqotNVWW+X3QVNxmoW/+OKLzaGKsNwogXXP4/zdaCwj058zZ07L80s33njjfstFKacHphWvc1ver2Idn3766WncuHF5ucePH5/OOuus9NxzzzWHWLIDHLeBdcqls4444oi05ZZb5vGp2bzyyiv7NTsu12ud6vIH1jnr9cQTT8zXWGf6lAkTJqSTTz45PfDAA3lHPQwmPJfLEuubW9bPe+++m2/57BsD5mEC1+T9xS9+kX8LfEc33XTT3Pv5TTfd1H8ZiunHMvCY+/FZUCZOnNj3mZbbGM5vv+KKK/otF9+vVu9nKLh2dGz3qvPl/OboPK/VvHg+XqPZeatwSOHSVaUPGu8jfoMU7uf32Lgfv4GYdnm/FcZlGcrpcfvee+/m12Iarab1zIIF+VJR/GbpVyC+W/SBcdBBB6UZM2bk9VF+b6vf4ZhqtLDglmVg/r/85S/zeeJ16+a73/1u/n3E+6dU51O3zDzHZRUvvPDCvH3mO0jngfyNmDJlSm6SX23un38TLdZBiXmWy8N91imlujz8HeDgCX+TYp0d3ViP/N0MDN9qno8++mje5sR65/bMM8/st80ZaHxJvc3wLPWI8g8xobTcmSnD8e67756HmTx5cr9honz2s59NTz31VB5mIMyPnY7YKaKmgWaRdMTzP/7H/8i3cZ/lATst5557bvqXf/mX2nOxf/M3fzOHe3bgy+aVeT7FDnwVl8D5u7/7u755Mo24jfN+33rrzXx9WZpj1nWwRS09nQExzPJcrotzkA844ID0N3/zN/kas+Xlcqrz+2//7b/lHfSf//zned0gAlKs14HcfffdeT7xvimx7tnhYwexFN8ROjz6l3/+56XGo7DsgfVw5vTp6Wtf+9pSHQJReG80sz7+uONyoA2xYxjz47JTXAaN+fCZEJxb9X7MOvuTP/mTvuUipJfTZj2xMx2vx2fNshPY4nvCDiznfbOOqzWgnLLAeLxXdp5Rrm9Cy+mnnZa+/OUv135POY+XprtXXXVVc4yBP6/qaw8/9FDaY489cu/25XWIq4Ueo7/zne/kHfmYBrefftJ+p/uEE07oW0dRWEdcBqwMAVyTd6eddsqfY9lSJQrvf9VVV8299geWoXxPfM78rplGzIuQXB64i8+a3zgdhsVwrINO1eJyAKDV9eyZFwcjEN/LOuX74vznGJ/3Qkdj//k//+fcHJ0DYKVzzj673/c2Cuvk1FNPbQ41OKyPP/uzP8ufV3y/KX/0R3+Uvw9xGbfyNwaCJaGYz+u///f/nv7dv/t3/dZBWfgceB9f//rX82cXB0zz9yumWUyfbcG6667btyxMn99/9bdF+Z3f+Z1+64KWTuU2td88Ggirp59+WvrmN7+Zf6+s5+o0KWy3/+Iv/iKfWsQB4lBdD/00n+cgQixPWTi1Kdbn66+/nkM6BwXKc/WjsA3k4N4LzVp15ll+X/jcfvrTn+bvSPV64jxmfhyIi+1Zy2WW1NMMz1KPoTaBWpbyD3fsuLKjypF9ULNVF+zYKaIH51DuHFSVOy3UJkYzx2rhqDs1gGuuuWbt63WFZuXs2GOgZcDZ55xdOw12WOY2losdfwJg3TB1ZY011ljqOsPtUOvFAQl2duum2a6ww0st5FBMbwTbumlRqO0I+XMqdlgJfXXjUKKjn3vuvSfXINUNUy18v6iRLUNu6eabb64NZoMpHEgpPfPMM/l7XDdsdOQUQa5umLKw3Jy3Wdas8t3/4Q9/WDt8tbCTTG3tYPEdOfiggwZ96bgo/E7pCI6de5S/uzq8tt5669VOi86wODDF2HzWg/2+Mh6/8VBdBpavOk4ZmluVP/iDP+gXzJcHAY0wWE4/5s9tHDgcSPm++D1SS8vvjFYxF198cZo3b15ujTB//vw8TOB7UM63LLTWCLEtK9ddidYIA33/ok+K6vq//fbb88HLunEobAsH+ixWW221vr8N1WmDg4J8VnXjtitjx47tN71ye84ly+o6HWtXOO2Dz2Iw+H1vsP76tdMhPIPz3DmoWzdMtXAA45VXXsnjgb8VtGypO1hRXeccbODvRNTmSxp9DM9Sj6EWqfxj3ffHu3F76GGHNYdKuelkXQ0sOwA0KQ6D/QNPTVe5oxrToxaCJnjU4sVz1WFalX/+53/u19StlbLjmrIQDNj5bdW8cKBC+KAGcjDYkW4VNKvvc6D3zUEPmpT3abPuy5qxsvz6b/x63uEvlZ8jtet141GzxU4kIeGP/2RoBwHYKSS0hnJ+NF0va6hYB/G4vF9XCC2I6RHgolaoXJfU4HJZpKOPPnpIQZ3vZ6xzanjrwuRAnxk1nc8++2wev09jWVnech081viOxCWUBluYbzlvDuosLAJ0K4Ts6NOgWsaMGZNr7Qh0A613Ssw/loEm0dXTKkBrgPIavzFu+bhVoQZ/eU6XKBHKaF5fTr9cDr4XHIwp55fX4wDrsp34HKjVbtVB2jrrrNMyNFcfU3Pcqub1H/7hH/qt/5gmp5xQ01sOO9j1XxbCd6umxTSZLg+OMn2+PzGfgb5L1LZW0VSfvwt1vbEPtnBAZzCXVsynMf3Tkub8UVhmLovHdebb9bBeLYccckieNtv+8hr1gyn83b322mvz+JJGH8OzNIJVd7w4Ek/Ncd0fbK61+lJxfipNN6k5qw7HzkL1fL7B2HHHHfvGL6dFrVm7MDPQThMHA8qaiiqO4NNUrm5cdsyqzecGKixHLAvjRS1srOdyfcd9dpo///nP95tG1PIM9L4o5c5nFJprRk1cWVtcxftuFcZo+nhri1oZpkdz5rrxqNFlfbcKAWWp21mm1i/OSSyXmx3UcjjGjVKup+r6oHk3tXyI7wDnB8frZaFWjHC5LN81ao1mz569TK0GWObqZXlY1rgFNXrLUrsW66Zc5kmTds3THAjno7Z6L5yDOZQWIGX5tV//tdxipYr3x2kTdeNQyuWvrn+Wp9V3fFnQRLqcfl3hsyCkRpP9UC5H3B9o2XgtXueAxVe+0v8AYRRqKuv6kWDMchpvvfVWWmWVVfrGKz97mllzrn7VrbfeOuTvbfUzKB9znnGc7lEuG7+7clsay1b9DZf3KRyM5UBt6aOPP8r9QDBujMP9eNyqlNONwveu3QFWDgjGNq1cPrYV3//+95c68FCWVsvE31NOm+F0lLrXy1I3DZqyt2qpI6m3GZ6lES52bqj9KXeKyx0NajKqO140Nfs//+f/9A1Tlq23GVqP28yb4FI3rWr57d/+7b7zBuvOo43ljltCETsprbzYeB9fbNFzc7WwI0cgY94DXQs2CudH00w49O1MNtd5XSiq2wkkxDNPCuexsiMcr5U7c1Fows2O9ECo7aRX23K8KCx3q2bnNB3+yle+Ujsen031YEN8XhTOY43nY7nLZWcYduZLfDfKQFCWGLf6/qP89V//db8OyRAHaaqlOg0e8/1imX7nd5act1w3L2rcOde/fI7vSnxPozlmq+WsBsD8PWne52DC6quvXjteFNYx3wvmx22cTsH8osSwfH/bNVelw6VWB43qDi5wXnN8N1uNF4UWGdWd/muvu7Z22Cit1huFTsk6qS7IM//qb5LH1BgStqM5fKnvtz5IrBM6tyrnEaW6HUGefuWgID2Ul9uGstC8uLpNIJAP1JohztGObR73687lLQu/8fJcfnAQiHN964aPz7bVZ/yHf/iH6aGHHmpOaTFaKVW/h9Xxf7+xfY7lLrc7dWWvvfZsTrneBRdc0Ldey/nULTO/BQ4+1v1tKgt/P+hvonyO321sM8q/L3Xz4Rr3/O2SNPoYnqURLnbwaGrdaiefHa9qzQc7Yq16k2WHjGZ1g8UOa3keasy/uqPCUX6aGL7+2ms5xNHJGDUadeOWJTocq0NYY4elOk5Z2GFkx5baReZLodMsOoeJ80+Zb3XePCaIlGJ9s7Nc1uDWjc+OGM1jy/m+/NJLuVn017+x5NzMGDfGJ8CwIz0QziMu33c5/k9+8pO+zy+WN27ZkY2aqhi+ep/CjiDnQbIjTbggBN555x35IEldTQqFnfVoZh21roxH79F8p1guAnHduBSapTJPDh5QOL+z7PSMZvStanrK5Ses8L168cUX8vx5z2uvvXa/4aNU3wu/IcLwLbfckpv3vvnmG2nu3Ll9vThX1xOF73XUYsZ6DtWO+Rg/psEt75PzPjmHkmWlWS47+9VLeZXj0VN+rN86dGZVjtuqUOPG8tG5Gu+Vc6Fp7j/Q+eKcSkHHXKXrr5/V+Hx/lD9ftjWtggdN5FlXfMYMS4sRvsedUAZR+liom3+rQpDh9I5qyCvPhR8Memeumz4df9GpYRXflfi+sG1o1S8D2y+2m1U0/WWdVofnO03nW5yHTZNlvld529O4TzNnvj8ExOp4UdhWllco4DfIKSLxG/7CF75QOx6FThc5WMRwFE6pKTsL48APgbocJ77XMT6dez391FPpzcYys+ycz00nga0OLHBaDtvzVlqd3lLOl8+Ic+L5DjBP/jbRYqZdS5YoHIjhbwW/X35L/Ka4kkMcCKsWmolHnx6SRhfDs9QD2OmNzmLKnWwKYaDc8SrD1JjGDkkMVxaaIded29gKO2RljQY7byxDBBN2ejjXsNr7c+C8sdghqy4/heDTKsyzs18OWy0E2JNOOqk59NIIRtHBWnW+FC4hVIfzY+Oc8VjmcnymOVBnUuzMRk1V3XwJqdVmpaVTTzu1ZS0hO32tENSqy10dn1DFeq0LaNRoEzZi/HI8PucI/YxbrVlDdUc2pkHtEgcZ6sR06AzvM5/5TL/xq4V1WvfdZee61bnv8T0l9LX6rhBoW52Lyvm+1LCjDM90PlaeRlGub9bVAQfs37Lp5lNPPtkvQJfjUrNanoJRIvDRJDTGa1VWbwTYVjvv1Ay2+m7Rd0HZWVLVq43XWrVo4WBdt5TfNbYzk3bdtXYZKLEuY31GoTdkOtqrC7qDceyxx/abR9xn28hlo6rK8MzBnlbhkO1f2ZQ6lL+l8v1wEKpdh4c0pS4PvvEbYP60wqCDLwIk8u+4mCeqp07EfBmf30krbM84cFKOWxYOrDzZ+N7XYTk4OFG+zyjMNw7aVfF3gwNUMWx1XAp/e8pOMgO/pcGc4rDNttvUthTi71qr7RV/H+h1X9LoY3iWesApp5xSu1NAWWfddfrtePXb+WoE2rpx+INfXs6mlZgWgaM6//Ix55RWd8CqCHXRIQ3jluPTKVOr89qoLYjhqoVpHHrooc0hl37/gQ60Wu240uSYHnBL7AQO1CMutdmE8nZ4T1ETW11/NFePS+vUYZ2Ww0dZvCO5+PJcde+V2txy+Oq6rvaqXKfcGS0LtTScS9qnOf9YDlo/UDNZNy6tD6q1R3077s3x6diHgyF141PY+S6b4Jbvn+f/+Z/rzzvm/RMeaInQCgeIqr3Jx3qjpjoONMQ8uY2WCdXPlsIluALDlssa9y+66KLami9CfqvLO9HMPc7Bj8825h+3XMbsnaI2sFxmUDtIU/JynCh0RNZqHYOQ2KqZ7WDO1+4kvuvtWqXUFcahtUSrINcK38+6mmDKGWec0RxqaXxmrWpzaUrPtbbBuo6DBNyvdo4WhVYSEX6rys+L7TbT4Jx9Os2jR21CNzXFBMc8bOXz5XvOdcDr5kuN8p133tkccrH4XeDyyy9reQDq7//+7/tdIjG/18q8OUjMucZ143P99jq8n2heXf0dUP7kM3+S7iqWuXpJxO23H983bJRyfA5yVjuWjM+Imv7y0mnleLSOGUxnmJJ6j+FZGoHKnQrOfeUPcfxRLgvnXkVtXt3OCDtP5fDxx52akiuvvLI5VHs/+9nP+k2j3EmgFqrVdaPL5aEmliahMV5Z2IEsL2cT41GrMND5pNTGR41A9b2XqCGonvMahVAX593GNAgurUIcNXbtzuMsl4WOcxivXGcUdjKjyXgMH7fvN8I8QbEcPgrrKnZgyx1XsENcd15mzJtwWK056guwTRyIadWzOKFjoGa47JyXTcbL90yobtX0OXCQo7qeojDvOGDB+NVpcM7pX/91fY0ohRqxcv7V8amJr56LHOPGJbIQ65yDT9RkxjDlOFyrtjxQUDc/UMNLLWJMoyytrh1MDRrfAYapW1c0DY7epst5lsvA97tVyKEWNJoz1y1z9eBMWeo6vOo2Tuv4yaqr9rUuqJa6dRSF2sGyg7RYR3XvG3y/W21H6Fm6lSOPPLLf8pXLtNVWW7acX6vwzPeU3/my1qAPhFYdBN2YV7msHACIVgnVZWa70eq8ab5rtHaoqlvXu7ZoUcApAHWtOGjy3aoTTdbTQJ1jfvLJxy0PFFD4ftA8u1QuM5c6Ky9Lx2cc64uDstFaRdLoYniWRqByh6I8v7G6I8j5ttUAVTZv5HzWqCWqjlu3M1OHo+5lk3F2EGJHkMdxXdJWyvfSaueKoFoeBAicl1aeL10WamDPO29xDSzK8aoI2K0u7UMtfHUHqTxYUC3UJLdrMlmi+WScq14tnPtXh/MBWzWNpdYpzknlPZfvm3PNB+r1mZ52y+G5Xw3PHEho1bMywWGg2jpqJcv3WgaG8RPqa45KnPfIsNXvKoXveixn9Racw9zqOuTU7kYnSXXjYuLEif3GiWXgQFMccCjHKS8HxrDlMtedClCOG/cHauHQ6ndF89VWwZdOjMrOoOrmidNOO612HVPojb2q3MZsttlmteMx72pncsOFkELLFg76VH9rde+zfI77fPbVAyvl+grUyLf6fTGNOhz8jNMgosT887nSlWu/l/PloE2Mw0G7alN7QiMH2TgAwLm8S9WQ1ryHuudK9FxdhtHyN7z2Omv3G7+8/+CDD6b/+T/rewXPnWe1OA2hujzUkpfjxrr6xje+kc+Rrjr99NP7LWNZOAhA7TDq3jfb0VY9qFPKAyLl39Vw4YUzWp4zXV6HX9LoYniWRjCa9Za1W2X5X//7f6WHHxq4QxLOIY3zQKs7ka3O9a2iVpmatHLcKJw/N5jm34GmknXTqZ63HQhEUctWLdTYDbZZHDtOrXqtrfb2TZPGVueXU+iAaShoLsk1istpROE88TqMU563XI5DAI4wU90h5H3wmZTDR+EARVlzi+qBF1CrXdamlIXOvKpN3Eutao6pAZo+fXGz1nKZy/usdy6FVR2XUp5Tyjh1y821puvmTaFzpbJToxDzp7l5q2u58v2o1vRTA1a2iGDnPeZdHggajLqWApQ99tijOUR/u+/R+jQGlilO4ahbR6FV7R7vgzBSKj8jWo+0OgjF9ZxbBaRuYdnK5eM+LWq47vLvDND8v+57wm+R8QdabwOdI7vWWmst1Ykf6KisHI55x/z5HKrKcfnOl31NlONWCwdJOXjA/OoOYsR0uS3nUcVpGdGkv1ri2sd10+L31+rUmFZNruv8/Oc/r51Gq3PxOT2ibnhKq9YAscwPPPBgy1rruCZ+qPte0Fla3bj8juou+SZpdDA8SyMUO2pbbDG23x9lQkjsPFGTxzliFHYqqoXnaQpdPR8sCj2FRvPMgdxwww0te9elKW61tmMg7ETVTYcdxLrOt2hKGztk1eWnSWMYaGcQvE6nT+X4UdhJKpuM0zSzVcdT1GwS6Ifiuuuua3nZrPK82FK1VrMcp1ojWe7AUhPfqhamGnzZGSzHDewEt+pMaqADLkynVRCkyXV5+aW6+dK5Vav1zmkLEcw4ZzHGLacTzeMprLNyve1dNLuum/f8Rx9t2RyXlgbV2isO2sQBJebD+or58V2mdpIgM5hCOC/nF6VsKh4Ixq1qqtk20DcCqCUr32N5nxpWrktcNw2WJa67HcpxCRNlk/FyHRNYB7M96TSWr1zGcHvjffB9bbV+q4X3Fd/RVtNEq4MXnIce35Pw+OOPt7zcHD2eR9P+6rziMZ/Vuuuu22+8cp1XP4Mo/N44WEgQjoMpiADY6r2hVasbAnXdAc5QXmKOZeL7GPdpPcTfirrvP4XXolRr6aPU9QLP+mnVQRkHZOsOYpWf7eWXXdby4ASd38Xftrr1xYGSVgdk+TvB301Jo5PhWRqhOC/x936/f+iKP+4UOq7hdYIZtV2tSuzEVAs1RdWdkTo0o2sVyOgNdihaNflkOau1oqAJad3wvKfqOaED7RCyE9SqVpMOtNjJDXQKVO5QUWKHih04DkpgoPmV2IFt1bSPwFenvERWWX7zt34zzZw5sznUkh3BWJbqZZPKQudxoRwvxg3Vy/HEe6e0Og8XNGnlO1WOG4UdYprgozq/wI55qxovmnNXz8ON8A92ZFsdHOH3wQGMEO85Cq684oq+mv5qoWfraq0TIbK8HE+5jjpVDjvssDyvsrloXRPgKFwzN1qBcICB9VVXW0aze77zddOgmWv1/H/EfXpaL99reb8u7A8nlpH3Ww3w9HdADS89zJfLXfc+OCDXLmCeccbptQeXmH61Q7yyv4PqNrTd6S7h0Uce6esgbqAS76l8Xywn4bTddcPDQAdnaGIeHRxW1w0tMehYqxy+XI5OFA7+VVuP0Cqq1Wk9Zcsklrfu85w6dUrtuJS+WuvmuHFAKqbDtFud3sLluJ5p/FYljU6GZ2kFiz/I5R9maggHuuTHUEvdjgzN1ThPrZ1WQY6dQWqGEctdVb4nagnK606XO3rUlFSbf7Mj1+o61QSi2Tfe2Bxy8XzqgkIguLUKHfSWWl76iHNK64aj0GQ6ML9W77t0xBFH9Fv/5U503TnPBH2aGccwZaF2tLz8UPme2YFdb731asejSSeX3grV5Y7HhNDqTnAUauYGOqf1l7/8ZctTDKiRLkNJ3XqjSWjduBQ6XKoT06GzMDr3qRuXlhfP1zTvL5eBXrjrxqVUe3PHQE3xW5WhholoPl0uJ521tbp+L6calK1AYrxyfNDTequWJLn2uNkpUzle3Kdpczl8vKdWp10sq+oyt7LUMg4wHr+bVi0jovzjP34hce3wgfDZ151bz8GLsidqQm9cxojffPn5lwcpwLLHe6neglBOD+rl+dwxver3isfV52hdU/7+W3n++edabif5fkV4LZcX9ClRHpws51+3PK3KQMPVdRjGQbHqOolptNrmxO0njdv11q/fXvL5co3tgXCwt9U2gN/Rh0WNv6TRxfAsjQDljgjOO/fc9G//bX1tZVkGu1NSV1NCoKq7NmmJEP+jHy2uiajOi9pUamkHUu60ULtbPXc6plnWTAZ25MpeX8vCziAd5JTKeVUROgjoddOiw53oLAh0pFY3HKVsttxqXihfq3aSFu/5N3/rt2qvmcpOfqvzlqn55rzTUM6HnfHoZKz6WVET8vTTTzeHbI0QWl56pSxck3igYMF7aVVzXHfuYbns3I/Owijl8rOD2q4JJJf6oef5cvw4SMFBqIGaE1Oj1KpFBL+bCIUsYyzzJZdcUhtkOlV+9Vd/JV1z7eLfVrmeOI+y1bxanT9bLje4VnGraXC+bFWMy8GsVgf0aIJc/T0Oh/J9DQbbs2ozaEqsDw4olue51uH3WdcnAN8HvhehvMQe04958L2s9vAdt3WlNHfuTfl0m1YHqeq281FobTDQpfEwe/aNLQPhdttt1xxqabTGqetIrdX3bFnKNtts05zbEicOsK1ud74zy1y9fFgsL+uq3fZyoL8TfPaSRi/DszTC5B5Av9y6B9CylDtlA5W64diJi3MkWxmoszCauZbnCNYpn6cjmFbhisvjRGc7gXOLWwVeanRi56Zu3tXnpk6dWjsdSrV3YWoa64aj0PN5GOg9R41HWeMdn0F8DtSec9mhKjo8atWEmJBXnW885lzVVpcw4lzC8gBBK9TktGpizrWOBwqhrTqhovS7NnRD9T1wjn6rJt/UHBPqS9XxTz/9tH7BoXz/5WdWhx7Kv/KVr/QNXxZ2osua/sD1mcvwHEGdZaBDKeZJM+ZWZd99981N7Dntgfv7cNt4nud4TIuEsjVEKM8rpZTvs1UrEB7Hc9y2OlDA517WHpfjgW1Bq/N36QE+Lo/VSQQcDoxw8OTcc87JtfH0FE5nau0O3FXFe+F3En0QxPor12O7S/jxPuuuRcw0uDQgaBof59CX06ZQQxuX10PZeiSUnxelOgxN0dmmcTmkVoGZ+VbnTe11dTtb4ntXDl+WauuP8rvBud7V32/Mm6bNdb8BCt/1/P1vPub3UL5WPlfX6oUerct5RqHmmKscoFzOEpf5oil6OV4sM30CtLvMVMy7uo7pCb+8CoSk0cfwLK1A7BRV/7izk/KrzZ3xTpW6HSnKHnvW9+gb2EFtdVkczgumCeNgjRkzpnY6lAMOOKA51BLUztQNS6HmhY69SrEeq7f0pNyqgyRCDx1klY4//vjaYSlljQLTr352VVz3ttXOLb0Wc54wyunQfLnus2I606ZNaw61NN5Hq4MTdbWSdQZ679Vexstlpjllq16IqaUrm+TXrTN2ZFs1R+YczHY7stVTC2L90dlcNbhXUdM4UKuE8jzLWPYbb7yxthd4PqOLL744D9MpMU/WQbWDonifdTWmMR63cZ/QxiV/ymlE4Rzusva4HA80U23V3Jvfdjlsp9B0lg6/6BOh+jviIMCy4DJzcd38WH9xyzzK8+PrcACJ8+BjOcpCyAO/07rfMNvMsna6XGdxfyjrkW0brWrYLtG6JH7/zLtu/nR+Vz0QVRo3btxS41DoX6Pc1leXkeXgnOQYvvysuI5yN/C7/Jd/+Ze++ZSFg14cYChVl5nTc5Z1e8m8W/WhwbnvQ7kChaTeY3iWViD+oHPuVeAPfnnuZnXnbnlK3TQIPAPVJpa9PlcLO0h0IDSQ2GEh6NK0s246NLet68G6et3dsrATP3fOnOaQ9WLe7PSx8103HTqbqV63mBryVuu73GGv7oxVsYMVlz+qm17Z2VpMi4Mpdc1KKbyHgZovt+pcbbA1ISwDTSNjvHKZq01SqxYsWLBUDXuM+7Wvfa3vIAHivXIb91nnrWq86f23FOMEAiE1cHXjEsjb7ciyEx01x9XCtaVDubz0zl7WWpXjH1acI12n7C28nXKe1Pz+6Z/V90ZedmQXYrxyXvRxUHacVRbOsy9rRKtoploNsBQ+a7YTnZKXt7nMHLyrzi9KeVmuoeDc/Gh2Hd/V+L4Otvl52SS7LNTsct55fB+r36uf/OQnfS1Ays+W27oaaLYhHFji9JpoiVCOV6JJOi0iaAXAvMrfYBQOkNx+++3NMfrjdJCyr4VyfE4HKbeT1fnzN4TzfGP4snzjm9/I4Xogde+nVPc6f1PinPJq4fcQB71ara9qx4hlOeOMxZfVa+XRRx9teTk/WrEMpiNOSb3L8CytYOUf9jIwVnd+aHpLpy80raTHZQr32xWCU5wLGyWmzbUzy2BT1apZXJQyXAyk1eVPKHXXDq6rZSsLO6WD6a2WJop0NMM4dTuTY8eObQ65BDur1cvbxLiEbYLiYNBbcnX8KP/9v/+3pS4JBAJQ7PxWS3keXnWHkB1yetWtG49a1WgeXrcTGdh5LuddLjOhgh3GVqiVrOtEicI53xEMYv7V5WjVSzg1x9Tel6rvneVq1VkYwX2gQIiBeignMKJvuZvvg2bmZU+75boiINUFoRDTYuef5sfUjBNMYme/KqZ17TXXtjzAwHmw5Tou51+uK+ZVBuByubkGe4nxynHjwEr1u8wytWvqPBR5vs3lv++++/uuw8t8y3lz8GJZavj2P2D/ftMp73Ow641BND+n+XiMUxY6qaLlQbW3fgpNxcum5nxG5WcG3g+tP7beeuu8XaSfAQIv67h6Dm+MU35G4ADJH//xHy81fwoHk1r1vM3pCdVmzFHYtrzbDMDlfMt5U+teNy7zHOg88pgGrVdoNk5heLaFAx3Yvfrqq1puc1h/oVzewN+XakuZ+B6wvRyoY0RwWcU4baP8/lA4vaXvcy1+h5JGD8OztALlHZDmH1h2aiK08QeZgBg7uv/pPy+5Bumy4A96+Qc+CucwVpu3BWoLogaF5Sl3EuI+y1uet8tOQ35PxY4KOxrRLDamEzUy3D/zzDObQy7ZwSEk0gwx5hfDlo+rTRCr8wU7omXgiPlzn9rr8jqgMe7bjbBVrYEp571X5fJSZVAJs667rmXNBGXMmCWXXirVnYcXhUsxVc9bjmVmPbTqJZf1VK21Kpc5psFOd6uOiOgMqBpCYzycOX36Up9PlKUu+dIsgfVA4KwbdzA7spdffnnL5pfVnehyvqDmkhrMGL78rOuCRjk+HSjFeGUhJJWXE8Onn/Y/PYPPMZr+8hunWSyfE83PCWb9zh9ujscl46rzilJtUt8K52LXjU/ht9IKy0sT9rrx+L7GeeHlOi7vD1WM98YbC/tab9QVOjCrOze8FU5toFfsGL/6nR3oOuYlthvRsVY5DU7FKLe15WvlQaRWuBRctbY6CoH4l4M4WPDmm2/myzSV48ZysL0vL6dVfj7Ubrfqa4HvZYjPNcaNW5rY0wll3fjUyPfb3hXjBz6bCKQsBwcN+HzpxI7WAijHKQ9OVgu/lYGwveT3VjcunYi99FJ9T+ihVb8YrOejjz66OVRDZTxJo4PhWRoBqCEte2Xmj3C548WOevUP+FBUOxqKQpNpOuQJ5Tyo0SubxZXLU96nmVqrGiCa40YgY6eQ8eKW56rX7oz5c05p7IjFsOVt3Cd0xbU8S9RiHHfssUudoxnjUQiw1UufhAMPPHCpcWKnlqDDOY2tPg+aTlYDMNOI8anFLddXOR2awbfaea52bFYa6LIpZUdf5byqy3/JxRf36wSrLBFCy3HKIEBnV3XjUeoux1Wil/A4B7VaOIBSXtKnzkA70YcdvvhaySXeQ7yPBU8vWKoTrPi82bnmuspVMS4dErU6MENnUXNvWnzd8ireDy0eWn3O//hFejVf+lrLrcI6QWMwlyHiu96qaW15nfU6hI3qZxTv9U//9E+X6ikf5XpeVoxP7XzMs9x2xC098tNnwu233Zaby/I+o7z37rt5+3DxxRflTgkjHMa6j2lQqpeaGggtBaqteSjUhEZnZJSYPkGwXS/e4IoEtDCJcaPE9AjnDz7YusdsDnBRAxz9VFSnQWue6D+g+vmceOKJ/eZVloHOAY5p0HKl7HG7nC/Lw2fUqiaZZtKt+jxgGvH9jnnxL5cNrBuebVi7zuTmzJ7dsuaYGunq34VyPfEeWp1aM5hLXEnqfYZnaQS46qrWTdAIYtRIDlX5B5+wVzdtdhyil94qOs4hKNaNVy2EbJpR33Lzzbm2jp0dmjBGjSA7q9UdVnZWW+2wUwNT3akpxy0LO/XUmjFfailppk4tWTWcMG6MT/Pr6HCsXE9hoPPpKL/xG7+Ra0U4D5jztSk016T5bDTZjHmV82WZoilwnVbnUlIG6hl9sB198V7r3i/23HPP2vGpGWXHuhVCdHmudLVw/iGfM8Hgsccey7WU7GjHctxxx+2NcNG/mXyUul7YS+zItpr3f/id/5CuvGpxc+JW7/vmm26q7fiLQk1/zLtuXM5tXXXVVfuNE58zhVYZkyZNStdff33+bnKQimt+lzVeDM93IsbjgFE0gS6XmVAUnSOV3ycK5zAP5nrtBNxWPefzG6o7CBXY/rQ6V5rvB98dzhWmVpNl4bPuFM4vJ3wyr+pvuiwcPGJbycGpKCwz45YtE8p1V97fa68lLUpafV8Cn0e147WBlm2HHXZojln/Xcqaz9MXQt00ovyP//FH+XtFTTHfKwo14WxXqKWP5SjfWzwe6FzegU5f4DvL3yh+v/Ebpll19b2ceNKSAF5dH3xPuIb8hRdemJeZbSYHV9mOVj+fKDym1jvmE7e0zGjVIuHP/uzP+tWu12Fb2urz4mDNQDhlo7zEVSwnhb8ZrB9Jo5vhWVrB2BHjfOa6P8aU3XbbLQ830M5cO5z7XE6zLHvttVdzqP6oMYxlKZeJnY5WO2itCsNRYjzCZ9mxUnXniJ3NVtOoPj+YUo5HLRs7cO3QXLBu/MEsQwxTHZagV9b8lLfUdhAWy+GjcBCjPNBQ/S6MHz++djx2WMvepqvjBQJwq1pJDgbQEqAVpknNdN24Udg5pgUC168mqJVhj4M3fB/qxmt1rdbATjTn7deNS41yNcRV3//JJ5+U1xHD81mVn1fdvFlP5TTo6bgM360+97pSHZbfRj7Q0Zx+uaS0AokayWrhskk01W0llpfA0qp1AgcBqrVtJZrNtjqPNgrrgc+Yg2ITi/OnmX91vQ9GOU6r82n57AazrqO0GpYDJdVO7QZaZr4HHCgrp9Fq2oS5Rx9tfaAuxOk79Ab+5ealsMrvyLK8z3Kcb33rW/mgFeqWg0tDxbB15dd/49fTHzWCO58xrQ3mNDtsLKe1cOEbeV3GOENdbkoZaqlpZ32g/Ey4XnWrg5v5oFebjuRa9cHx27/9WznQl2KecUvrhLJlUfn+fvCDH9R2CCdpdDE8SysY4aEaRuOWAEAvu8uLHlbLc/3KwvlodVpdD5bwSRNidgrrXi9Lq50nwnFfU+LmTmOgRq8857gs7LjRhDDOoS6DTzlcPFedPx1QVa9XirqdHJajrlOZ6jQHW7icT7VTqHIHi53EshOqsnAO4wtF09hyeQe6FBfri5q7UI5X3mfedE5UN42/+qu/6ju3PJa3HBes07px6wpNO8v1wHmmdcNR2vUSzk502aFUOS6XkuEzHMjWW/fvXTymwfek3Iku33f1vXNt32gmO9iDSvF6OdyWW27Zb8e78U++D5qItzqfdOwWS3d6V4frI8fvpVqoOR5IvvZ85VrYde8hStm6om6dtVMdhwOMdc10B7ueByrUYA7Uk3Qre+8zcA1xFC49F8pTHarK98yBMmrOYxq8j4HWd1nK1+PzZlsdHRQyj+pBINDrfKvvR7UwvWiqH9OJWw6M1Z1PXL6HVq+Vr3PKRjR1Z3nLdUeLn1bLWu2dv4rOKVtdZooDRO1aeQ10+cHBXhJQUm8zPEsrEE0lOWev/ANc7kC0O190sAjgrYIZR8urlxJ5pxFuWgVYjrrT4zS12WUHM9Wdn7pCuKBpcrX2FXGfzsJoVs3w1Wl+8YtfzIGIS+PEDkz5+kDzj3OVq6o7kYjnaKJXd03X6jwHmi/riJqz6FGcadfNkx3mVgGJTq1aNV+mmSDn2NaNR1PfuIRR3TzDTTfflH7v95ecq1kWmt9HrSTTqAsAhNiBOkgrCyExVDvsKgvnQN5edEZX55JLLu7X5LMs1PKH8r3HfQL8QJe4Kg86gPFi3PI++F4N9hQHSlm7RlBnp7s8oJDDTbGeW3VQRKn7Ttdp1XM+520PdBmy0KpZb/W7z3qIWslOiPXMNormyq0uO9eqtPpt0tqBaxBHc/Xy8xwM+ido9d2LQid+ZXP46vemqnyNy9K1amY/lMIy3HLLzc2pLlFdDsLw3/zN39ROo1o4d7qupUJ8Z6mdbdWBYV2pfkYc0LjnnnvytGI5y+UtWwVVy0Ad34HtZatWHBykLC8zVfdZ8R2sG5dy8sknN4eSNJoZnqVhwh/iuMYrhZ2PVh15UfhD3u7angMpx6lehqgshOHqOWLsYLS6/A/N/6JGj6PwZRO2gQq16Oxc1IWvEjve1d65Yxrs7IJaa86xrnYI1qoQuqm9C+3WZbnuCL30oDqYmvayEIq4VBK9jQ/GscceWzsdyk47L+ksLJYtlo/gUzcOZa211uobrnGn7345PgaqOeZgB2Kccrzys+Q8wrKzJEpdcOF89kCzamrHq8NQ/vZzf9u2J2VOaagbl1LX4265/NQwtTrfme9LNOPlPX7ySX1HRyU+5zgvuVpaBTjOnWx1CkEsJ9/1uNxaXRno+xXToFl39SBdFMLuYC75xPpodaCjLByki6a2yAcCiu/M8iJUrrX2Wul3fnfwByvKQisBPt8Lzj9/wPPp26EZfKvWPBQ+c37TYSjrIIaluT4d/rXqyG+gwkGR9dZbLz315MDn/5afD73EVw+C1X13251OAQ6CcqBsKMtOK5I999wjvfzyy82pLI3PrFXv/Gxz6WNgIPTHUTcuhdNmFq+LJdu6KOBvwTcbf//qxv03/+a307xbF/fOH8NLGp0Mz9Iw4o8qO8PcvtLYQWDngvOd6eCqLDwXtUHL8oeYcfp2iprzJGxW50Nhh6F6buhAHZiVHbiAZnr0BExNQ3VHiZ1Lzkml1qq8rNRABrokz9SpU5tDLcY5p9QMU0PzW7/1m/2GJdRzzhzBsLz0D7UjZegbCAc7Aj0vMy0OHnBgoax1j8LOH+Fhg/XXz5dQql5aaiDUZNV9PtTyXH/9rKW+B7wPnuOzovVA3bjnnntuc+glO8lRENPgcmF141NmzVo87yjldPI0mrdgWX74wx/mjprYkS3XDS0FOADBKQSBTqZoGl83X3bQ24UbmsTG8LEO+O3QMRFNPmM5o8Tnzv27774774TH+GWhxUf8TheXxe+5Hb5nNONmGfiORHPuKJw/zvmiXDeX73m/S1LVYJ4cqOIABssV24q45btPK5CBlo3X6L2ba7J/vzFejBuF3zPL0eo3sfj9L54+B+HoiZ7QX3fggW0Gp4FErWT5+1le5XKwrBz8oL8GwgzNhNnWlDX6UVjnfB85N5wrGvC7rLa0GaxyGao1mNWQSUd5ZS3mYNX9vvjN0K8B2zO+P3WtHPiu8T5pXs/fFTqoKz/Tus+3nEegIy/+JtCapexNnsJ7pAO2wR4QBB1PctCTg8F159wT1jmVgwPJccmzEOuixHeQptnV7zGF7/iLxTnSdegNm21UOV5MKw5kxXyrnwW/Ez6Hctwo48dvnxa+sXDxeM1th6TRyfAsDbO+P6qD+OOa/xDzB7xmx6ed8o/3YP6QM0wMN2XKlKV2cqLw2hJLpksTZ3ZMqFkkGBDcuAY0TXOHgp35uvmyY9yqlo4AQY0CwYV5c74qtWnV953fY/O2nbqdzUAzeN4r1+RlfhSWjcBWdjyEcr22MtjlYbjqbTsxXAy79DTaf7fKaUQhXIL7VewEE1LopZt1Q4sDHtMUOh9QYBqNabbVnNeyYlyWnenE4/J2IAzTN/4y4DtCz9nxe6BmnkvotOsJOOR5D3InvNUwg13+dsNVp885yNS8csCH2lXeHwdgqPWru2xVJ9W9V2oqOaeXA4581+I3ye+Tdc73se5AFtOqm95AYj2xjamethL3CZ1ctzjEfAYzrxgiD1/zmXCgkwNa5zSmH++T90zLGk6fiFNi2mH68Ruuw3w4GBbbVH7L1Eyzjav23VCn+l4JvQR6vjNM7/jjj8tXKKB5dvUg2bL+5sJg1vNgxHS4HewyxXCM06nlkDSyGJ6lYVb9oxr3q39oY8eJP8YD7eS0U51fHeZR7hxwBD92BMvCzuJVzUvpoDpeK7EM7ZaFZnHUypXzjJ1Sajyq56EOVnW+Ay1DvFYdPkqnMc1Yh9Xpl4+5F8vA8HG/HKZOHr4ZwsoS0xjK5xf3+wXnYhqD/Z7GeM0HzZvFt7Fc4HYwy1eK2vR8S+G5xmOWLT/fnPZglrUcfiCDGaZqsNNtN1y7YerWXzn8YNZvfH/Kz2YgMQy3gxl+MDo1HSzvtOo6UCsLNZtlZ3Xl+miF18oSzy0LxovPqtU04nOPYeLxkH7DNarzrD5eVoOdBsMN1OIhlqduennc4jueHzem1W5dhvJ3gnbDS+pNhmdpBYs/sPHHuW+nv/k8f4gHuoxMK33TqxSUOwhVnB9J0+S6nUKaR8d1LGP8crql8vl+99mxqBke9HpLL6vlPCM804lMNHOt25mJ58rXqsMsixif6aKcZjntuvnUPVfFMLHTVZVfa8w33lP5XNyvGy+wIxzn65bDfVKMV37Xqng+h87K/BYvz5IDJwONX74Ww/db/jytpT+3xquN5+rXS2nJ8EvEtMppcj8et8Mwi9fd4uUcipjfQPOJ6TJM9XzqcrzFn1P9Msdz7d5TvF4OUz7mdqD3GcPm0hiOZYrn4zbud9NA8ymfj+HK55blcxwI1wIut1FloUn1NVdf3Rxysbw8bZah/BzrlpfXymGqayLPo/laqW/45uvlY6YX86p7PW7jPqrDD6R8vW5YniunV+JxWcrnqvdDPFeup6oYJoaL5wLPRYnH5fDlsKU8DK83x4txJI0+hmdphOn7o7ucf3gH+sM90Guch9qqE7Cys7ChGOxOBOfHcY5i3by5VE1Mh9tW0yyfH2i45TGc06x7D4OdfyeWs24adcu0zAaY1mCalHdLx97fADq6HoegOs8VsQy9iG0fPT2X26g4uBe3XPM8gldpMOt4uD8HP/fWXDeSWjE8S+qH8zRb9ZA6duzgrim7rE44/vja+VLo8EyShsPbb72Vz83lsnhct/rwww9v2SInCh3icfBRkjR6GZ4l9cNOYtn5TRSeo7fpbtp+3Lil5kvhXGuuKw1rBCR123PPPtvycn1sC6vbSHqXLy/DJkkanQzPkvrQ3JDripY7hVG4hm+7a2guD3rwbXWdXC4JwyWxYHiW1G1sb7gsVLkdqjuoGGXzzTdPHzR7uh7o3FhJUm8zPEvqQ4dcX/rSl2p3Dgmw1etBd9Kjjz6ar1NaN296tuVSJ5I0HLgc1L//9/++33aoVXimOfdLL72UxyM0G54lafQyPEvq29Hjeqif/exna3cQv/3tb6d33nknD9cN1GpTu10377FjxzSHslZHUveddtpptduisvzGb/xG2mCDDdLTTz/dHGvx9kmSNHoZniX1ueiii2p3Einbb799c6jOiMsQRRA+/LDDaudLOazxmiQNl9tvvz33nP3Nb34zfeYzn+mrdf61X/u19Kd/9qdp3XXXTRdccMGgr4ssSRodDM/SSo7wGrW5zz33XJozZ06aO3duuummm3KJ+88++2xzjOW3ODQvuR4mnnrqqaXmHeXll1/JwyCGl6Rue/vtt9P8+fPTbbfdlrdNhOonn3ii+aokaWVjeJbUDLPtQ+knHaxlKec3mHl/2gj4EfIHM7wkdZNNtCVp5WN4ltQngiklgmq+bRSaJ3ZqZzHmUd6P+YWYV/lap+YvSQOpbm/K7VEUt0eStPIxPEvKO4Kl2DmM+3FbHa4TYroDTT+H5+Z9Seq2vM1pbI9yQG5ul8ptVPVWkrRyMDxLGvHKnVZJkiRpRTA8S5IkSZLUhuFZkiRJkqQ2DM+SJEmSJLVheJYkSZIkqQ3DsyRJkiRJbRieJUmSJElqw/AsSZIkSVIbhmdJkiRJktowPEuSJEmS1IbhWZIkSZKkNgzPkiRJkiS1YXiWJEmSJKkNw7MkSZIkSW0YniVJkiRJasPwLEmSJElSG4ZnSZIkSZLaMDxLkiRJktSG4VmSJEmSpDYMz5IkSZIktWF4liRJkiSpDcOzJEmSJEltGJ4lSZIkSWrD8CxJkiRJUhuGZ0mSJEmS2jA8S5IkSZLUhuFZkiRJkqQ2DM+SJEmSJLVheJYkSZIkqQ3DsyRJkiRJbRieJUmSJElqw/AsSZIkSVIbhmdJkiRJktowPEuSJEmS1IbhWZIkSZKkNgzPkiRJkiS1YXiWJEmSJKkNw7MkSZIkSW0YniVJkiRJasPwLEmSJElSG4ZnSZIkSZLaMDxLkiRJktSG4VmSJEmSpDYMz5IkSZIktWF4liRJkiSpDcOzJEmSJEltGJ4lSZIkSWrD8CxJkiRJUhuGZ0mSJEmS2jA8S5IkSZLUhuFZkiRJkqQ2DM+SJEmSJLVheJYkSZIkqQ3DsyRJkiRJbRieJUmSJElqw/AsSZIkSVIbhmdJkiRJktowPEuSJEmS1IbhWZIkSZKkNgzPkiRJkiS1YXiWJEmSJKkNw7MkSZIkSW0YniVJkiRJasPwLEmSJElSG4ZnSZIkSZLaMDxLkiRJktSG4VmSJEmSpDYMz5IkSZIktWF4liRJkiSpDcOzJEmSJEltGJ4lSZIkSWrD8CxJkiRJUhuGZ0mSJEmS2jA8S5IkSZLUhuFZkiRJkqQ2DM+SJEmSJLVheJYkSZIkqQ3DsyRJkiRJbRieJUmSJElqw/AsSZIkSVIbhmdJkiRJktowPEuSJEmS1IbhWZIkSZKkNgzPkiRJkiS1YXiWJEmSJKkNw7MkSZIkSW0YniVJkiRJasPwLEmSJElSG4ZnSZIkSZLaMDxLkiRJktSG4VmSJEmSpDYMz5IkSZIktWF4liRJkiSpDcOzJEmSJEltGJ4lSZIkSWrD8CxJkiRJUhuGZ0mSJEmS2jA8S5IkSZLUhuFZkiRJkqQ2DM+SJEmSJLVheJYkSZIkqQ3DsyRJkiRJbRieJUmSJElqw/AsSZIkSVIbhmdJkiRJktowPEuSJEmS1IbhWZIkSZKkNgzPkiRJkiS1YXiWJEmSJKkNw7MkSZIkSW0YniVJkiRJasPwLEmSJElSG4ZnSZIkSZLaMDxLkiRJktSG4VmSJEmSpDYMz5IkSZIktWF4liRJkiSpDcOzJEmSJEltGJ4lSZIkSWrD8CxJkiRJUhuGZ0mSJEmS2jA8S5IkSZLUhuFZkiRJkqQ2DM+SJEmSJLVheJYkSZIkqQ3DsyRJkiRJbRieJUmSJElqw/AsSZIkSVIbhmdJkiRJktowPEuSJEmS1IbhWZIkSZKkNgzPkiRJkiS1YXiWJEmSJKkNw7MkSZIkSW0YniVJkiRJasPwLEkj0IcffpieeeaZ9Nxzz6Xnn38+F+5bLBaLxWKxWAYur7zySvrkk08W71R9+uni2w4wPEvSCPNpYyN/5JFHpvXXXz/tuOOOaeLEiWnChAn51mKxWCwWi8XSuowfPz5tsskm6c0334wdq7xvRVlehmdJGmEWLVqUw/LFF1+ca5ypgaY8++yztUdXLRaLxWKxWCxLyqqrrpoWLFjQ3LNaXDFheJakUei9995Lu+++e7r77rubz0iSJGmwNthgg/TUk0/m+xGaDc+SNAoRnnfbbbd02223NZ9J+bydTmz0JUmSRjtOfSvDM6XvHOjlYHiWpBEm1zzvsUe/8CxJkqTBWW+99dLTzWbbEZ47wfAsSSvQp80a5XLD/vbbb6fddt893XHHHflxvNaJI6aSJEmjHeG5POe5UwzPkjQC9A/Pb6VJkyalu+66Kz8uX5MkSdLADM+SNEp9UgnGBOV99tknPfbYY81nFj8nSZKk9gzPkjQK0RQ7mmO//PLL6fzzz09nnHFGWm211dLUKVPSjBkz0vz58/PrkiRJas/wLEmjUG6S3TzvmY08vWzvsMMO6Stf+UoaO3Zsfjx37tzm0JIkSWrH8Cypq+JSSGVR97GeY92Xpk6dmjsOCyvy88jfh+L7IUmSNJIZniV1Tdl0+OOPP+73WN1VhtGnn346n+u86667pq9+9atp++23T5MnT0533nnnCgmtEZbj++D3QpIk9QLDs6SuiZAUAS1uNTxifXPOM+c7H3fccemHP/xhOuCAA/LjRx99JIfWFfG59H0nDM2SJKlHGJ4ldY1heeTZf//908KFC5uPVqyobY6m25IkSSOZ4VlS1xCILr744jRmzJjcSZVl+MuWW2zRd3+jjTZKn//859Paa6+dtiieH+4yfvz49OyzzxqeJUlSTzE8S+qqDTbYIJ1zzjn5/FrL8Je77rorl7j/0EMPpXvuuSfdcccdSw07XGXDDTdMF110UfMbIkmS1BsMz5K6atNNN02PPfZY85GU0l577ZUuvPDC5iNJkqTeYHiW1FWbbbZZ+uUvf9l8JKV8jemf//znzUeSJEm9wfAsqasMz6oyPEuSpF5keJbUVYZnVRmeJUlSLzI8S+oqw7OqDM+SJKkXGZ4lddVoCc/XXntt2nzzzfMlnrbZZpva91RebmlZL73UarxPG//RW/bHH3+8+HFjuDzsMs5nRTI8S5KkXmR4ltRVoyU877PPPmnNNdfMl3jafffdc5AmyHK94ksuuSTde++9ebhHH3kkvfTSS/n+008/nZ566qlcHn744XTppZfm+3c3QvDcuXP7rnP8zDPP5OthP9l4Da+88kp6/PHH0+zZs/NlpRju+OOPT//6tX/N44UYv9cYniVJUi8yPEvqqtESng855JC077775vsE29VXXy0H22nTpqUJEyakr3zlK+mGG25Ie++9dzrwwAPThx9+mMaMGZNOPPHEvKHdeuut0yabbJKHYzrf/OY3c2B+7rnn0vbbb5+nsc4666Qnnng8nX322WnVVVdNkydPTqusskq67777cmD/87/483TeeeflZSA4E96XtYZ7RTI8S5KkXmR4ltRVoyU8T506NW240YbppptuSpMmTcqBlxriG2+8MQfrz3zmM+mEE07INcPbbLtNuv766/M1rh966KEcms8///z0wgsvpG9/e5UcmI888sgcok899dT0k5/8JAfx733ve2n69DNyQGbj/NFHH6Xx48enCy64IN166615XUaz7U+awdnwLEmSNDwMz5K6arSE58MPPzz93d/9Xdpqq63SzjvvnJtm33zzzem73/1ubspNQD7iiCPSu+++m2uZGW6XXXZJixYtSltsuUW67LLL0mOPPZY22GD9xrgv5mEJ3Uz3b//2b9PEiRPTz372s3Tbbbems846K98nKBPSeUwY33DDDfP0e53hWZIk9SLDs6SuGi3hed/J+6addtqp+Wixiy66KDe1njdvXvrc5z6XwzD222+/9Ed/9EfpF5dfnh+vtfZaOSw++MAD6Uc/+lE+T3r//ffPNc809aYTsgcffDCP/9hj83NtNJ2SUfNM0+8zzjgj13B/57vfSY8++mieZi8zPEuSpF5keJbUVaMlPF908UU5xNK7dTSVfuedd3ITbgL0uHHjcodguOqqq9Lf/M3f5GbamHbMtHTbbbfl0Ezz79deey3NnDkzN8dmWmeeeWZad91105QpU9J7772XOwo7/fTTc3g+6aSTcnBeuHBhDtTUWEdHYfnWZtuSJEnDYn3Ds6RuGi3hOeTzjAcIrQTdH/zwB7k59vL2ht3qfOby+VbDjGSGZ0mS1IsMz5K6ajSE5xyYawLr4tsl9z/99JN8LjTXY6a37VAOH/c/ad6i7vVSPJ9fi9JAOK8bfqQzPEuSpF5keJbUVaOl5rlsKh2Bldt4nvvRE3Yoh4v7MT6lvF/3XGnxa80etnkcwzXn30sMz5IkqRcZniV11WipeQ6E2yWXiWrcb4bXGGbx85XSDLphqdebJV5rFaBjXn2vV6bbKwzPkiSpFxmeJXUV4fn+++9vPuqsCI75dhhCZBlUq6GVx1FKrcapu199ru75UoTpXmN4liRJvcjwLKmryvBcBsLlEdPpa7rcoelqeOy+++79wrOfnSRJ6gWGZ0ldRXjuxkZGvWvy5Mn5Ml2Bc8V7tRZdkiStPAzPkrpq8803T2uttVbaaqutOla22GKL2uctvVE+/4XPp1mzZuXvR9Q6x3nckiRJI5XhWVJXjRkzJp199tnp1ltvTfPmzUu33HJLvr885etf/3o65ZRT8v15jekxXcqtlMqwlpFXNt1003T55Zc3vyGda84vSZLUTYZnSV1Fs+3HHnus+agzttxyy/TAAw80H6nX7L333unCCy9sPvKcZ0mS1BsMz5K6qhuXqqIp+F133dV8tETUYFKiGXC75sADvVanHJ778bg6nb7nW3RqVh1+ZWJv25IkqRcZniV11XCGZzqeooBwSnAeqCOqCLSffLL4us0Dide5xnOoGyPCcnXeMa+YzkcffdR3Pz/PeI0Syz+aGZ4lSVIvMjxL6qoVUvPcDLBxv1QNtHHL84MNrjHtxj+L71fm13e/UZhu3I9xy2UInzTCNPOP4UYzw7MkSepFhmdJXTWc4XkgZXit0y48l+O1CsDVYQay1PRWghrnYHiWJEm9yPAsqauGMzw//PDDaeLEiflySHQqdtFFFzVf6e+9995LN9xwQ3rzzTfT9ddfn1577bXmKwOjp+hHH320+SilDz74IM2ePTu99NJLzWdSuvfee9O1116b7z/xxBO5Y7Nnn3027bfffumkk05Mt99+e34Nr776Srrpppv6gnjUUo92hmdJktSLDM+Sumo4w/MFF1yQL40Vl0QisD700EP5/OKrrroqXXnllen9999P9913X1p99dXTzTffnKfzzjvv5ObWhF7CLN59990cfn9xxRXpkUceyUF5hx12yNNkGvjwww/THXfckd56662+QH7AAfunI488Ig8/ffr0HJ6POOKIfG3qo48+Op1wwgl53Pnz56fnnns2nX766X3vZWUIzjA8S5KkXmR4ltRVwxmeqWk+7LDDmo9SDroEZELsuHHj0iabbJLOOeecXFv81a9+NZ133nnp0KlT0zPPPJNmzpyZttlmm7T11luna665JtdIMzyhd80110x33X1XDuY8psYab7/9dp4fAX3atGlp/PjxaZ111mmE5yNzDfT555+fh6UmnGsbz5hxQb7mNeH94IMPTk8++WR68MEH05lnnpkD/srC8CxJknrRBhtskPcbO83wLCkbzvB8xRVXpC996Utp7bXXTmussUY69thjc63y3XffnZfhsssuS/vvv39upn3MMcfk5tZTpkzJtcc08541a1YeZuIOOzSC7owccDGlEbBvmXdLrtkmVIe3GsGYWmVC++TJk/Nzl1xySTr++OPzdK5sLA+o9Wbat9xyc25Wvu8+++TgDZbluOOO63tsb9uSJEkjk+FZUlcNZ3i++OKL01577ZUDKYVm0DSfprk0tcbrrrtuOvDAA9Mrr7ySb9n4UXM8b968tOGGG+ZhJkyYkE477bQ8LWqJQbilGTg1xL+4/Bf5OdBcmxB++hlnpIMOOig/d2tjWmeddVaudaaZOGZceGG69NJL05w5c3LTb2q777///vzaG2+80ReeWd5PPx395z0bniVJUi8yPEvqquEMz+eee25uql168cUXc1NrmkcTiPfcc8/0UuO53RsBjqbVDM8tNci33HJLokOvyy+/PNcmU4OMqY2wS/Nvzk8+/YzT+5pYE56pyWa8Qw45JN12221p7733TgcccEBuGk4tNKixvrARoGkOfkYjaEezbQIztd/MJ86jtsMwSZKkkcnwLKmrhjM809kXza0jgHJLD9bUArOxo7MuQixB9aijjsrnQhPiOC/56aefzuc4U6gVJlBfd911eTo0waaXbULyXnvvlV5++eX8/KJFi/L0Xn/ttVx7PXbs2ByKCdpM7+STT87z4jE10oRmAjQ4x/rxxx/PzbmplQ4rQ4/bhmdJktSLDM+Sumo4w3Mow/OKRA12eY501WuvvppOOeWUvjAOltnwLEmSNPIYniV11YoIzytahF8uZbVw4cKWYZjLW73++uvNR0tqykc7w7MkSepFhmdJXbUyhudq0+t2gThej3Fahe3RwvAsSZJ6keFZUletbOGZ4Bs1yHG/XRguhxnM8L3O8CxJknqR4VlSV63MzbZDqzAcQTkKbLYtSZI0MhmeJXXVyhqeIwzHbSv59ebw5XijmeFZkiT1IsOzpK7qRnjmclJ33HFHvr8yhM3RxvAsSZJ6keFZUld1IzxP2m1SvmYyynOL1RsMz5IkqRcZniV1VTfC83bbbZfuueeefL+vp2puDdA9wfAsSZJ6keFZUld1Izxvuumm6c4772w+Wtx025rn3mF4liRJvcjwLKmrhqPDMINzbzE8S5KkXmR4ltRV3QrPUfMcwblbAdpa7c4zPEuSpF5keJbUVcNR8xw++OCD9M477zQfLcbj999/v18Art7/6KOP0nvvvZdvQwzDLSU6JkN5/5VXXkmvv/56vo987rUGZHiWJEm9aP311zc8S+qe4QzP5557blp99dXTSy+9mB8///xzadVVV00zZszIj0sRfvH222+nAw44ID391FPNZ5aI8FwOH1566aW05ZZbpjPPPDM/rhtGSzM8S5KkXmR4ltRVwxmezznnnLTmmmum2bNn58c33HBDWm211fqCGq8TdufMmZMfL1q0KB108EFp9913zz14v/zyy+mRhx9OW2+9dTryyCOXugwWPXwz/uGHH54+/PDDHLhXWWWV9OCDD+bXW4Vs9Wd4liRJvcjwLKmrhjM8X3jhhWnPPfdMxx9/fHr33XdzjfAhhxySrrzyyhyYd9555zzM+PHj0+OPP56mnzk9D3/RRRfl526++aY0derUxu3NafK++/YLeC+++GIOfeedd17aZZddci03402cODGH7szwPCiGZ0mS1IsMz5K6aribbZ988snphBNOSLfeems69dRT0xlnnJEuvvjifJ/gi6OPPjpdcMEF6bDDDkt333N3fu6YY45J06dPTz9eddV00EEHpY022ijtt99++TUwvcmTJ+f7t99+e2P4o3PYPuWUU/NziGtOa2CGZ0mS1IsMz5K6ajjD89lnn51rlmfNmpXGjh2brrnmmhySL2mEZ0J0nJt88MEHp5kzL0lHHXVUuuOOO/Jz1FATrrfZZps8HtO55ZZb8mtgftRSg+bgRxxxRA7P06Ydmz7++OP8vM22B8fwLEmSetGGG25oeJbUPcMZnqldJpTR7PpLX/pSevLJJ3MIJhTfd999+bzmPfbYI+20007plZdfTjfddFPaYost0j777JPGjRuXHnjggXTsscfmYLzDDjukq6++ujnllN588820//7756bfm266abr++hvSbbfdlmuvIzxb8zw4hmdJktSLDM+Sumo4w/PTTz+dnnvuuXzZqXvvvTd9+NFHacGCBfl50Nya86GfeOKJ/Bict0xz70cffTSH39deey1NmzYtzZw5M33SCMVlIKZ3bca/6qqr8uNXX301Pfzww33DWPM8OIZnSZLUiwzPkrpqOMPzQKq1wjyuPldFEC6DcanusbF5cAzPkiSpFxmeJXXVcIXnHF4rgRaE3/L5GO7TZiiOEF0G6b5hGiWaZCOmxbjcgtsYtzod1TM8S5KkXmR4ltRVK7LmuQy4cRv3G3cW3zaVr/UNUyjPa45hq8NFIB+MunlkrZ4fRQzPkiSpFxmeJXXVSAjPy2qwtcicV33//ffn+3Qsdvfdiy9/xbnX9OK9++675+tMD9b9992XHnvsseajJeL9MI/DDz88T5dLaKG6rK3eO+PecvPNaX5j+g899FDz2eFleJYkSb3I8Cypq4YzPL///vtp4cKFudfsN954o/lsykGU3rbffffdHGgZDtx/55138i0BmI7EPvzww9wJGNMJjzzySF+Y/eijj3KnYg8++GDfxpNevgmETP8Xv/hF7qWbmuoDDjggXxv6/PPPzz16c4krRMCO8Zkm4fvxxx/Pj5neWWedlefx9ttv5+cCy8r1p+kRnOlO3nffNHfu3Pzaiy++mO65557csRkYlh7H4zHvj8tw0ds4z3NN7LqQ3m2GZ0mS1IsMz5K6ajjD84wZM/L8Ntlkk7Tf/vult956K1/zmee4qP20Yxf3ok3v2tTUEj5nz56d9pu8X67FXXPNNdOuu+66ePxGQCUMX3fddXl8XuPSVoRw5s/lqn70ox/lXronTZqUvve97+VLV51yyik5DM+dOyeHxEAAv/zyy9Pzzz+fL5fFdaiZzlNPPZUuvfTStO666+ZrTDPczy+8MO34s5+ljTbaKO3cCLqE7XDttdemvffeu/ko5dDNcwRvLrfFdJkOAZ9lWXXVVfN8r7/++rTOOuvkYcaPH58PEnCNa9bBcDM8S5KkXmR4ltRVwxmeTzrppFzTiyOPPDIHYy5ZRSClNprrNFP7e9ppp+XLV51++uk5vFITSw0stcYEYWqjDz744BwuJ0yYkMclgO6yyy45jE+cODE3iz7hhBPSlVdemUPzmWeemWusmSaoOaYGGeW50C+//HKuKaZm/PDDDsuB/9BDD801xs8++2x+/YwzzkhHHXVUHn7HHXdMDxTrj2W/4IILmo+W4H1wKa7XX389rwOW6Zhjjk5nn312fn3PPffM64x5EF7fagRyAjbradGiRXmY4WJ4liRJvcjwLKmrhjM8T58+PYdRnHjiiTnwElSpJV577bX7amQJlITQXzRef/ONN3NQppk2tcy8Ro0z13qed8stab311ssbSqZB0CR8H3300Xke1NoSnjmfmaB8S2N4QjRmNAIuoThQG01w5drQe+21V57md7/73XTD9dfn5tYsG8H9hRdeyMvAsoNlo/l2OO+883JoDwRfxif8b7/99nm6q6++el7n55xzdq5xppZ53333zRt7mqxPmTIlh+wIz7zf4WR4liRJvcjwLKmrhjM8cw4vza9feeWVfI4xzZmpcSXUco4x4fKDDz5IV1xxRVprrbXyOcBvvLEw10gTnnme2mvOM6ajr3sa4xzSCK8E01z7/IvL0w033pjPNwYBnHEI1Mccc0wOuTwHQjDzozaYcMrz1EoTtqNJOMt6zjnnpBsb04z5EyoJz5fMnJmnQ+hl3tEBGDXMTJfm2u++9146/vjj8zRY7qMaQZgm3tRWz5s3L9dgc44zCPJXX3VVrpGm2TZN2jkX+pijj87rZDgZnqUlaG3CqRzbbbedZSUqnELD3wNJvcXwLKmrhjM8UyvLa2zYqBUmFLJzssYaa+QwTMAlXNJZFuc25w7GXn8911ITJm+++eZ8TjTBlqBLoCWkRm0utdgE5GgKTe0wIZXznmnezX1qoKldBsvIecYEdQI682ZHmVrmbbfdNtdu0wz84osvztMnVNJknBBNk3NwQIDAzHLFeqQ5OTXhnIfN+6IJOAGfc6RpWk5P3Hc35s10eE+YP39+WuOnP01bb711Phe6kcZzrTTnWw83w7O0BL9BtlH8HilsE6LEc5bRU2jhxO3xxx+X++KQ1FsMz5K6aribbdNsunoOL4/jOs0EW5pCX3XVVflxner1mgnhUTsbNcDVC0ExfV6b1dgpuuSSS3JTaSxqjEev1yWacEeP34HHH1ZqgMvLT1GLTgAOLA9Bu8QyDHT+Mq/FctHUm+bf1JAPN8OztMSFF16YW6Fo5fLYY/Nz55SSeovhWVJXDWd4JhDGZZkIshF0A4+pYb7zzjtz+Ky+XkV47TdM4/4nzZBMqbsONNNloxphvVQ3fFU5THmfc5QJvkst0yDE8gbuU1vN+loRDM/SErQ8ocUI+H3HNkajU3y2/F3k76Ok3mJ4ltRVwxmeQ+yccNtXakJnhNPytQineSe2WcLHH32Uh41hYjjEc6EcBuX9cpqffPJxX611dRoox0OMG8/XvZ4fN58rl2Mw0x8OhmdpiYsuuqhfeGYbE9sEjV6cEmR4lnqP4VlSVw1neK6Gw1ZhMd82Xsu3jcdRUIbNwH2eL5VTjdfLcepqnmO65XCffrpkfrFMKIcr74P7ZQ14lFjG8rnAa9X3UF3m4WJ4lpYow/OK+D1qeMVnbHiWepPhWVJXdSM8c54YnWZhuHY23antHMOztEQZnkeKVtu76vM8rhu2fL58vXq/fFx3MC+G6Ru2+XocDOx7vgfZbFvqTRtssIHhWVL3dCM87zpp13Tffffl+72+A7UyMjxLS4zE8FziqgIHHXRgvgpBq+1s3fNsm6sYjisAxCX0SjENroYQfVe0MpTt/eOPP54vXzjSGJ6l3mR4ltRV3QjPXB/znnvuyfdjBy03eR7CDpVWHMOztMRIDs9cBeB73/te+q3f+q18vXzQKeJzzz2XHnnkkTRnzpzc+SDbXnru57J9XLc+LteHhx56KF+aiUv14d5770233npr7ryRcfj7EAdDuS7+97///XzZQaZBp4Zcm/7hhx/OgZpleLsxHj766ON000035emB5YploGUSVzVgGX/wgx/kywLy+khieJZ6k+FZUld1IzxzjWN6zA7UQgylJkIrluFZWmIkh2fCLNeTp58JLvEHQu2aa62Ztt9++7T22munHXfcMYfWn/70p2mrrbbKz40dOzZfSo9L7PE3gHMEd9hhh/zcCSecmA477LB8ucBvfOMbab/99kvf+ta3cqCm5/HPfOYz6cADD0xHHnlkWnXVVfO6+cIX/jFfm5958JggftJJJ6X1118vD8P1/J9++um02mqrpX322Sd95zvfSeecc06u4f7sZz+bttxyyxzWRxLDs9SbDM+Suqob4bnaYZjBubcYnqUlRlp4Lren1NgSYh944IG83aWWeeHrr6e11lorzZ49O73/3nv5Pteq5vbqq6/O4xGGZ8yYkTbaaKMcbLHxxhunyy67LB133HE5HPP8v/zLv6SFbyxMBx90UDr88MNz7fJ6jUD87LPPphNPPDGPAw6YnnLKybmGmvlQ4/yjH/0o3XjjDWnKlCl5uIcefDDXMv/yl/fneW+33Xb5En/0kRG15iOJ4VnqTYZnSV3VrfAcNc+xo2eA7h2GZ2mJkVrzTC0xTbbXX3/9dFAj3P7VX/1VuuGGG9Lbb7+dw+zdd9+dhyO4nnLKKWmLLbbITazBeIRhxo3OHcePn5BOPfWUHIKpxb7iiivy34dFi95PBxxwQDriiCPSggUL0hpr/DTNnz+/MeypuVab69uPG7dduvTSmfl0HeZNCP/85z+fa7Q5jYdaaHqvjl5wCc/UjBPC11lnndy8fKQxPEu9yd62JXXVcNQ8q7cYnqUlRkp45gBkFFCb/IUvfCE3sT766KPTd7/73bzTuHDhwnxe8lFHHZVrgGnWTSdgP/7xj3Mt9a3z5uVhafJN+GU4aowJ0hz05PG+++6bAzDB9t1GSN97771zoCbsfrcRvOc1psE8t9lmm3yuMgH9/PPPz+F8rbXWzCGaptiEeZZz5syZ+fzmNdZYIzffPvvss/PrnJtNU27CNOdAjySGZ6k30aKGbVWnGZ4lZYZnVRmepSVGang+9thj0yGHHJLvg20uy0kHYNT+7rzzzrn54iWXXJJ74iYc/+xnO6b11l03B1q8+OJLaYcdd8hNraP5Nr/9s846K5/jfEgjMNMpGecnMw4BlyBN6Kbm+YQTTsg1z9Ri00ycgLz//vvncQjnhGXmSydhL734Yn6Npt+EamqyGTeadXdjZ3d5GJ6l3mR4ltRVhmdVGZ6lJUZSeG516b/y8csvv5x3Hql1Dq+99lpab7310qxZs5rPDP5Umk8/LS5pVTPOYKdTa3nG7TLDs9SbDM+SusrwrCrDs7TESDrnOcIzytBa3qcZNU2jOScaXCaQGuOnnnqq7zkwTp4elxEsHpeqj+vkeTfnH8O3WrZPPv54UNMcCQzPUm8yPEvqKsOzqgzP0hIjMTxHCdz/uBFMy+dK5fPV4bgfj5k+r4cy6JbDleOD4cplK8XjmFbclsNWxxkJDM9SbzI8S+oqw7OqDM/dRU1fXYBA3f0YtpXqNNRZdeF5edZ3J8ZtNY3BPj/QMgz02vLo1/y7oVvz6RQ6UTM8S72F7QodJ5bhuVPbGsOzpMzwrCrDc/fwR7ysoetXmq/HcDS1jdtWYnh1z8UXX5w730JZe7os654DJ4zn5zbyleHZz0vqDfxWDc+SusrwrCrDc+fxxzsCV9lsNh5/TFCuBDPOD43hWimnE9qNo6Epa54/aazb/Nk0P6uhYDw+5xjXz2lkis+F61IbnqXewm/V8CypqwzPqjI8dx5/vOMPePmHPJ6PGsl4rlR9XIrx1T1coonLM2nl8swzz+RLfknqHfw9NDxL6irDs6oMz50VAZcax6h1fOihB3Oz0Kp4/Y033kg33njj4Gs4mzsHTz75ZLrtttvyfXUGn8OXv/zlNGHChFzGjx/fd39Zy8SJE3PpxLQsnS98Nlwje+zYsc1vgaReYHiW1HWjJTwvy8ax1Tid2tD2KsNz51WbYD/22GO5UON85513pltvvTVfYiiG4VJD1HbOazx/77335ufw/PPPp9mzZ6f58+fnx6+88koO2EyHa/kSnh944IH01ltv5UsTca3fV199NQ9L8/Cbb745Pfroozmca3CuvPLKtM4666Srr766Y2WPPfZI3/ve92pfs6zYctVVV+XbE044IY0ZM6b5LZDUC/gbaniW1FXDGZ6fe+65dOSRR6Z99tknl1NOOSW99957zVeXePDBB/tt+AZS1swRHggHixYtaj6zGBvO2HgSIAgfhAfGjVKqPh6sdhvoe+65J7388ssd25B3i+G5s/L3r/KduuzSS3NHVDfecEPaequt0laNQkiL78bLL72Udtxxx7T77run1VdfPe/ME6h/9rOf5Voxdur53U475pgcwvltHXHEEXkaZ511VjrttNNyrdn666+fttlmmxymzz333LTmmmvmcQ866MAR/z0cKfgt7Lnnns1HnXH99dfn35lGLg5ExTnPknoDf9eq4blTDM+SsuEMz5w7SBA488wzc+EI/8KFC9O7776bXydIE2r32muvfNQf77//fnr44YfT22+/nR9TO/fCCy+kRx55JA8fQZdgcfnll+fA8eGHH+bxHnrooX41bARXlmvLLbfMryECxIIFC/JzsSxM46VGgGEHit6OH3/88X7T4nlq9kAgf6exfAQkgnsUavxiOVlummgSmEY6w3Nn8R2L72l83y655JIcZk8++eS8rvkuPVf8see7t8MOO+TvOs2GDznkkPT666/nGmqeO+igg9KsWdel888/P4dlDghNnz49v37SSSfl3w+PMWnSpPw8v6v3Gt/vefPmpf3227/fedZqrRvXef7FL36RD4Ro5OLvouFZ6i2GZ0ldN5zhecaMGem4445rPlqMEMrOPjVjBEtqZKJ27JVG2D366KPzBe9/ttPPchhlfF77yU9+kg7Yf/8ccqmVW2uttdJ2222bdmsEBWqgjznmmDwel5jhMU1VGW+LLbZIm2yySQ7bgaatDMs5boQUgjdNZqnho7nmfvvtlwM3wfydd97JYWbVVVdNa6+9dh6X0B1hnwMEHBQ4/YzT87xWW221tO++++b5f/3rX88BZqQzPHce4bkMqqzf8847L3/X+E7QMdHtt93WF7KfWbAgfxc5CENrCn4j7AzwHaRGme/f7bffnpt0H3744en444/PzbUJyQTyU089NX9POWgzdcqUdN1116X9G78XHvObYxwO+qg9w/PKyfAs9R7Ds6SuG87wfMUVV+QAyeuUM844Iz9PTRiB7dJLL82PqTG75ZZbck0y5wZS48aO5mWXXZYOOOCAXNtGIOa1p596Ku2666QcHB555OF04IEH5vEJJIxHeJ45c2YO00yfWmACSJwzCjpuonabUMF4TzVuCSiEFjpfounsW2+9mSZPnpyHZb7cPvHEE41575quueaaHPLZaFObyPs8ZMohueksYZvh2ZATcDi/daQzPHcW34sIzxGgWb+E3BtuuCF/7/iu8R2N8PzsM8/kUxv4vs6aNSt/vy644IJ8IIdWGHyveZ5WERz04ffE/Tlz5uQDTHzXCMyEb77T/D6YHr+1PJ3J+y0V6FXP8LxyMjxLvYe/aYZnSV01nOGZmmWaLnPuL4VLgeDNN99M2267bV+wjFBBEP3mN7+Za4U33njj/BzBgABA82rO8bzv3ntzjRodJy1c+EaaNm1argVeZZVV8ngUQsTBBx+ca+owderUXBMcqD1m+uutt16uLWa5jjrqqLzxZV6nn356DjGHHXpouqURcqgR5BxTwgqBmia4UfPMMhPyTzzxxNyUlppx5kdNN+GIgwIjneG58yI4Rzgm5FIzzMEZ/tDTsoEQHTjF4Oyzz8410xyo4TvFc/x+CF183+K7RN8BHKgBNdEcJCKc8Rvk+8dBKg4kcYBo3Lhx+fzdQw4+xPA8SIbnlZPhWeo9hmdJXTec4Zka4/3336/5aDF27glqhE5qjAnSJzWC57XXXpvDMgGZoEwtNM2jeUxoYDiaQ9P7MMGYmjtCMMGAkF6Ox3nHTJv5E2KpVZ4//7E8fwIEtXjUHjPcTjvtlDtgIiBzHjTTJKgwLc4zvf/++3MNHrV+d9xxRw6aLCe109SGcxCAJrM0s+U9UPNHbSE15Ic2wjfLOdIZnrujG0F1sNOkt2+aiRPYCNA3zZ2bnzc8t9cqPNOihVYsnN5B7T6nnnBqCf05RP8IbHc4+FZVDc/Vz4GDKpw6wrnvQ9Hq8+TAJAdjWmFbx7n0ncKBnjg4CrbzvOfq3xpOueEg0khkeJZ6D9tAKk0Mz5K6ZjjD89w5c/LlWTg/mfOF2YmniTM7pyCoUkvMThY7q9QmE0Q5B5odVHYk2QG8++67c3NomqbShJVA++Mf/zhPjxo4gm6Mx3PsyNExGfep4SMEx44iG1rmt8Yaa+SQy7mgNMdmp5dgTg05QZL5UZv84osv5vlxLjPnQ7MsBOSDG9Ok9ppm3NQ40zSW8095jfHYqWYnmnmMdIbn3hchKm4//uij/F3mfPy7i99mq7ClJerCc+ygsT2hh3O2Hxwco+afbRzbDjpy+8xn/qT2t1RX81x+FmyXf+VXfqVv20jnbkyTjgvZTnKgDtGpIS1k4pJk4CDh3Llzc4sDROsFWtCwDeMAIdsx5sn4dOTIAT+2lRRaKXAwkflwsDKmA1rwRCshxmcnlfDNwURaSjA+pxJwCg3bYoahlQ4HE6PFDy137rzrzvw+ORg5Ehmepd4T22bDs6SuGa7wzAaNWl7C5BuNIEstDbXHPG682Bwq5Z0s0LFRoBan7NwopsUtBYRbdtz6NJ5n+jE9UPvBzlwpxuf5mGc53bhfPgd2QstpsXPLewplk9gYl/fA+61Oa6QxPPe+6ver3WO11io8b7311rk2H/xeOFWEGmMOonFg72tf/1o+GFinLjyzzQBBlGaHTGe77bbLz/EancRxwI7Lj63x05/mEMwlztiG0+Hcj370oxx2CcV0jkihmf9rjVDNQUemx/IRlDnV5bvf/W5umUNrmD/90z9NEyZMyIH/p41p05rnn/7pn3KP7xwoZFpsh+kQkeVgGWjhQ6j+6le/mrcZjMelCDmA8Bd/8Rd5WQn8YLvHtHjfhHX6vhi3/bg87cMOOywP01ipi29HCMOz1HvYNttsW1JXDVd4Hki1199yx77V/RA7nKW64aoYj2DNsEsNz3OV6dLsFXXD91uG4vW4FFB1aeqmMZIYnkeH8ntWft/4vo7k799I0yo8c/1sOjCklpaQyu+GGl1C5x/8wR+kz372s33b1ur6LsNz9TUCLKd/UHtMAKWWFtRoE8pBq5pzzjknB3ha2WCDRqDlOZqSx3O02OG0E5qSMw7h+Vvf+lYOsHRCRx8PHDTkVBZa0VA7zHAcaNx+++1zc3TmT+DmSggEZ7YNhOi11l6r7/1ynj3TXneddXOAZ31Q0x04sMl7on8I+n5g2mA4TpHJRth30vAs9R62p4ZnSV01EsJzYKNHKcNo7OjHDmbconqfYWP46i0Wv/5xv+fLwnPgPsphCPgRoEsxXh6ueRvPxy3jxeNeYHge3foO6vDdbH7n1VpdeMa2222bvvKVr+RL3/E6LV1olvwPn/+H3Ekbv6PvfOc7uVVMVV3NM9jOsE2mFpnOET//+c/n4Auei5puxqVzRGqLo2n3pF13zX09bLb5ZrkpOThNhL4hOA2FIM6pJJw2Q40xNb7URtNiZuONN8pNvxmPIP3BokW5HweCN0GbZtjUUn/5y1/OQZoa74MOPig3I6cWmXE5XYUaacI2oby8pj3hmYMNlzSeo1Y7Tl/Zc689l4TnEcbwLPUe/q4ZniV11XCGZ2oz2MGkuTPn6nGfc5E5t5nXloTVxbfsSFZrgGOnv1pbzbi5iXbjtU+aw8TzMU48Rjyuvhb3wePyOZaF+bIjyLLHtGK4xoB904vX4nHfNIr7I5XhufcN9D3j+fhex/dUrbWqed50s01zfwYltns//OEP8zaNGti/+7u/qw2H1fAcnxUh9C//8i9zZ2GcQ0245XxqmkxzbXuWg+01VyGgs60tt9oyh1wuRUaNMrXDjMf4NP8eM2bzXANMj+yEb86XZjqcH805yeuuu256q7EtW2edtXMHaBdffFEOymzjJkyckA497NBGQH4sj8uyEZrpeJEQTphmO/6FL3whT5eOE2mGTXjm7wrrhu06mB5Nv9mu0IScJu7UWjN/mpCPRIZnqfewLTU8S+qq4QzPxx57bJ4fTfe4LBTnyrETRc0NO3olajTqeqkFHdZEs8TY6RyKaiAfLJaRXsE5p4+NM80cwTIsy3KMVIZnaYm68ExrEmpuCZyI3z+BkDAbTa2pNea85erBvmqz7Rg/rjAQ6FuBcMl16QnRdHpIbXP0nE0NL02fqdWd3rxuPjj3mCbdUQNN8GW6dJRIc21whYFoBk5Hi0yDDhzj+vszZszIPWHTrJuOFAnAdAZGJ2m8JzpWBE27Of+a90yTbLBeaKZNuA5szwn5YN3tsusuacohU9KsFueFr2iGZ6n3cEDYDsMkddVwhmd6cy3Pg6OGhFoMsJPFZaY4h5DOZdjR+sqXv5x7iaXZIJeTmjRpUt4gsiPItZMDO570/kqHNEyDGh9qfthxpNaHJov0MrzLLjunp556Ko9DTQnDx/Lw+IXnn89NLNmBfeWVlxs7kr/ITQzZcaaZIzusnN9Hr7LsHPbCNZuXheFZWqJVzfNAGnG43zDVA3ZleGZnL1oAcGCRHvvZNnG+MpfO41ry1DzTIRfNnVkWfqOE3K223iqPw/aN7SPTZFtJYRpMK56L+wzHtOM5zpHmOR4zv5g/tzwXrzMu8+Y5Cvd5jWXhtRiX53ZuDsd0KPm55vTzMrAsebq75nHKnsJHCsOz1HsMz5K6bjjDM00HoyYE1IBEzQ2Xj6LWguaGnMtHDQi1KlwuhdDKziHDcx4gTQaPOPLIPB4IyoxDk0WaInKZqHnzbknf/va306WN6dP0kbA9ZcqUXPtCjck2226TO9dhZ45OcqhZYZmpmdljjz1yDQkd51AjQ80OO6oEbKZFDTQ7rHSQg3Y70r3G8CwtUQ3P/N7bhufG6+zERY1zdfgyPOfTU5qvsy3+xeWX5ybRFIajhpgDinQgRosctoU8T8uXZ597Nl+uj+0kz9FxV4zHNpTbuB+Pr2g+l0sM2yhsm+N5psFjxuF+Oa14Ph5TYvoxfHW4chp104tLWo0khmep9xieJXXdcIdndvwCTQvZ2aOmmJ1TdiJp+kczRS6fQiAG02JYQuyhjRBMje/RRx2VXwtz5szJw9D0kMDLOHSUA5qLc41besVlGEL2Uc3xmT/BmmEefPDBHMSpbeZyL9S20GSRZuKcv0dojiaV9DZrzbM0+pXhuRrweBwlHkcYZieufK1EaIzwHLXOdcNpxTE8S73H8Cyp64YzPHOeMrUOgdpemk3TJJom1XT4RUCl9pmASy0zYZadTHqZpUaYDmxotn1UUfPMeYacC0igpXkgTb4Jy4zPhpQabc5TpqaGQM55fNRCg3E4/45loUb6mWeeyc0LqXmmNpwaH5pxM03OO4zOfxiPGnCMtp1ew7O0RF3Nc4hwXPdcqfq4DM9YErQbt437POa86rKn/jJkU2KcEM+XJXC/HJ/7H3OpvuK5uKXkAwAtpl/ONx7HAYO6Uvc+8mvcVqY1khiepd7D9sXwLKmrhjs8X13UPEcTa1ATzLlvueOb6dNz80TuE6LpnIbwSpjl/D/C7NRDD83jgdDL+6AZNucEUotMbXEEZGqWOU+ZwnMEZDqzYf7UZtP8mukzH17ffMzmueZ5j913zx320GzyuMY0n3lmQW5KTg01BwEI8cg7giNsx295GJ6lJQjPbJvAjhla/d6r24LqcPG4Gp7BaxEs820xr3I6cT+GK5XD1Ylp5Wk3b8tx+l5vlvK5UF0H+XHxeqlvPs3Xq9MayQzPUu9he2R4ltRVwxmeCbVnn3N2384XtbsEX3amuNYoNcV0KoYPP/ggnw9NU2umRaidO3duPrfv+eefTw80Amy5I5Z7qT3yiByEudYqNdZMn9ejOTbNw+O98hzTpHk4Yv6cy8wwXEKL2mpqVDgP+tFHH8k144RmOiejaXiMi3JZep3hWVqC6xXTGgVsu5blt87wedzmtq8uPGtk4QCq4VnqLYZnSV03nOGZ2t2xY8fky52Uqjuig90xHcxwQ93JXUrN+FEjEeF8WXeoRyrDs7QENc/77L1381FncCCQKwNo5GLnm79lknqH4VlS1w1neA4RNCN4RvjkNl4vxeMYJ0oon2Ma1BbHtPL0G48R48SwMVyMF+L1fL/5Opac15cfZjFsDDMaGJ6lJTht44tf/GLuTyEKtcbl48GUcpzVV189feELX+j3umVklU022SRfz19S72BfzvAsqatWVHiO2yiffLI44GKp1wnARbhFDBPPx+3HjdvF01v8OMYPfdNsDlMOG3iuvEWME6VUdoYzGhiepSVoYr3GT3+aT9mgg8PLLr0099LPfZ4bTGH4uIwUhU4RCdDlMJaRUeJzpXNJLk0oqXewP2d4ltRVwxmey4DJ/WpoDRFqA/fjcbwWtcAoX++rdW4+DuWw5W3g8eJpRuheXGOdh+t7rX+ArpbRwvAsLcFvodNNrOmjgd+ZRi46reTvI0bT9l0azQzPkrpuRdQ8d0I3dmYWh+Al4XmwRtuOVbvwPFre71Dex2j7jFWv/JzjPh2GlZeq6oR2HYYx7zi4WN5vpW65W8mnohTTrjPQ/AazPKOBHYZJvYdtEy1GnnvuueYznWN4lpT1anhW9+y+++75OtbgGtzvv/9+vv/222+nDz/8MN9nB7rdTvqK1mr56p6vez/lc3XjVA1mGI188bnT2gTV6zx3QhmemRc7fHm+RSiNVjTxet8wjYLyfjncQAf+mH5uRVMMX86nLIjnwe2S4aMMHMJ7GX8XDc9Sb2GbZHiW1FWGZ1WVNc/77LNPvvQXl+naa6+98iW98HHjcS/uMLPMo3FHX53Fd2S4wnOE1wiiiJDKNzV/Z5uvl9/fuE/J4zdv47U6EZop5XzjuTxM5X4on1s8n+Z8m+OPNoZnqfewPTI8S+oqw7OqJk2alHsYBp/lggUL8v111lkn30ork+GoeS5DbSvxeqvheGbxa4sft1OdTqvptsKwi0P06GR4lnqP4VlS1xmeVUVPwD/+8Y9zDfTffu5zady4cWm//fZLn2vcP/DAA9MxxxyzuEw7Jp100knplFNOydfwPuuss9L555+fm3wTOGbOnJl7rb366qvTrFmzcidJc+bMSTfddFO67bbb8nfk3nvvzd+/hx56KNdwP/nkk+mZZ57Jf/hefPHFfE1wmo7TZPz9995LHyxalGvBo7ZrtNZ6acWoC5AX/fzn3Q3PxXeY0yLOPvvstPPOO6eddtopHXrooX2tPar43fB74XfD76gxkeYrrfFbmjdvXr/Qy/j33Xdf89HiZbjyyivyfPmt8Tt999138+/56KOPTtdee22/ZeK3/NprrzUfjR6GZ6n3GJ4ldZ3hWVU0z2bHnh38r33ta+mII45IZ5xxRr7W7amnnpqmT5+eb086+aR0wgknpOOOOy4de+yxecf6yCOPTIcffnje6Z8yZUo66KCD0gEHHJAmT56c9t133xzM6bmYYE4gISBwTdUddtghTZgwIW233XZp2223TVtvvXXaYost0pixY/J3lD+GXHN1/fXXT+uuu26+v+mmm+bvGsNttdVWaZtttknbjdsuTZg4IS8/AWS33SalPXbfI78n5r///vvnAwAHH3xwmjp1al5WlpnL0vA+eD8nn3xyOu2009KZZ56ZDwicc845+aAATdkvueSSvksOXXHFFfnAwHXXXdd3YIBgcuutt6Y77rgj/wbuueeeHGzofOiBBx5IDz28+CDB/Pnzc2++TzzxRHr66af7Dhg8//zz+aDBSy+9lF599dUcdt5444305ptv5gMIhBjOQf/ggw/6HURQ57A+CYMXXHBBfnxJlzsMKz9D5rvBBhvk7yLfM35HhGnQAuTmm2/O3xHGoW8Cvr8PPvhgeqhRwGvz5t2S3nnnnfx44cKF+cAU30WaaXPgit/QggVP59fBd5Bp5PtPPpG/z1tuuWX+Pt7b+P7y3Sdc04Mtv/E99tgj92TL95DvLt/7cxu/kdH2PTQ8S73H8Cyp6wzPqiLYXnnllfn+xs1LPrBjvOZaa+Xnhopx+YPGzjuF0EftFgGQsmjRorwjTnnvvfdyQGTnn7BIoZaL8EiIJAwQKgmY/HFk552dfwIpIYGASmC988470+23357D7Ny5c9ONN96YQwFhl9DLtVzpRZla8nPPPTeHZA4KEJqpTT/++ONzoCZYH3bYYX0HAqiB5zxwAgTN2wnoBP/tt98+h3dCB4UwzwEAnuNgAAcFqMEft/24NH78+Fw4WDBx4sQ8PgcQCFMUDihQmDahbdddd83z4nMhMFGYPwchOCiQy9575eXiAAGFgxUsa1lYft4HgYsQ1Hew4KST88GQM6afkQ8UnHfeeY31MiOvHwJc9SDB7NmzcwjjIAHr+e677+47OPDII4/kgwLUiBL2+O688MIL6ZVXXsmfHZ9jHADgezBS8b0iLIKg2+3wTAHric+edQXCMp8X6zYOKvFde7LxnWf5OHDE95eDOqxnviubbbZ5/pw5AMP3ZMzmY9Iqq6ySDwbNmDEjfelLX8qfYeC3ftFFP88Bmm0339W1Gr91DujQqoTfGdP/53/+5/w74TfBZ8xv5bzzz8u/YYbjuVKvh2nDs9R7DM+Sus7wrCpCGs2ucURjR5mdcAIPNbbR27aGhj/orDsODnBAgAMB1CpzIID1yx96wuZTTz2VDwZQM83BAH6b1FwTUOOAwC233JJr+zggcP311zdC7bXpqquuSpf/4vIcdgm91JJTc0oYLg8KEJY5MEBLAZreE6KPOuqoxS0Gjjg8HyigRn7KlENy7Xy0HKDGPg4cUAjsBDOCfLQiIOwTCDkYwEEBDg5wkICDBttut20+kLDV1lvlwJdbFYwZk1sPbLLJJn2FbQcHHwiKhESmw4GFxa0IdutrQbDffpPzch1yyCF5mWkdwfvhffEeCXO0liAwUnO7+IDAhX0HBAivrDPO7eeAAAdYCKqsW9Y1w3HqAoHw6Mb62XXSpOYn2RlleI6DS+C7sd5666XVVlsth2PWB98Bvhs0j6ZmmYMm999/Xw60fP6EX94fnzOfE8Oy3gnKrK9ols3nx0EN1lXMDxxIOuusM/PzfKc4cMVnR+sJDrAQjqkR57vyQmP+fC/43OMAG5gX45Zojt7LDM9S7zE8S+o6w7OqCCnsDCNqB9nBj2bCged6vXZJ7fEZR6uBaDFAa4FoJVBtHcBBAcIWBwaoSeW8dVoKEPzYoaE2mhIHCwh0hNT5zdYD991/f95+EN6o3SbUcrCAoMj5ttSCc04uTecJkHxXCY/RgoDz72l6HwcJaEHAAQJCNmGbg0BxIIAgSm1thP5oFUDneH/xF3+RA/6/fvWrebhOahWeWW8cZKCPANYJ6w3UPHNQgYMNa6yxRnrssfn5PRNgaRnAfd7zd77znbz95cADtcu8Z6ZJywAOLtAygHVAzX9gfFoecDDil7+8Pz9HaGYZWHf87lkOxnu68Xmx3gjPrPv4/XM+NAchMFq2C4ZnqfcYniV1neFZVYTnuFRViJ3huGRO3B+purUDXzfdeK4b89OKQciM4NTtZtuI39Li8Lx1bn1QIvwTfnmdWmFqkjlQQOsCQiy1zhxU4IABBzJ4jpYKHCjgIAa16TTlfvjhh3Pw5SBHoJadWnrObeYABC0daLbN6Q/U4nOQhNYR1GrTIoKaZ5bv0KlT+7bzHMCgKX9gG9HrvwfDs9R7DM+Suq4b4Znml+y4qTeV4Tl2gstwyHPUQkaIHm5D2SmvG5bn6nbueTzYadeN2ymdnFZpKO+vlW4t20hDOKXJOAiX3QzPeZ021+ubjVBL82lq5vHpp4t/Y9TIU+tMU3lC9KONEEtTcx7THH3Wddfl2mSa2RN8OU+awEuzfc6f5mAAtdO0CuD3ffU1V+fpghrqa6+5JjfXjib3hHVaDNDsnVpvXiOgP/f88zm0Mx2Wie0E96mpZniMlu+I4VnqPYZnSV3XjfDMjmZMc2XZ2R5N+tU8Nz6/akheWT5Tv7srLwInTcrR7fCc1XzX4vtXfg8H850cTEds8ZtuNz1qmGnSTZP8Vi67/PJ8/jhG02/G8Cz1HsOzpK7rRnjmnMFozldXw6eRra7ZtrSyovO8rofnEYptNzXYNN0uldt1ask5D360MTxLvYdWcXS2aHiW1DXdCM80L6w22zZA9w7Ds7TEyhqe2WaX223Oy45zs3l+tB8YNTxLvcfwLKnruhGe6TAswnPeAWvucKk3GJ6lJVbm8IwIyXFbBuYI1KNxG294lnqP4VlS1w1LeK7scGlkMzxLS6zMzbYJzCi341E+/vijHJo/aeysNp7Iw40mhmep9xieJXVdt8MzYmdLvcHwLC2xModnlNtu7pc10H3FmmdJI4DhWVLXdSI8s/NUGup1nmP82BEbzP0oudZjkGIaKO+rP8OztEQnw3Nsdy677LK+S2H1mtpt5yjcnhqepd7D1QbsbVtSV9WF51deeSUdceQReYdxp512yrUkuOmmm9INN9yQ77/22mvp4IMPTg8//HB+XHYewzTrwvPTTz+dDjjggLRzY5pMu921oJe1NmOgYLxgwYK87IFrlM6cObPvGqVg40t4fOyxx5rPrFwMz9ISnQjPbJNyaW7Trr/++nxNZo1chmep9xieJXVdXXi+7bbb0he/+MV02mmnpeOPPz6tssoqOSTvtddeadKkSfmyJT/5yU/St7/97fTiiy/mnULCc5wf16rmmUD2la98JV144YVp//33T6uttlp64YUX0ocffpjuuOOO9Mgjj+ThXnvt1XydVbzzzjv5UilvvPFGevXVV9ODDzyQ5/n888+ne+65J4+LRYsW5WkQjvH+++/n4Z588sn00EMP5efuvvvu9NOf/jRdftllfcvKdK+88sr0WmPaIDDz/n/wgx+kyy+/PD+3sjE8S0t0Mjx/0ii49tpr0z57753va2QyPEu9x/AsqevqwvMtt9yS1l133b5guuqqq6YTTjghHXnkkWmPPfZIO++8c349Am4EUXYO0So8z5x5Sdpqqy2bj1JaffXV03XXXZfOP//8PM73v//9dMUVV6SzzjozTZgwIU+PeR5w4AFp6tQpacyYMbkm/Ktf/WoOeF/72tfS0Ucfnd599938+hprrJHfz6OPPppubwTgL3/5y2m//fZL3/jGN3JNz4wLLkh/8id/kvbZZ5/0QSNs4+mnnmos01b59uqrr87hnnMROWAwa9asPMzKxvAsLdGR8NzYRubS3EZeeumlaeIOO+T7GpkMz1LvMTxL6rpWNc8/+tGP0u23355uvvnmHGoJ1Mcee2z6wz/8w/S7v/u7aeutt24OvVjZbLtVeOY8vzXXXDPX7rLzSO31gw8+mKd9+umn59ruXXfdNYdfarWZBrXThFqae1Pr/f77i3Kw5bmrrroqbbjhhjnkrtIY/v7778/BeK+9987T/D//5/+kZ555Jh1zzDE59HOf4amNDvMb82JDS630FltskU499dRca80Bg2uuuaY51MrF8Cwt0Y0Ow9gW9kqHYSsrw7PUewzPkrquLjzfe++96fOf/3yuGV5rrbVyzTA4x/lfv/avObjy+hlnnJGfD3E+HzXEdeGZsPvXf/3Xudaa5tNMh6bYa625Vg7Phx9+eNp9993zxo8QTeAliHNeMjXIhx12WK5lXm+99dKtt96am1tvs802efn+/M//PPewyPuZfub0XNP89a9/Pb311lvpqKOOSrtO2jWH9rXXXruveTgebzzHhpbpMS+mCaYV91c2hmdpiU6FZw4uxgHGwfa2HcPXGei1UM5zWZXjx/3lnWYvqAvPK8P7VmfwXfH7MvwMz5K6ri48U9tMzTPnFZd22323tPseu+f7x0w7Jn3uc5/LnYCBPxLR83WrmucZM2akDTbYIG/cwn333Zd++KMfpnvvuzeH7qjR5rzoP/iDP8ihGXvuuWc+T/rNN99MP/7xj9ONN96YO/oi5BJ811lnnRz6Cbz33nNvuvGGG9IXvvCF9OYbb6YpU6fkHdXHH388rbrqjxM16vFHjSBNbTjrYPvtt08Txo9PDz/0UG4SbniW1I2a57rwXO5ox/2lbj9Z0rcEz5XjROufKB83H7NdjuHiFjEdcL98XA6Xp9WcRjmd8vFoEuuBv01leOa9lusYix/3X3e9qluf5/JOs278oSzrUIbtpDzf+L6Mgu9HrzA8S+q6uvDMTgM7i3S4VTrppJPSiSeemO9HDfDFF1+cHyNCcavwzHRp+l118sknpzFjx6Rx48b1vf7ss8/mWmqCPAjK0YEXNdC8TsilSTZmz56dNtlkk9ypGcvBhpNm3qCG+7zzzsv3DzzwwLTvvvvm+6DzM86r5pbm2uMb4TmGsbdtScMRntvtYPft/DduI8BxS6hd/HT/cMDjMvDGtBknSjlODBfK+1VMN+bbZ4DhexWnAVVrnlFdT33rslG4HWjdjUSdWN5W73ugaffaelJvMDxL6rq68BwGcw3lvOPQKCWmWQ3P9JpNzTE1yIRaAlrc0jybnVOCL03BOTeZWuAddtghh2mGozk3w0Vzbh7Hc0xj7733ztPgOebBc9zuuusuaY/d98j34zWGYzox3RieaTA9OkRjWSKYr2xYF4ZnabFuh+cIs6CTRg708RtknpzOUqcuaLON5fJ/XHmgHYIL8+Lyg5w6E+hvIg5YciUEWubwOtthTo8hUEZwpsPIvJ0nONUsT6+KUMfBXg4EV/F3MT6vUjwXPaovr6GE0aEE0aEMO1oRsN57//3cko3vN1f04IA8/aFw0JyrizzwwAP5ih60VKMPlTlz5uT+VegLhd/vJZdckv9O8ns988wz82+VCoZjjzs2d2TKQX5OdaP1HPsbdFjquu8+w7OkrqsLz+WOEPdjg99yw994vnytruaZHTo6yaGmuizsmPJHiML9m+bOzec402SaP2jsDPIHKobllmHLaUShdjru0+w77l/UGJ9pVOcVr/PahTNm9L0et/a2LYntQTfDM2L7SSBdf/3184E7tk0MQyeGgR16WtwEWsywjSQAcEm+TTfdNN3fCH146qmn0t2NnX+24QQ7WhKxrefyfPjggw9yMCBA8DqvsdN/yCGH5IB87rnnpnvuvjsHAzpTPOKII/paBrFt5rQeLmdIyBxN4rOYP39+PvWHgwb8TQrl6wQn/k7EAQVu64L1aMD7IpjwvaGVFq3P6FOE7xPrJ0IoB10Iolw2ku8gp0uxrjgQQwehfM/4ztBJZ3RK2hdMr746X3HjsssX7ytwqhfrP8LpKaecki+fOW3atNyXCQGV7ysdiubOQvfaK//94gD4jjvumMZtPy6fCrblVlvm/RI6DKXPFVrNcZ/fC6eLjR07Ng+33Xbb5QP3EydOzOMzHQ6yc1Cdg+sEYSoBuEb7lClT0qGHHppbrvF75bfBVUlOPuXkvJws79lnn53OOeecXClA56evvfZac22qWwzPkrquLjyXOMrOxogdhmqpiudadRim3mB4lpYYzvBMCGHHnRACbtl5f+WVV3KHi1wFYL311k2zrpuV3muEF8Ir/T7QeoYd9H/6p3/KBympOSOE0+nj2WedlWvU2C5vu+22fVcbIHizw09t81mNYfhbQKggEBB0CCwE6y233DJ3HHnBBRfk4Z5qjM+pLcyDMMRw/I0YLeKzYB1897vfzaGJdcD7pHYf9K9B8KJGkdcIc3V/E5cXYZyg+vbbb+cDKwRUDoLQOovPkVDKQRNaBEQYjVpSOs2klvTKRhjl6hZs0/kMCXPTp0/PAY+wx7LTWSdhcEojiB580MH58yWQEhQnT56c9t13n0Y43TuHU75r0fqLvxWsA34fBE0uJcn3mlZjXG6S06AIo5ySte122+aAyqUhWWd8H7dohlZeJ6wyLfpVYZ0zf5aJgMxBHb6r1OwSSvkecuCC98SBbgI3107nPc+dOzevA9YFnxMHnPgsn3jiiRzoX3j++bweX28EWdYp4Z/CgQDWM58xBwbiVC4OFtBKgxIHR5bls+Z9l1f6UHcYniV1HTtM/OEdSPyhGOwfDI7wUhsSFv+x6X80vtW0Bvt83+PG7WCXq99wQxhvZcMOETX3JdeVVlbDEZ4DNVNc/zn6W2DHnaafBCOCC0GXThpZHkLDcccdl4ejdo/tOLVyBF5q5WiJw7aXQMPvmbBDQAjvNIICtckMx7QJBoQRwsq1jdBF4AKhnXByxx235yBPoIrOJAkfhBrmOVrEto4DAxyA4D0S1gjLHLxgXf3gBz9I8+bNy8Oxjulvg9pIPhNqGzmQwYEN+giJWlIOSiyuJd0/7d0IonTAucuuu+TQSNDkyhHUgDIfpsffUR4TNAmY22y7Ta4ZHT+emtEJOaDyHSK0lqchsXyET2piCb58XoRhvkfMf+rUqXlZCMx8/iwby0gwpZUDwZpWBwTtiy6+KH8P+L4SxAmn9C9COOWSlhwkpxaZdRUBle8nwYUDP4RUvhsEUlqfRQ39yobgzWfMgQ51l+FZUte1q3leFmV4ZkckinoDO2BR85yb7S/jkXZpNOh2eOa3RQADYYOdbMIwqBFj3gQVwg+hlQBCKCLkRgeOYFyC0XPPPpvDEFchALV3DEftHbVpgdo1hqMmj1AFwhDBj+B0+eWX5ecIhITveY3ARA0hIZEaTxDGCfDRFHw0iG0dtYR/+Zd/mf+esU0kOP/qr/5qvkwjpexQc/vtx+Vae5rvsk45iBG1pIRpaklZh6xLWgZwQIJmylw1gmbLfL533HFHrikliHKQhAMoEUapaaYp9HPPP5fn+/LLL+fPm4MtrHsCKrWmUWMataV8V9x2r3h8DhzkKCsV1B2GZ0ldl8+Ru7+z56yxsxHNtvnDHUW9gR3FqHmOz65TneBIvabb4bkMOIShLbYYm3eyCaYEL86z5D41itdee0264YYbcrPZ6667LgdqghTT4zFNXTnnlLBMgKNpNTvthDZqG6PZMQhZjE9tIreENc7fZH40++WcU/y8sS2gqS/DUZtKLThhm6BGcCM8E9xGG2ryqfVlZ5zmzTQz5soQNK1nfbCDThNh1tlmm206KteBOoPfN83d+b6ouwzPkromdtY223Sz9MyCBfl+p9D8bGW9zNNoQDM/OmlBhOeyEzlpZdL1mudGyVc2aPzOOMdyp51+ljsXWnvttXMzXcIxaB675pprpI0aO4aEYmoWaWK7xhpr5MDLcJxyQRNjQjhNfX/4wx/m2k12JBmW6Qfun3HG9By258yZna/BT9DmkoB09ERQZEeUThypJb3nnrvzuqCWnINrNEGl6TL34+/JaELt/5e+9KW8I842kVrgQBNkmjbTJJ7XVuS5rHXrPrbbpXiu1fPqLg5scdlMdZfhWVLXsZGhppidrk6Vv/qrv8rnalFTwmPOxaoOYxm5hR3G+CMftWI23dbKajjOeY4AE78xgjFNb0M8z++RUmLYUrzOOOxI1ilruwPDls9R80wtd1UMQ7NhOp2iWfFoEu+Pc3i/9rWv5WbUpVaXcGS86jotDfQaquPXTa/uuVYGO5yGBy0/aAGi7jI8S+q6+Y/NT5fMnJlrDyic67o8hR1Ngteaa66Zdtl119phLCO78PnRJBN5B2wIO2zSaNP1mufGbyvOeR6K5flNMr9249OsOzoGQ3UZaQJOrfVoE61sqOmn2XboO5DIemux7vpelyroc4Dm/uouw7OknkVPnnSCIkm9hPBTBsXhqHnWyENHmnSoKXUCHchxKoS6i5Y49FZveJY0YpVH2d984418HVHOnfuHf/iH9O1VVskbMXpvlaReUdYg0hrD8LzyMTyrk+hsb9q0Y5qPlrClQmcZniX1FJrL0KkK54pxuRWuGcklN7jeY+MvRHMoSRqZaKr8yMOP5A6hgjXPKyfDszqJDubiknAlw3NnGZ4l9RT+CNCD67vvvJP23nvvNHPmzLwhy53W+AdC0gj36COPpO233z5fGgo037bmeeVkeFYn0QEfl6tSdxmeJY1oZdNGcM1PrhvNpVP+9m//Nv3rv/5rvtzKySed1BxCkkaue+65J4dnerqeduy03GHWtdde2/HwzOWgJk6c2HykkcjwrE666qqr/M0PA8OzpBGvDM/cZ6eT2ud99tkn167wONc8S9IIx3WLd9xxxzRnzpzcfwOOOuqojoTnshMyLgF14IEH5vvVg5BVttlZMQzP6qS5c+fmA3NhoN+8lp3hWVJP4o/C/vvvn6677rrmM5I0ssTOa7kTyw7uRhttlHbYYYdcU3Tsscemv//7v0977LFHc4hlx3wiQLNt5AAjymsucxvDUcpli9fimutR1B2GZ3XSHXfckSZMnNB8tIS/4c4yPEvqSewM7rfffumaa65pPiNJI0sE2XLn9eabb06f/exn0/rrr593wI488sg0ffr0tPvuuzeH6IzLLrss13CHCMp9pblsWeNxuaxlUfcYntVJXDecZtu0zCv5O+4sw7OknmR4ljSS1e2wLly4MF1wwQXp3/27f5fWW2+9dO+99+bnL7300o6d8xzzZZrRYVgE53wbIZkSzzVuo+TXms/Ha+oOw7M66eGHH84HzNjOqHs4VXDjjTfO/VV0muFZUtcYniWNdBE8X3311TR58uQ0bty49K1vfSttvfXWeQcsdKq37TIA0x9EWfMcz7PtrENQLlUfq/MMz+okLuPJAbMXX3yx+Yy6wZpnST3J8CypV+y0007poIMOSk899VQ6++yzcxPtt99+u/nq4kvMdLrmmfDMfEM8T2g/+eSTc5Cn0Gy8XxPuAjvht912W/OROs3wrE569tln084775yefvrp5jPqBsOzpJ5EeN53333tMEzSiPbyyy+nMWPGpNdee635TMo7uJz7HC666KKOX6qqGp4Dy7HhhhumM888M/fIzXVhjzvuuByuqW2ePXt2Lu+++2665JJLcriL5ol0dkZv4eoMw7M66ZVXXsnbkUceeSQ/jgNm6iwOQBKebbYtqacYniWNdOy8EkLHjx+fZs2alZ+797778o7Xk08+mR+jU822S4TnOOe5RHimp++oNXn99ddzTfiCBQvSueeemy+fxbX0zzrrrHT88cfna+nff//9+VrUW2yxRdp8883z+dQ2615+hmd10htvvJG3I9GXguG5OwzPknqS4VlSr7jwwgvTKqusks91/ulPf5pmzJiRn48A2slm22Gg8DxhwoQ0f/78/JieeTkFZv6jj+beeul0iHEPO+ywdNddd+UQTQdEhOrrGgGaU2UI0WWzcy0bw7M66b333kuTJk3yVIsuMzxL6kmGZ0kjWdT6fPTRR+noo49ORxxxRLr99tuX7HA1Xo9zjYe75pnL2dC5EKitomOxxx9/PJ1zzjl5p3CdddbJ52hz3dhTTjklvfjCC7l3Wcp2222XDj/88LyjruVjeFYncTCO8Dx7zuzmM+oGw7OknkR4pvdaw7OkkezGG2/M4fSll15qPrMYO7pR8zzc4ZlzsDl/mQ6GaJpNLfOzzzyTm3M/8MADuVk2ByepwSJEs5N4xBGH5/O0qZ2mprx6LVkNneFZnbbbbrvZkWqXGZ4l9aQIz3EeoSStSHXnF9LcmVBMkA0xHME57nerw7C68Lxo0aK0zz77pLXWWiutu+66uVOxaIJNzTPXnyZQX3TRz9OCBU/nQH3rrbfmoE3NM+PcdNNNeRus5WN4VieU2x76L+Dgl7rH8CypJ9EUkpqR66+/vvmMJK0Y7LzWhWLCKEE1ammjprlqOMOzRg7DszqN/aJzzj67+Ujd8MGiRnje1PAsqccYniWNJBGY4/axxx7L5wfffffd+XHjhb7XqgzPKyfDszpt6tSp+Tru6h7Ds6SeRHimRsfwLGlFIxRHicdHHnlkOvbYY/Nj5Brpola6ZHheORme1Wlcs52i7jE8S+pJEZ5vuOGG5jOStGJUA/G8efPytZ05TzjkcG2zbRUMz+q06dOn5wN36h7Ds6SeZHiWNJJEgH7v3XfTrrvumnukBs+3Otc5GJ5XToZnddoFF1yQDj300OYjdYPhWVJPIjzvvffe+TIwkrSiRXgmCHO5mHcbIXqwDM8rJ8OzOu3yyy9PBx544FKtYdQ5XLFg0003NTxL6i0RnmfPnt18RpJWjNhRfeaZZ9KECRPSvFtuyY8Hy/C8cjI8q9O4fCedqX744YfNZ9RphmdJPcnwLGkkKGt4pk2blo444oghXwPZ8LxyMjyr02655Za055579l0eT51neJbUkwzPkkaSe+6+O22zzTbp8ccfbz4zeIbnlZPhWZ12zz335G3JUE4b0dAYniX1JMOzpJGCWh6aSp577rnNZ4bG8LxyMjyr0x599NE0ceLE9NZbbzWf6d86RsvP8CypJxmeJY0UdNJD+F24cGF+PNSdVcPzysnwrE6j34Vx48al119/vfmMOs3wLKkn0RnGXnvtlebMmdN8RpK6qy4Uv/jii2nixAnpxhsXH8hjmJEWnuuWJ56Ly2jF47rlZxgK53LXTUvLxvCsTnv11VfTlltumW/VHYZnST3J8CxpRShDJk455ZQ0ZcqUvE36ZBnD5XDVPC/LsjFOBOyPP/qo32MtH8OzOo1znTfZZJP0wgsvNJ9RpxmeJfUkw7OkFaEMjg8++GBuIvnII4/kxzlYfvrJkEPqcIRnlomaY3b4fv7zn6dLLrkkzZw5M98+9tj8NH/+/JbLbY1zdxie1Q0bbbRReuKJJ5qP1GmGZ0k9yfAsaUWIEEm/CwceeGA6/fTT82MsDqiLa2eHEjaHs9n2o42gP3ny5PStb30rff/7308HHXRQuvXWW9Ptt9/eN1xc5oYDBbzP0gcffNC8p+VleFY3bLHFFun+++9vPlKnGZ4l9STDs6QV6brrrks77rhjevnll5vPLKndHUpwxnCF53K5zjjjjHTBBRfk+88++2yujb7xxhvTIYccksaOHZu3rwTrddZZJ9ews809+uij009/+tN05JFHeh3ZDjA8qxt22GGHfEAsDHV7pIEZniX1pAjPc+fObT4jSd1T7oDSq/bPfrZjuvbaa5vPLLasO6ndDs/R1Jzli2U89thj8/naoJZq6tSpOUwzznPPPZfGjBmTZs2alZ8jaF9zzTXpsMMOy7347rzzzjloa/kYntUNe+yxR7/fp+G5swzPknoS4XnPPfdMN910U/MZSeqs8vzmT4v7Z511Vtp7n7071oR5uDoMK02bNi2deuqp+f5DDz2Ua5NZjnPOOSc/d/DBB+cQzeUAzz///DR9+vT0zW98I2288cZp9dVXT1dffXUeTsvO8Kxu2H///dOVV17ZfKROo9WN4VlSzzE8SxoOZW0tHn300TRhwoR033335cedqNVZEeH5mGOO6at5fuCBB9IRRxyRm26fe+65uen5vvvum5588sl03bXXprPPPjtdfPHF6fDDD0+vvfZa3jF//PHH87hadoZndcOhhx6aLrzwwuYjdZrhWVJPMjxL6qYIzdXwzI7pCSec0K8menmtiPDMe6A2GZzTfNRRR6VLL700zZgxI29fOfd5wdNPpxtvuCEHapqqH3DA/mnzzTdP2267bVqwYEEeV8vO8KxuoFVJtCBBJw7waQnDs6SeZHiW1E1laI5bOigkOMY1VHm+E9c8XhHh+Z133snXhOUgwIcffJDeeuut9N577+XneU9vvPFG3s6+v2hRfg5vvLEw3Xnnnfm8Zy0/w7O6gRYl0aoEhufOMjxL6kmGZ0nDIXY8CZeTJk1Kl112WX7M870antvtTNe93m4cDZ3hWd1ArfNRRx3dfKROMzxL6kl01LP77runW265pfmMJHUPzZnp4Z/a2k5bETXPy8IA3VmGZ3UDfRdw2kXwd9tZhmdJPSnC87x585rPSFLnsMMZO51PPfVUGjduXLrtttvy407rlfCszjI8qxv47U+ePLn5SJ1meJbUkwzPkropB+dmeKYnajrU4rlONNOuMjyvnAzP6oYbbrih49sTLWF4ltSTDM+SuqWsdaaDrPHjx/frXZoAHa/H7fIwPK+cDM/qhnnzbk3bbLNN85E6zfAsqScZniV1G71P0zEh5xCiDMxROsHwvHIyPKsb7r//vjR27NjmI3Wa4VlSTzI8S+q2mTNn5lBLT9uhU4G5ZHheORme1Q2PP/542nrrrfNVSdR5hmdJPWnRokVpt91261oHPpJWLtWaZHaMJkyYMCyXwzM8r5wMz+qGp59+Ondw+Oabb+bH3TjgtzIzPEvqSYZnSZ0QHYBFeP60+fj444/Pl3v5+OOPc6mG604yPK+cDM/qBkId/TS8+OKLzWfUSYZnST3J8CypEwjEZYDGPffck7bffvv02GOP5ccRnA3P6iTDs7rh5ZdfTjvuuGO+xJ46z/AsqScZniV1ShmOP/roo7TPPvuks88+u/lq/4DdDYbnlZPhWd2wcOHCvD15+OGH8+NubrtWRoZnST3J8CypE6I2OW6vuOKKtMMOO6RXX301P6YZdwTrbjE8r5wMz+oGOjicNGlSuvvuu5vPqJMMz5J6EuGZPw6333578xlJWjYRjF955ZUcOK+//vr8eLh0OzxXwz9XK3jttdfy+y17Es8aw5XXsW6nXa1WPvjQvK/+DM/qhrjE3i233JIfd/PA38qI9cvv9oUXXmg+0zmGZ0ldE+H5jjvuaD4jSUMXNcs444wz0gEHHJDD5XAalprn5ntkx2+77bZNq666alpnnXVyuWnu3EHtYNcOM5gd88EMsxIyPKsbOPVk8uTJw34QcGXBNnTzzTc3PEvqLYZnSZ0QgfCRRx7J10Yl0Ay34QjPUUP86muvNsLzdumZZ57Jj++66658jjfXhKUWeo899kj77bdfevONN/K6YTo0Yz/xxBPz8PTgyzX2991331x7jUsvvTQPE5f1YpqnnHJK2nnnndONN96Yn9PSDM/qFg4C8ttV5xmeJfUkw7OkTiE4HnzwwenUU0/NjwdTC9tJw9JsuxmeCbxbbbVVmjFjRj7t5YILLkjHHnts3qYed9xx6ayzzkonn3xyOumkk/I5k4Rgmn/utNNOac6cOfn56dOnp5///Ofp5ptvbkzjtjRhwvj83MSJE9PDDz+U9tprr7TFFlvk6RDUI2SrP8OzuoXtGb9RdZ7hWVJPMjxL6pTZs2fnmlMu8YLRGJ6j5pna5Y022ihtsskmabXVVkvf+c538s7g22+/nZtwU/NMTTSh7o033kgXXnhhOuqoo9LGG2+c1xPTpeaZkE3z9jPPPDM3dwe10zNmLA7jdLzGfKdMmdJXy63+DM/qFn53/DbVeYZnST3J8CypE958880cXAl7K0q3w3PuAKwZnqNTNC5nw/N0LHTnnXemd95+J22zzTa5Zplaaca/7LLL8rDUYBGeaYJNyL7mmmvSoYcemoc555xzcu00CNnnn39+3mmnCTdB/ZBDDknPPfdcfl39GZ7VLYcddlhuSaLOMzxL6kmE51133TXv9ElSO9SCfvzxx321ylETS/jbe++98+VHVpThqHkO1K6PHTs2PfTQQ/kxTa+3H799eumll/K1radOnZIOP/zwHIJnzpyZttxyy3TxxRfn5tcsJ+vr+OOPT0cccUS64YYb0n333ZfGjRuX9ttv/7Tjjjum+fPn59evu+66XHNNx0VR85xDfGNZyuXplFbTjeeGPN9i+CGNNwSGZ3XLCSec0PgtT20+UicZniX1JMOzpKGI8FQGoSeeeCJtu+22fddDjUDdrbDUSrfDM+K9c5DglkZgfmPhwvyY90zQfaURqumll9qqY445JtdMg3OZ2RG/5557cvDm2qZTp0zJzzM8OCeaZqIPPPBAfkwwZzjOJb/33nvTu+++2zf/OIBB6YSYTnkb93lv1TJYTKMcvpxupxie1S0cCDvo4IOaj9RJbM8Mz5J6juFZ0lBVw8+RRx6Zw+InnywORkMJV53U9WbbLQJrJ8JgNAcP5TTjftyyfsv7ncI0q9OL5/Lzjfs8ri7rQGL4WF6ULRc6wfCsbqG1CD1uq/MMz5J6kuFZ0lCVwefmm25KE8aPT88++2x+zGsRtjoZkAZjOJpt172neM+lGLZ8vrpO4nEUlLeUuhrmeFyWThko2C7rfHif5XpgOuXj5WV4Vrfw+99v8n4d/Y1pMcOzpJ5keJY0VBF86PRqt912y+f0gh3MCEaEsE4GpMEYjmbbjTeYb2hq/cyCBemdd97pe9+cm8xBBN571hw2xA44w9EJWLl+uN9yfTXHo7k3TePZ6UTMtxOY9quvvtp8tFgsE5fIouk4lmd+/L3hvXdqmYPhWd1CfwRcMo4e8dVZhmdJPYmdGXY277rrruYzktRaGXwIq/TWT4gO8Tq3nQ5J7QzLOc/NgEvP19/97ndzr9qBy1Nxmap3332v+Uw9etUe6PI3deuN+U499NB8negXX3yx+Wzn8DcgOj8rsYN74IEHduQyWYRcLr/Vd3ChQwzP6pZbb701X1IuDlipcwzPknoSnd7svPPOuRMbSSoNFH4JUxMnTsw7lyPFsITn5johPG+66abp4IMPzttRam2phWedUEtLGN1ggw3yJaw4uEANLj1vs7NI52pcxoraLHooX3vttXNnYYjaZzoaY6d9rbXWSvfdd2+e3he/9KV01JFH5tfBwc/TTjstz4fgzjhXXXVVOvroo9OGG26YOzBjB5VhuOY0l9Dic+M9cC4n86W3b8IsnyPzuPTSS/Myr7nmmvmSWrRK+ru/+7s8TVoYcGmtMWPG5MtucU1vOjhjetRO04qJ614/+uij+b1xvWrW3djG8ARzeh//+7//+3Tbbbc130FnGJ7VLXTUxwFCLsWnzjI8S+pJhmdJrQwUnqdNm5aOaIShlk2NV4BhabbdRPNsLh9FZ0LsYM9rhF9qVQmTBFS2q9dff33uTI3nH3nkkXyZKgIq49CLLzXQBNK7GgGV0P366683p57SySefnMfjWtBcworxCedc9zk89dRTeToEd4Lp1VdfnQ466KAcyAmoe+65R962r7PuOumiRthl/TDNxx57LC8LgX2//fbLQf7cc8/NgXrChAm5Nv2SSy7JgXzBggU5FPMe4zWmw4EDxqcm/P7778/zv/LKK/um+fTTT6cf/OAH+RrX0fM4vZNHyO8kw7O6hUvG8R3nuu7qLMOzpJ5keJY0WBGmCYDbbrtNDkgYKGQPp+EMzwRXamHPO++8XFt7+umn58B59FFHpdtvvz2fJwlC7+TJ++bpHDttWn6OGmGGHz9+fFp//fVzTTQ1zLE+qQmm9vfBBx/Mjw855JA8zWOPnZZrdQMHLgjPhOtVV101XXHFFbm2d968efl1gjLhdf/998+131xGi+DOcNQkY/bs2fl9XHDBBenyyy/P4Z9aYsIC17flutW8/uSTT+blePjhh3OgiPGParxfrnG90UYb5fdCKN94443z5bYI0ZzjfNfdd+fa7/vvuy8fdIlLc3WK4VndwsEjWlh041SJlZ3hWVJPMjxLGowIyGwzqNkkNIaVMTwTdKnlJUgSggnLhE7CJ7W01FaxXgiy++67T66RZXgQeAmTPD7nnHNyzS3LTidiYDyCZ4Tgn+24Y57mkUce0e+85FmzZuWm3YRsdvBzQG8EbGqgwWsE9R0b41Pb+2Aj0O7ReI5liXBPrTO1xhdeeGGuBT/ssMNyQKdZ+pRGWGbHlvdEiCBM834Jq4RnmmYzPMGeWnHeA8vJcnBwgbDNfHkfvF9eO/744/N8O8nwrG6hI70JE5ZcTUCdY3iW1JMMz5IGQpCLAmoyy3MA4/mRYLjD87777pubWlPTSvNszvvlwAKBkabKBLoxYzbPYZVtLYF1iy22SFtvvXVe1vvuuy8v7/bbb59rhMuO1+bedFMelvOZOS+ZHU3Or6ZGNxC6qfEl3LId5zxkwinjjR07Nt+n5pj7NLlmPnPmzMnLx2fI85wHTSDmYAjNtgnIBHTCAh2FMSzNtmliHjXPzJdl4pxrDgCwTJwfvfMuO+dacGqXCd+55rkZnmnu/fjjj+cO1TznWb2C3yStKWh5oc4yPEvqSe+9917aqbFjyE6cJJUiGMftSy++mGtBCWAjUbfDc6wHmksTHAmYNEGmSScHEz5u3KeGFnQaxvnK5WUACbI0jX7iiSf6gjKXnuK5MjgHXmP+cZkcAinb7BLDULvMtAnvNLE+44wz8jQJ7JwPzTphOmXnboRihiE4g+E4EMCOLOMxz9ipffLJJ3Lt9vPPP5/nT+E9sx4YJpZp3q3zcpNwxgfDs35yk/FXXsn3qaXuRM/dJcOzuoVTKLbaaqt+p0uoMwzPknqS4VlSHYJitVaZ2kNqGjtxzd9uGI7wXH3P5eOB1kfda3XTGmgag3Httdfm0BoI9YTk0czwrG6id3lb53We4VlSTzI8SxpIhDkCCs1+owaGWsflDXqdNlzheaAexst1EsNTqMGKdVYtofp4KOrGrT4eaLl7meFZ3USz7blzl/Ryr84wPEvqSYZnSQP59NNPcnNbapzp9ClEMKsLbSvKcIXnKIRROsaiyTTn84Z2IbVcX9ynyXQ0ZY7pDlVepmY4z48b9yOs58e83iyjjeFZ3UT/ALToUGcZniX1JMOzpDpl0KL3ZnpsJuSFkRjEuh2e8cnHHzfvpdyUk96y6RCL+dJbdqwXSlyS6aMPP+zrSTvQnDrODSY408FYXOe5DL2DlefZHC+X5vMxrZhe3I4mhmd1Ex0D0lGiOsvwLKknGZ41UpQ7+Bp+1fUf9wnM9OR87TXX5MdVI+kz63Z4zjXCzfdLh1onn3xyrnmePn16+vu///t8TviZZ56ZX6dHaWqreG33PXZPa665Zu7RmubbdPBFr9P0uh3XdmY+dLa1rPLnUPNZ1H2mo43hWd3AwShMmXJIvpSbOsvwLKknEZ7ZMS6vHSpp5UOwiubCZcii5+Z99tknvd/YVox0w9FsO9ApF9c6Zp3REzWXcaIGmVuacROa2a5y6aoTTjghP0cN1s0335wvG8UO4/nnn9937WcC4KmnntpXW63BMzyrm4455pi+g2LqHMOzpJ7ExovOMLicCjtt9KL74QcfLL61WFZQWfT++6O2lqwXxLqnc7Dx48f3TMuU4Wi2HbjeMdc6BuH5oAMPzNvQSy65JNdSsbNNs2yu/xzrj53wCy64IH3zm99MG264Ya595rrK4JxpzinngGbjA8jPaXAMz+qG2A5yUItWJeosw7OknkTTQ2pB2IDttddeac8997RYVkjh+7fHHnvk20m77ppr5KImVMODncXYYeR2ypQpudY0xGsj1XCGZ665TM0z6+TBBx5IBx5wQH7+/vvvS+uuu27f5aGobZ45c2Z6552306677pJuuOGGtNtuu+Waa0Ifj/FAYxrspHPwSENjeFY3nXvuufm3rs4yPEvqWc8++2w+B+/GG29Ms2fPzrcWy3AWvndz5szJQYLHnCv67W9/e6lOltQ9ZXAGnweXpnrxxRfz43i9HGakGY5m23FAZ9GiRbmTL0I054WPHTs2zZ07N9c+c0CSQIdDDz00bbrppmnVVX+ca6Q5YDljxoxc87zhRhumWbNm5eGuueaadOmll+b7GhrDs7qJ1iQcSFRnGZ4l9aSRvCOsldv666/f1/uwuq/cFtAT9K677tqvh1k6uhrp24vhPOcZ9LJN82yC9GuvvZZD9MUXX5xD9aJFi3vSpgUFwbi8lBV4TPAGtdDHHntsevnll/Njt8tDY3hWN/H7nTx5cvOROsXwLGlUcKdNK1J8/whqNH01PA+fvO6b65+OrGhKz85NLyG47rzTTs1Hi/G+hrpdK8dp1Wwb1DLT3DrWE9/bq666Ki1o9qANLme1cOHC5qN61O7Pnz+/+ag7hroOesn9999veFbX0KKEaz2rs9555500ZsyYvtZNnWR4liStVGgaS2dKhufhx6WXxo0blzsR7DW55nnnnZuPlu16yQTg8lx7wvNOlUDeK3gf5XsZbeKzLWueR/NBAq0YbAt32GGH5iN1CuHZmmdJkjogwjNNYdV9ETg+adwefvjhuYfoXlQ22/6k2cx8WcJUGTq59vKOPbrjXK4D3k/cjhbx2Rqe1U30pr/llls2H6lTDM+SJHVIX3h+9dXmM+qmCBy33npr7iTs6aLZcS+hQy56a+8kOk6jF3iNXFxfe+ONN24+kjqL7eFGG280qg48jQSGZ0mSOoSdlPXWXTd3wKThQadXnOdMAEUv7ihy1YBvfOMbuWdcyiGHHNJ3fyjl4IMPzoX79Ir9xS9+calheqVwLeqjjjoqr4sodcP1cuGADzvhUjfQkd9mm2+Ww546x/AsSVKHGJ6HH5djoYftuDxYLzZ/fe+993L4P/744/P1qZenxDS49jI9aldf75Wy3nrrpdVWW632tV4v8RmdfPLJuWkt31mbbatT4rtE3xtbbbVVX2/46gzDsyRJHUJ45lJVr776SvMZdUoEjDJosPMyceLEdPPNN+fHiNfU27h2+rRpxzYfSRoqLt03bvtxuTNFdU6EZ3vbliRpOUV4fuUVw3OnRSguwzM1eDR//eCDD/Jjg/Pocdttt+UWBfQiLmnwYjtIyONydQ899FB+rM4wPEuS1CERnm0m13kRmmPH8N57782XpnriiSfyY4Pz6EJnWltssUV66603m89IGor3338/7bbbbumuu+5qPqNOMDxLktQhfeH5pZeaz6gTIjSzfvHhhx+myZMnp7POOis/DrxuiB4d2PHfaqst0yOPPNJ8RtJQ0CKHHvdvuumm5jPqBMOzJEkdksPzeusZnjsswnME46uuuirtuOOOaeHChflx+XoMo95HL+o33nhj85GkoeCUh/322y9de+21zWfUCYZnSZI6JGqeXzI8dw3nk3MeHx1KIcKyoXn0Ofzww9PPf/7z5iNJQ8E2kUu8zZw5s/mMOsHwLElShxCeN9hgg678UdVip512WjrggAP6OgnT6MVnffTRRzcfSRqqww47LJ1//vnNR+qEt99+O40ZM8bwLEnS8jI8dxfnv2677baeB7uSuPLKK9POO+/cfCRpqKZNm5YPQqlzDM+SJHUI4XnDDTe02XYXfPTRR+mggw5KJ510Ut+5zTbVHt1++ctfpvHjx+fOwyQN3YknnpiOOeaY5iN1guFZkqQOifD8wgsvNJ9Rp9x4ww1p4oQJfdfQZl1rdIqDIs8++2w+v51bSYNTHlSk1pnzntU5hmdJkjrE8Nwdb731Vm6+SzNejX6x8//mm2+mSZMm5Wt6Sxq8iM+c70yv9eocw7MkSR1CeN54443T888/33xGy6LaJJvrOe+5xx5p0aJFzWf6165odOL3tPvuu6dZs2Y1n5E0FJdffnnabffdmo/UCYZnSZI6xPDcGQTjaJb9xBNPpO233z7df999+XGE5mrA1uhEk9NTTz21+UjSUFx33XW59YY6x/AsSVKHEPg22WQTw/NyKAPxxx9/nK/1e9xxx+V1G4HZ0LzyoNnpoYce2nwkaSjmzp2bdt1117wtVWcYniVJ6hDD8/Irw/FNN92UJkyYkJ577rn8OL9WhGiNfjfeeGOaPHly+vDDD5vPSBqsO+64I4fnd999t/mMlpfhWZKkDiHQ0Ww7wp6GLkLxO++8k3bZZZd02WWX5ccRmD/5+GOD80ogPmMuV0VnceywShoafj9sRxcuXNh8RsvL8CxJUoeww0949tI6y+/CCy9Mu+22Ww7RpWi+rdEtPmMuTbbVVlvZg720DB599NF88Omll15qPqPlZXiWJKlDotm24XnwyiAc91l/EydOTPPmzcuPDcsrn/jM+U1tvfXWufmppKFZsGBBDs/PPPNM8xktL8OzJEkdwg7/ZpttZngeAtZZNRxPmzYtdxT20Ucf5ceG5/+fvf8OkuvI8nvxfU//vIin95M2QtK8ld6uViY0uyuttJqddTOjMdqdjdkZjqN3A4IEHbz3hvCecAQIS3hHgAAIbwgQBOFBeEt4D4IEQMIRHsxffU7f08guVAPtu6rr+4m4XTfz5nXVt27mN8/Jk/lH/D/v2bNnWLRoUZLS8yBESfniiy9Cy5Ytw+HDh5McUV4knoUQQogKgkZ9nTp11MtfCvjOfIFt27aFxo0bh+PHj1taQin/8P+5f44ePTpMnDjR1mPi50YIcT+XLl8y8bx3794kR5QXiWchhBCigqAhL/FcctKFz7Vr10KXLl3Cu+++a2mJo/wl/r/PmTMn9O/fP0kJIUrKzRs3Q4uWLcK27duSHFFeJJ6FEEKICsLFM+PMxMNJF8YL5s8vEhnWxXN6OVHDSfufM1ctU5alPwd6LoR4OPx2Nm3alKREeZF4FkIIISoIghsx5tldjkXJOX/+vLkXfvzxx0mOyFvSxPPRo0dD/fr1wsVouh0JZyFKRpMmTcLHqwreq/670e+n7Fy+fFniWQghhKgIEM+vvPKKxHMJoPEWN+BGjhwZ+vTpUxgkTOQ38bPx5ZdfhlatWtm0O0KI0tG6desiAfdA4rnsSDwLIYQQFQQNEipViefSQTCbpk2bhoMHD1paDbv8hv9//Axcv349dO7cOaxfv97Sej6EeDDxb6R79+5h9uzZSUqUF4lnIYQQooKgwUKleuzYsSRHPIybN2+GHj16hEmTJkkUiYzwXPTq1TO8//6cJKcgD08PIcT9xO9Sgu1NnTo1SYnyIvEshBBCVBASz6Vn+fLl5pLLmGchIFMnyvDhw8OQIUOSlBCipPDbGT9+fJIS5UXiWQghhKggJJ5LB2NZCRK2YsWKJCczmcSUqNmk/88XLlwYunXrViSfdT0bQtxP/NuYMGFCGDVqlK2L8iPxLIQQQlQQNFZee+01iw4s7uENubhBBzTqevbsGW7cuJHkCJGZzZs3hw4dOoSrV69aOn6OhBDFM2PGDHltVCASz0IIIUQFQYP+9ddfl3hOg+/Fx6e66CE4GEHCdu7cZWmJIfEgDh8+HNq1axc+//zzJEfPjBAlYf78+aFfv35JSpQXiWchhBCigpB4Lh6+Gxc7d+/cscYcroQSQKIkXLlyJTRu3DgcOnQoyZF4FqIkMCyGiNv6vVQMEs9CCCFEBUHjBPF85MiRJEc4ccNtzZo1ZnU+c+aMpdnmixDF0axZs7Bq1aokJYQoCevWrbMhD4pOXzFIPAshhBAVBOKPMc+4mIp7xKL44sWL5n67YMECS9OgY5F4Fg9j0KBB4d13301SRZ8rIUQB6b+L7du3W2DG27dvJzmiPEg8CyGEEBUEjRYszxLPRYmF8cyZM0OXLl0KAz9BvF2I4mCu2hEjRiSpgo4XIURR/F3qn/v377chD8ypL8qPxLMQQghRQdBYqVevnsRzBN+Ji5wTJ06Y6+3WrVstLURp+OCDD0KvXr2SlDpdhCgJJ0+etE7d69evJzmiPFy6dMk8zCSehRBCiHIi8Vw8fDcDBgywKVNkMRRlAffTBg0aSDALUQounD8fatWqZUH3RPmReBZCCCEqCBPP9esViQgsCvjkk0/M6owVBCSARGn54osvzF0ynq5KCPFgsDi/8MIL9vsR5UfiWQghhKgg3PLMHMbiHoxvfuONN8Ls2bMtzfck8SxKy40bN0Lbtm3NAi2EKBm3bt0yt+1jx44lOaI8SDwLIYQQFYTEc2bmzp0b2rdvL7dBUS5w9+/Ro0dYvnx5kiOEKA4fHkOU7SZNmoR9+/ZZWpQPiWchhBCigkA8169fPxw4cCDJyV/csvzZZ5/ZnM4b1q+3NMjqLMrKW0PfsqjbQogH4+9ZRHTr1q3D5s2bLS3Kh4vnyhg+IvEshBAi78h38UyDzRttfI4cOTK82b9/kTlGFTBMlJWJkyaG3r17JykhxMPgPcywmdWrVyc5ojxIPAshhBAVCNGA81U800hDGLt43rlzpwUJO3LkiKUd3y5EaVm1apVZ0e7cuZPkCCEeBlO8LVu2LEmJ8iDxLIQQQlQgWJ7379+fpPKLuylBE4+z69atW5g8aZKlAdHsixBlYe/evRY07KuvvkpyhBAP48033wzvv/9+khLlQeJZCCGEqEDyWTyDi+fFS5aEVq1aWUMDXFj7dgloURZOnz4d2rRpE44fP57kCCEexrBhwwpjBfi7V+/gsiHxLIQQQlQguG3ns3gG5hNt2bJlWLlyZZKjhpqoGK5du5YSz63Djh2arkqIkjJmzJgwduzYJCXKg8SzEEIIUUEgEBs2ahg+/fTTJKfmk0kUjx8/3sbY3bx5M8kRouLo0KFDWLBgQZISQjyMiRMnmvXZUWdm2UE8M2+2xLMQQghRAeSTeI5dsL0xdujQIZtT1L8DNdJERTN8+NthzJjRSUoI8TBmzJhh455F+ZF4FkIIISoQxPO+ffuSVM0mXRgTJKxnz55h9OhRlkZcSzyLimbu3Llh0KBBSUoI8TDmzptr01WJ8iPxLIQQQlQgjRo1ygvxnEkUM8a5RYsW4dy5c5YmSJjEs6go/Flas2aNCQFNVyVEyVi6dKnFoRDlR+JZCCGEqEDyRTwDUsYFDVMHMYXQ4sWLLW1IOIsKxJ81AvI1bNjQgocJIR7OunXrbDiNKD8Sz0IIIUQF0rhxY5uLtiaDiPHFmTJlSujSpUu4fv26pb9hWipZBkUFwxN3+fLl8OqrrxaZrir9eRRC3GPbtm2hWbNm+o1UABcvXlS0bSGEEKKiQDzv2bMnSdVMXKh4Q+zIkSN23zt27LB0akPyoYaaKD2ZAtGlQ8TtDRs22LqeMyEezO7du21IjXduirIj8SyEEEJUIPkgnsEFDkHCCN709ttvF4odrM5CVBSFz1Ukkvv37x/mzZuXpO4RlxFCFHDw4MGUeG4evvzyyyRHlBWJZyGEEKICyRfx7Kxfvz40b948nDp1ytLp4kViRpSFWCzH6857770XJkyYkKTukamsEPnOsWPHQutWrcLZs2eTHFFWJJ6FEEKICiSfxPPXX18LHTt2NCET4+JFU1WJiuTChQth7dq14d133w116tQJ//iP/xgmTpwYFixYkDdzqwtRFk6fPh3atGkTTpw4YWm9l8uOxLMQQghRgRDRlPFl+cCsWe+lxHOHcPXq1SSnALf+qYEmysutW7fCxx9/bA3/1159zcY69+rVKwwdOjQMHz489OvbN3Tt2i00Tf3uXnv9tTBixAhZ14RIg+kD+Q0RqV6UD4lnIYQQoiJIhGKzZk2LWJ5zXUjG1x7fw8mTJy1668aNG5McIUpP/EzFzxps3rw51K9f36alYnwzgemKC3h07osvwtZtW0OfPn3C7373OxPWmTp1hMhHiFDfvn37wqCO6b81UXIQz5qqSgghhCgj6Q0QeqR37txp695AiZdcI75mvwfcsbH8DRkyxCyDQpSV+HfhnwShw7r8/PPPh0WLFlleaWAKq27dupmI3rJlS5Jb9FkWIp+g0wnxvGnTpiRHlJWvvvpK4lkIIYQoL0QxZZ7jH/zgB6FWrVph165dyZZ75Grjnev26Nqwffv20LRpUwtC40iYiPLgz9eNGzdsHD0W588++8zyHkT83KU/g9OmTQtPPPGEjZMWIp/h98WQB4ZAiPIh8SyEEEKUkzu3b5u7aOvWra2Hf9WqVSagz5w5Y9tp1OequEy/du7vjTfeMGHi+PZcvUdRvfhzc/PmTbOO8XwVPlMEnWN5wLPFNhYPUBeXJRr8008/HbZu3ZrkCJGfdHyjY/jggw9sPe4MFaVD4lkIIYQoJ4ytpDKNLWWM0/xo5Upbxw01V0lvZC1cuDC0a9fOxtCBCxYhygLPzp07d2x98ODB4eWXXzbrs2PPVwmeMbYXPouphU/fZ/HixeG3v/1t+OKLLywtRD6CR8f8+fNtXXPxlx2JZyGEEKKc3EqJYyKZjho1ytJE+8Xa5ZFNH9bwzxaKtUYk14/4YE7n2PXP7y0WK0KUhPiZ2bdvn41RZryyEz9b6Xgez6yL7/h4EK8PGDAg9OvXr7CsEPlG586dw/Tp05OUKCsSz0IIIUQ5cMG5d+/e8Oqrr4ZXXnnFAh29//77lu8N+PSGfbbBtd29e6fI9WIx93lB4e233w59+/bNaUu6yC78eWvVqpXN31xS4t8SgrjIs8uSWo/LXLlyJbzwwgth27Ztlv7mm4LfbVxGiJoMHUjvvPNOkhJlBfGsqaqEEEKIMhI3vqlUv/3tb1uk33QKXUqznFh0IJJ79+4dunfvHpYtW2Zuf3GQMCEqAqLTY8lhCpgHUSCQ7xZ2WMX4Mxs/v+lMmDDeongXUODmnelYQtREmAOdKdyc4n4n4sFIPAshhBDlxBshy5cvD//yX/7LULduXbOGxY2TXGio+DXGggIBTTC0//gf/2OoU6eOpqYSFYY/b7hT+5CHB/1O2Obbi6zb3wIsLyoD/jwTEb927dqFjV62xscRoiYzceKE8NZbbyWpe78PUToknoUQQohy4IFXvv76axPNP/zhD8NTTz1lEbfBRXS2N1TSr/HggQNmqbhw4ULYvXu3TR3UokWL0Lhx43AgtU2IioDAczxXGzduTHIeTNyxc/78eXtGEcWQ/hsjfTdtjDPT9eBFAenPvBA1mZkzZ5rrtigfEs9CCCFEOfDG97x582zcJi7Ob775pgkCHxtMgz/bAxV5J0BspaOhRfTjRx55JKxds8by161bJ9dtUWEc2H/A5gwvTgBngmjco0ePtt8Zv7kLKRENJpYjce1pPv24kydPDkOHDrX1kkTxFqKmwEwJeBHpmS8fEs9CCCFygmyv8IlCTXRtGidHjhwJPXv2LLQ+5zL9+/c3a3rv3r3CwUMHk1wBaoSWn02fbAqNmzQu/C5L8p3i4t2iRfMwaNAg84S4fPlSsqWA9GPE6Q8//NAEtxD5xooVK0KPHj0U8LGcIJ4VbVsIIUTW4w3g7du3h7Fjx4YxY8ZkzdKsWbPwV3/1V3Zd3//+9y1gGFG3/9cP/5dtp7FPlNP0/bJpwZKXvo5w/tnPfhZatmwZfv3rX4f/8B//g41PzfZ7qcxl4sSJhfN5l0ToiQezevXq0KhRoyT1cIia/cYbb4SjR46Ea9eumRgoHMOcWJ0f9H/ZtGlTqFe3bpISIn9Yv369/XauX7+e5IiyIPEshBAiq6EhHDeGn3r6KYv6jLDLhgUxiXsz0zjxOWzYMHMnHTJkiAVnYTsLeZn2z5aFa4w/Wdq1axeaNGli94GrKwv3EZfJt+XJJ5+06bqc2E1YlB7mDI/F88M6JK5evWqdUyeOHw83b960aPCxeHY37eJAQNSrVy9JPfx8QtQU6Hhu27atxecQZUfiWQghRNYTC+jnnnvOxjwKUR0sWrQotG/f3tYJRiXxVT4IFNaoccktz4D1v3PnLtZh1aBBg8Lx0vCw/weuq3hSgP53Ip9gWBHPPkH6RNmReBZCCJHV0MCNrXvPP/98OHPmTJLKDuKgRL6QR5Awv/aHWcSymSL3Fd1TPvLuu++GTp062Xou/0+zhYMHD1rAMKK6Pwx/BgvctbubeP7kk0/MGu3bHsa0adPCwIEDk5QQ+cPJkyctRkDc2SRKj8SzEEKInALxfPr06SRV/cSNdsSUC6rilmwk03V5nl13dE/5DuLLxbMoP4xhJjI9IrgkZHoG/Tf34E6dgv0Y8rF06VJbFyKfOHfunE2nyKcoOxLPQgghcgrEswdsykdcIKSLiOLEQ6ZyLPHUWS4+wLfHwZd8gbhsPoLlmaA7ouLo1atXGDduXJLKTFmfOd/vm2/uhkuXLoXf/e53Rd4f+fwsi/yCsc4vvfRSXtefFQHimU6Iz7+QeBZCCJEDSDwXWLczCWW4J3ILxuP6kol00WyfSZ4fP33feJ98ROK54vlk06bQoEF9c8dOp6zPWuF+qU9fx2uAYGOezvdnWeQXPOsvvvhiOHToUJIjyoLEsxBCiJwi38UzDSBfrly+bAGsmCILy92uXbuSUvegHOOUb926FS5c+NKsD0wPdP78+aTEPSib+pOkUiTr7OPj5OzcibDORySeKw573hKI6v7+++8nqaLbyoI99zyryXG+vnrVhANTVQmRryD6du7cmaREWZB4FkIIkVPku3gGFwS7d+8O//N//s/QunXr0KZNm/DII4+EQ4cO2raLFy/aeFJAODO9FPM3I4LnzZtXOF6LMj51CWIDaxzzgBKECTgO05vMmTOn0FJXXmGTy0g8Vxzxc8Q0OrFLaUU8Y7FleeTIkaFzl86FQfzy/TkW+Unz5s1LHF9AZEbiWQghRE4hy/O9Rj+W5qefftoELtSvXz+MHz/OhAiV+6OPPhqmTp0aDhw4EP7zf/7P4R/+4R/CqlWrQvfu3cPx48fDunXrwm9/+9vwm9/8xqYMOn/unAVvwrX1V7/6VVi8eHH48MMPwx/8wR+EX/7ylwWCm3PnseiQeK486OAhGnBFEP9O1qeec57nEydOWDreJkQ+0aFDB6sDRNmReBZCCJFTSDzfa/RjeX7sscdsDBsW5SefejLMnj3b3PJw5/7Hf/zH8MMf/jBcvXIltGrVyly7z579LNSqVSssXbIkvPrqq2HNmjU2by5Wv2NHj4af/vSnYUlqG6K7fv164YsvvggvvPBCmD9/vp3TXLbzWHhIPFcc6QIWj4d69eqFrl27htu3b1uelymJ2KVMejk6kn7+85/bUAWnJMcSoibhzzwdp7zfRdmhrq1br67VjRWNxLMQQogKR27b99i/f3/4y+/8pVmFsR4TtRg3bBpIuFrziYAmD9fuSSmRTIWPaEYc/93f/Z2J7+eee87K79mzx8aF7tu3L3zwwQfh9ddfS4ntsyasFyxYYOfM9yBLEs8Viwtef6ZmzJgRvvOd74T27dubhcdItsXlnDjPgt3RuZNABxLC+YknniicG97Lpx9HiHzgzTffLBJbQJQeiWchhBA5hSzP9xr+O3bsCL945Bdh0yebCl23CQTG2GfcsBF6P/rRj8KVq1ctIBPRhnG9rl27trlkY4FesWKFuW8jjrE88/0ePHjA0q+99prNqf27Wr8rYq3IZ+Eh8VyxxM8S4+z5bnk2sT7XqVPngS6m9luIxLLDMz5w4EAb0sCwg3feeScMGzbMOn5YIJ+fYZG/DB8+3DpOQb+BsiHxLIQQIqfIe8szgiFp9GAprv1i7XDk6BFLA8HB+vfvbxa3X/ziF/Z9Xb582RpNf//3f2+BvxDSBw7sN+sylud/+qd/MisdogO32YMHD9q2Zs2amdW6Xbt2Njb68OHDyVnyF4nnisefZzp8CHznAew+XLEivPzyyzbkABGMF4SL33R4xhm+wHNOpxDjpz//vKBxSz6BkjwavUSDyFeYmYFFlB2JZyGEEDlFvotnogXT+EdEMC4U0eB5DgL62LFjJoYRv2ynLAGTsFBj4XMRQuAw/z4pR3n2v3nzppXjuIxFZV8+8x2J58qjX/9+Ydz4cUmqAJ5HvCDoyGG4AUMRhgwZYpHjsSiPGDHChDKim+EFgwcPCkeO3OtMchAMdCrxjIMEtMhHpkyZYl4YouxIPAshhMgpJJ5TQjlyP3UQA8UJgoz5DxIP0bZ4X18v7jz5gMRzxRE/RydPnjSBnEn4OoxbZvjAmDFjQt++fUOfPn1MSE+fPj1s2bKlUBg78W+Ed0bTpk3D+vXrkhwh8g/GO9PZJMqOxLMQQoicIu/dtqGKxWs+i+V0JJ4rjvi5olHfo0ePYt2yKwIi0fO/u3HjRpIjRH5B51OXrl2SlCgLJp7rSjwLIYTIESSeRXUi8VzxXLt2zaLBL1++PMmpHGj02vjpFSssjXhXx5DIJ1auXBnatG2TpERZkHgWQgiRU0g8i+pE4rniweW6ZcuWhRHjK5OlS5eG1ikBXRXnEiLbIChfgwYNkpQoCxLPQgghcgqJZ1GdSDxXPIMGDbLgX1UBQe/4/2muW5GP7N69O7zy6itJSpQFiWchhBA5BeJZUZ9FdUHk544dOyYpUV6ICM80Unv37k1yKh/mNW/RooU64UTewXSDCD9mVBBlQ+JZCCFETvHss8+apWrcuHGVuowfP94+33vvvTBhwoT7tmvJz4VGE5GeRfnwscZYgOmMqMzGfPq4ZqZhI1L3xIkTkxwh8gOmHGzYsGG4dOlSkiNKi8SzEEKInALx3K5du9CrV69KW3r27GmNa9b/5E/+xMZjppfRkp/LM888Y/MFi/KBoCXqddeuXcMHH3yQ5N4vdCuLnTt3msWb+dAdzu2LEDURpntjyjY8PkTZuHDhQqhXr57EsxBCiOzGG7S/+93vzHJUVdSpU0e99KKQRYsWFbptS2SVDwQsDXlvhFbV9+kC+a233grDhg0ryEumyPJr0P9W1ET4rdEZfPz48SRHlBaJZyGEEFkPDVuf/7WyA4bRaOZc3niuVatWOHLkiK0LEQcMu3PntkRWmSj4zoYPHx5Gjhhh61BV36Wfh/GfjRo1siBK4Pl86v8qaiK4HLdp0yZ8+umnSY4oLRLPQgghshoasXfu3ElSBeL59OnTSapyiBvOWLolnoUzbdq0QvHsz6aEVuk5f/68uU3v2L49yQnWaeWdZJVF+v9q7NixoXfv3oXnZbv+n6KmcuXKldC+ffuwPfrdidIh8SyEECKnQDwzbqsyiRvPnC8eFynyG8Rzp06dktT9YkyUDNzfO3fuHG4kkfP9e6zs7zMWycDYzyZNmtj8t6D/p6jJMFMFv7v169cnOaK0SDwLIYTIKSpaPD/M0oXlOT2o0INge0ka4F4uvXx62smUX5qyomKYPn16EfEsSkb8TPKb69GjR5g7d66lqxsi6hO4zKfAY5hIWX8/lW05F6I83L592571Dz/8MMkRpUXiWQghRE7xsDHPNHoJRISFkKmFmJcXLl++HLZs2VLYQN62bVtYvXq1rXvD3peYdPHscA2zZ8+2Ka2mTp1aWJFmajx//fXX4erVq+HkyZPWaKEBE/OgxvrFixfDtWvXCrfj7so8tdyPQwC1zZs323g2vwfcidWQr3jiMc/5AgHz5s+bVzh9G7+dsuDP8J49e0Ljxo3D2bNnLV3dXEr9xhgHumLFiiSn9CKYe2Mf//15es6cOfa97d+/PykpRPXBc8lsEnh+iLIh8SyEECKneJh4psH6Qu0Xwm9+8xtrJPzwhz8M81INf8Z4/fKXvzTx+fHHH4f/9J/+Uxg5cqTtQ4PCx66yxMTiOW5QM0fsd77zHTvH008/bYGHELmAsPWI4FwrU2vhFkqQFkS9Q7m7yXhujs3CMXzOW8q3atUq7Nu3z9KA4KBDAKEMnIeGOfeGqBaVSz6K52XLloV/+qd/smedhTGTpR3KEP+umDfdo1xnC0uWLLHfKUIa0t8DJYHfr+9HB9moUSNDs2bN7Dvjd7x161bbJkR1wjSMeFuIsiHxLIQQIqd4mHim0frqq68WuoTSUH/88cdtjNfLL78cli5dGn71q19ZpF9wq29xjeVYPFuZpBwWOKb8AAQ54nXHjh0mjl966SVbsLDRSPk3/+bfWOMZEU8DHYHM+X/729+Gdm3bmoheuXKlnatzl87hqaeeCgcOHAgDBw4M3/rWt8KAAQMKg6YhlHG7u3rliu3zs5/9zKb7eeSRR8LWbWqcVzb5KJ7prGFaJ+ftt9+231Fp8N/XV199ZYJy06ZNls4WCKTEWFB/bxT3PngYvh/vG8ZSe3pj6n5nzJhh60JUJ3379g2TJk1KUqK0SDwLIYTIKUoinl977bUwefJkSzO2sn79+mHv3r3hJz/5SfjjP/7j8Gd/9mfh3Llzth1o4MZWo5gibtup7V4Gy3ODBg1sHYsvghyxvHbtWnPT/Iu/+AtrpBAZ/IknnrBts2bNCr/4xS9MeDz33HPh1KmToUOHDlZ+4cKF4b//9/9u50Jojxw10sT4s88+G06cOGHngS2bN9t3cCAlohHoY8aMMcs0lkHc0iHTfYiKIR/FM500dM5gcabzBxdnhiCUFP99wfLly+2Zr8q52h+G/14YxtGiRYsi74bSEL9DZs6cWejZEqPfpqhuBg8enPHZFCVD4lkIIUROURK3bSzP3/ve90x4Up6GPpbcP/3TP7WGP5Zo3KwdGrQsmaYdKm7MMyLqv/7X/xqeeeaZ8L//9/82CzONbgQ1FuOGDRuGQalGCsHNnnzqSbMYY3nm3KNGjQp/8id/YnNII7oRz++//374+c9/bqICC9iA1DFwNef64wBpW1MCmfvbtHFjeOGFF1Jltpnl+ulnni605qmBXnnko3j+4IMPrKOGzh/G+R8/fjzZUnJ4JhmigMtotllg/ffC779Xr17mrVJaOEb8u+MeY2s92DCNpBNBiKokfjbHjB4d+vfvn6REaZF4FkIIkVOUxPKMeza961RuHiBs46aNNg4at9Fdu3aFP/2zPy0SNKW4oF3FiWcE74svvmjClmMCFjrctxmPjAWL+WOxPP/20UfD4cOHTTwjlnENfeyxx8KhQ4dsPCnCGmGC9ZgGfIeOHcxVG0vy008/ZW7hDnmI5k/37QuPpo7LdZw6dcr2/eSTT5JS9zfmRcWQr27bPMsxZXm2Dh44YK7MpbFaVzV4exDM7ETSQVASsRv/1vyTeAV00PHbBN41zCmt36SobhhalP57FiUH8Vy3bl2JZyGEELlBScRzo8aN7rNufbL5ExO7HuEXCzSWaedOar9MDeX7xjwnEGCIQEDpNG/e3NzGEdFvJ0GRmqeENNZkrHZYpGHo0KHhlVdeCW3btrXxlmvWrLE0jBgxIkyZMtmENNeMkHZw4Waf27dumVgmWFn37t3NMnjs+D2Rr0Z65ZCvlmcsssBvhKUsz9ekyZPDm2++Wbh/tjyj8f3wmxs0aJCN64ay3ivwjuAdU7t27dC8WbOs7jQQNR9/jt+f+37h71mUHolnIYQQOcXDxDMwtQ7TQ2FNdnCHxkJM4xiIaP35558XNij49CUmFs/sS2OaiLyjR4+2iMGMfZ44YYK5ek6ZMsVcNRFXQ4YMsQY4Y68ph8Dlk3zKvfPOO6Fjx46WZu5gXLnZl+Ow34jhw+3YNOQZt42FmTTWK4Q3afajEcRCHsckf/78+ffdh6gY8lE837hxw6Zae1hwvQdBBxFj+Tds2GDpbHo+/Vr888iRI2Y1xnoMpb1WyvOeADq7iHdwMfFOyab7FvmFP3vE3KA+0rNYNiSehRBC5BQPE8+xYC6ucRDns+7peN3J5LZN5emilUYI4pZPFsZ0Mp6MT1zjPK9fv372ydKtWzfb5nlEz8aKTYAxyrONJS7nx6ecH5fzxsf160CIi8ohH8VzJtJ/Jw+DoHoEG6NTK9twoRvfEx1ReHzgyQKlvd9MVMQxhCgvDC/CE8qnRBSlQ+JZCCFETvFQ8ZxqoHojlU/cmz0vbiR7mRgCGqXnp7tt496dC2S6P1F+8lk8xy7MpX2+evQs8J5wiosxUB1wHSzx/TG8g7gFpZlSy/dNvy8/PsTnEKI6wPujU6dOWdmRlQtIPAshhMgpSuK2DXFDNl534vwHkWnMc+FnMQ3h9HIx8bb07Q/aDwq3R+sx5MWLqHgQzzQ8Id++45I8V5m28/shFoBPuUYZ78jKFuLr9nWmm8JC50EHH3TvbEvfnin9oGMIUZn4s0dQPLxAGN4kSo/EsxBCiKynYJxyQcWPmI2nbqoMrJGRNDSIbM0YSCEgtjz7GPhcw0RcdN3cR0WKOjt+sgDB+xhWUNLvyvf18vGxqhKi5hOc78MPP7R0dV2HEBUJ0zYSf6Cs85nnO4hnTVUlhBAia6GxWtC4L2hIY3muCvHsjWTE+tGjR21dCIK0uXjGzb+ihWdV4c94gRtxaknyK4L4+8BqS0P9o48+srRve5CQ9mvzpTpZuGCBRea/du1akiNEbuK/JaK+t2zZstLr0ZqKxLMQQojcIKn4a9WqVaVjtZgqyudxFoJI5vnqtl0Wtm/fbgHxykN1iuibN26YiytztAtRE0D0NW3atHAYhSgdEs9CCCGyntjF9NFHH7VpmZgCqrKWSZMmFa7/4Ac/sOmi4u1a8ndp0KCBRUEHE3Q5KKCZNmrWrFmFzzmfTLcWP/dlXTiGL6SZ5/i5554LU6dOvW+7l0lfyCe42LRp08LevXuTq64+1q5da8HD5OYqagKXL18ODRs21HCkMiLxLIQQIqtxq5Nbnn7961+bGygCpjIXnxrqL/7iLyzYUaYyWvJveeqpp+y5gAKX59wTz4zh/cu//MuM91fRC1Or+XRsmbZnWrzsi7Vrhzp16iRXXfX4/5Y54rkPRL0QuYo/zww1qV+vfti/f7+lRemQeBZCCJFT4LZNY7aqePnllxWVVBSyaNGinHfb5h7at2+fpLKXXbt2hfr16yep6mXbtm3WicZ40RiegVx9DkT+8vrrr4ftO7YnKVEa8EAh2nZleKJIPAshhKhwSjpVVUURT1UlRE2Y53nJkiWhWbNmtp4euMvThVZ1xGFqnXRhdPFEMLpojMWj75dpznTLZ/8UhcdPwacHXovz16xZU+3i2a+F62P4xsiRIy0Nvk2IXKNJ0yZh7bq1SUqUBolnIYQQOYXEs6hOapp4hs8//zxMnDgxXL16Ncm5ByLYhHAiemNcCJeYNLH5MPGZDeI55tChQ6Fx48bh008/TXIK7kEiWuQaBMH74IMPkpQoDRLPQgghcgqJZ1Gd1ATxvHTpUguA5RB1t0OHDuHiV1+ZMJw9e7YF5SPfrc4s+/btCx+tXBlGjBhRON6P3+KQIUNMkMP58+fD3Hlz7RzMk0wAsGHDhtk4Qdi5Y0cYnCq/I/UJnO/9998Pb7311n3Rf6tTPMeiOBbHo0aNCn379g23b99OcsrQiSBENRA/x8QUWLBgQZISpUHiWQghRE4h8Syqk5pieWb8roNoJSDWF59/Hlq3bm3zGhNVnHHRd5MGN2KxSZMmNj8s9z9gwACbJ7Z///4mprFkrVu3LqxatSo88sgjYfHixRZgq3fv3ibEFy5caJZbGp09e/Sw8+/cuTN07tzZjsmxCQSIe7STbZZnYL7njh072nhsIXINF9BvvvlmmDlzpq2L0iHxLIQQIqfIFvF85szplBg4mKRCOHXqVKF1raTEloAYBMTp06dtfukVK1bYND9TpkwJH3/8cTh79qyJkOL2hYsXL1bJHJ7p18B1Hz58uDDAWqZrzJSHu/Dx48eTVOXBd3L9+vUkVTZqqnju1auXWZOxSGEN5jnr0qVLuHHjhpXhe+ucum8sxvwHGf87Z86c8Nhjj5kFCwGMUOYZ7devr+3DdqzOuIcyPRafWKkBizSiGvGNEMVKTSA2yjllFc9c67z58+03Ey/+OyrNwj7xfvz/mX6LDgLugTz/fNiS6fzpxy/JwjUwf7YQJcXfuz784u2331b0+DIi8SyEECKnqE7xHAu/cePGhZ/85McmMgDrG66qgBsngjB258Ryd+vWLVtPF3BED3eRAuvXrw/z5s61z5///OcmKhAyM2bMsLk5N2/ebNfC4vtxDD/u6tWrrbyfL75uLGcxX3/99X3Ry+04yfHjbaQp7/g1+PG557Zt24aNGzda2vNTK7bNrwc4rl/LJ598YhbIeDsgxtO/q6/TjgNxmfR74bx+HYg3BJ1TeH2loKaK5x49eoTPPz8bBg4caB0ZdIIghv354n/VOyWwj6Ty+f4R21iumLoLKxYi+KOPPjLx/M47Y2wf/i8IQyzZRPjGGj0y9TuB9957z1y1EddHjx61c2L9jv+XZRXPW7duDX/+539uv4F44RlLz8u4dO1qn14+3o9ptLh3rtXzvPzDFva9Lz917BJfV7LwnTDfvRBlhfprzJiC36koHq/f4rqcoSn8Bn3oitcjZalP0pF4FkIIUeFUt3j2CnLWrNnWgPUGyNixY23+XKzPuLA+99xz1iimd5oyzA1MHpY3c11NNb4ReogUpg3Bgrd5y2YTK4yrpILesGGDzZEbs2fPnjB//nwT1kyjhWhHrL7yyit2fITo4EGDwne/+10TEQ7WwYYNG4ann37axmxevnw5dZx54ZlnnjYBtGXLlrBn7x6zPNIw6NC+vVkXn3jiCXPH5bpocD355JO2P6IUaFT4d0IeQh9x72A9x00Xax33TZp75hycF4FEBGPmHebaAevIhAkTzJX3V7/6lVlIOPb48eNtH66BOUoPpBZcaAnihOUTMcb18n9A4L3zzjtWFrGDRRPh/07qf+H/z7KMVa2J4hnhyveIGzbPKWL2wIEDludils4fOkYQyXyH/fr1C4ePHLFnAcHMs7Fy5UoT0IMHD7aODwQy52IMNdZZnl3+74juVq1bpcqutOPwv+ScuIn7cwVlFc9r164NTVLPRE2FDrsXX3wxSQlRcvxdPW3aNHtfiodDfRQLY+oR3kv+boy3lReJZyGEEBVOtliesQIj8LC6IfpIM94Tl2pEBBVrn5SwQCAQjGnZ0qUmJJinGqGASMH1EosfYhMxjDjBhdUFOeL3l7/8pYkYBCDXsXHjJhObs2bNCs1bNDdRiwveB8uWmas3+yN204MaIXo4Pu7lWAI5N9eJ2J87d6650C5LHYNGAT3qzVu0MNGDtRDrIGWxeuGSzTXPmzfPjst34t8LjQo6DDZt2mRpOHLksFl8uU4aa4x95XvjuJyH7w5XYKycfr3f3P3GhNT06dPtOokMjXUU6yXnR5SNT4k17hNxzFhd7o18hPPAAQPs+0TIU5579/F93NPHqf8TlKXRU9PEMx0IuPkvX77cviuEMC7UPBcMGXArP5ZnnkHunWBjCG1AEDdt2tQs1gjfYykhvj71f+G7xUuCMdQ8/xwTODfCdmnqEzgfHUx0qixPnhOnrOKZ/z0dNeAdJD52uzi8Eyh+ntMp3J7WmPa0L/GxbHvymU5JymSCwG0Sz6I88P6m40o8GP+N+nuEdyXvwb/927+1evDK5cuWX5rf74OQeBZCCFHhVPeYZ68kp06dZg0QxB3WYSzAuEtfT4kMhDEiGWvy2rVrzNqMsN2WEsOjR42yihhBisisXbt2eOaZZ+wT6yniDys2ICw5DuMcEX2Izc2bPwmjR482Ick5ATGOWEBoMO0Q14TV2Ct8wPKHSAauB5FPlOPatV80gT58+HC7fj8m1m8sglikuR7O/73vfc8a7Y8//rjtC7GQcPEcW56//vqqiVfuDysy50AsYVWuU6eOfS979+61hpyL59t3bof+b74Zdu/ebSIOYY2wo4OC4zDeFGv0jtR9uvWE6ycA1fZt28w1mO/nRz/6UXjppZdMYGNpASzwdASUlZomnkva6KMziE4aH6ZgPGDf+NkrK2UVz3hs4M0B8XUUd6/kU47Fy/Abqlevnv3++f3FwxViSvr9AaKX54/fNZ/sa+eOgqSVBIlnUV7oLKOeEg/Gf6P2O029H+hARjxTj7Vt0ya13rOw3qqId57EsxBCiAonW9y2EaMIKcBNFaGGJRSB93ZKGH+eEhlY6BBqbOeaca9GuGLNQ9wiTKmMaUxjpcMqixUWcQxYsrGexuCSisDFcovABQI8IawLxpu+Y2U4ZwzXy/E5N9sQ/gios2c/s+NwPZyPde6R60S8IkTI88YWPe/cE9sgbjDgGo2VfHcUiZgxxtwDlkcskEuWLA4HDx40kc+xOc+2lOAlerODyy9imvs6efKkrfPdNmrUyNzZEcwIevajEwLI47tDuL+VOib3wneL+MaV2KMjcz0unv1/WRpqotu2U9z34aKSRmIsMOk4AfLi5yAukw757BcLRsvLUL484hnhC965Y3NVP+CawO+BzhyeVazq/G6xqiOgGWbBc48XA27qPNO+L59Yzf29wLEoz1ADvDp4jrds2WzPO8Mu/LktCxLPorzw22rXvl2SEiWB4S0vvPBCkgo29Om111+zzmuI34FlReJZCCFEhZMtbts0oHETBoQg1mNEK41rxh4j3LDCIlhxs8bCilgelVqnkU3jGcGMhQuBgDUXd2YqZKyouMBimeY4sfs1QhvhiIs1DXMosCDXtuNgfaUyf/nll+18DteL4OZYHB/hiQjE+ss5EOyIb7d6I9BppHM+BDlCAdHN2GpELALYwaWaY3NfuPAyFpzzI4hxPcf6ixs2IprrxrrOeTkW98h38+qrr5pABhohiAws31g6OQ7iA/dtplBiXDaWZ747vlvg0yzPqTzuDyFPhwDnYR+ul3tH9DCeF/h/xv/TklATxDP/K8blZzv+2ygtsds2lOR/HJfheffgf8Dzzf+c3xXPNus83+kBlxhmgJcE2+m84f2A1wV5/HawVvE74zeAFb+sSDyLsuIdXrzX0zvQSvsuzDcYWkLMEK8/qOt5z1Rke0TiWQghRIVT7eI5aWAwBpTlm28KGiMIRx+vSXmEMa6uuHsihBFubEfUcQQ+vaeaRjkNYgcrL27S7IeYjhs1WI7J92OzjeNgpcUVG2ggMSYVKzHbWSjrAU7Ynzy2Y13jk23xMfnkXFjPKA/k0WDA+hvDOGrGYHN/X1740u4FS29Bj/w39v9CvLK/f0cIY66Zc8Fnqet1Sx73498ZVmi+A6DxglWQ786vz77P6Ho9D8jj/jwqKp0DiG47Z2rxc5eGmiCeEYY//vGPzZXdF58yKc6r7oUOF4YtQGn+V+niuSRwfD8HnS5Yrx2GDNDBxDPN0IpzqeeJjprYu4NnDK8Lf/Z4ZnkHMHyATi6eGcaQI7ix/HunD+fkeS/N/Uk8i9Liz5mDAHTvjBj31BAF8F3E3wf1x2uvvWYd3XziRQJ8t/H3W1YknoUQQlQ41S2e090/SZd2zGLqAMlH0QYNkEb0YRn2aZfi86WTaVucl+kcZcEtFjEcm+XKlctmPS4L6defnn4gSdlM+2S6ZwSPC/SyNhJrgnhG6DFuz6dI4jMbFzwM6Ejif1ma/1VpxTPHjs9BJ4J7lQDR4QkMiBjGC4JnCI8JH+IAPP8+PAHoJEIgd+zQwQL0Yeln+ABW7Vg8Q2mfRYlnUVp4vr3uooORZ5oZEHgX4I5cOGdxantpnsWaDt+FLw4de9/+9rcLO9jYVtp3VHFIPAshhKhwsmHMMwsWURfOXmkWbqehElWmlLX1JA1eNr3STV+Pl5g434+fabmdaijZeuo86fv5UpiflHF8mzW8kuuMywP5TrwtXu7/jooeL/07iLf54rDunRWx6Ciyzj5JOv26wdPxtZeUmiCec43S/p/KZnm+9/wwRADxjvcH1mL+3wheLNAI5PPnz9kQDQS1g9cG7tmIYyzNPCdYomfPmmVDN4g6jhWa8c8EC2McdSHRs1kSJJ5FWcHrhN8Gw4z+w3/4D/aJBRqvHEh/V4p79Z/D0Kb/8//8PwtncKjI70ziWQghRIVTreI5qUBNOEcVqleecQUa53nZTOLUl5i4os5UhvX43Jkg30R12nm9PJ/xvhwPiwQUlmHfpFzhPUT7eR4LFO6XlInL2npS7u7dDOI3+QTf787tggBVdt6k7J07t4vs4+sQr0O8Pf5ksWMmeaWhJoln/y74Fnw9G6BzBJf9sl5TWSzP4M8xMOyB/zNziLuwYJgGYprpaU4cP24COgbrc9MmTSz6Pu7bjPdnnP6706fbeGfcvrFYM1yBgE3xvZXmPiWeRWnx3xJDbKg/6SB6ve7rFq8jKVCqZzBf4DvxOgj4vgga9j/+4n+EJ554woYSVSQSz0IIISqc6hTPTtzI9so1veHhaT7jxYm3O6x7RR1vTy9j5RLra3wt4NutDMdJlhi2xdwTpomoTfb1Y99XPpUuXJJ9i1tiPB0fN31Jz/d06k9Bp0VkIQRfT/8eYuLyTmwNLw010fLM9+BLNpB+LaW9rtKKZ/udlPF8Xra01wjxvqXZX+JZlBZ/xuggRTgzLIi6FG8IgtvxTJXmGcw3/LvBswQvErxKCETJGOiKROJZCCFEhVMV4jluRBCwiLGOQoDctrOfWDz7b5nPmiIOYvEc31NNub98wp7Lu0U7TCsTpvND9GE9/fM//3OLHo3bNoGv/FpEUfw7YVw4UfaZcpIYBnikMGOEB6QsNXzfyeJIPAshhKhwqsry7JZMgqoclXgWCRLP2Q9TnuFuXVPBPZzp34CGtw8jqQrxJWoOBA3ECi1KBnO9+/SQxD4Am7d9wQJbrwgknoUQQlQ4VSWevSHKPLMnT52ydSEknrMfLEPf+9737H/F3Mu+kK4JS79+/cKvf/Uru1e3XPkicgMi//v/059Nojh7XkUvnGPa1KlhxowZFkmeiPI///nPLTAe28lnqWm/lYpccNdmfnbmameObGIZMF1d165dM5Z/2OLftX/fxEOQeBZCCFHhVLXbNgF/Tpw4kaREvkMjR+I5uyGID1Y1rEP8r2raguCZM2dOEcEs8Zw7MI3Zr371q9ChQ4fC/ynPamU+r5mO3717d5uqrjCPMqnPmvq7KevC9+FT5yGUyeO7I480+YyBLu/39hd/8RcSz0IIISqeqrI8O7hta8yzcCSeRTbhw0v8U2Q/THnGFFFCxPyv//W/JJ6FEEJUPJUtntMtOJmibYv8ReI596jJVtn43mrqPdY0Ll++bOL55s2blq6K5zP9HMWds7j84ihJ+ZKWyWbi66usa/3BD34g8SyEEKLiqWrLs8SziJF4FkKUBxfPPq9+LoOQfFCwOt/uS0ZSZSjnUceLLVfDkeVZCCFEpSDxLKoTiWchRHmoSeIZHiScfZuL6ExkmqqruGPWZCSehRBCVAoSz6I6kXgWQpSHfBHPDtttKUY8I5yZbk3iWeJZCCFEJSDxLKoTiWchRHmoaeLZQfAePnw4zJ8/36a9Wr58eaEIvpsSxw/Cy/Gd8P3kIxLPQgghKgWJZ1GdSDwLIcpDTRXPwNSO//AP/2BTN1F3Dhw40KbmAizMHiQtxr+Hr7/+OvTo0SMsWbLE0kD5dHdvhHZN/O4knoUQQlQK1Sme495z7yn//PPPw7Vr12ydPK/oaQiwzcvBxYsXw4ULF5LUPaxMVC4dtqeXoQHGOWDHjh3hww8/DKdPn7Y0+efPnbP14ojvxa+Zc3z55Zfh6tWrBefLAGXTtxVeX0J6mn1o7Jw6dcqum+8ANz0n/XjZjMSzEKI81DTxHNclrVq1Cu+8846t857/0Y9+FNauXRuOHz8eGjRoEH7961+HiRMn2nbmY2/btm345S9/Gfr27RsWLlwYvvWtb9n0kNRDWLAfffTR8MQTT4SjR49avcTc2M2bNw/Dhw+v0mjlVYHEsxBCiEqhOsVzeiVN4+D1118P8+bNS3LuQYOhXbt2RXrNp0+fHkaPHp2kyg7imAbIsVSDYvHixaFx48ahYcOGoUmTJmHPnj1h586dYdCgQUnp0kGjBCEOpWmQ+HfDwj3H9w23b98O69atC/v27Qu9e/cO58+fT7bkFhLPQojyUJMtz23atAlvvTXE1nnn16lTJ0yYMCHUq18vTJk6JRw5fMTE8datW8PQoUPD22+/HQ4cOBD69+8f9u/fH5577rnwwQcfhE8++SQ8/vjjJrrHjx9v9Rvrv/nNb8LUqVPNmh3XOTUBiWchhBCVQjaIZ6+sV61aFQYMGBCGDhsWLl26ZHlYgV+q85JV9p07dzYL69y5c0Pt2rUtb8qUKWHZsmXWC08j4OzZs6Fp06bWaKARQYODRgXnnTx5sjUS3n//fbvvPn16W/qjjz6yXnpE9AsvvBDWr19v5yZ/8ODBdk3f+973LD1ixAg7L8f++OOPreHSpUuXcDN1HM41aPAga8itWLHCBO0vfvEL6xCglx/o8ed6XnrppVC/fn27Xhp9nOPpp58OCxYsKPw+XDR7+tOUUGY/rBF8h1wPDanvfve7YcyYMWHatGnhypUr4dy5c3ac2BqdrUg8CyHKQ00Tz/6+B9711BfA/b388svWWUr9RccuUPfRiUynL3WjQ13w9DNPWycrdSP1Dezdu9fqrQ0bNoR69eqFTRs3Wj7nTe+kzWUknoUQQlQK1eq2HYlDPqekxC3uZbNnzw67du0yYYsbGpZbhCEilQAqWISxBjP+a9y4cSY8EbmIxl69eoU1a9bYPt26dQsrV64M/fv1C1+ljkvAFcQ4IvzM6dO2DddneuKx4AIW6MceeywMGTLELOAIUERq9+7dw6FDh6yxQaOD6+vatWs4ceKE9fLTaCGoy+gxo+0a27dvb40bruu9994rbJRs37YtvPjii3YdiEbuddGiRTY2bVtqG8IfKwL49wM0EDnWxlRDZ+nSpXYv3DfrHIdre+utt8Knn35qVnpEaS4g8SyEKA81zm07eedDixYtw8iRI2ydYUR0xvLOp96m/rp7564JYeoD6kfqIqBjl7qADlmszqRx1wY6m+kkpjP2lVdeCatXr7Z8zktd7EuuI/EshBCiUqhey/M9cYgFFreyV199NTzyyCMmaLmu1q1bm4A9cuSIiUOEsbtQs47llV53etex/NKQwLXttddes552zkXPPb3zlMG6jLX61VSjAeGKQB82bJhZkv1aEMYIc4QsFmSELhZnhDK9/uyzdu0aC+TSqFGj8NRTT5nlt1ev3uHnP/+55TG2bMuWLSbuaeQ4WzZvtmPDrFmzwvtz5tiYNrcYcK2Z3NZ3795tnQE+Hpxr5XtAyNNgYvw3wprj8J0cPHjQymU7Es9CiPJQk9226YT9wQ9+YPUidTUdsYBYphP2mWefMVdt6r4D+/ebZZrvgg7mkydPWsAxhDKdq9Qtz6TE9IsvvRg+2fyJDZPiuO5pBdQrXg/mOhLPQgghKoXqFM8xY8eONevu9u3bzXKKdRhrML3puDwjRHv36mXCFhEJc1LCE9GKeN60aZMJyxYtWpjVGcs045e5N8Z2ISb79etn+x89eswaFlhyEdQc49ixoxZwxV3kgG1YhBGonOPMmTN2DMQzDQ6EPVZmt2gzvhmLNUIfN3A6BEaNGmW9/s6WLZvtvIBwxIV8ypTJhUFfEJJYBtLhmO62TmOR83EuOhD8mnATJ/hLnz59CkV2tiPxLIQoDzVJPMeWXxbqJNyst6bqPzp4Y6hHqc9iqHOoGzz4JcOfsEDz3XA8tlH3ASIZAU3d4fh5awISz0IIISqF6rU8F1TSiGOCgSGAnZ49e5o4RoTSm44VGFF4/fp1s7SSxxgvrMgIVEQkIDxbNG9h46Sx6OI6zbHpwUckI6IRxB07dLDjEcEbCzCCHXC9ZpwZIrxR40YmktkHSzbRSjk3jTUWhDblsHQj7mncMKUI+/PJ98o5Obc3ZrhHRC/gio6lGAHeqFFDOw4dCDSYHDoQ2IcGDhZl3OwYQ833giV++/ZtoWXLloWWa+4VEZ8rSDwLIcpDTbY8i7Ij8SyEEKJSqG7LMwKaKTIYz+WNH/K++OILs/RiafXxW4yHBnrTP0iJZI7DOtNIIcDd3QxLMe7WuLLBvr17bZwYY6Lh5MkTNvclwbuA4yDA6YUHxCrlfRw0x6H3nx57xLZfJ+emHC7VDu5xRDfl+gFrML39Pr8mIvqLLwqm3OJ8uFsDlmUs2B4ozWG8GkIZOAb3hXUeOAeimutHgHPu/v373WehyGYknoUQ5UHiWWRC4lkIIUSlkA3iOYb0g8ZcPSiC9Dep/dKPl05xx8Zy7GK6LHDe9HMXudYM24uD+3DoQHA3u4exLCXklyxZbOsP+g6zCYlnIUR5kHgWmZB4FkIIUSlUt9s2C0LPhaYLTM93IelikHzKxuUp42Utnezr230dPB2XS9/ueDk+OV+8n5fz7UW2pdYd25YuopOybCvE942WeDtp/4zPBZ6OSU9nKxLPQojyIPEsMiHxLIQQolKobvEcC0HWiwjNhFgIern0dfBysZjk09eLI97ua/H+jh03WU8/JmmW+Hr8OrxsvE+8DpnuAzJ1HrAep/3Tt9lnhu8xG5F4FkKUB4lnkQmJZyGEEJVCdbttZ4Ixx3Xr1rVpNFatWmV5jPMtbiwv8yIzJjodF5TAWGKmmSLwFwsBya5cuWLbHgbBxDK5TiNUieh9Jvn+OFcRV+0ULnIdvx5gDDNBwxgXnQ5Byph6KibeN51424PKZRsSz0KI8sC7/blnn01SQhTwox/9SOJZCCFExZNt4pngW23btrWgX4hWRPSatWssijQii+BdZ86ctjmaEZc+PVWnTp1MuBKpmijdBPgyEiHJdFW1atWyYF4IcebGJLI2kGYfD9ZF8C6OjyAnEBnzaTLPM+zfv9+iczNFyK1bNy06NhG9wYUy52b/c+cKgoYhvJmSimtwuL+ZM2eakD916pRd+4IFCwqntfrqyy/tnAQCA7co1zQknoUQ5YE64De//nV4d/p0e+8yFzKfZVl4t/NJfcDMDZ7Wkv0L/6v4//Wd73xH4lkIIUTFk23iGeH5xBNPWORpYL5mIk4zNVX9+vVN2DLVVNeuXS1NOaZuQmRzHwMHDgwdOnQwQR3Pgck5mQPZI25PTzW0xo0bZ8K5du3aZuVmvmTEcZfOnU3Qvfnmm7b9t7/9rVmqib6NsO/erVto0KBB2JsSzUwXxT4O52Ee6iZNmthUVmxjH8pzvQQAw5rO+ZjSivtibk6EdKNGjWxBRAPTZNEQBISzxLMQQhQFD56f//znoU2bNoXTErZNfbJemoX9+KT+4N38n//zf7ZpANPLacnOxf9/1Ld8/smf/InEsxBCiIonG922Eb3MZ/zMM0+H0aNHWx6WgNWrV5vlGVGJyMYNm7mXmXYKKzQRs7ESsz8CFjHscI+IYBbGxyFSmeqJ43Ns6N69m83LPHDAAJteCqHOOLpJkyaZRRzL9Lp168zS/BceJtcAANAxSURBVEanTuayjQU7Fs/Dhg216aQAoTxt6tTCeZeHDRtmIhkhjms699KlSxdzO0dMr1i+3EQ9IpttfE8cPw6OVtOQeBZClAdz237uuSRVcdCpKnKXH//4xxLPQgghKp5sE89swxILzGE8aNCgsHLlSrPAIkqZZxnLQLNmzUwIL00J5zmzZ4ePPvrIBPQjjzxiVmcsB4hqB5dprMGMmybAjAeXQdDiyg1YmleljoP45vhDhgwxATxy5EizgONCTT4L1vHVH39swvhAJJ579+5VOE4bJk6caOIbcBNnvVevXnY8wFJOZwAu5Vinue533nnHhPKJEydMPPu11kTrs8SzEKI88D5/+umnzQIN/o4sz7sSV/Bnn33WPkVukB5fRAHDhBBCVArZIp6//vpra6jgos04YsQlQbM6duoU1qxZY4G1pkyZYsIU9zwENq7bjHFCgOGCfejQIbPqMl/z3LlzzUrMmGVEOOfEouvC3EGUI944By56CG6OyXfCmGOswrhmL1261PIRvghqyi5cuCAMGDAg7Nm9OzlawfEQvFjBx48fnyqz0I7PtWDt5vO9mTPDqFGjrDMAt20EvYtoxnnTGQBY18ekhLSRCGeJZyGEuIdH204Xz+WB+qjKxXMNe7dXB/H/XuJZCCFEpZAt4vnDDz8MixYtssoP9+yXXnrJ3OYQmrgwIyo7duxowbdwx0aI4uKMtZmFMU647yGuf/e7580dmjRWa5Yvv/zSxOzFixeTMxaAsO7eo4d9Dwho0ojlF154IcxOiWV6swn21adPHzu3j6fC/Zrz4rpNwC/n+vXrZi3HkozgvnnrlglEjj9hwgQr83VK0HMvHIdOARpqfCd16tQJdeu+HnbtKrBKcw7uG2qicAaJZyFEeXjYVFU+r74tkXXS36d30/Ih3fLsZf04vg5xMMfCzygvhry4bFyG6QVtia833k5+2nWml4H0dL4i8SyEEKJSyBbxjKv0tm3bklRRytMY4LjuIh2TqdGRifTGSlWB1R2X77jxVhMbRRLPQojykG55hvK+K10807HpWF1QzHGJS+HvaARw0XqD+ffvn3ffyiKIo09fbHsqj/x0MuX5fpm25SsSz0IIISqF6hTPcWOBxko8thdokMSNgbi8px1bz7ANS7AF3ErbDn7suOFTkp79VMb9eSni/Tk2aRpSDmnOVXg9CbZfsiQZNgd13HADP2ZNQuJZCFEeMlmeeU8yf/7KDz+0aYsYPuNeRwyTIXYG8J5lekCG98SkW57jd+/p06fNqwiPJIb5FKm3Svh+vnL5Srhz+/Z97/NMac597vw5G9JEfeZw7UynSKdBXIeJAiSehRBCVArVKZ69QUIjwvE8bzSAr1uPftQ4sLy4fLK9IK9or72X9TwvA74/i6eTlcJ8388aKbZvQZmC4xQt42lbyEt9ej77+z7xvnHajwOeB16uJiHxLIQoD8W5bTMk5n/8j/9hQ20effTR0Lp1ayvLkCDeOwhjAj/+8pe/tGE9MeniOX7v9u3bN/zN3/yNHfepp56yAJUIWYdhRunEefPmzwuDBw+2IUJOpn28ruDzyNEjFk/DO1S5HoYoPf744xaDQ9yPxLMQQohKIRssz7FY9DxfPC9dtEJhuSSdSli6wNp77xjxEotXFse3eZ5v51hxedbJo7GDK176tdv2JC/er7il4FrTrN+WUwDHKLIttdQkJJ6FEOWhOPE8dtxYi40BWJ2///3vW8BGZl14993poXuP7uHXv/l1oRU6xsVzLFYdYm4QOBKwBCPAmTKRdUQx6aZNm1qahXgZiHcCXVL3/cM//EP4L9/+L2HDhg2WJpDlb37zGwtIyfuegJnM6IBI57o5N1Mncs7rqeuaN2+eCf569eql7vtpm3JR3I/EsxBCiEqhOsQz0bDBGyQuMh3WPR3nQ7wNMm0v+LSPwvK2JKI2fR+IyxWmba3g+uLPImWifSDTOn/jfPBjxaSXiSk81gPK5CISz0KI8oB4zjRVFQEaEZiwb9++8KMf/chEKML2r/7qu+Ff/Iv/nwnWTKRbnmP69+9vAR+d1m1aW5BJpiFkukHqU6zcTGNIHsErqfOYvYHpB3v37m1Wa677lVdesVkkcL9+5tlnLFjmc88/Z9MmItz9XpYvX25W5q1btoTnn3vO3MYJKPnTn/60UDzXtLqhvEg8CyGEqBQqWzxTocdC8blUxe/iWQiJZyFEeSjO8oy4/G//7b9Zh+0vfvELE6l48dR6oZYJK+bU/8lPfhLOnD6d7HGPB4lnLM+xeG7RskUYMHBAaN++vU1TCJz79ddfN8s3wjoGCzJTKh4+fDg8+eSTYf/+/ZaPBZopDBH8jKeOYcYIZnBgjDX74GZOMExmhfD6m87hTJ2y+YrEsxBCiEqhqsUz55N4Fo7EsxCiPBQnnidOmGgWaay6BPkChtu8+OKLJm5Z/8d//Eebsz+dB4ln3LC7detm67hl0yHMnP1DhgwxizIwbz/vtR49eoTGjRtb3ubNm226QyzPiGeClOHizRSJ1JGcD5dsRLdbxN2azFSObMftnI4AhDPTGP7sZz8LZ8+etTKUpXNAFCDxLIQQolKoCvHsDQCgAeBjnoWQeBZClId0t21n0uRJhW7bzo2U2EWcEkwMli1bFr7zne+YwI5JF8+IWxem48aNM3dpRPfLL79sUwrCpUuXQteuXc11u2OnjjZeGXGNCzdW5bp164YLFy6YCzYCGDHN0rBhQ9s2PbmmZs2b2XXFUI5j0EEwZ84cs6ZzXCzPnBe4xriuzXcknoUQQlQKVWJ5jnrDaQDQ+y4ESDwLIcpDuuXZO2wRlYwHjj2fyCdAGPt4OcYhx9GywcVzYcCwRJieO3fOxjFjOe7QoYOJZcQsFuPFixfbOGvyEdikWd555x1z8x49alRYtGiRWb2xXuOizdhlxlBzHI5B4DHK42I+d+5cOzaf06dPD6NHjzZ37rmpBes1wcnGjRsb1q9fX3CNyf2wCIlnIYQQlURli2ewxktSoTOth7vQCSHxLIQoD8WJ55hMgjIW1emkW559/0OHDhWKZpbOnTvbWGciabN06tTJ8hHL6Xm850i3a9fOgohxHNY5BmnW2U45jokLuB+DbRwn3p8058GKHt9fpnvNRySehRBClAmvSItz6aoK8RxDg0RjnoUj8SyEKA/FjXkuD+niWeQeEs9CCCFKTYFgLhDN8QL+ydipqhTP8TzPQkg8CyHKg8SzyITEsxBCiFKDeGa8sYvmeOyxU9WWZ4lnESPxLIQoDxLPIhMSz0IIIUpNPKbLLc2OpyWeRXUi8SyEKA8SzyITEs9CCCHKxKlTp8KBAweSVEFDwy3RIPEsqhOJZyFEeSCqNvVYRcM0UCJ3+fGPfyzxLIQQovSsXLnSxMnZs2fDqlWrwttvv50S0AXzQoLEs6hOJJ6FEOUB6/DPf/5zm8aJqZ4qYpk1a5aJLz4zba/Jy4IFCzLm+xJvz7Re3PaqXv7rf/2vEs9CCCEyY+OZ01y03bJ88+bN0K9fv/DEE0+Eli1bhuXLl4fr16/bNkDMnjlzJklVPhLPIkbiWQhRHqjjfvjDH4aWLVrY9E6+tG7duki6NAtTKv63//bf7JO0H4tporyMTyPFwnYWW2/VqrBM+hLv74sfg/WCYxS97nh7prTlJeeP8zKdi8XLcQy/5vRjxsfyfPKKnCNtH9K+ft/3lJzH8+KluPzSLunH+aM/+iOJZyGEEMXj4jkWzrB///7QKlWZ/+Vf/mUYO3ZsknsPWZ5FdSLxLIQoD5Xltv3iiy8mayIX+clPfiLxLIQQ4sGkW5xxmWrUqJG5nuG+Ta/xzp07bbvz3HPPSTyLakPiWQhRHuKAYV4HxnVhSYn3+frrry1gGJ9O+jHT0+B5vnin9p1kpgvLi2bAYCktvk/hMZhVI/I8c+Jje1knTvPJ/ixF1jMcE+z608rHPCjt5/XFidfLSvoxfvCD70s8CyGEKB6vnOHzs2dD//79zXVp48aNSW4wEb1ly5YkVYAsz6I6kXgWQpQHxPPTTz8dbty4cZ8oKy2IQvbPFG37m28Ktr333nth/Pjxlke9y/jagwcPWrqkFHeNx48fD+vWrQvbt28PL7/8cqhVq5YtkydPto7v9Po7nd27doW1a9faenHfRXHnLincc/qxv/zyyzB50qTCtkRJz4tn3IoVK5JU+Ui/JkXbFkII8UC80qDiZGzzoEGDwvnz5y0vvdKK0xLPojqReBZClAfEM0IXbyugfnOBV1qwqoKLZ7c8cyw/Xq+ePcP3v//9wlksiCnyySef2PpHH30Uxo0bF/bs2WPXcOTIkfDhhx+GRYsWhZMnT6bed9ML90Ps8/57f84cS1N+ypQpYe/evWHevHmhefPm4ejRo7acO3fOPj/9dJ/V1x98sMw6xr/66ivbZ+7cuXatXAt17IULF+yYWH2ZcePjVavCpMmT7BhAHsO48E7jvBx/V0p4T58+PXWOT8OGDRvsmFwjsI0OA+4nE6dTx+N69+//1NL+XdERwPfB8YBr5BwzZ8yw9WHDhtn3/MUXX9h2KMv/Dex/FFm5f/CDH0g8CyGEKJ4rV66kKqmxoUmTJlYh3r59O9ny4MqoOsWzVXbJAlSmVPoXL160NLjLV6Z78Dw+iytHPnnxEpMpD9wCYeuUiSrl4vZxYje1mIftl49IPAshykP6PM8V8Z5NtzzHx0N0tmvbNgwfPjxcT20fMWKEWYU3b94cOnToEAYOHBjat29vApr6uH9K0DJ++vXXXw8dO3awMp9//rmJ3u7du4eGDRtapHCE6ZgxY+wcpHv06GHndwG7cOFC22fChAnhiSceN4vtO++8Ezp37hy6d+tmQhWPM+p0Ztdw8ECrXbt2aN6iuV3X4cOHwltvvWUd7PXq1TNxPycl4LF0c07uu3fv3uGll16yc+zbty90Sx2/T58+qevvaJ0ABdyrd2lDcF+HDx+2NGzbts3KDxkyxIaP0WmA1b5Lly52Ho7N7B9PPvlkOH36dLJX+Yj/TxLPQgghihBXElRKXbt2DZ06dQwH9u9PcktGdYpnerydRYsWhp/97GfmfkdlOmH8eOuNHjlyZJGOgHQyNZKKy/OlOB60LYbOCSwMDyL9WA87d74i8SyEKA/p4rkiiC3P6e9u6qQVy5eb1RSLMgIWN2s6fpkOEjFKlO41a9aYsL1w/rwJRUQkdd7gwYNN6CJOlyxZYsdp3LixxSWZOnWqnWPZsmUm/qgPEZ6IYWbKmDZtWpg0aZJZcwHhjks3wh2RzfkR2A7X3bNnT6uzsKr36tUrnEqJX6zWXAPinWPOnDkzDE1dByCUmYGD83Eu7q9+gwZh9erVNvc1x4L4e/ksdX2I9EOHDlkasIp//PHH5g1HJOz1qfNxrSybNm0KV69eNYt9pkCmFYHctoUQQhj09LprGaJy8eLF1nNNJUfUUcctrg+jut22/RpHjx5tjQggr2+fPlZZ00NNL3nffn0LLdI7duywypgx3LAt1XCZPHmSBUSjwQIIb/alwRJPzcU6jZShQ4daZU8jgeOuX7/etmMtYBwWHRJLly61hoc3Wt58801zDaSXHvc4Ghk0coCGE2UpwzloGNCI4Z6wMsQNDXEPiWchRHmoTPHMJ+/t2JsIizN1E67P1CFYVxlrTF6zZs0sjaUZcYpQ5hiIZITxpdS1UichXmulhGjHDh2sHuE9SH0zY8YMO4dbnqnjvZPZj0FZL4dApS5ieiwsvdRHLqyB60ZgI1b5njg3gpX6EwswHdUI5wXz55tVmPoNizRtAs6HizXilnJ00CO+cetO/04Q91ieYwsy3wdtE97v/H9wR6du5Dtp2rSp1bmrU+J6ZOr6MlHe+lLiWQghRBEQZFRCsWAEF80lrXiywW0bEP80ROhBp/eciphKvm7dujbWinkjaRRw3/TSU6HTYEDYUtk3b97CXMDqvFzHKnDyZs+ebcI7bkwgcunNR9QyRot9EMs0YGik0FhAHE9JNVLo8aeh8vgTj9v5mPILCwLHrVOnjpUlD8E9bNhQE/OI8kkTJ4ZDBw+GX/3qV5aHS315GwI1FYlnIUR5qGzx7Pg7fMCAAWZxhnfGjAnf+c53TDzTAYxQ3b17t9VR1E2ITTpnGcOMBZd18hCSw1J1BQKTbdQpPq4YEMdYrWMYg0w9hOWWzlzuF+GLaKY8HekffPCBvU+vXLls+9AeoJ3AeVxocy7cyekgxvLMdSGcqYMRt2adPnXKynEu6uOhqXqUax49epTVl153U7cRLAzx/Morr9j1INRxQR81apQdH2s0YplOa+pW6njOR1muq32qbuc4FY3EsxBCiEKIuElQMCpxKrkYKrS4R/hhVKd4jq8TIfq///f/Dq+99lp49dVXrdeeSpnOASp9rM00TLZu3WpjrwDX6b59+5oQpmIGrL+I7t/85jf2/WAFYKyZN6wQzwhejk0POmKXRsGgQQNtOw0UoqfS80/DAeihZz969dmOIPZtrNP4oGeecWI0eBDdNIQ6depUeF5vbIiiSDwLIcpDZbttg8fAYEFM0mEKbEfw0qnLWOBmzZqaWGV8Mq7cCGiOxZhoLK2sU4/wSScvohKhfeLECcujLsEbinpu0eJFhXUGnxwDizX1GwKVPAJxIVqxUmM1pj1AnXjwYEFQMspQNyJgOT7XQ12G9ZzxztRfiFnaFBwXSzcWZ+pHRPnGJNAX72nqZSJqcx63hnOdCHeOPSR135ShDuc74f4YY029SL3JNXAPXC+d4+xDoDLqc4ab+b1WFBLPQgghrNJCtOEaRmV0OxJm/lnaCqi63bYdGg3pY59okCCGcUengieYCpU1eYAVmJ50xqDRqLicKkfDgYYA48mwOOM6jTucV/ZEIKehgSDnWAhyGkJU8MA18N1iDaAnnx5xzkclj6hmvBe95wRtASzXXHv9+vXt+nCr43wIcsR77DJe0Y2DmoDEsxCiPFSJePY6NurwrYz3+eaUgKXjNp1sqzv8eqjLEd0VcX0VfY8Sz0IIUUOhwqDKsM9kKcxP1oFeW1yL6clFmDnp5UpLtlieEbGMF47BFQxXbsQzQUdwxUZQ03lAVFFczwhIgoBdk9pOI4rvh7kyOR7iGStAHECF/RnvRe87ghuBS68/Ypvj0GuOOxk98ohkxDPHZD/c2MhH8OFObq7jrVvbHJ8u/nETx4ruEUq98SUyI/EshCgPVeG2HdewboWm/vJO2fR6OK7bPN/L2JIcw7fFcM5M+YU8aFsVg6X6QQE9qxOJZyGEqMHEFSkLFa9XnnziRoVQxNoZT+P0oAq4pFT3mGdvZCA2cXWO74dGhEcRRbzi8gWIVSzFHqwLyzHbaTzRC46FngYVwVEQ0R5IjeNiCaYMU4xgTfZjIqRx4WYMFu53XCNzYt68WXBMAoAxDQcLrnGIdo7PNQMim3PhQs75EM1YwL1hUZ7/UU1G4lkIUR6qRDxH9VL6un3a36LEZbyei+uDeMlWAZrLSDwLIURNxivRSDQDLsZYQ7G0Ms7K8YrYK97ykC0BwxzvOPB7TCe9fJzm+7PPtDLlo/zH8uvhs2KvLfeReBZClIeqEM/URyWtk0oL+zMkaM/u3UmOqAgknoUQooZjojGqnBmPy1yRAwcONLdix8VlRYmw6h7z/LB78QYLZdIbL6T9+0j9se+vMB2Rvh8UKcO+qSXu/fft33xTfIPJF4f1+Fy+3fPSywuJZyFE+ahKyzMLnkh4gTGkiMBdQHRpgmARXZrhRtTZxOTAQ8pjZRAY69y581aeYUjsT3Rs8OjUfj5RfiSehRAiT8BFmWkocNNmfG26O1dcibtQZCkr1S2euQcWGg24X9MYwd05FpyO3yuNJb4n1v07SMfKJscA0rhTEwEV13fSuHezfvvOncJjMBYaF3BP+36cjyV2Afcl/j/44tj9cfxirjPfkXgWQpSHqhLPDlMcIpSJu0HMC+oLgkUS6IsYG0SaJuAkszwQP+ORRx6xfGZ+IE0dxL4EpORYPnSIYzB8SVQMEs9CCJEHEOiKyM5Usj6WFuKK29f900VmWalu8ewgon76059ag8PmYX57WOZe+NR908hgLs3iKE6kEvDrhRdeKNyXwGs0YmIYT71p48YkVQDnQ9gzLtrn4Uwn/r/44qSnxT0knoUQ5aEqxTP1LXU0dQHbfDaI3bt32awPWJMJGrlwwQKzJANlqPOYqoppnSZOnBieeOIJK//oo4/anMeA+CbmhqgYJJ6FEKKGkS6omH8RN22CTjGNUlVRvWOescYWiH8EKhGrnY6dOhbOh0lE7Fq1atn4b0Ts3/3d31kEbBoyTN3FNnr0444EoqASbZv7o1FCx8Tf//3f2xzPX3991cognrEccCwaPQT5Iqr5mjVrwocffhhap8r26tUr/OQnP7Ht5HXs0MHm5iS4mEdaFWVH4lkIUR4qQjxTF8f1B3UB4vnrqwV1hUM5hlJhPWYuZGaI2L9/v82sQP2FRZpAkosWLTKhTB3B9InUecy3TD2FZ1mDBg1s++jRo8Onn35qx2aKRInnikPiWQghahBWSSfCmQqYHujGjRuHjz76yPKqkuoVz3QgFDRY6I0nUrVDhHHELxZ4euYZR8Z4MhogjB3ju1q3bp01TIiK3bVrVxtH5tDL37RZMyvD1FSMLcMigNi+c6fAFZ5jP/XUU3ZMGj40bFinQUMDiPMRebtz587WuYGYxypOw4kgbpxDlA+JZyFEeagoy7N3aLMgnp977rn7Lc+pz+4pocy45y+++CL06NHDOmFxv546dYrVYYxzpi7BSwnxTP1Bp+zSpUstD88nPJ7whOrUqVOhJxQdyAhxUTFIPAshRA2ACjju3SYoGFbPvn37FQkK5hV4VVDdbtt+n8yRjGXZQTAPHz7cvi/ysfY++eSTNiaaBgiNDITXP/7jP1rD5bHHHrPALM7MGTNNkAM9/ezDvM0eoAVo9PTo0d3WGXeGRQHrMvvRkCHgCyCm2Y44Z+wacL0IbVE+JJ6FEOWhwsVzqs5BNNNR6uK5oN4uqL+pt5kJgxgYPh0hYppOXbyWsCRTPx04cMCORxlia9AR62OamYIR4U0nMRAwjDpFU1ZVHBLPQghRA3ChSKAqxGGjRo2sh5q0QxkqaC9b2VS35dnB8oul2cHqS4RSBHG/vn3Dtm3bzNVtw4YNVo7GBu7YjA/HlZty9O47uMANHjTI1rEiT5061b5zev8dLM9NmjS2dURzv379bEowjk9DBqs1YE2gQeTnphHFeLbq8BSoaUg8CyHKQ8WPeS6wPL/66qtFLM++VDQc88qVK7aIikPiWQghagiMvUUY4q6FIHRiwVwZFXRxVLfl2Zk0aVL4p3/6p9CuXbtQt25d65W/evWqidoXX3zRxoJjYf74449tDDTu2ljrcYnr0qWL7UdPv8P3zHEaNmxo45VPnz5t50CQO1ieCSDG/rhhI6Y5PpZmxDHrgEWB68FtGxd7wBoez70tyobEsxCiPFSkePa6l7HOeDtdT8QzsM0XT6f+FKynFqvDzUJdQHqa8rhx82kzMPAZ1fuiYpF4FkKIHCNThYibL0HBEF4XL94LCladlWe2uG3jBodVmHFgWI3p+Qfc2BCpWHm5TiKbIpqJdgqMd2YftzrH3yXnwTqNcAb2ZyoqoBxWBY7F8XHFA4K1MfUIY6x9SiuOw/m4Rp/Gyq9FlA+JZyFEeagM8UzdQDyMTJZnL5MJtiGI43Uv7+vx4vh6nAek797NHJjSj1HsvslnOr6PXyfE6zUFiWchhMgBvELiMx67hCDDYklPto+jhWyosKrbbbsivwNvFGQizi/uvJnyMkXUVpTtikPiWQhRHirebfveVFXeiVsavK5J/3QypeM81r0dkQkvn774tox1W2Lptu3Rek1G4lkIIbKYuMJKr/R27Nhh4gBXbVyJHcpkgwirbsuzf198+nfo31/6ZzrxPg+DY7gLna0nS3xO1vm0dHJs0ulBXArLRPuLsiHxLIQoD5Upnt3yHIP3EvExiJLNbBkE/axdu7YFuCwu4JfXGcXBdjzTMtXF5DHciMBjBCYrCQxJwlvq1KlTNvwodh+HTNfD8Zl6i3uqCUg8CyFEjuCVEpE4ie5MkCsEQnol/LDKtKrIBstzWb+LUgvX1HkedC62pW/3vPRtvh7nidIj8SyEKA9VYXm297+thfDJpk0WF4NhPJ06dbR6/uDBg6Fnz542HSLDfYi2zZAhH14ErDNVIlNcAddLGYYpETSUGCjsyzmZIYIgl6TpdOfYzPjAcbds3mwzQkyfPr0wqCX55DG8iWslJkidl1+2YJo7tm+3MhyH8yOsgXqf2Ss4z5HDRyzGCEPKiAReE5B4FkKILMXFUyzkmJKCeRzpkaY313FrZkx1i69sCRjGPMq4ttPpAOfPnbPAYDQYHgSNC6b7wApAQ6AkgprI2fGc0Ixvjt3pgYbO4cOHk9Q9CCqGN4GoGCSehRDloSosz3E9TT1DnA3O17JlC5vxgQBjxM+gvifI5RNPPGHvtSZNmlg9Qp3TunVrC3DZq1cvi51BjI82bdpYBzvrTINIPca0ih06dLBgl8z6cDJ1XGZ84F2J+CVGB3NJE+ySMsw8wXGZavG1116z+B2IZ7YjzEcMH251HNdCYMzGjRub2CcIJxHFya9br66JZ2akKKl1O9uReBZCiBxh9erVFhSM6ZHOpQSgYz3XyeJUt3CG6rY8O7iL/fSnPy3cRgPhb/7mr8PChQstTSRtBG48Bo0echoxNErotafhAbjVMZ8zLmuAhYBI2TR6gGMOHTrU1oH9iKbNHJ1+DEQ7DQ7EPOelUYRLXv9+/SzqN/lcC6Lfo3wTQIz9tm/fXsS6wPVkw/86G5F4rhjo1OEZJ4BeSYnfR0yTw3vA08RpqCnumyJ3Kcl7syrEs3fK8jvB4uudr5ybuuPJJ5+02R2oa6i7mP0BFi1aZIIXizQzbGApfvnll+29h4j2+oygltSBWIVZKDdl6lQTyYhjLMLsg3UZqH8Q2/zeuUauh/qQdynvgU8+2WzTYNLRizs5dRvHAqza5I0ZM8bqT+Da+P0zHSP7IaRzHYlnIYTIAuLGJsTrl1KVKHMVI6ywhHplS5mSWEOri+q2PPt3SG873x3zNQMVPKKYzoh9+/ZZY6R+/fph0KBBVrEvWbI41Eodq3WrVlaO/SZMmGCNFxoa9ObTOEHI0migh597pVedMWA0HBzE73PPPWe9/ZRBQDOtFefmOuipb9myZdic2rdt6jiUxcpATz/TaL300kt2jZz/6aeftufAx44hummM+BQl8TMjJJ7LSvwc0YFTr14967TryBR4SeT4hxG/m+gg4vn3OAw8s/xvyopfnz/z8fUKURL8+Ux/djzfwfuoqsY8U1dOTL3nj6REK/UQnVYOHbbUCfyW6DwH3LLxqCJN3YdIZbw045t578XHx9OKTmBEMdZgrMjUXQhkLM8zZsww4U4nLVMpUrcBVuRGjRrZ7xcRT/2GgEe0Y4VGKHM+7zBevHixXQ/u2ohuBHzfPn3NGo5Qpx6j4zjXkXgWQogsIG4ExhU6FWi3bt2sMqTycby8xPM9Mrptp76jcePGWYVOD/2RI4dTYnqcuZXREGGeZRol9MjXSQlVLMj09mPlpeGESGbcGQKcwCrsBzQAzpw5Y4KZBgjHRhDQYEDgOohlrAFcx8z33jPBPDklnunB55poeNBAweqAex2Waxo5Xbt2tf1nzZplDRQaSTQ8AHFOw4XrWr9+veXFz4woQOK59MTvlFMnT5orpg8x4Fmm84iGPQ1sRMXrr79uHTk8jzSwCW7UuUvncP36ddsH+J0R1NBBCGCVuvjVV6Fn6vfFcegQ4nfA8875WafTit8gbqK4qvLb8PcexOtClAZ7dlLPmT/rpIusJx09iMmqEM/+HCNMqSfYRj00P1XnUBdRv1AHMO74xZdetHqG3xS/LTq4qCMYm0wdQV02cOCAMG/ePBPFvAfxasLlu3FKOFPHzUzl447NPtR/U6ZMseNT79CJzG+dKRqpY1q1amWeVu3atrOO5VWrPrJ6k3MPSolxOogR2FwHHdF08FPncj5+v7yDqSv5bVPf1QQknoUQopqh0k6Pjo0bL5Uf446o2HDhcryitSiXyXo2Up3i2RtCgJill57KG8FKoxzrL5U8DZBHH33ULMB0UtBZ4T3y/A/oUWc/xDPClwaGQ8OAsedYoh977DETBIjZ2PK8d8+eMHDAAFvn/8k4MRo4NH7ojccKgFUPazPinHFhuMEhJoByCBXGp7Ev4P5GY4n7iueWFkWReC4bHj2Xhu6AVMM6ht8VzyqNap5/nkN+T6TxmqCDD0+KOB4Dz/NvH/2tNdJZ6tSpY78V3D4/SokFxDdjO/HG6N69h4n1adOmFv5W+O0RkAgPD0Q16HkX5YVnmcXrUa8zeLb8+aLexeOnMsWzew4B73bqG2BoVreUmH3llVdM0BL4i/qFuoqpKamPgH2HpeopyuHVQb3F7wVBy28R4UuHFfUNrt5YnWlT0IHrMTl8PDUWarYzXpnfKtuJsYIo5jdLJxlu4HRosR9in/PzDqCTGIs08FtGmOMCzjnpHOYdEQc5y2UknoUQopqh8vbKE6jsqLio+DIF2KCsl7fKP9o3m6hO8Rx/J7ilUdHTKPnbv/1ba+AjRqnU6ZnHxYwGAQ0KXLMRqzQCaEwgbBG0RECl1x+xTY88jRSOgTv45UuXrCeefXBri8c8I8axXvN/4jicj/1oSHB+vh/ycXdDLHBuevKx4tFQ6dKli10fYh+3OsAVjoZKbOEW9yPxXDb8t7N8eYGraPxbYv12qrGPZYlG9m9/+1t7dvl9IXIBQY0IcGhIYznmd8g29uO3yHAURDNpXEIRxvzOaKRTFhGN9e2f/umfbMzn448/ntFt3EWPECXFn2menQc9P1ieK1s8F1xDgYA+fPj+zqcY6pdceu97Rxxu4NzXfZ5hOYrEsxBCZBH0LNOrjABLHxvklTyVrC+ezkayxfJM4x4rFz3h9KzTG47VGXHKOr3oNGYQzzSS6KFHnCKcsRYjBBC6bJs0eZLdFxaxry5etGk+GC+NmMBSh7sbxwb+L1wPghnrwrrU/xZL8ocpoUE53LSx1mHxxlqAux1igs4ThDuNNsQz18ixfeoQQKy7yzakd8AIiefywm+XziG39jI1DeKW5xZXTiL/08mD1YmOJbc6IXxjCxPPMs+4g8WL3xVeHJSls+jlV162Tx/mMCK1DUsbYzTx5OB3xHk+T96JDxI8QpQG3psMMyBqNc8c3jw8vzxjWEwr222b83MuzsE69b57msXvdL9OC7iVWvdtfLJwjPQ8X/fPwiW9bJKOj5HpeF6GJZUoku/lCrdHae7nszNnLK8mIPEshBBZABUiAowxhoztS3fjfhBecWUb1S2ei/tequr74n/ojYiKZPq70y0wjDe+IF08ezpbn42qQOK57Phzg1s1Vl+Gj9BJxHjJ46nfGMHsEMSIZ7wwEM8erZeOv1g80/HD/8F/C3hdIIQR0Vik6YDCxRQvjeupZ/qpp54q9LIgWB7u2pz7jc5vFJllQIjiKO17jxkMqHt5vhDRbdu2tfc3C0K3osUzHaNF3t8luN70Mg9Ll4bSHIttvt3X43Q+IPEshBBVxDffFO2RdbCIYnGkIYr1paZQneK5pMT/B/436WI3bhTEZS2dCFTAcsx6vL+nrWxSzj9TK/fWE+JyMXE+58GdFfdyKCwfleGTgDeF2/IUieeyEz87e1MClrGNHjgMGLqARwbPIa6tdP4xBpr9GMMcT/uG9Q5vDv99Uf5Sqizrn6TEOAHy2MeDjCFgrl37uvC3RPwBghQxxVVNoSJ+myU9BuUq4nw1Cd6jePTwbGIVPZCqgxlLzJRMDDOgw2jH9u3mPk1MDMqXh/h/gGhmTHEsnkVuIfEshBBVBJWniylgHSszrpG4AZs7Vg2iusVz3GCB+LuHeB087fulb08nLsfijX2I9/VtnmefGcp7Oc8njeUDke7p4s5hJMewhXLp2/MMiefyk+4B489XcaRvo8PQ4ZmMn9+H8bBzVQcPuqaH5cf7+rqnnfR0SSnrftkCll3EJB0wdLQQg4LYFHQmM1yAITZ01hB8Dk8GvBYIsMj4eH7nxIRgLDBDAYa8NcSCXBFrgumb6JSmc5rgjr60bdfWrMssBMOiDv7rv/5rix7P1Gzf/e53LY/1v//7vy/X9+v/Zz8GnUQcW+I5d5F4FkKIKiJuODJ1A5GfqUTj4DrpFW0uU53ime/Pvu/UJ2OecRX175UOi+ICsqSDtY2AXljDCOiFhQz31HRLBMelUcS4T8aCPoyK+P9yjFjcVMQxaxISz6WHZ8gXfj/2TEV57m3h22x7gm/zvIL1e51GqRVb9/dgXNbxPF8Kr0GUG94ViFQfN4sHAO8zvAcQrNRJxFsgUjPCFe8CvKKIxcB0ScxFT9wFglYxLRFxIBi7joDFdZ+YEQRDJOghU5oxXp1ZAxCxxG5AwOKCT52Hmz7WXSKvv/DCC6FWrVo2FICI0eQzgwGWYMoyvh6Ry/5Mr8RwAVz9iVVBDAvOw1ABgtHZzATjxto7mncx7v8Ep0NoM1bfI0Qjwjem6l28Hrg3xDmB69ju64z1p/5iGEF5LM/+HPtzz3f/1JNPSjznMBLPQghRxTBukGBUTD9BY8WogQ3GbHHbxhrBPJkOAYgQ0MD/gsYX1g2gQfnOO2OsPIFbCGBEI43yP/vZz6zB2L1bd2soTko1znD9c2iUItawluBqyvQgg5kzc9cu285YOs5FPtAoPXfuCzsG67gQEl3do38j3ClPw5RGL8ek0cpzQwA0I/WcUN6DnQHTcjEfNQ3jfEbiuezEjX3eRD7kpDCvyLsqEc22XvDe8m3uOeHp1ErhMRzfp+BYRfePP31bTYHvhgBV/O5dwNLx5hZX3j2IO95RiD3GlfPu4F1ER57PFIDXEu80gq8hJrG6EhOBoIIIV4QmswQwhy8ilt+EDxNClLZu3doEKnUSYpWAlQhXxrkjYhGzuBnzybaWrVravohYoqFzPt5JnJ/r4Hq4LjodeRd5NHaunyCHuEZ7AEfeadwz904HJd8D7y0s0LyLcalmCABCk/ck3xfvOXuuKvh54N75zjkn98p1IJorOmCYByGLhzaI3ELiWQghqgh6nBE59LrTY09DwPGGgDcWawLZIp5pzNGIpKPCpwFjXBuWBRqSiGvc+xCwM2a8G95+e5hZOPAMQFQjYImgzdg3GoGNGjeyY9StV68wSBIgnmlMYrlBNFuQo9Tx3YrBNlwL2ZcGMo1bGsc0HH0/7oHGLo3L/v372bXTqKXhyXXSqKMB/FKdl6xxNz/1HPXr19caxkQ1pmHdp28fazzToK1pQwFKg8Rz+YjfRUUsyGm4sGZ7XCY9XR1wfre48r7lN4po4XeBSEKkufUV8cZvkXfWidRv0V2GXcBideV3iMswvzOEIQKWdzrTdGH1REDy+6bDDcHK84dbMNP0IEZxC8baSkRxdxEmH7HKnO8IOMoiaBG2uBi7xZXfuAtW5qLn/cHvHOsuopn3FZ1mBJ70qe2wChOczQUsVlcXsEwfxDuPdxMilg47AmfxfSDwEKs1pS7KRPxsIpKxOF+4cN6eFdbdQl8R4jn+LdAREEfbFrmHxLMQQlQC6Y1GXOBo+CB86N12zCqTrNc0qttt2/8HiKjvfe97tp3lpz/9qTWGafjSiKUhXLt2bWsMI2qx6uAC2DX1v6LhjHhGdLs1msYtjUy3Sjs0thC+XAONWKzUQMOXSMI0qnEhRBjTGKPByzFotLugprFMIxZorNPopfHNtSK8aQgDzxHHoWHtgZT4RKjTsKb8E48/boI8X8kknv25SP99Op5f3PbqIJuupbxwLzz7iBKEK6IVd2G3uGKNRLDybCPwGNJCRxcdQ1hd+U3x+3Q3YUQrvwuEK785xCu/V35PWET5fbrlld8MnWT8nhCndEphSUW8ImIRs7gN4z7M+4B18unspCxilv15j/MbQ7QiWHlXYHHlWrgmro1hIu4qzBhdXJ1dtPIuwAsF0Yp3Ce8L7p/fPe8X3i1Ml8T345ZXhCzfGx0Bourg+6/sqapE7iHxLIQQ5YDGIEtsefG0gwCi8UUDC1c0oAzU5KjI1S+eC/4HfO9YbR2sxTRmscpwjYhYFiwxNLgRXExb4gIVCy6NXMogorFi06iiITxs6NDkqMEauDTUjx49Yuek4Y9IIA+LFuKAY2A5ouFM4xuxgHggz7cjprkPhDTWZ+aCpjGOKySWL86DxYnz4z5JecB6ghDAesVxmJO3JkUoLi10INC5wNzahcMjEvw3hzWS/y3/Tyf995vL+L0gumILrFthacDzjGJtRLidOHHCOvoQd4wFZRgBog+LJeKVd5lbXHkesXLynLnFFWsoQpXvHYGKNZVnEm+NJk2b2O+KhWeUdyILLsMslGdMLAsC14M78Yz7wm8TAcvx6dxCxHJezs9vHAHLdXF9XCdim+vm+umM4n74TSPQsSzTueQWV8Qq34cEqnAknkUmJJ6FEKKcpDe2XbQxnpXAKVg3sJ7EeOPd/ibrNY3qFs8OFika2A6WIhrUO3ftssY+c9JiuUIk8L/CLRMLUus2ra2xTQOdRnbzVKMfIUbjHbGBOGabQ2OIbQhjAtjQYEeYkEdZGvZYstlGAx4RzvmxnCEwuHZcMxExlGuUysN9EGGN+zbXiOsl50FUIPq4L/ZHxCAWCJKDyyb3QHmJ5472fbz00ktmJeR/49BZwZhOLI08O27Vr2h4FhGrWBA9SBMdHvyfEfW4zPK/RLB6cCYC2vFcrlu/zt4d/N8Rrgz3wHuBe5s2bZr9v/nf87/mXcM98kzQuUKnDc8Tz59bW93S6uNYX3zpRQvWxII78WuvvxbqN6hvbsQIW54zvkM6kngOeV7pmMELg/MhWHn+6JDierC60inFdSJcGaPP9SNcN32yyZ5nF69ufXXLK+8Kt7ryPfHbQeDXNDFbM9/2NROJZ5EJiWchhCgHNIxdPMeCDasgDU/cBt0NFyjnQtv3ralUp3iO/x802BG9/r0jiBErgAso1jEECduxSCMwcPklSA8Ci8Y/jXhEGAKGMgghhA+iwM9DAwv3UlxREeLsi5UYAcEYQsQEx0bkAs8F1jRENUIb0fBR6hMLGMckH1dRhL6Pu+SYCDHEMQ079nmj8xsmbFjH+ow4x7LHM1iTn6+Hwf8Q4QgIVYQlbri49frvE9HH/21t6n/9xBNP2P8aV3q2878lzf+U/zvPyqxZ71nHCp0Zo8cUWFw5HmIViyvnQ2z6wv+X87Dwv4wXt7JidWUogFtgEa38/7DQNm3W1Cy2PDetUmU4HkKWjhd3Gx45coRFOeb55J4Rr7gM89zgqcCzzzPvY1yxLNMZxG8TEW8W19TzzHPFd8EzxIJojX9H2Upprq+898L+8RKTKS8TJS0nqh+JZ5EJiWchhCgHNIJclAEVIlYhLFo0tmmQgpVLGk250CCtCKrV8pxa0l3iWS+Sjv5v5cX/r+lkyjPy4P9f3fA7RGhiHUU0I2Z//OMfh9/7vd8Lf/VXf2XWaHd5B4Ts008/bVZadxFmf0QxHgYenAnBalPjjCgY64pwpaMDKzCWV373dJTQwRGPd8WajNUVcY67votY3PZx68dLgE6WmmhtrSju+w1X8O/Ij1/Rx02nso8vKgaJZ5EJiWchhKggaAi7mySul07cUPL1fGg8ZYvbdqbvurjtrBfXuUFepnznQdsykel4pGPBHZdJL+t4mXj7w/bJBzxgGAIZoUr0YRqtPp8r23Dpx/KKyCVgFJZ9vAoQsHgN0PmFFbbYThBRKeTzcyuyh6oSzxX9vFfE8Yo7hueX5xzxMYqrb4sjvWymfT2vst7bEs9CCFEK7GWfZhUiDxdJ3CwJnsOYRlG94lkIxDOWY36PWJIRzQsXLki2Jm7z7dtbfsNGjcy9XwghnKoUz7EI5N2ER0om0ssCaR9uwfrduwy5uOd55QLV03xyT57G04WOQheb6eUd0l4mfRvQ6UjnY3ysdOLjUobFh4h4R6WXsfXUAp727fG6U7hfcjyWykDiWQghSoi/mH0BGuYEz2GsItYrcQ+JZ1Gd4LaNdZkOLYJaffnVvU4td4umkYe12QOr+e9aCCGq2m2b9xHvq8cff9xmWeAdhgfMfWR4TxE9nuCBmUh/rxGQjyCDHJt7Y7jJvn37kq0lI9O7kmnYiM3B+5aggJko7h1LDBGCEMbby/M+Ls++D0PiWQghSgAv4vSXMQF4CATEmEimeBFFkXgW1UkcMMzhN4xwztSwIq+yLBVCiNyjqsUzgQkJJuiilqkTiZkAxFZgznE8ZHhPMYc4gSLpuEd4En/he9/7nsVUQEgTdJAI+0TzB2IuEEWfmAwEQfzrv/5rm2GAOAzEa+D9R+wFzs97k2j31N9Ezmduc4IrEsuBmBB0OHINBL/kmMSCQPgjwAluyfSOD/LkwcJMMEOumWs8dfq0Bbzs3LmzRfRnpoBLFy9aWb4T7ptPwEhB3AnytiXnOJqq95lFgOCNWL+B+8n0nq8IJJ6FEKKU8HKmp5aX9XvvvWeVBribUGW+tHMJiWdRnTDfL5Znx3+biGe3PAN58e/WXQiFEPlNVYhnbyvwiXAkHoNDAEG82xDKzAox4913TbwyjR0xGrDwtu/QPgwYOMD2a1C/vsV34N2H6CawIdZcOveZwm7+gvm2D6KZ/RHOxILASsz1IIIXpUQq+40ZPcaO8exzz5pwJcAi232qOqaZw3qNWGZ4DDMTcFys38SS4NjFQZuJ4/Xu1SuMGzvWRC8iH4s7bSuG2cxMta3oCGCmAWYQqF+vngVepN3FNXAtxJhhejsCOnKNzH7ArANg7/RKeo9LPAshRCmgEuJFzcs9rhx4URNNW43ue0g8i+qERqFbnmOBnOk3Sn68jXUhRH5TleKZTjssvAjEdBCpPg89VlcstkT/xzqMeEUgMw0dohZwnWY7QnPQ4EEWkwUrtsMwFbZTP7MPY6yZzu+xxx6zayB+S+NGjW0/ygHXQJsHqzZiF7Bic1zmymdKRsozld/w4cPNM684sKxjZWaud8CCvmHDhvDGG53MOME0gRwH0YzFG6ZPm2bCn2n6uAas5Fi4uf/f/va3lo81mmn/4nHSlYHEsxBCpPCXbPrLNk4zFy+VEfOq4mIkHozEs6hOYrftympECSFqLlXtto04RHg6WJOZo52p8N6fM8fyEKuUwzrMMdasXm1iGjdpLK/UuYhfhCeeN1iccdN2EYxwxe26b58+4fz58ya8CU6GBfeVV16x9ybu2EuWLLE2D1ZkYMo/hCoCmmtcs2aNzUmPKzdTc3KtS5ctMxdw9nmQ2/b11HUz5A3xTIAxpgnkPhHDiGeOxXhvxDljwAG3dRbuh+vHUk1HAjObcN1c86xZs8wdvLLf9xLPQoi8hpcsi1ul4rSD2xQVB2OImLvVqSyXoJqCxLOoTnyqKiGEKAtVLZ4RsQhSrKiIZFy0EYkI0Tp16thc9bzTELBYa3HrRiwiIpk7HhGLUMYCi+ikDMc6efKkWXoR0Hxi3W6Ras8gUhHZWKpp80yYMMEELOfA9RtXbMQqcA4Erotctr366qu2P+OuEa8IaQQu2zdv3mz70Z6iXsad3EHA44bO/WHpnpIS3MdTZXDDxpqOBZvjIJJx28YtvG7duuZezj1heT5y+LDFm8GKTgcA5+RYjNGGymyfSTwLIfIaF8vgAjoWzrgeYb3ihe2BNyAeMykyI/EsqhOJZyFEeahq8QwIaFypcY1G9DqIYqzNBAejjcJ4YAJv4b7M+GPGEWMtPnT4kIlt9mdstIvWAwcPmADGPRoQv5+kRDPWX4Q2Fl8swohWLNtYhPGwQ5RzPs6BIcHyUvuQt3DhQrOKE2WbIW2nT5+ydhLHpKzDeRDXDveO0PUxylw75+c4HPez1HdwMCWQgTy+DyzMwH3TacD/Bld1QEBThne+x6BBPMftu4pE4lkIkbf4izV9ASpLXsT0ek6bNs16SoHtzCFon6mXsygeiWdRnUg8CyHKQ1WKZ297pFNcfnmI2y6sY+lFJBdHea/h+PHjZkV2bqSEMmOaLyYRtYvwgHNlMlo86HurrDaaxLMQIr/J8IKl55RIjrhPxUEveBn7i5pPReV9MMxTSeOjqiBoCeO2hADGy+HmKIQQZaEqxHMs/uI2BsRpX09fgHaIr0OmdS9P2UztlngfSE8D+9HuYQuLH8fP7/v4OeI8x/KT/RzSGCV8G/vERgo7X3QsX4/P4Uu8/ZtvKqd9JvEshMhbeLn6y9dhagZEM+5E586dS3KLkv6CFpkhcifTTjAvY1Usf/u3f2u92Zm2acm/hSA0jO8TQoiyUJniGbdoh3YIpLcnPJ3eTomJ8y9duhS+itylM+0T5xXZnlrHDZwgYgXJTGL0XjomUzq9fGGZtLzCbUm+E7td23by0sv4tmj7vbL3l68oJJ6FEHmDV1Bw7wVb8EklyVgfglgQFCx2D6qsF3BNB+FM4JKqWvjfNW7cOOM2Lfm38Cy454h+w0KI0lJVlmdfysuC+fML5zkuLZyfa2KeZh9LrPdmZiSehRB5AZVAcWOVCUDBtAkEBTt8+HCSm+wT9X6Kh+Pf1d27CqgmsoN0F0EhhCgJVSGewetNIlfjLfPkk0+GOXPmWBAtOqEJvkXbhIBgRLFmaqp6deuGPn36WBCxl19+2eJ9EFSMoSpEpiayNsf88suvQsdOHS0mCJGyMQywD53NHhE7tmwT0RoBXZH3XNOQeBZC5AUumL2CACoRIkAyBdWkiRMLg4KBl/P90gW3KB6+OxfP8fctRHVw587tZE0IIUpOVbltpypKqyubNmtqQ8YQwT5NFVNNEXgTocuUmbRZ8Kr5dN8+E9mIa6aYmj59eli6dKlNH4UA7t27j0XUZhqn99+fY0YChDVRsX1eZBPwVl/fa98g2Jmn+ezZs0mOSEfiWQiRl5w+fToMGDAgtGzZ0uY4jEkXyhLOJYcGgAUUSauQhahKeP584TmMh2EIIURJqArxzDvKP7EkYx1mG/M8Hz50yOZZJv4KQ1CYFgrR667ZBDZl6ipitcyYMSMsXrw4TJw40bZhpSYGSP369cLjjz9uc0DXrl3b5oju27dvoZedvyP9OrhXpqqK52UWRZF4FkLkHWvXrrVJ/ZkXkDkSHSqPwiVVmXiF4pWKeDh8V3FFLER1ED9/+h0LIcpCZbttx+8l3lN06G/bts2CdiGemd6pQ4cONqUTwnjQoEFh3rx5Ydr06dYhiNjGOo2lGvG8aNGi0Lt3bzseczczXR/D0bBOMxUV27E8c54j0RC1GBPPY8bcN+2j3p/3kHgWQtQ4qIQgvcHMRPr02BJMaNHChRZZMh0vr3GSQgghRP5SZW7bKRDDjFNGPF+4cMGEMRZnrMQvvfSSdfgPHz48zJ8/P0ydOtXaL7h0I7ARz7Pee8/cths2bBhap8riVYfrNZZs9sXyPHDgAMtDmB9PieOtW7cWBgdzOCeu3tw7eDvqTlp7KW5b5RsSz0KIGoe/7OOXO72unTp1Ct26dQv79u1LcoUQQggh7qcqLM8+pIROfzzhyEcYM84Zrl69Gj5evdrcrG0qqq++sgBi7EuZGzdvhitXrlje5dR28latWhVOnjxp+8OOHdttFhGOBQho7umDDz4Ia9asKWwvcS2zZs0KK1assHJ3o3wrk+bFE6/nExLPQogaDZXQggULLLIk44W8NxXy8aUvhBBCiIdT2eI51QgpWIqhvG0U2z/tGPExcfnGyu0QLIzx04h0IPAn5dO9+TzNZ3y8fEHiWQhRY8H9iGAbuC+tW7cuyS2oAPL1pS+EEEKIh1Pp4hmidoiLU8fWkzzPLxSyySdW4Xgazrisr7Pd0mnbHZL35907ry9F8lPHQlz79eQTEs9CiBrJhg0bQps2bWxsz9nE/Ql40Us4CyGEEOJBVJZ4fu655wpdqAvFaFqbpLi0ieVIBLtrtS/FkWn7N9+UrC3k4hzuP8bD969pSDwLIWoUjP2ZPHmyBQUjsMbNmzctP37x52NPqRBCCCFKTlVYnuO2CVG1mQWEaamAcctjx44Nl1L5JRWpBAg7ePCgedvt3Lkzyb0H0bY/+GB5kirg00/32TzS69autYBlTN/JuGjy0qNuA9NlEbSspNdU05B4FkLkFP6yjnteHeYlJCDYG2+8Efbs2ZPk3ttHCCGEEKIkVJV49jYKonXo0KEmomHu3LmhVq1aJogBIXvjxg0rj7AmpgvzPL/33nvmbUc+0bPZNmrUKIu+TVuJaa4QvIxlpm1EVG+2rV+/3o7LMQikyvzOs2fPSonpT6099frrr1vZw0eO2Ln8vIjz7t27F5nqM5+QeBZCZD1eubAwXYJ9Jq5LwDoVAdZmemm94hFCCCGEKAtVLZ43btxo8zUDQnf69OkmqAl2inhlCilE8sWvvrL5nLESI2JZELo7duywfYiWjQfe8uXLTVi3bs1UVQ3DmDFjwoEDB8LLL79s80fzyT5MdTVx4sQwZcqUsHDhAlunTfW73/0utGrZMvTq2dMENdboYcOGmYffkCFDwhdffGHXmm9IPAshcgKvXPiM3a6ZnoGXeOvWrS1KZIxVSpRN9hVCCCGEKAmVJp6fe65wnmdvnTAG+t133w2rV6+2NC7XtGtWrlxp8VuIio0FeejQt0xkI2I5xtq1a8Pu3btNQDNUjammEMOTJk0y8YxFGffrefPmmeDeklpv3ry5iXHE9+jRo8OiRYtMOE9M7bNg/gKzQHP+2bNnh12pT66BYyGomfKKNhjlEfIcJ9+QeBZC5CxbtmwJ7dq1swoBt6NMuIB28S2EEEII8TAqXTxH7ZIzZ86ECRMmmLs0DBs2NDzxxBOhYcOGZgFGtOIyTRBUXLtp/zCnM20gxPCjjz5qZXye5ilTplp68uQpoX79BmZl7tKliwlmZiEBrM4ci+k8EdsFlueF5sFHOSzQCPXz58+b1Zvx2EeOHLF9Efm4gnsnQD4h8SyEyHruWZsLKhrmIpw2bVpo2rSpVRQeFMyJhbJEsxBCCCFKS2W6bcei073psPDSpjl9+nSoW/d1m24T9u/fb1ZohqS1aNEi/Pa3v7Vrcqs07tSdOnUyF+2pU6eZaJ44cYIF9UJcYyFesmSJuWpv3bo11K5d20QxIpp9EMxYmxHNWJsRypTDzZu2FtfHeTg3w+Rup87NWGg3WuRbO0viWYgsQ2LvfuLv5PDhw6FXr15WCeCq5FBG350QQgghKoIqG/OciGcCeOFCjfV5xoyZhS7RuHTjXo1YxSUbCzEgwHHXxpAwc+ZME8RE2aZtxDA2xil/8MEHJpYRwghoxjwzrrpjx46hT58+JoZ37doVPvroI9sHizaWa87FZ9cuXUw8Y5lGjAP7YIXG8p2PSDwLUc3w4uTFxOICsCJEoB/HezTj43s6Pm+2kH6NDpUIL/LGjRtbJfDVV18lW4QQQgghKpaqEM8xGAdatWpVOFVVtrBq1arQtWtXG3cNWMdJZ7qHfEDiWYgqJBaGMXF+cWUehO/j+5koTqJRx9vo3fQ8K5NavHy2EF+zg1AePny4uQzR6yqEEEIIUZlUpXj2dhnjmhGp3mYDLL1VDQYLb48RVfvcuYLI2qSxOLtLedxWyxcknoWoJuIXYwwvydK+jLx8ugj2NJ93Mxwz21569p2kXRMRH9u2bWuu2sePH09yhRBCCCEqj6oSz972ids/li6m7VbZcEa/lvR2ZXyN1rZM254PSDwLUQ3ELx+mEWCcyYkTJyzNtrK+jNiXqZuYuD4+BxBogiAUTLBf2KsZLdlAfC0EAXt3+vTQrFkzG5/DdRtZds1CCCGEqHlU2ZjntPaMi1Lyq1ucxtfg1+l58Wc+IfEsRDXgLyLGkTz//POhfv36Ns5l7969ll8eCAZBwId0EOfr1q61qI1ESfRr4NPXs4Vjx46FPn37WnRJplJwCl/ULHn2shZCCCFE1VHVlmfH2zpgbZ5qbO+knxvvyLt377mRV+e1VRcSz0JUE0QyJEKiC2YCRAwZMsQsrnPnzrV5/Ro1bhROnzlt0RN79+oVnnvuuTBixIjC8S+UZZoBxp8QdZH1NWvW2LQETF2AIOc4iGnEM1EXidj4P//n/yyciB8q8+VX3LHJ9yWGqReYs3DUqFEZg4JV5rUKIYQQQkBVBwzLBdQGk3gWosrghVPQY3fP6swUAzG4JjMZPdMBIIjHjRtngpjo0u3btQubN28OL770okVkBI7Zv18/C6K1JbVtZEpYz0sJbwQyk9tPnz49HD16NKxdu9aWAQMG2DFatmxpbtx+jNQfW69sOJe/eO8kwSgcrofrJpo2UbWFEEIIIaoLiWeRCYlnIaoIF44uHplTr3fv3rbuecA68/whIh977LEwfdq0MGXy5LB48WLbzj4HDx60dVicKjt+/PgwPiW0sSazMB8f7ttEp2ZhDDSieejQoea23b9//0LrtblA21rl4ffn98/i5wcPCsacg0eOHElyC6hulyUhhBBC5B8SzyITEs9CVDEeYZtxvbhtu1jEQvzO2LFh06ZNNtYXkcs8elihCZy1dOlSE5xYqxHGDhZqjtOhQwebOoDgY1iqyefY7Mc0T4j1YcOG2aT5iGensoWpH99FM7jFmQoJyzpBwaZNmxZuJkHBCq8p9Rlbp4UQQgghqgKJZ5EJiWchqhBEYSwGsTDXrl3bxiY3bNgwrF2zxsYq16tXN3Tr1s3E87iUoJ48aZJZnnmBkx9bnqFJkyahUaNGtr4sJZaxRFOescNt2rSxsc6IcizPTPdUp85LYf369VY+FrWVhU23kFri8zAGG0szFuc4wFl8PQoMJoQQQojq4NKlSyaeK5patWolayIX+eEPfyjxLERVkUkIbt26NSxcuDDs2bMnySFi9v6wbNkysx6fP3cufJFaGBPM/mfOnLGx0bHIZOoppqgCyhFoiwnuP161ysYPs04vJ+7bWK85FxPxVyXxvRMUjHHXBEiLg4K5Vd7LxvcohBBCCFFVXL16Nfz85z+3GDUeO6a8CzFq/vZv/9Y+M22v6oWAtCzp6UxLvF++LX7/fP7Zn/2ZxLMQouKIhW+6tRmBP3bsWLOS0zkQj3sWQgghhMgm3h4+PLz++uuhXr16FbbUrVs3Y351LUyX6uu0zxgK2LRJE4uZgwcjQ+vIj/fJt8X/Z3ziASrxLIQoN+lWYhfPzu7du0OnTp1Cz549w6HI7dz3Sd9fCCGEEEJUHYcOHbKgsyxMjUqsnMGDB4eNGzcmJQRIPAshKpRYBDMX9fz58y16OMHPmI8a3EU7VfjeuhBCCCFEFhF37tfUTn43dmzbts3i5hDE9Uc/+lEYNWqUxefZvn27bc9HYkMQ/3+8JiWehRAVAi+U+CVz6tSp0K9fv9CuXbvwySefJLkpkorIKiH/FEIIIYTIUrzdUlM7/NPbYrgpE2TWyee2WjwMkU+JZyFEhRC/WNesWWNRxAcNGmRTaDkFLyBZmoUQQgiR/dC2SV9qCvG9sE6AWb9HxLMHs/W8fCTTvUs8CyFKRfqLJO6FJdr3+HHjQqPGjcOSJUuKBAXL9AJKTwshhBBCZCM10epcXDuMwGG7du2ydbXViiLxLIQoNeaenSaGCQpGFMI33njjvrmohRBCCCFEbkCkbcZAg8RzUSSehRClxtyvkx7YW7dvm5WZoGCTJ08Oly5dsnwhhBBCCJF7MPSuSLwaUYjEsxCiVBSMWS7ohTx79qyNa+YlywTyjnophRBCCCFyk/bt2xdp14l7SDwLIcoEPZKMiUE8nzlzJsmVcBZCCCGEyGUYgrdq1aokJWIknoUQpYK5mplAv1mzZmHu3LlFgoLFU1VJRAshhBBC5B5du3YNH374YZISMRLPQggDseuLz2mXLoAPHDhgQcE6duwYPv300yT3nlBOLy+EEEIIIXKLnj17WjwbUNuuKBLPQggjFst8uoCG27fvhGXLlllQsPHjx9uUVI5eqkIIIYQQNYfevXuHhQsX2rraeUWReBZC3AcvSn9Znv3sszB06DCbtmDdunWWB16mJs57KIQQQgiRr/Tv39+G5on7kXgWQhg+XjnuYdy6dWto3bq1BQU7ceJEkltQ5i5jnfmUeBZCCCGEqDEMHjw4zJw5M0mJGIlnIcR9EBSMOZuJpj179uxw69atZEsinCOhLfEshBBCCFFzGDZsWJg2bVqSEjESz0LkEW5Vjq3L6Rw7dix0797d5vjbvXt3kpt5H/IedCwhhBBCCJFbjBgxwowo4n4knoXII1zoejCwdOG7fPlym4JqzJgx4fLly0muEEIIIYTIF2gHjhs3ztZlJCmKxLMQeYa/BOOX4blz58xFp0mTJuGjjz5KcoUQQgghRL4xduxYE9Ag8VwUiWch8oz0McoEBWvTpo1FVjx+/HiSq5elEEIIIUQ+MnHixPD2228nKREj8SxEnnLjxg2LpMjczTNmzAg3b95Mttxz6xZCCCGEEPnF9OnTLeK2uB+JZyHyECzMPXr0sKBgO3bsSHILrM22KIK2EEIIIUReglFlwIABSUrESDwLUYNItxZ7Os4nKFjLli1tjPNXX32V5AohhBBCCBFsmtI+ffokKREj8SxEDSAWx2Y5jhYHoTxq1Cibu3nFihVJ7v2CWwghhBBC5C9z5861aUvF/Ug8C1FDiEVwunDeuXNn6NixY+jZs2c4efJkkiuEEEIIIURRFixcELp06ZKkRIzEsxA1DESzR9S+deuWud7Ur18/vPvuu+H69euWH5cRQgghhBDCWbp0aejQoUOSEjESz0LkOLGVORbEp06dCn379rWX35YtW5Lce8LZ95OIFkIIIYQQDsP7mMZU3I/EsxA5TiyenTVr1oQWLVqEoUOHhvPnzye5BXh5W1LCWeJZCCGEEEI4H330kbUjxf1IPAuRIyB27965c59QjsXvxYsXLShYs2bNzOUmJn0/IYQQQggh0sEI07hx4yQlYiSehcgRTDwnlmIXwrEg3r17d+jcubMFeDh27FiSe6+MxLMQQgghhHgYG9avDw0aNEhSIkbiWYgc486dOwUCOrE4ExRs3rx5oWHDhmHatGnhypUrli+xLIQQQgghSguxcurVq5ekRIzEsxA5QiYL8unTp8OAAQNC69atw+bNm5Pc+8tKSAshhBBCiJKwffv2UK++xHMmJJ6FyCFiEbx+/frQtGnTMHjw4PDZZ58luZkFM+sS0EIIIYQQ4mHs2rUrNGrUKEmJGIlnIbKQdLEbr+OWPWbMmNC8efOwaNGi+0SxRLIQQgghhCgre/bsCY2bNNaMLBmQeBYiC4nFcyyG9+7dWxgU7NChQ0muEEIIIYQQFcO+ffss2vbNmzeTHOFIPAuRhRAMLBbNBAVbuHBhaNKkSZgwYUK4erUgKJgQQgghhBAVyYEDB6zNee3atSRHOBLPQmQ5Z86cCUOGDLG5mzdu3FjEIi13GiGEEEIIUZEcPnzY4upcvnw5yRGOxLMQWcymTZvs5YV49qBgmdy5hRBCCCGEqAiOHj1qRpsvv/wyyRGOxLMQWcjVq1fDpEmTTDjPnz/f5nZOJ57rWQghhBBCiIrg+PHjFpj23LlzSY5wJJ6FqEKwFj/MYkwgsK5du4bOb7wRdu/eneQWY2mW9VkIIYQQQlQgp06dCi1btrShg6IoEs9CVCEI4CLjlNPENFNPtWjRIowbN86sz47GNgshhBBCiKrg9OnTJp5PnjyZ5AhH4lmILODzzz8Pb731lrnIrF27NsktwNyz00S2EEIIIYQQlcHZs2dD69atbeyzKIrEsxBVSCYBvHnz5tCmTZvw5ptvhhMnTiS596zUEs5CCCGEEKKqYKwzbdODBw8mOcKReBaimrhy5UqYPn16aNSoUZg7d26RiehdMKcvQgghhBBCVCYXLlwIbdu2DZ9++mmSIxyJZyEqGRe9sfjFDYagYF26dAk7duxIcoviVmchhBBCCCGqiq+++iq0a9euSOBaUYDEsxCVhFmLUwI4XQR/8MEHNgXVqFGjikw+L6EshBBCCCGqG9qn7du3D9u2bUtyhCPxLEQF4yKYz1g44wIzbNgwCwq2atUqywOJZiGEEEIIkS0w40uHDh3Cli1bkhzhSDwLUQm4cHa2bN1q7i+9e/e2ufMcyvkihBBCCCFEdXPt2rXQsWPHsGHDhiRHOBLPQlQwsWjm5fPuu++G+vXrhTlz5oQbN24kW+63OEtACyGEEEKI6oYgtm+88UZYs2ZNkiMciWchKoljx46Fnj17hk6dOoVdu3YluQVkEs4Sz0IIIYQQorq5ffu2ied4mKEoQOJZiBJQEmEbl1m5cqVNQUVQsC+//DLJFUIIIYQQIruhTdu5c+ewYsWKJEc4Es9ClANeLrGbNqH9CQrWqlWrsHz58iS3qCu3EEIIIYQQ2QzTqS5dujRJCUfiWYhycPfOnWQt2HzNuGj36NE9HD9+PMktQC7ZQgghhBAiV+jatWtYtGhRkhKOxLMQpcSFsFuTb926Fd57773QpEkTCw5GkAVHFmchhBBCCJFrdOvWLcydOzdJCUfiWYhywLRT/fr1C61btw7bt29PcgtAOLt4luVZCCGEEELkCt27dw+zZs1KUsKReBaiTHwTVq9eHZo1axbefvvtcP78+SQ/tSUlmG1JCWYfEy3xLIQQQgghcoUePXqEmTNnJinhSDwLkUYsdF0Ex1y8eDGMHDkyNG/e3AIpyDVbCCGEEELUJHr16hWmTp2apIQj8SxEBlwwI55TCVsH5mtu27atubIcPXo0ydXYZiGEEEIIUXPo2bNnmDhxYpISjsSzEBlAPMcWZ4KAvf/+++amPWXKlCJBwdIt00IIIYQQQuQyvXv3DmPfeSdJCUfiWYg0CsTwPfF8+vTpMGDAgNCyZcuwZcsWywOJZiGEEEIIUROh7TtyxIgkJRyJZyEiEMSxKF67dm1o0aJFGDp0aPj888+TXAlnIYQQQghRc6HtO2zYsCQlHIlnkbc8SABfunQpTJgwITRs2DAsW7Ys3L59O9ki4SyEEEIIIWo2I0aMMAEtiiLxLPISBHA8hVQsiPft2xc6dexok8MfPHgwyRVCCCGEECI/GDNmTHjrrbeSlHAknkXekm5BvnPnTliwYIFNQTV+/Phw/dq1gg2yNAshhBBCiDyCtvDgwYOTlHAknkVe4pZnh6Bgb775pgUFW7duXZIrhBBCCCFE/jF58uQwcODAJCUciWeR9yCW27RpY1EFz549m+QWCGxfhBBCCCGEyBfeffddMyyJokg8i7yFoGD0qhEUbNGiRYVzNyOWceEWQgghhBAin3Cj0axZs0K/fv1sXdxD4lnUeDJZjg8dOhQ6d+4cunTpYgHChBBCCCGEEAXMnTs39O3bN0kJR+JZ1DhcLPOZLpwZ57x48eLQpEkTC4Rw8eLFZEtmkS2EEEIIIUS+QRDd3r17JynhSDyLGoeL5nTxfOH8+TBo0KDQqlWrsHr16iS3QFBLOAshhBBCCFHA0iVLQs+ePYsE2BUSzyJP2Lx5c2jfvr31oJ06daogM01kS0ALIYQQQggRwocffhi6desWbt26leQIkHgWNQoXwP759ddfh6lTp4ZGjRqFefPmFQYFAxPMd++qR00IIYQQQogU3ob++OOPLTbQjRs3LC0KkHgWNYrYekxQsO49eoSOHTuGPXv2JLlFy/i6CelkEUIIIYQQIh/xtvDatWstuK7Ec1EknkVO4kLXrcaWTtbJW758uU1BlR4UDCSQhRBCCCGEKJ5NmzaZAQovTnEPiWeRs7hgjsXw+fPnw7Bhw0Lz5s3DypUrk9wCvJzEsxBCCCGEEMWzZcuW0KFDh3D16tUkR4DEs8hJTDinieCtW7eG1q1b24TuJ06cSHKLimaNbxZCCCGEEOLB7Ny5M7Rt2zZcvnw5yREg8Sxyntu3b4fp06fb3M1zZs++LyiYY4Jb4lkIIYQQQogHsm/fPjNKpQ9/zHcknkVOc+TIkdC3b1/7ce/YsSPJLQArc7pbN6SnhRBCCCGEEPfayQcOHAitWrUKX375paVFARLPNYCaIA65Zl8ypbEur1+/Ppw7d87S5DP/XOPGjcPo0aPDV199ZflCCCGEEEKI8oGBqkWLFuHChQtJjgCJ5xzHxaUTC85cw6/dLMYZ7oFAYEOGDLEfMYKZoGAI6FRh255r9+33K4QQQgghRDZx/Pjx0KxZs0LDlShA4jnHiadqgrt37thnLuIyMl1Q3kndE5H+sDz/6Ec/Co8++mgYOnRoOHbsWFIit4RocZ0DQgghhBBCZAOnT5+2eEKff/55kiNA4rkG4MKxJggyvwPGV4wcOTJ069bN5mt+/vnnwy9/+cvwr/7Vvwr/9t/+20Lh7J0H/pkrSDwLIYQQQohsBYszbfDPPvssyREg8SyykitXroQpU6aYtXndunVh0KBB4cknnwx16tQJEydODD169Ai3bt1KSgshhBBCCCEqCuIJ1a9f3yzQ4h4SzzUE5jVes2aNuTMPGDDAxGauLQMHDrSFdcY2jx071izPv/jFL2z54Q9/GJ599lm7x6eeesq2DR48uHA/1tOPmU2LX+O8efPu78WTJVoIIYQQQmQJly9dDnXr1Q2nTp1KcgRIPOcID3LLHj58ePh//p//J/xf/9f/Ff79v//3tvzRH/1RTi3xNfs6n3/wB38Q/r//7/8zV23u8b/8l/8S/viP/zh8+9vftk/fJ94vGxeuzZff//3fN/fz9u3bF04872PVa4r7vRBCCCGEyF2uXbsWXnvtNTPQiXtIPOcY6cJq3Lhx4fd+7/dCrVq1wpw5c2yu4927d4ddu3bVmIV7euSRR8KYMWPCp59+anm5do9cr1/zihUrwssvv2z/tw4dOiT/ydwdvy2EEEIIIWoWt2/dtvZqHKBXSDznJC6gb968aVbZn/70p5auqeAu8uabb1rU7ZoEc1T/63/9rwtduP3/KsuzEEIIIYSobl588UWb71ncQ+I5h9m5c6e5ADMGGL7JgymQuL9ctMz6dd9Nffr/aOHCBeH//r//77Bq1SpL5+q9CSGEEEKImgfi+cCBA0lKgMRzjhGL44ULF9qY4AULFliaLYivuExNwO/JxWWu3l98D7Bx4wb7/73zzjuW5rYknoUQQgghRHURt7OZ5Wbfvn1JSoDEcw7iDzVRm7/1rW8VimenJgkwv9f4h5zTpO7D/z+M5f7DP/zD8NZbb1k6tbHm3KcQQgghhMg5aIt6e5SAYbRXxT0knnMYRPP/+//+v/eJZ5EbbNu2zcasDxs2LMkRQgghhBAiO2jQoEHYsmVLkhIg8ZzDSDznNhLPQgghhBAiW2nSpEnYtGlTkhIg8ZzDSDznNhLPQgghhBAiW2nRokVYt25dkhIg8ZzDSDznNhLPQgghhBAiW2nTtk34+OOPk5QAieccRuI5t5F4FkIIIYQQ2UqHDh3CRx99lKQESDznMNUlnjNFhC6IzHcvQt/dO3cs3yNLF7dP/JlO+nY+40jicdrnuE4va3l8Jusx6emqRuJZCCGEEEJkK126dAlLly5NUgIknnOYrLI8mxD9JtxJiWYTrNHifPNNUeHrnwjtQqGb5JO+G6XByqby04nLxCCY7TjRsQvLph2ruGNUJhLPQgghhBAiW+nevXtYtGhRkhIg8ZzDVId4RmTeunUrnDx5Mhw4cCDs378/nDhxwjcWClIXo7dv37bl2rVrqby74fz58+Hrr78uFLRxecSuY9uT9I0bN8L169cLjwnHjx8Pn376aTh37pyl2fb11aupc90Kly5dChcvXiws758cE3H/xRdf2DHjPDt/slQVEs9CCCGEECJb6d27V5g/f36SEiDxnMNUl+V51apV4Ve/+lV44YUXbHnuueesVwqRnIm9e/eGSZMm2TquH4cOHbL1ksKx/R4R0WPHjg2vvvpq4fkRodC3b5+wevVqm49uw4YNlpcO+8+dOzecPXs2yblHJtfuykTiWQghhBBCZCtvvvlmmD17dpISIPGcw1SXeJ4/b16hGAYsz23btjWL7tGjR0Pr1q3D66+/HoYMGWJWZlw+vve974U1a9aEDz5YViieFy9eHOrWrRt69Ohh1uLr166F9+fMCX369AmvvfaaBSi4cuWKCeSf/OQnZm1+9913Q6tWrVIiuMByvHHjRpuD7rPPPrPzEBFw/fr1YevWrWFfSrRPnTo1NG7cOLRp09oEM1bz999/3yzWWJx5KXAN06dPt21VicSzEEIIIYTIVgYPHhxmzpyZpARIPOcw1Sae588v0guFKzbCFVE8fvx4sxQfOXIkPPHEEyaQly9fHlq2bGkCt3XrViZwN2zYGEaNGmXluP4xY8aY8H7qqadMIC9OHQPRe/r0aSuHwL5w4UJKpLcJu3fvTs5cAPm4hXfr1s3mohsxYkSYMGFCeC/1Y3/++edNTCPIEfO4c9ev38Cs4ZQZPny4Tf4+dOjQcPDgweSIVYPEsxBCCCGEyFZoH2NgEveQeM5hqks8L1u2LDz55JNmYWZ55plnwsSJE5OtwUR0165dzVpMWdIIYAKDkY8FGrGNsO3cuXNo3rx5qF27trlat2nTJly9etWO07FjR7Me4+qNq/VXX31leUdTgjsTHHvt2rUm4KdNmxbee++9MGjQINuGKzfbsY63b98+rFy50s516tQp2w5V6bINEs9CCCGEECJbof2OsUncQ+I5h6ku8YyYRTRjgZ43b54JUYQnbs9YiF966aUwa9asUL9+/bBixYqwZ88e67liTDQh7xkzzbxxvXoVBCFYsmSJBR47duyYCWks2ViSEdYHUvmcA5cRjo/L9q6dO+06XOwiqq9euWKCnDHPuJTjrs014G4CuHdzvnPnvrBzYxHn8+xnn9l2R2OehRBCCCGECOYZSqwhcQ+J5xymusTzvLlzw5QpU5LUPbAwI6pxjYZnn33WRCriGZdphClWX6zDkydPDqNHj7ZysHnzZovejau2i2eszLhXI7ARw8B5W7RoYdsBAcqYZVy+sSwjnvmRc3xcy98cMMDKrV+3zsT1559/bgKcMdFuqQbSPha7qpB4FkIIIYQQ2QrenFifxT0knnOYarM8L1li45KNlCAm8BYQHAwLM+7YiOhGjRrZOAnEcIMGDcwSTIAuxhjjmt2uXTtz16b8woULbXwzgpkxzETF7t27twnaXbt2WURvrMfkv/XWW6HWC7VsX6zcjGmGASmhTBnOOWfOHHP1Hj5ihG3b/MknZoXGbRuLNsHHGG/dsGFDOw7XWzjlVhUh8SyEEEIIIbIVjFfEBxL3kHjOYapDPGM9vnHzps2TzBzJNh9zKs/dnXGtRpQSHAwQ1IAgdlHsU1qxfvjwYROywDEQ1YhxnxvayxIpm8jbDkIXYY0wN1L7enmOezN1jSw+n7Mfj3NwTS74EdMcJz52VSHxLIQQQgghshWMZRitxD0knnOY6rI8VzYuxDNR3LYH7ZOtSDwLIYQQQohshSGQeHaKe0g85zA1VTznCxLPQgghhBAiW2EIJNO9intIPOcwEs+5jcSzEEIIIYTIVtAYzFYj7iHxnMNIPOc2Es9CCCGEECJbWbZsmc1OI+4h8ZzDSDznNhLPQgghhBAiW/nwww9Dp06dkpQAieccRuI5t5F4FkIIIYSoGTDDC7PIMPVquSlhIFwC5nJen0Wmolm1alVo3759khIg8ZzDSDznNhLPQgghhBC5D9OxdunSJdSqVSs8//zzYfXq1cmWyoeppD799NMkVQCiuiJmolm/fn1o0bJFkhIg8ZzDSDznNhLPQgghhBC5z8CBA8OoUaNs/YsvvgjdunULJ0+cCDt37gz169cPLVu2DKdOnbJl7NixoUmTJqFv377h9u3bts/NmzdtfPGXX34ZDh08GObPn2/W5I8++siOt3379vD666+HESNGWPlPPvnE3Kk5Vv/+/cORI0fC3r17w+TJk8OtW7fMcl0R4nnjxo2hWbNmSUqAxHMOI/Gc20g8CyGEEELkFumi9OLFi6FNmzYpAXs4yQnh8uXL5r49derUsGXLlpSwHhneeeed8MEHH4Snn346LFmyxMTwunXrrPzdu3dNCJNevHhx6N69uwntYUOHhj179oSmTZuG9957z4J3vTdzZhj+9tuhdevW4dChQ2HI4MGmBcaMGWNinWP5NZZXQG/dujU0atQoSQmQeM5hJJ5zG4lnIYQQQojcA1HqwvTcuXOhQ4cOKbF8ytIxa9asMSFcp06dMHz4cLMkDxo0yLZNmDAhLFu21NZh9ccfh/Hjx4elS5eG6dOnh/fffz/MnjUr7Nixo3C6KIR47969zcqNEAfStWvXNkEew/WVdyz0zl07w+t1X09SAiSecxiJ59xG4lkIIYQQIjdx8YylF/GMxdiZPXu2idkWLVqElStXhs6dO1t77+OUQMZCDG6Jdj777LMwdOhQc71esWJFaNu2bdi8eXM4cOCAHR8YS92jZ0/bl+NCv379wry5c8PgwUPCmTNnLA+4Pq6tPOAK/vLLLycpARLPOQzjIRDPy5cvT3JELkFwhz/8wz+0F6UQQgghhMh+XDTHYB1mHDPjj1u1apUSsoNNeDLemYBeBBMbMGCAWZXdaPL2228XEdyMVSayNcKYMcyMNT579my4evVq6Nixownxhg0bWhAvBDjHgp4pMU2Ub8ZMY5Fm/LST6VpLw8GDB8NLL72UpARIPOcg/kPgR/Nv/s2/CXXr1rUfGu4gI0eOtGACWrJv4X/j/yNeeu3atQv/6l/9qzAyCTAhhBBCCCFyk7179lgbb8qUKeHatWuWx5hhBC0Bv06ePGli+OjRo7YNgfz5559bu97b9ojV02fOmABmPLMF/0qBazhtR4/ifezYMQsk9s3du2H//v3hypUrFnyMMc8unm3sM5bncgjo48ePhxdffDFJCZB4zkH8B8bE5bj9/v7v/3744z/+4/Dv/t2/M0smn+Rryb7F/0f8v+j4+Bf/4l/YS1YIIYQQQtQcSmP1LWtZE8fFwDbK3i3DuGc/x4kTJ8xtu7zu3zUJieccZtGiReFb3/qWBR7AXYQgAr7Q06Ul+xb+N4x15v81bdq08K//9b+2SIoOL6vSvECFEEIIIUT1Q3AuE6uJ0EwXnHEbzz/Zx/ezfX09KuNwPLMmR/m+nx8D4jLlDRhGxO9XX3013LhxI8kREs85RvyDYczzH/zBH1hQAZF7pI959hegEEIIIYTIHRCsCNVC8RstxQle3+ebbxILMeVSC5/3tt2/X7zA7Vu37sv3fVnKAwHIGB7KuGtRgMRzDuI/hIULF1rAMD7B8/nBieyD/0/8v2H8C67cccCw8r7khBBCCCFE1VLYvkvacd6e47M4EZyOieZkW3oZ1tmevi1eh/Rt8WdZIAJ4vXr1bC5rUYDEcw7DFFW4bc+dOzfJKf4H4mMiMgnrh/6oUtvjMvGPNx3P8/N42UwUd4yYeLuvp+elHyNTufiavVcQPK84rHxyL76vrSdpW0+O4ekHEZdx8aypqoQQQgghREnakiWlPMfyfQlKRoRvApaJAiSecxh32+YTeNB9idPF4ULwgQLXRWfq08sVfBakY/wY8bFYv3P7dpK6Hz/+g8i0nTyW9Gv3PF/3z3g9/oR7a8UQlS2yHpHpuA9D8zwLIYQQQohsw9uziOdGjRpZlHBRgMRzDoPlOZPbdgx5X375ZWjXvr2FmmeuNuaDI6R9Jhg/TWQ9JmVnTK5brB8EofSLzjX9Tdi0aZPNb+ecP38+TJgwIXz99deW5rri643XmYLrhRdesJ4uu4bUtjlz5liI/48++siOlQ5W3E8++SRJ3c+lS5ds/jufOgC4Prfacw/r1q2z+65Vq5Z9Vyzz5s2z0P/vvfdeOHjggJVdnyrXrVs3m+h+65Ytlgfp9/QwJJ6FEEIIIUS2Qpub+asJHCYKkHjOYRDPTHfkAjAWbgzwd4HM/G8IwS0pYYhIZM5h32fJkiVh0qRJNtccAvP555+37cwTh4gGBCtlEOEISY4xZ/ZsOz9idPTo0eGpp56ycwLXgTBlbjhADDMRPJO9+zW5dZh03JuFIG3durWdHyHLpPAI465du4bdu3fbOuW5XiaWR9xev37d5szbt2+fHYM58iZOnFg4jx5cvnw5bNy40cadXLly2cQwE9j36tXL5tAbN26c7Tdz5kybf5l75Hvr26eP7dcldf5du3ZaGSapJw8XFoRvWXvjJJ6FEEIIIUS2Qtu/efPm1u4WBUg85zC4a2N5ZsoqBxdpBClBqFauXGniFlGJ4EPkMXE6Ynf69OlmZW7fvn3o3r176Ny5czhw4EB45plnbOorJnRnHmmmV2rVqqWJ2CFDhpgoJuoeAvexxx4zEfrOO++EX//m1+Hw4cPJVYQwduxYE+YLUtfYuHHj1DFamTUZoeuwjjBnQnnELWHwe/fubaLY2bNnj4nY/v37m3BGaCKwCV7AtT/55JNhxowZJqKnTp0aTp8+bYKY6+2TEr4XLlyw4yDksRbzEujTp3do2rRpaNmyZXhzwAD7fnyu5dmzZ4chbw2x74myPXv0CGvXrrXzjx49yo6LgHb4DmO3+dIg8SyEEEIIIbIVAoXRho/bvvmOxHMO4+LZ3bYBa2udOnXC3/zN34Sf/vSnoW/fvmZF/c1vfmNiF3HcoUMH+zHggoEQRQAiJImoh8V2165dYfLkyeGDDz4wAcqyZs0amyT9/fffD2+88YZZa9kPkYyo5TMGMYpAR5gj2lk4b6G7eEposs/Pfvaz8Hd/93fhlVdeMbfrN99808RyQZF7YhRRzXmGDx8ePl61yo6F4EbYIvRx68ZqjIjm2gHh7PPSIar5LrBoI7qxfCNe304dDwu6f4eI57/6q7+y7wlrOveLyH/5lZfDn/7pn4bf/e53ha7nwHdFZ0RZkHgWQgghhBDZCl6pGMzcu1NIPOc0PuaZTwfBibDFmssYXtysEaO4TDPon20OgrN+/fqhbdu2NgE62xGniDoEKJZjrLiMk+7UqZNZpFevXm2fgLjG2st52M/hGnDz5hg9evSw8RIIWay3cah7XKhxfx4/frxdFwsi2S25gDUcazeieseOHeb+/dHKlSY4saqvTol/zsW9YIFmmTZtWrL3PegoQDzjCo6gB74XvqcZ775baL1HPL81ZEjh9QBWaCz3WMTZPnDgwEJhj6AfM2aMrUNprM8Sz0IIIYQQItvw9ixGL4YzYnwSBUg85zCZxLPz+eefh6uJlZegW6+//nq4+NVXlgZ+EliQCeK1MyVKCc5FQK4BAwaYtRVrLmOVOTZu2fxosCZj6SXgGKIcay3CcePGDfbDioUx+zOuGnE9ftw4s2g/++yzhZOs+48SARwHAEOI4x6CpRuhjkUcizQifsuWLXZ9iPZ+/frZ2GUClWH5fTclgCenrm/Dhg0m9Nl/2NChheOu+eR+GafM9c+cOcPGPPuYZkQxILxx5Y7B0kwHw9atBcHBcHGnswCrNtc2PYNYLwkSz0IIIYQQItvwdjrtdjw2abOKAiSec5gHiecYXKYReFcuX7a0/SBSC4IYy/Nbb71lghkRiys2whDhjOjGvRmLLdZntmGdxiKN1ZgAXojU8+fPhT59+5gV1kH44uKBoEZYI36x7sbRrmNiiy3joHE9xxqOYAbukQBmjMPmuAjoGzeuh/37P7VzUQ7hzHVhycbFnPO59RjLN2Ke82DJ5n4Yw71+/Xob24xFm2vFMs2xwafBQiTz/fiYbj4Z+0xnA50DO6L7Lg0Sz0IIIYQQItvwdjntdtq8zKIjCpB4zmFKIp49qrXjgjAWqxXNw47Ndr8uL+vX9LB9H8bD9i9uO+7f8dhxL5dePk7jRs44a+bLJt+XkiLxLIQQQgghshUMSHhc4nkqCpB4zmEeJJ5jIRcLOkRrEUGd2pYuZD2dXpbtpP3YtiRp356+eH6Mb4uPBZ6G+BNrcnpZ8GuL85z0sqmcgr9RnpdhQQATgMzz/dPP4ZD2PNy5cV9PFSw8TmmQeBZCCCGEENkKcX+6dOliAYZFARLPOczDLM/FibmSijwXrI6v81nSY5SV9ONX9vmqA4lnIYQQQgiRrWAkYqpXhm6KAiSec5iHiWeR3Ug8CyGEEEKIbAXvT2bOIRaSKEDiOYeReM5tJJ6FEEIIIUS2guenB/0VBUg85zASz7mNxLMQQgghhMhmmHWHGWtEARLPOYzEc24j8SyEEEIIIbKZ/v37h/feey9JCYnnHEbiObeReBZCCCGEENnMgAFvhhkz3k1SQuI5h5F4zm0knoUQQgghRLYRz3IzaPCgMHny5CQlJJ5zGInn3EbiWQghhBBCZDNDhgwJEyZMSFJC4jmHkXjObSSehRBCCCFENjN06NAwZsyYJCUknnMYiefcRuJZCCGEEEJkM8OHDw8jRoxIUkLiOYeReM5tJJ6FEEIIIUQ2M2LkCLM+iwIknnMYiefcRuJZCCGEEEJkMyNHjQqDBg1KUkLiOYeReM5tJJ6FEEIIIUQ2w3jnvn37JqmikbjzEYnnHEbiObeReBZCCCGEENnMhPHjQ69evZKUxLPEcw4j8ZzbSDwLIYQQQohsIl0cT506NXTv3j1JCYnnHEbiObeReBZCCCGEENnMjBkzQrdu3ZKUkHjOYSSecxuJZyGEEEIIkc3Mnj1b4jlC4jmHkXjObSSehRBCCCFEthG7bs+dNzd07do1SWnMs8RzDiPxnNtIPAshhBBCiGwjFsgLFy4MXbp0SVISzxLPOYzEc24j8SyEEEIIIbKZpUuXFhHP+Y7Ecw4j8ZzbSDwLIYQQQohsZsWKFeGNN97Ie4uzI/Gcw0g85zYSz0IIIYQQIptZtWpV6NSpU7hz506Sk99IPOcwEs+5jcSzEEIIIYTIRtzSvGbNGhPPN2/etHS+I/Gcw0g85zYSz0IIIYQQItuIXbQ3bNgQOnToEK5du5bk5DcSzzmMxHNuI/EshBBCCCGymU8++SS0a9cuXL16NcnJbySecxiJ59xG4lkIIYQQQmQztFcRz5cvX05y8huJ5xxG4jm3kXgWQgghhBDZzK5du0Lbtm3DV199leTk91zPEs85jMRzbiPxLIQQQgghspl9+/aFNm3ahPPnzyc5Es8iB+AhLXxQk09E87e+9a0wf/58S0ORcjUMv7dcvz+//u3bt4c//MM/DG+//balnZr6/xNCCCGEENlP3BY9cOBAaN26dfjiiy+SnPxG4jlHsIc4tTDHmj/Q77//vlmeFy1aZGm210Th5ffE5927d3P7Hvkfpe4BEM9YngcNGmRp7qsm/v+EEEIIIURucuTIkdCqVavw2WefJTn5jcRzjhALSF9n0vI/+IM/CNOmTbM0osyFWU0iFpTx/ecaLvzv3Llt6c2bN4d/+2//bRg9erSl/d5y9f6EEEIIIUTN4vjx4yaeT58+neTkNxLPOczhw4fD7//+74e+ffsmOTWT69evh0uXLtl6LgtLF898wsyZM8P/8X/8HzYFgBBCCCGEENkGorlly5bhxIkTSU5ut8fLi8RzjhE/rF9//XX47ne/G/78z//cXCpqKoyxaNasWbhw4UKSk/vQGfAP//AP5nZ/NnGD4X/rixBCCCGEENXN559/Hlq0aBGOHj2a5Eg8ixwh04NK0LB/9s/+Wfj3//7fh/Yd2ocxY8aEyZMnh0mTJuXcMnHiRFviPO5l9uzZ4Uc/+lFo0LChuainl0lPZ+vCvXCthPunw+P3fu/3LE8IIYQQQohshCjbGLHweHUknkXOwsO7dOnS8P3vfz/88R//sY2hxZqZawtjt7l2Fl8nmNa//Jf/0kQm9/bP//k/t23/7t/9u8J9+PR94uNl48I1ck9/9Ed/ZB4D8+bNS/6LQgghhBBCZB8XL14MTZs2tajbQuK5xnDr1q1w8uTJsGHDhvDxxx+HNWvW5NSydu3a+9Isyz5YFtq3bx9q1aoVHn/8cRtzwRjhTZs2WcCt9evXWznuefXq1UWOkU0L18Y1rlu3Lhw7diz5rwkhhBBCCJG9XL161cTzp59+muTkNxLPIis5e/Zs6Nq1a5g6ZUpYuXKlRfn79re/HZ5++ulw+/ZtG+9N9D8hhBBCCCFE5XDjxo3QpEmTsHfv3iQnv5F4rgHgus38z76ey/j1X7lyxSy1Y995J3To0MECFTzzzDPmxo0lukWL5qF+/fqhU6dOOTPvnE0llrq/XP8fCSGEEEKI/ACN0bhx47Br164kJ7+ReM5x0qc/gpoioNMh2t/UqdPCo48+Gvbt22sRq4cMGRJ69uxp1uhsx4VzvAghhBBCCJHNNGrUKGzfvj1J5TcSzzUIF2O5LMrShWX6vTBmuFu3bkkqhEOHDoXWrVubpTqdbPwe/IriexRCCCGEECJbadiwYdi6dWuSym8knkVWky4ymaid4GEECyP6H0L62WeftTHQ4OVZ3CovhBBCCCGEKBsMlSRgr+Nt7XxE4llkNZnGCS9evDjUqfNSeOmll0LdunUtmFj//v3DiRMnbDv72Gce/7CFEEIIIYSoCOrVqxc2btyYpPIbiWeR9cTjun1s97Vr18KpU6dsHQv0yJEjQ/NmzWyqrhiJZyGEEEIIIcpOgwYNbNpVIfEscgC3ILPcvn0royBGVC9cuNDcSmbMmBGup8S1EEIIIYQQonwwVdWHK1YkqfxG4llkNbFwZrlz57a5ZbsVmrRP0wWE0Wf6qt69e4czZ84kuUIIIYQQQoiSkG6oYojksmXLklR+I/Essp70H7AL6fR158svvwxvvfWWzQ0dBzfIBPu6K7gQQgghhBCiKB06dLCYQ0LiWdQwXAgjit+fOzc0bdo0TJ8+Pdy8edPyY2LhbesS0UIIIYQQQhThjTfeCAsWLEhS+Y3Es6hR3L1zp4glGTdu5oEmGvdnn32W5N4TzEU+o3UhhBBCCCFEsKlh586dm6TyG4lnUWNA+CKc/dM5d+5cGDBwYGjXrt19YfbTBbQQQgghhBDiHsQSmjVrVpLKbySeRY3Cg4elC2jctukxI9T+nDlzwo0b1y3fxbbEsxBCCCGEEPfz5ptvhnfffTdJ5bfRSeJZ1DhcDMeLs3nzZnPjHjx4UPj87Nkkt4C4nJMpTwghhBBCiHxh8ODBYerUqUlK4lmIvOL06dNh0KBBFo17965dSW7qRRBZqoEXg1umhRBCCCGEyEeGDRsWJkyYkKTyG4lnkZfcuHEjTJs2zSZ9x53b3b1jV28JZyGEEEIIke+MGDEijB07NknlNxLPIm/IJIQJINamTRuzRJ8/fz7JvUcspoUQQgghhMg3EM6jR49OUvmNxLOo8bho5pPFLMqWUwBTWPXs2dMmgN+9e3eSe6+8EEIIIYQQ+cqkSZPC8OHDk1Rmg1S+IPEs8gL/kceCOP7hE43b3biZBP7O7dvJFiGEEEIIIfIX2shDhw5NUhLPQuQ18Qtg06ZNoWnTJja2g/mhnXTBnR5cTAghhBBCiJrIzJkzbYijkHgW4j6OHTsWevXqFd54442wZ8+eJPdeALG7d+5IPAshhBBCiLzg/ffft7mehcSzEEVwy/KVK1fC1KlTQoMGDcLy5csLo3Gz3csIIYQQQghR05k/f37o06dPkspvJJ6FSCMWxx999JHNBz1y5Mhw6dKlJFcIIYQQQoj8YMmSJRZcV0g8C1EEc8u+e7fIFFVHjhwJPXr0sGjchw8fTnKFEEIIIYSo+axYsSJ07do1SeU3Es9CRBTnlo0b9/jx40Pz5s3NjVsIIYQQQoh8AE9MYgE5+TyEUeJZiFLAy6NJ48bhnXfeCVevXrU8t1KnBxHzF0s+v2CEEEIIIURus3bt2tC+ffskld9IPAtRSnDd7tSpU+jevbu5dDsunl0sx67fEtBCCCGEECIX2bhxY2jbtm2Sym8knoUoAeni9/Lly2HcuHGhadOmZo12MolkCWchhBBCCJGrbN26NbRq1SpJ5TcSz0KUAp/r2WH8c+PGTcLEiRPD119/neQWFcwSz0IIIYQQIlfZuXOnGYzUppV4FqJUuHiOXx779u0LXbp0Cd26dQsnT55McoUQQgghhMh99u7dGxo2aljY/s1nES3xLEQJSRfNcZo5oIe//bZF416zZo3lCSGEEEIIkescOHAg1KtX716QXIlnIURFsHjx4tCiRQtz475586bl8YIpdPdOXjYuvPP55SOEEEIIIbKfY8eOhVdeeaVIMNx8ReJZiHKSLoBx4yYiYe/evcOJEyeS3EQwJ59w984diWchhBBCCJHVnDp1Krz44ovhTqrtCvncfpV4FqKMPOjF8eWXX4Zhw4aF1q1bh3Xr1iW5KcGMgE4tvHzSg48JIYQQQgiRbZw9ezY8//zz4fbt20lO/iLxLEQZSRe+Loo9H3G8ZMkSGyMyffr0cP36dcsHub0IIYQQQohc4MKFC+HZZ58NN2/cSHLyF4lnIcoJYjmTkHZ27tgROnToEPr37x/OnDmT5AohhBBCCJH9EBgXy/PVq1eTnPxF4lmIKuD8+fPmxt20aZOwadOmJDdFIrIzCXAhhBBCCCGqmytXroTaL9YOX331VZKTv0g8C1FFII7nzZsXGjduHGbPnl0kGrcvHohBCCGEEEKIbADxXKdOHTMG5TsSz0JUAbFVeceOHRaNu1+/fuGzzz5LcguIywkhhBBCCFHdfP311+HVV1+1wGH5jsSzEFVELIzPnTsXBgwYENq1axe2bNmS5Eo8CyGEEEKI7ALxXLdu3XDy5MkkJ3+ReBaiCkEcu0DGbXvWrFmhadOmYc6cOXLZFkIIIYQQWce1a9dCgwYNwtGjR5Oc/EXiWYgq5G40lZWD5blFixZhyJAhZpEWQgghhBAiW2C6VWL2HDp0KMnJXySehcgCTp8+HQYOHBjatGkTdu3aleQKIYQQQghRvdy4ccMMPXv37k1y8heJZyGqkdgKzYtpxowZ5hazcOHCcOvWrWRLARoPLYQQQgghqhqGGrZs2VIGnhQSz0JUI3fv3rXPWBivX7/eLNBvDRkSvvzyyyRXCCGEEEKIqgeDDjPFbN26NcnJXySehahmEM7ffIOIviegT506FXr16mUvqn379iW5QgghhBBCVC23b98OHTp0CBs3bkxy8heJZyGqEYQz1ucCAV3UAo2LzNSpUy0a96JFi5JcIYQQQgghqg5mhOnUqVNYt25dkpO/SDwLkQXEojlehw0bNoTmzZuHESNGhAsXLiS595cTQgghxP+/vTONtqq48ng+9eru9AczdGLSJv0hayVr9ZRkJemO0WS1dneiRhMnFAdUnBhknmUUUUFEBJmUMBmEgAqooDKjzGIAmURQAZlFGRSZ1er72+/sR3G87/He43HfHf6/tQ73nDp16tQ593Gr/rV37RJC1DaI5/vvvz+8+uqrSUrpIvEsRB7yRWKNdrZs2WJu3Pfdd19Yu3ZtklomoOP1oTmWqBZCCCGEELUFfcuHHnoozJo1K0kpXSSehchDXADHQviTTz4xN+4WLVqE2ZkfLxfNsWA+6QIuAS2EEEIIIc4c+pV9+vQJ06dPT1JKF4lnIfKQLwngaP+1116zedAjRowI+/fvT1LLrvkcQZ2+VgghhBBCiDPgkUceCVOnTk2OSheJZyHymIpE8KZNm8yNu0uXLuHdd99NUhMBnSx/JYQQQgghRG3Qv3//MHny5OSodJF4FiIPcfdrx/fjtIMHD5r1uXXrVmHOnDlJatm1EtBCCCGEEKK2GDhwYHj22WeTo9JF4lmIAgfh3K5dOxPShw4dSlKzC24hhBBCCCGqy+DBQyz2Tqkj8SxEEYDrNovXP/jgg2Hz5s1J6qkBxGSRFkIIIYQQNWHYsGHhz3/+c3JUukg8C1EkEI0b6zNrQhNUzHHx7JsQQgghhBDVYfjwJ8OoUaOSo9JF4lmIAsetysDn3LlzQ7NmzcLYsWPDp59+aulCCCGEEELUlJEjR4Ynn3wiOSpdJJ6FKHBY7/mLL051x964cWPo2bPnl9y4hRBCCCGEqC6jR48OQ4YMSY5KF4lnIYqEtEs2a0APHz48tGrVKixevDhJFUIIIYQQonow33ng4wOTo9JF4lmIIueVV14xAT1u3LjyaNwutDUHWgghhBBCnI7xfxkf+vXrlxyVLhLPQhQpsTBet26dReN+6KGHwo4dO5LUJI8EtBBCCCGEqISJEyeGhx9+ODkqXSSehShCEMXppak++uijMHjw4NCxY8ewZMmSJDWTV8tXCSGEEEKISnjuuedCr169kqPSReJZiCKEAGII53Lrc/JJcLEZM2aEFi1a2AjisWPHLF0IIYQQQoiKeP7550P37t2To9JF4lmIIscFdGyFXrVqVejUqZPNXdm5c2eSKoQQQgghxJeZ+uKLoXPnzslR6SLxLESJcIolOsMHH3wQBg0aFNq3bx/eeOONJLWMOJ8QQgghhChtZsyYblP/Sh2JZyFKCJsL/dlnyVEIJ06cMDecZs2ahcmTJ4fjx48nZ8rA/duFtAS1EEIIIURpMmfOnNChQ4fkqHSReBaiBEkL4RUrVlg07kcffTTs2rUrSWWO9Ikyi3VmS1uuhRBCCCFEaTBv3jzzVix1JJ6FKDFiSzKbz4VGNPfv399cclauXGlpkM4vhBBCCCFKiwULFshtO4PEsxAlRCyAibztx56G2/azzz4b2rRpE6ZMmZIR1mUu3ghsF9lCCCGEEKK0WLx4scRzBolnIUoIF8ng+3Gas3z5chPQAwcODHv27LE0iWchhBBCiNJk6dKlEs8ZJJ6FEFnBjbtv3742F3rNmjVJahlurfZNCCGEEEIUL6zMQsAwgs2WMhLPQogKOXz4sLlxN23aJLz88svlP5gIZnP7VhAxIYQQQoiih+CyWJ6PHTuWpJQmEs9CiKzEonjJksUWYXHIkCFh7969SWqwZa8UhVsIIYQQorhZvXq1iWcMK6WMxLMQokps377d3Lj54dywYUOSWjYXWuJZCCGEEKJ4WbduXeiU6QN+/PHHSUppIvEshKiUONL20aNHw7hx40KrVq3C9OnTy0WzgokJIYQQQhQvb7/9dujUqVPYt29fklKaSDwLIU4LIjm2Li9cuLDcjXv//v1J6klkiRZCCCGEKB7eeecdE88ffvhhklKaSDwLIWrEjh07wgMPPBB69OgR1q9fn6SWkRbbQgghhBCicNm0aZNN3du9e3eSUppIPAshqkU8x/nQp5+Wu3HPmjXL0sBcvYnGLQEthBBCCFHwbNmyxcTzzp07k5TSROJZCFEtXBDH6/wtWrQwtGjRIowcMSIcOHAgSZX7thBCCCFEMUDgWNy2t27dmqSUJhLPQohqgSB263MsjnHnwY37vvvuC++++26SKoQQQgghCp1du3aZeKa/V8pIPAshao1PPvkkjBo1KrRs2TLMnz8/SRVCCCGEEIXMnj17TDwTOKyUkXgWQtQ6M2fODG3btg0jR44Mn376aZJ60o1b7txCCCGEEIXD3r17TTyzZFUpI/EshKg1YlGM6zaRuHv16hXef//9JLVi4SxBLYQQQgiRnxDTBvG8bt26JKU0kXgWQtQKiN84Ejfgxo31GSv0q6++mqSWIbEshBBCCFEYHDx4MNybEc+rVq1KUkoTiWchxBnjwpnNcXH8RSZtzpw5oUXz5mHs2LHlbtxpoS2EEEIIIfKTI0eOmOV5+fLlSUppIvEshKgVEMII5YrYuHFj6Ny5c+jbt++XIjVKRAshhBBC5C/Hjh0L997bKbzxxhtJSmki8SyEqFVMRFcghvft2xeefPLJ0Kp167Bk8eIkVeJZCCGEECKf+eyzz8zyvHTp0iSlNJF4FkKcNbKJYty1X5k+PTRr1ixMmDDhS9G4JaSFEEIIIfKPe++9NyxcuDA5Kk0knoUQdcLatWtD9+7dw4MPPhh27tyZpJaJa58PLSEthBBCCJEfIJ7nz5+fHJUmEs9CiJyRFsMffvhhePzxx0OHDh3C668vS1LL8sUiWgghhBBC1C2I57lz5yZHpYnEsxAi58RWZT5ffPHF0KZNm/CXv/zF5tR4umSzEEIIIUR+gHieOXNmclSaSDwLIc46aetxLJydNWvWhHbt2oV+/fqFXbt2JalCCCGEECIfQDxPnz49OSpNJJ6FEHnDRx99ZG7cHTt2DH/961+T1MQK/fnn7CQpQgghhBAilxBte+rUqclRaSLxLITIC9wKfeLECXPjbtq0aZg8ebKtK1gOIjrZhBBCCCFE7ujcuXOmbzYpOSpNJJ6FEHkDAcKclStXhi5duoT+/fuXu3FLNAshhBBC1A09evQIEydOTI5KE4lnIUTegHj2gGGwY8cOE8/MhV61alWSKhEthBBCCJFrevXqFcaPH58clSYSz0KIvMLdst0KjRv3M888E1q3bh2ef/55OxZCCCGEELmlT58+4emnn06OShOJZyFEXuHrO6dZtmyZBap47LHHwt69e5NUIYQQQgiRCx599NHw1FNP2X6pegFKPAshCobdu3fbqGe3bt3C6tWrk9ST1ur0D3m2NCGEEEIIUX1YEWX06NHJUWki8SyEyHtiEXz06FELVtGqVaswbdq08nTPE1ut/ZwQQgghhDgzhgwZEkaOHJkclSYSz0KIvIc1ntPu3EuXLjUB/cQTT9j60E4spuNPIYQQQghRc4YPH25bKSPxLITIa9yazKdvzvbt28PDDz9sbtzr169PUsuuifMJIYQQQogzA5ftYcOGJUelicSzECKviUUzG0tZxcL4yJEjtmxC8+bNw/Tp08Pn0VJXQgghhBCidnj66bFh8ODByVFpIvEshMh7XDg77Ls12lmwYIFF4x46dGj4+MCBJFUIIYQQQtQGLB3KvOdSRuJZCFGQuHCOBfTWrVttAf8e3buHDRs2JKknia+JrxNCCCGEqAr0H+IB/FLoT+zfvz9s27bNgoU98MADYdOmTWHz5s3mDZivpL+X2vqeJJ6FEAUJP4LZGq7Dhw/bnJx27dqZG7cTN3Rx4DEhhBBCiKqQTYDF/ZFiIP0s9Jn+/Oc/h3vuuSf813/9V/jGN74RGjVqZEFbP/nkkyRXfsMz1VbfT+JZCFHQlP/IZz59BJS0+fPnhxYtWoRRo0aV/7iTfuLECYlnIYQQQtSIWIixn8/W19qAWDIff/xx2L17d7jyyqvC9773vbBs2bLkbP4Tf1+1gcSzEKIoQELzA8nmvPfee+G+++4LPXv2DO+++26SWpZPCCGEEKK6pPsapQJLhP7f//1fuO2228y7r1SReBZCFCTpxsv3Pd2PDxw4EMaMGWPRuOfNm2dpEF8rcg8eANpKZxNCiGLk2LFjtmzmnDlzwowZM8LMmTMLeps1a9aX0mbPnm3T4OrXrx9uuOGGcPvtt4fLLrss9OnTJ8ydO/dL+fNx4xnWv/VW8q2dGRLPQoiSgB9O3LiZt3Po0CFL++LzU9ePljv32efll18OV1xxhTXA2kpn4zunA+No8EoIUYh4fwEQjv/xH/8R/umf/imce+654dvf/nZRbjzbt771rfD3f//39smc53POOSd89atfDd/5zneyXpMPm38nfFJPvqfzzz/fIobH/b3qtkcSz0KIkmHjxo0Wjbt79+4WmdtxEc2PqTr1tYu/V6dr165h2LBh5hGgrXQ2ljZh+gTw/00DVUKIQsT7CFhoEY8/+9nPQrdu3UyQTZ48OUyaNKlotxdeeCFMmTLFtueff9625557LmvefNj4Pp5LPjnu379/+MUvfhG+8pWvWGBZR+JZCCFS8MPoP44EvRg+fHho07q1rQ3txHlE7cE7jYUSAxd/+ctfkiNRKowdOzY89NBDtq//a0KIQobfr3/5l38JP/3pT21wUBQOLLl1+eWXhx/84Afh4KcHk9TqIfEshCh6XMBh8XKYm9SmTRubD334yBFLU4e+9nGh5O+2R48eYfy4cbYvSgf+n8XiWQghCpX169eb1fnRRx+147iNE/mFexTG3xHW8r/5m78Jr7/+uh1XF4lnIURJEP+AOu9s3Bg6d+4cHn744bBly5YkVdQ28XtHPMvyXHrE4pllXeL/h0IIUUgQu4N5tC+99JId6/csv/GpQp9/XrakGEuZMnd7woQJdhwbVqqCxLMQoqRIN3K4XA0dOjS0b98+LFq0KEkVtUX6fbN0WCmL5/h9VNThKsaOGIH6ZHkWQhQDzPklEBURqEX+Y+I40+64eF6xYkU477zzwqBBg+yYc9VB4lkIUbJ4Jx5L2IwZ0205K0YiPRq3qH2KTTzHQpAlmeL53U7ZiHdZOvl9c28I/v58P04Hv67QicWzEEIUMgTKQjy/8sorSYooJP76179a5O0nn3wySakeEs9CiJLFxYqzdu3a0KVLl/Bwnz62bqMTCxtxZhSj5fngwYPhscceK1+WadLkSeHTTz8N7dq1s+WZ1q1bFyZOnJj174cAdgMHDgzvbdqUpJzE/+Zs428wsxWqmJZ4FkIUCxLPhY3EsxBC1BAXM7Eg+eijj2xZnbZt24Zly5YlqZm8SR4XM6JmFKN4fuSRR8Jdd90V9u3bFzZs2BAGDR4UtmzeHC677DJbDmNTRhizHuju3bvDvHnzwrRp08LgwYMt/5EjRywStQ/W4AbIHHwPZMLfWjEM3kg8CyGKBYnnwkbiWQghaghiJFvwIsTKiy++aNG4ceM+fvx4cuYkhS5m6opiE88I4vr164fFixcnKWXwN/SHP/whPPvss2Hq1KmhWbNmYcmSJba0CYMzN910Uxia+dyzZ0/4+c9/Ht5Ytszm3Ldq1So8+OCD4brrrjNBbX9n0eBOoSLxLIQoFiSeCxuJZyGEqAEufmOrc1oMr1q1Ktx7772hb9++YdeuXZbmedJ5RdUoNvGMVfnKK68Mb775ph373wXzn0ln8IVl0QhIhycD60sS2Z2lMjp16hR27NgR/ud//sfOcezRP3HnZtCmWP7eJJ6FEMWCxHNhI/EshBC1SFqkfPjhh7aWI8KGH1yHfGzuUiuqRrGJZ+Y733rrrWHSpElJSjBX7GPHjpl4xvKMKzbzn3HFvuWWW8zaPH78eFsmDfH8v//7v2aVJs+IESOSUk5d0qnQ/9YknoUQxUKuxXP8u59tn894P8YNBOl0p6J0iMuNidN8v7JynNOVlSsknoUQopZJixSsiC+88EJo0aJFmDx5crkbN3nizdNExRTjnGcE8tXXXG3u2cOHDw8tW7Y0i/Rvf/vbMDYjGklv0rhxWLhggbly79y5M4waNcpctLdt2xp+8pOfmOUZkX3bbbeFp556yv7WmD8NiOj4sxCReBZCFAt1KZ4rwoJKRv0R78ewfZbpw/Bp+ZK0GE9L5/EglZ4e46Kcz3g/xssoLy8px1eYSOfPFRLPQghRi/iPe/yD76xcudKsg6wNyFzXmDifqJhiFM/w2muvmXcC1mTc/fl7wAV7/fr1YePGjWFGRhhv27o1THruOYvETZ7Zs2eHTz75xMTy1sw5ICo35cyaNcs6Fv535fuF+ncm8SyEKBbqQjxnE5sM7MeDqn7e0+L2Im5P4vSTZacGZ0nPlOMC2mE/vmf6HlzjxPc7tYwy8VxXSDwLIUQtww993CDE+7jZ9u/f3wTOqlVl81zBGwwX3SI7xSqezwbx32H6s9CQeBZCFAu5Fs8mSqO+BdN8CFTJxvKIzZs3D++9956dS/PFF9lFKmUxwHvgwP4k5fRgQMArinsSBBMPK5g/f7555b3zzjs28JuNuP4Ox3XRpkk8CyFELeM/5ukfdt9nPuszz0y0Bgt3bnfjpnFgRLYuGoNCoRjFM9+3d27S+DksBOz730Z6P/4ELyvOV8hIPAshioW6ctv2dmHKlCnhsf79bblDNryYOnToEPZ88IGdf/vtt0OfPn1OaWsPHTpkMTVYChGhTZDLiy++OAwb9oSdX7NmTejdu3eYMnmKHXNP8nEvYnQgkAl8uXbtWrvnzJkzQ+PGjW15T97HY489Fra+/75NQTpw4EBYsWKFxQIh4KpPQYKXXnrJ7sPyjVAX7ZvEsxBC1CJpAeTiJZtFeenSpRaNe8CAAdaYQDYBJU5SbOLZ/z4AV7T034gTi2FzhYvyWVr09xV/xlshI/EshCgW6nrOM0tpMt0n5vHHHw/z5s0LGzdusH7Jn/70p9CjRw/Lx6D+0KFDbRlEpp0hrBcsWGBLIhKzA0GMRZlrunTtYtcw4NuxY8dwb6dOJni7du1aLngdrtu/f7/VB2E+Z86ccnF+2WWXmZceQvmee+6xFSSY3kTdRo4cGe6///6wfPnypKTcIvEshBB1CG7cNES4cdOQOGWCJ8s8ohIkbvhrUzy7qPStoCn0+p8GxDMdNyiK70sIUbLkWjxDPDCPWCXoZAzxMlgCcdiwoeHpp5+2NIQtYpXlEhG/eM0BQvbw4cM28I/lGKsxzwQ7d+0MXbp0MRfsBx54ICzPCE3Ask2sjmzgso0QRZBTFte2adPGLNBAcExf+nPVqtWWhsce8T/qAolnIYSoY2gExo0bZ43FtGnTklQoEmF3hsRW1doSz5RHuVZ20qmQIMtfYvEc/z0IIUShUdeWZ+4/ZsyY5KiMsWPHmps0S2tigQb6Jrh3cw7PH59iBiypSBrzlrt16xYWL15s6Sy/OHDgQDMGUNaSJB3hy1xriOuDVXtKRjxjtca1u1+/fiaeu3fvHj768ENzF8eCzbUYGd5999S52fGgQK6QeBZCiDok/uGn8WndulUYNmyYjfiCNzKlKhY8Uqe/J8TzhNp025YIKwjSbtt10WESQojaoM7dtl94wYJ9OXv37rWVQJjrPHr0aHPRBlYFYZ7ywoULzZrM6g6wbds2WzIRF2usw4hIrgPENNe8//77Nl95UeZaYN4z+R2sxpTJfGaWY0Q845aN5Zk0LN1MZ+Oe1G3dunXW/jPdDagz94gjd+cKiWchhKhD0j/8NErM8WGuEcsUOW4dLUUQSt749+zZM4wfN86Oz3Sj3M8+O2Hlgs9L15Z/G3PoNOdZCFEM1IXbdtlvaVk/ArF65ZVXmiWXDbFL8FJgKlnPnvdZGnONX375ZUt/5plnLMgp7teIWIQrnwjiLVu2hPYd2ts15MHNm/aV9vrVV1+167FI4+bN3Gju2ahRozB8+HCzZhNUDCHKnGgsz4hn8nzwwQcmnlu2bGminD4RBgbO4cq9aNEiKzvXSDwLIUQd4dYzF4d+zFwiXJObNm1qyzZwrlRx8eTvgKAmF1xwgS11cabbjTfeaEt1EJjkiiuuyJpHW35s559/fnjiibKoropIL4QoZHIpnuP2k09+P7EWI1QRzGwsIRXDPOYXMnV0Ky9wLe7c5N++bZulIaBdwO7Zs8fmUnsQL/JjDOBe8drNc+fMsTK8bGrGtbt27QoHPv7YLNr0gSj76NGjFngMcX748CHLT1Rvrl+9umzusz9bLpF4FkKIOoQf/op+/GmUGMlldNYDZ2SjLhqPuoKRbNy7cNmqrQ2XMOZoZTunLT823AgJrOf4QJMQQhQadWd5rryvUNH5M/29rey+hdh/kXgWQog8BlclAiUx/2fjxo1JahneGLLRuHkDV4iNUVXBTQz3sdoEUUbANpG/8P3IbVsIUQzUhXgWtYfEsxBC5Bnp6M8E1mBZCaJxp924S0k4A+K5ttd5RpQRkErkL1rnWQhRLEg8FzYSz0IIkWd44Kq0qxSRKBHQI0aMyOrG7fnT1xUTEs+licSzEKJYkHgubCSehRAiz3DhzGdaRG/dutUicePKjUu343ldeBcrEs+licSzEKJYkHgubCSehRAiTykXxMnmYHVmTcXWrVuHV+fNS1IzkK+Irc4g8VyaSDwLIYoFiefCRuJZCCHylLQFOT7GGj179uzQslWrMGbMGJsX7Xg+F93xcaGTTTzbOpCtWoZrrrkmXH/99bY2Jctb4ObOmtmwe/duOz958mQ7jqlMPLOu5B133GHLWnXs2NHWwGTtSe7x1ltvhQkTJ4SVK1YkuU+FAG8srRV/N2n27dtnAyEsy+EcO3bMnnPt2rVJipB4FkIUCxLPhY3EsxBCFBDp+cwIuF69eoUHHnjAXLqdtGAuBuEMsXhmvUpgXcjf//734aWXXgrbt2+3dYFHjhwRJk2aFO68805bs7JevXq2sewR+LVQkXhmbUmuQXB/+OGHdl/WsUTo/vznPw+vv/56mDFjholkXOhZWoxypk2bVn79+PHjTcgjkgcNGhSGDRsWPv74YzsPBw8eLC//yJEjJqTJc9VVV5Wvn8l3VyzfX02ReBZCFAsSz4WNxLMQQhQALqCyCSnEGD/irVq1CkuWLE5STxXa2a4rRBDP48eXiWd/HsTzddddZ1Zi6NChg70LxPTNDW42MX3llVeaiAVc2ysSz/F7IsL5XXfdZfsxmzNC+eKLLw5Lly4Nt9xyS3jhhRds7enLr7jC1iP+3e9+Z4Mar776avjlL39pgxrMUb///vtDgwYNwlNjxiQlBRPiCP8VK1aYaMY6jrWa65YtW5bkKvsui+H7qykSz0KIYkHiubCReBZCiALBhF28Hwk9PmmI27dvH8aOHRsOHTpUnu5b2mpdiMSWZ392XLKx1BJIbfjw4SaUGUSYM2dO+OY3vxn+9V//NVxwwQXl4jpN2vLs5Q4cONDmlafBonzRRRdl7rEkNG7SOLz88ssmtBs3bmznmzRpYp0jLNOXXnppmDlzpolmLMtwYP9++wTEM+KePLfddluYP3++fXfXXnutXQ/+/ZUyEs9CiGJB4rmwkXgWQogCwUWUWyH5TFskEYhdu3Y1S2c8j7YYhDNkE8+4PF9++eWhUaNGJrDmzp1r6XRQEK+7du0KLVq0CFdffXW5gI1JW54d3KkRtsxBdo4ePRo2b94c/vu//9vEc5PGTcLUqVPDU089FXr27BmOHjsamjZtavfGcowVGnH929/+1tzH4bMTJ8ot33xH9evXN/Fc/4b6lpd7cN/Fi8u8CKhTXK9SROJZCFEsSDwXNhLPQghRYLiYigVVLKKJxj148GBzX3YBVizE4tnBbfuSSy4x1+cYrME333yz7WMt/tGPfmRrZEP87tKWZxe2+/fvDy1btjR36+nTp4d77703TJw4MWzbti387Gc/CwsXLgy33nprpiM0xdy227Vra67ht956i8235vwvfvELuzfi/dFHH7W56UOGDCm/P+L5sssuM6E9YMCAcPfdd2XqMjb8+7//e1iydKnlKfblx6qCxLMQolhAPJ977rk2tUcUHuvWrQvnnXdeeOKJJ5KU6iHxLIQQeQgCEMHXrFmzMGHCBLNmOibEEjFWaMIsm+WZoFsE5kKkxs+yevVqE7E+15l9rMnkifOlxXNspSdSdt++fUPbtm1N9GK55n4jR4404ct85w0bNoQ333wzzJo5M3yeee8vvPB8ePvtty14GfkoD+t3l86dTYAj9h0GOngeXM+PHztuAps5zzwP14PVlTpH9So1JJ6FEMUCgSe/9a1vWduCBxMrQzBlR1v+bxgkGIRnSphbntN9itMh8SyEEHkMyx0h2Pr162cWU8d/7AvNnTstntMNlh9XlA7pc2nx7HTr1s0CgjEAgeWYT+Yus7FUFVZnXMUbNmxoy1ndfffdZulm7vPtt99u6eSjDPZbNG9ulmzmNt900022UQZu3nz6vbiGedOIbY/MTZ3T9S4lJJ6FEMUC8Ti+853vhHPOOSd8//vft3227373u9ryfPve975nwvnrX/+6eaI51WmfJZ6FECLPMKEVieI9e/ZYJGciUC9fvjxJLbOwFrJ4dtLC0vYzG8/m6bZfwbNmE89cx/JSrOnMnGreIRv76S0+R/50vvi877N52X6NbUkaG27j7kJeaN9TbSPxLIQoFrA8I8A6duwYnn32WWvT8DbSlv/bM888Y9OvvvGNb5hnGcT9j6og8SyEEHkIP+bxDzoibMqUKaF58+bmvlweBKuaP/p1DeIZN3RwQclnvG9kngsXao79Xfh+mlg8+/l8cZH2epc/V4ki8SyEKBaY7qM5z4ULU7XwGGBpSsjWr6gMiWchhMhD+DH3za2XsHLlytClS5fQ95FHzNJZaKQtzy4s4+f1Z+YzLZjjfSdteU7n8XJO7peJ8jR2XXIt56lDfH8+fR/ifeD4swrKTV9bakg8CyGKheenTDHxTFwSyNaeiPyF4KRE21bAMCGEKEKyNcqI5kf69g2dOnWyQFf5jAtGf460ePbzsbA0oRntnw5EGUtNQVXyV0ZcnzMtS5wkFs96r0KIQgbLM0tVsTRhjLdz2X7j0m1Kej99Tba8HiA0zn/qVdmvy0b6XFxmTLZ8FQ0WxHnj8tLXxOfS+Dk/789s+9E16XzVgelvEs9CCFEieAN04vjx8Nxzz4XWrVvbp0ekhmwNTF0S1yF2264t0pZnkX+MHTv2FPFc13+TQghRUypa55nfNdroqvzGeR7P5/vWxidp4Gm+cUx77/ljcel4Pie978fxfgxTptJ43vJrouusziniMtL1gfRxRWS7FrwevlUHrfMshBAlRtxQYHlmGSaWRyJwFfh5PuOGp7oNTG0R37dHjx4SzyXI008/HXr37m37/D3U1d+iEEKcKdnEc7bfNVZbQKAx1YrN86fzZbv2o48+svY9mzCN8fgeLMvIMkx8OlhY16xZc0oZ3KdsWtTJvgExVP70pz9ZHWfMmGFpLLXI9SzTuGzZMkuLOZ65ZuGiRRaYM42Xu379eltyMoY6skwkrFq1KuzYscMs+d27dbMVKvr372/vjf4MS0tlCrO8uMqTb1XmncTPCNWNcSLxLIQQJUa6kcWNm/WFWdIqduP2fHymr8kV3JcRaL9/nz59woUXXmhLQtXW9pOf/CRccMEFWc9py4+N72fAgAH2N/D55xLPQojCpSLxDAg7D+j59ttvh2uuucYGd/EQI+DnSy+9ZOeA9nrLli3JUQj79u61uCYHDx4Ms2fPtmUQfVAcIfrWW2/Z/vHjx8POnTstjX3uzX1ff/11s0ofOnQorFu3zjy9xowZY9cgmCmXvLYlgpP0QYMet8FN6sgnc7kRuY/262fimXoePnw47N692/YPHDhgZSxdutT2gSBc1Cdm48aN5XVmMIBno5/CutjUf9SoUWHr1q22xCP3JRjq4MGDbbB1wYIFoVvXrnbttGnTQrt27Wyu8rTM+5s6daql1xSJZyGEKEG8oXaOHj1qDV/Tpk2soXE3bs93utHrs0l87549e9qyW+VLO53B5ktEMVpOgxunacuvbdCgQTZwAp99dnKKgRBCFBoVuW0DawcjmmHt2rUWm8TBCnv//febuB09ZnT44x//GO644w7LhwjtlxGrt9xyiw00MiD+61//2oQeUb0R4fXr17c1phGRN9xwQ+jevXu5eKXtGzJkiFmM+/btG+65555w1VVXhXHjxtl5lk90IQ0unimLNtQF/7Zt2+y5ELjMCeY8cUrYmjRpEm688UabLkZ5AzP1xHKMoG7RokVo2LBhmDt3rpUDWIpZ1gvRzbXUiedFmM+cOTMsWrTIxPuDDz6Yue9WuwbBTVuxcOFCs0LPmj3LlpZyC/fejAgfMWKEiXrwwYDqIPEshBAlCg1G7JYNjDyz9iRiksbNqEHjUpvEdWQknHUWaxMaWu8giPwES8KDmQ4QEO28Lv8ehRDiTMgmnrGgYinGswpRzFQqRCXtsQtcRCTTjLDQtu/Q3tyTsbAiHmkXPZgm57Hqjh492oQ2IpmyuN7XlkZQxiAmH3vsMbPeIp4BEY6YZ2D92muvDeeff364/fbbTbw6LIGJy3YaxCviGaHJedZEdrHJgACiGoGPhfvhTBu8ZfNms377wAFQT+6PgKZPAo888ogFWqNNQOgjnhs1amTvjLo1btzY3Ll53l/+8pfhBz/4gZURw3uhXlCTtkTiWQghxCnQiNN40si6y1QMjY1vfpwr0tG2a4Nsc555JlzUaIR9RH3//v02ql4dslns/X3RWWE03Efm6QzQqSKdzg9ubhWBq917771nHgOUdzY9A9LfL++ATgtU9N2n0+ngbNq0KRw5cqTCayqD74cOohBCFDrZxDO/5bguE9cDIczvLPON27dvVz5HF6tqt27dTLw9/PDD9rtPe81vI202llpnbeZavLSwKOPSTD5+exHNiEdcnmMQ1gMHDjSrLNcB9aNMvH9wxaZPgNh1t2uYM2e21cWhTliTsTxTzhtvvGFlsqIFruScx0KOFZ37MWBP/X0ecwxCnrZxwoSJJtJh/PjxJuaHDhliA/y0z507d7Y02k1voxk8YMoPQhvL+DvvvGPpwPMvy9QLqt8aSTwLIUTJQyNYLmiST4QbYo5gYjSasTjz/KSxVTfYxpmQK/EMjID/53/+Z3kAFNzdfPQbGNF3Ye14Jwe3d59LBrwn8jt0VEaPHmUC+NZbbzWXtV69epm1gTQCrHhZLqIRoJ988ont05nplOnIxPPdHPKT1zly5HA4eLDsOoeOmrvmI2hjuK+fA38G/8SaQGcIyv4uytJ5vrgszvkz0Nmi47UhsipUB74fDxgGZfcVQojCozK3bdod/53HHZv5vMzv5bcUSy1WXAZdW7ZsaUIWMYnFmDIRc3v37rV92i1EKoO+CGba8SVLlpg4nzx50peEH/dAgCN68cbalTnu0KFDuVWZ33bEfBrq2r59+zBv3jyrI/WhbCziCFzaMtzBsTzzvPx2Ux8sw/ymM0DvbtaUj9j1tobgoGyLFi22uiGMsVq/ksmDNZkBAdoyxPHq1avsGofy6C8AdaP9od0FxPOaVCCy6iDxLIQQwvAGK4Y5RTSMQ4cONRcxh7y+5ZJciGcXZnRMGjRoYKPaCFLeBaKRTgQdgeuvv97maDGiTaeADgBCmDlpWAeYm4UVmQ4F98DtjdF+hCkj6kuWlEU2pYMSi10s3nQYsDLw7ukY0FgzOs+cNToN8+e/Fn784x+Xi1hg1J3BDlzX7r77bhPYdEzofF133XW23BMdHTpUBF257bbbrGPE6Pzw4cNN7BOdlGdmftnmzZutXP+O/ZN7nnxfX9j74DupV6+ezaujrjwD1gjm1WFxoNNGYDY6UTWBMmLxnOu/OyGEqC0qEs/p3zXEHu0Iv/vMFWaAld9WQBwzJ5n5w1iX+R1GXNMu0T5tywhL5gjzm/7uu+9aeoPMb/36t9aZcJw8efIp98OKS/vkApj7du3a1eZLxzBYnm4TaAO5F3WkjUbAI/xxu0YQYzUmSBftAG0d96F9ox3hGWm7brrpJmu7lmfaD4d5zWwIZNpV2hgGCmibGcxmQIA6YOFev77MS87rhGWbdo370abTftD+cD/uTx1risSzEEIIw0Ujn3GjijsVI8UE64rnIzlx3rPN2RbPPEvc+DLnC+FWJnaX2Ig1VlRGvhGiWOdxsaMxfuSRvmH79m0mkokKSsNN54iyOU+0UKwFfm5PpsODtZYOAx0PBDej9VgKEOLMK0ME8/5nzZptQbPIj5sbbtO8C0beHUbaEa8fZDoHjNLTWcF1DUs2QpiOEB0aBD4dGup0X8/7rBODQKdD0qZNGyubzg518PcRf8enimcsDwctAiydETozdCiwXuCSx6ADdcCqgfinE1cT+A74niCuixBCFBqVWZ6d+HcO8ciWBs8nb7edoynvHx+Y5fOzyKPodMReVXE74J5mcRpQfux55Olp0ulef+4XezxBOm9cJ8Q+bVF6KlVcJ4j3eYcMPtPOguXl/qn7nA6JZyGEEKeQbrAAEURQLcQf85Y8T7rhPtvkwvLsIDAZ5WZUHzGK2MR6SydhfOZdYLm99NJLrTGmTrNmzTLrPBZX3hcClFFzApxccsklJpIZmSeaKJZ8Gv9PPz1owU5w10aEMziBCOUa3N2oG5YAOiWkYRVGxGN9YECDujnkR7ACdaI+jOgjlrkvFmiEMiIWEY7QJRALZWGNRpT/9re/tefCGk35LBOWJi2e+RtgcIH7ELQFkc/zDx0y1CK/YrngfjxLNjfzqsB7Z/BGCCEKncrEswm6SsRcRedPd11F+DUVXevlsn2efHq64+cd2oT4uDIqyheXWVE/Y+eOHTbYDJ4/2739etIZcObY86XzVgWJZyGEEOWcriHBdZn5uQgojwAaU5OGqDrk0vLMnCwPhMJI9UUXXWSNJaK60733lovcpzPCDjc3xCoNOSIPEY3rNa51LrrJj1jFCmziec8ee4dYe33ZDCCdcrHY4mqG8MT6jAWZQCwI+Q0ZEUy9sV47iGdfC5n60EHDosx3RtAWBj5w40YUI8Y5T5AV6kxZWNpxIedeuPUxTyx+Hw7vgPIdAoER4dTX3UTAYw2gvgwQ8AyIeN5l2kpQVbDwd8zULZec7b9lIURpkk08+29t/LsT72cTkH6+snOOH2dLrygtne6kz6X3Y7Ea502np4nTfD9bGlR0fTo9W74zReJZCCFEtUD8IbZY/gKBFGOjuWxZGrHaIBeWZ683YhLLsx8TqARxiuBt1aqVDSJgxUUkIyZxVeYcIhGXboQp87KwDvOusOgyfxr3bfIjzrHQMv8YAepwHks0gpc5bLiaYZHGcnzXXXfZPDKs0dQnXncTd3CfU4zlmXvzrpgvx3wx5svhto2VGUFOYBYiqe7ft8/qjODn+M477wy33HrLKR076onwJw9C9uKLL7Y5ccy3o0yer1HjRibMcUnHws38a+pLfuqL2zjnagJu25RdV5yNv+XTUZ17kreq+T1vtvxVKed059NUdJ9sVKfs6tZDiHyhKm7bIn+ReBZCCFFtEFPM/23evHm5hRL4jAOK1Da5Es8MAiBaEX3+LLhrIzrhow8/NEHLedLYjmXykwc3aNydeUc+Tw2rM9ZXnxPG3N/hw580qy/5uc7eHffO7FMuAbysrGS0HqszlmMrI5OPawkKBlzPfDGuA7836dwXqzDHcZnkIRK319lhuRTW3HSoE3PNcCvHQs79qT9zpN/mmTLlcD33YdDA3xGBWcjjz0x9ud6fpzowQMF8bgYOcBFHyNPxxLLPIAEDF8z5xqWdQYfly5fbMmPcn3oR0IYBCqzqvAsGNBikoE7UmXfBu+FdiNPj/yfSVJSejdPlrew85/x8de6ZjbgsIXKBxHNhI/EshBCixszNCGfcjonu6aIJENA1EUmnI1fi2TrTUYc6fpbqdrPTgsw76gg7F7/g6X6vyjr0HrQFavKe47K9fhXdj/JPZIQlc8X4rArpsip7lqqAeMbaTRAzrNwst8InQdZ8w7KNm7pvWPmx6rNhpWepEjZc04li7lu7du3MSs7fMVvrNq3LPQvYcHfnmGspl3tjBe/dp7d5BuAlgMUfqzpu61jJ8SxgsIGItgRuw8rP/HfmfzMFAJd8OmB4C2C5ZyCGAQnmhDNIwsADy9Fg6ef/VdlAxxEbAGEggw2xz4AJG98h3xPv+UzfdSHgzxlvMdnSKqI6eYWoDSSeCxuJZyGEEFXGO5pxZ5NOP4KiZ0bY+vJGcDY6pLl0244FKqSfpzxf5jPej0UM+37MZ2XE12b+MUFk+8k5x8rJHJPmm6f7oEV8zj0BvpSe2eCLL0gvi8p6Mu1kff3TOfXasn2/lryxGPd7VlRWVSEImc/nzgblIiIRlwhNLPAITwQoFmbEKBZnIokjULFC83eLlR3LNAIWSzVilo4RwdOwYmPNxqpNkDw6ukQVx7Ud6zdu+Yh6Aukxpx3hzNJfdKhYDxxRjds/89cR/fyd4T7P/5WuGRGOoEfII9wR6M2aNwtNmjaxCOu4xBNsjcBtbARjwwWeJcTY8PjAZR7xj6hnoKBb1672/wP3fOaZ44rPvRH4zENH4LNGN3V0kY9LPc+A0Od5CHLH802bNs3EPsHtEPvMm0fwu1WfKQdMa2AAiHeIZZ8pHLxbBlkYAMC6z5x3HwTAO4HvxqPq8nchRCki8VzYSDwLIYSoMi6EfMskWDodYyxviIH0upC1ydkWz9Xt0FeWOy2+AfGGq7PDO+SescCEdD08T7wf5/dywM/5p+fz69L74PnT6RCXDb7vecutnqn7VLZVF8Szr/OM0C9k/B34d8P7cwsy1mQ2BKYPBOBWjgBlAIC/HwaoEKpYqwleh5ClM4e4RewjeHFnx9qNezuCGHd3RD5/50y34P8qa6Miqk3cP9zH5u/z/wvrOoIccd6yRYvQGmt8Zh+rvFvp2dhnQ8Dz/z7euJ7BAd/cA4ANoV/uIdC1i3kMpD0I3LrPoENs3aez6gH4sO7zXL6GLEKEoH1u3Wfwg/fC+0lb93mPvE+mUyDsGWzhnfN9CHG24f+lxHPhIvEshBCiRqRFEMfMPyWwFVatU9y4s+R10ucqI5eWZ8QMc2KZZ0xn22EtZyyUCBpg4MBFDcIHS2Ycidwtc0A+hEu2qNNVfg+ZfJW9zzMlW9kVlV/d+9a0nggmvidR9yD2EZoIe/72+T+ChRlLMxZn/rb5v8DfPIIV67Rb9bFcL126xCzZWPTnzptrghcRgbXbrfoTJ0wwgUxAPMQ+00Lcqo+IZjAF4Y83Qv/+/U+x7iO6sfDzW4EQR6zHVn53yWdtdSz9LBWHVZ+l5LD2s7GPB0DTpk0trw8cIP4pk7IZbOCeBOCjDgh8BiSoJ/WNLftu1XeRP2PmjDBn7pwwf/78cqs+Fn2s+Qh9fkN4d27R530yX593yzsmdkBs2ec7cOs+v7u4+MvCn1t4z5UNvsTfA38H//iP/2jLBYrCQ+JZCCFErUKHDwsSHVk6fDF0IM6kM5cL8ewdIDq0dKLZCFaFpQohjNssEam7de9uLqp01nne6667zjrquNziOos1i8EEjq+//vpyi/z0TOcZy4OoOggpiWdRGbEV3633iEhEPoKS/4+IS0Qmg1sITnfrd/GPaz8CFes0Vmq37q9YscKEP9ZsrNoEScStHSGMEGJuO1ZwrOH8ljDYQ8eaJekQ1VjPcaPnb5jfsG7du5kQR5Bj1WfAERF/d0bE89uCcOd3BoHPOdz0EfEIf4Q8gwBu8XfLPpZ8hL3HBOA+DCLw+4TQ596IfXfnR/RTL6YWMBDBVAMX/jwDzzLxmYk2mOGu/DNmTLcpDDw/Xg7uyo91n/eE6Oe9MS2C9+gin/fswQT5bopR0Psz8Q7wkuHd837S8Hdz+RWXh3POOcfeJZxpuyhyi8SzEEKIWiG2ctAxxcJKxxDrinOmHYRciGevI8KXzipgUWK+K2KZhpNOIes5Yz2j48qAAR1pOrB00umY0qnkejqVdLDp9NK535gR4IhBOveiavD9SDyLUsIt/AwAIDxxMSfAIL89LvD53cEzBms1AhbrNfP1yy37c+eWi3wG7BDCzG9HGLtlH8GMNX/gwAEmpLGiI6oR2Kwpj+BGDPL/z636btlHpDNwyO+eB+iLg/JZAD7c/1u2DM1bNLeBAKz5DAywNnyju++2gQIGDjhHXq6zOfyZcrkP90Xwu3U/Ds7H7wLtQbbgfDw772Dx4sW2Br5b9nlfDIJueu+9sC3ze86ACQOjiHzeL4MpvGvaMAZZ3KLP77pb9d2yz0AA7R7fFbBEH8/GO8XrgGfk3uSjLgx68A55vvPOO+8Uy7PEc+Eg8SyEEOKMoeHH8sNn3Amgc0DHiQ4OczjB80E6/+nIhXh26OzQUQM6QriX4kKJBYgATjfddJNZFujQYVnBikDd6GBhyaHTxBrLuIFifabzx7PS6eV+WMRE1ZB4FlWlqr8n1f3tEWXvzK37Pief3zvEPUIzmyXfXfm3vL+lfL4+oh8B+9a6dWHNmtVh5coyyz5Cl8FWLNv8njJ3/xR3/okTT7HuI6LdjT8OzodAtcB8XbuaZR4LP0IeAY+4NTf9hg1Dg5tvDg0aNLA1+PmNJh3B6+76bun3wHxu4UfYUz4eRm7Vpw6///3vzdvAYdDixz/+cbj44ovCv/3bv1l5CH3E8ze/+U0T+aC/w8JC4lkIIcQZkxbO7voMjPSXuXE/aJZbx/NUp+NwtsVzXBcsz3TIAEsCFg06a3TesFS0bt3K8vTP5MFKQUcJl0c6knTisARhMcGNEeuzu2pj/UCM0wEVVUPiWeSS+LcspqLfqoryVqcMqOia01Gda2pSfjHD+zh6rGwOP1ZmxD8WaOJTMNDpwfk8In/ZvP2y4HyIfNoAfvvxTEJ0e2BDIEjf1VdfbYOo5557bmh4e0NrUxpmhPvXv/71csuzvpPCQuJZCCFErVFRJ4BOyeDBg8wKwLzBmNgS7VRUTk7Ec2bjEzc/gv0Alg/cIRkIuPHGG21eIcv+YCVBCOPWx3mWIMESQ3m4/q1bt9asGnSg6GhhtcF64haHmlDRuylmJJ6FEPkOA6d4JWH5RiTXq1fPRDi/+3gy4YWFpZxpQN///vdNdIvCQ+JZCCFETkAkT5s61ea1Yb3NNucXYcgWW65jzoZ4xu3OxTPYushZBL3jLotgeSqpL5DXn5V9RDaW6kpJ3kPZbtmn3SO5V7zVhLjsmpZxOmqzXIlnIUQ+47+puKwTaR1vpdjTChhYZZ75hRdeGL72ta+ZW7ooPCSehRBC5JT1698yCzRBaZgLBy7i+PQtm/iqTfHs5eOK7S7V1gHi/kld4PMkGAx4WhoPGHMKlFNB/tPBdWzxO2E/Po7zVQcrK1Pf8vKSMs+UuKzaKC9G4lkIUYj4YGwMkdkRz3LbLkwknoUQQuSEuIPA6DwBVgjCgiXWIY+LsMxBknqS2hTPXh/mJT89dqztk+Z1+Dzaj+sVd4bi8w77nEeg+vny9Gjz9Gx4aXGeuBz/9K06+L3Ly4n2zxSvD+VnHVCoIRLPQoh8x3//HN/3dD8mCNp3vvMduW0XKBLPQgghzgpxZyHG044dPWoWX9YwZZkRd2226yLRGHM23LaZn/bUmDHJURnUAfEX198FJ1tsjYZ0ndN5fT8mW1p1OZPra+P+uULiWQiR78S/+7YlbQL78YAl7R4BxCSeCxOJZyGEEGcF7yh4RyLe92NYuXKlLd2BGzdRTp04j1Nb4jmuA6LM5zzH97Q8mU8ia7t7eTmZc6zdyZIr8ZJTBIwhOmtsda2pZZcgZCz1AkR6JdDYq6++aseUybIvrDdaXVhOhuVjwJ4x6eCdKZT1/vvv2xI1O7ZvtyBxtYXEsxAi3zll0JT9zBaLZv8ksOR3v/vdU9Z5FoWDxLMQQog6Z9euXWHAgAG2nubqVauS1JOdDf88G5bnisQzEByM80TXjgUxHSIEaLNmzUwsA3mJJM5aoIcPH7K08sBimS29rjPCNy6TvAhyB2s8S6KwXjTu7T179rRorSx/ggDu0rmzCWjg3r70FWXE5UAssumw9evXz54BXDyfOPHZl67z+mfD3xXP4PlYkouluR7NlM86rWm4Jv2Oq4LEsxCiWGD1htjyXJPfRFF3SDwLIYTICxB/zz33XGjTpo0Jx1Ost0nnolevXhapuzaJxTPEAm/jhg3WQCLsV6xYYWlEUMXV/K677gp3332XWYexnt98880mpqkjy5I0adIk3H///WaJZd3na665xqKwIqLpPF1//fU2WHDgwAFbFuuGG26wZa02bdpk64uOGDHC6tGnTx8r00H4TpkyJfz0pz8No0ePNjF9yy23hEmTJtl6pHfeeWe47rrrbD1p3iHv9Nprrw33Z8r45OOPzcr/m9/8xkQuUB+WTqHul156aXhl+iv2XbBM15VXXmkDB1jBoVxwJ+8HEY+wZymuRYsWhcWLF1vdLrnkktCuXTuLLMu7AcrblVjSq4vEsxCiWMDy/O1vf1tu2wWKxLMQQoi8ArGFqESwslZyDJZX3Jdrk8rEM4FdsP5SJ0QoDBw40AQrFucWLVrYZ7du3cKCBQtsQ+iSt0uXLmaRHTVqpIncjz76yAYGcL1mnjWWawQurt+4rGNhpqyNGzfaOtDcG1hbumHDhhmhfrfVlXIQ3Iha3Ml79+5t1njcpDt37mIu3lh9e97f0+retWsXE7mPZ+r93LPPWh15BhfCBz/5xIQz17B0yv297rcyOnToYOU//vjjFpHcSV6NXT9q1KgwdepUG1CYO3euPScdwsFDhti9p2f2GShgQIDBAJZqqQkSz0KIYkHiubCReBZCCFHnxIIVsNZicUWUIuQAMfnjH/+4fFmp2iIWz9TBRSXWV6ynWFWx5GJt/vTTT21d6BXLl1seRCgikTKIIM76zU888YQJfIQkkB9L7B133BHq168fVq1aZULzxhtvtIjjuErzjFidEdyIYMT3yy+/bNdjPSaYGmViwX7sscfMzZ0o4Vi9KePNN9+0e1977TVmhW7QoIG9O97Vr371K7t3vXr1TGRjHaaOzv79+6z+zDffsGFDGDx4cJg3b57dCxDbfBdpEMJY1teteytJCeHpp582t3DWOGUwgMEP0p555hkbEID4e64qEs9CiGJB4rmwkXgWQghR57h4joUV83RZDxMLKAIUsXh7w4bmnlybpMXzF1+UiWdEMZZigmAhVhGT8+fPD8MzDeacOXNMSLdt29Ysw5Tx7nvvmds0VmVclBGNgFDFQou4njptmglU8iGSsejSgcLajEUZKy0CF+HsHStcqmmsAcGK9Z17Up8PM4IXyzAWbIKVMd8aIU35s2bNMuGLIKfsBQvmWz4s37ElGfGM9ZoBC84jznEj5zreB++GQQKIvx8GF/hO3njjDRP4iGUGDLBeDx061I6Ba7GaY52GuIyqIvEshCgWJJ4LG4lnIYQQeUGZcD11SQ9AQP/whz808YRY5bg2icVzGWX3xs04Tn/ppZdMsK5fv97EIC7bzPfF4jt//mvhqquuCvfcc49ZgukcjU3WjsY9Gysw1l/ELXONcUlv3Lhxufs2ghnLM2Kd+c6IY+7Ne0AIcx33ZGPwABHNvZlDjThH9AIW7UaNGpmFG0s1dUN8Mz+7UeNGVta6devC7bffbiIePv74QHmkcyzgiHEGBvjE4t6qVatToo2Tj3eBYMaK3ji6H4MGDDAwWMAzU38GAnhXTvzdVhWJZyFEsSDxXNhIPAshhMhbcPtFNCE2sWrits0c29rky+K5DCzDcfRp9rHgAmISEYzIdDdvhCnWVeY5E4Qrnt+L4ERokh+wEmMhxqINWHERwHHkbizXWHUBqzD5mR/tYMnmesrErdtFKaIYge9gwefe8b2ov9eF+vOsiOGjmXKYTw2USfRsf2aHY0SyP9/mTZvKXet5djbK5h64lWN5Ll9iK1NHiWchRCkj8VzYSDwLIYTIW2ik+vbta4IMcYf19uxbnr+MC2SjGuIvbUWvCp4f4YkIPuXelZAtXzrty3U5Vcx6/s8z77oiEOO+RNbpng2xjys6gp28bHyPp7sujcSzEKJYkHgubCSehRBC5C1Ye91CCsx9PttLVdUUF4exMESMssWiMVu+mPQ59r2MzD+nnEuTPsdx+eZlZPB6ZXLYcZzP8f1s54BjRHa2cxVR1XxpJJ6FEMWCxHNhI/EshBAi73HR1aNHjzoRz1hbCbJFdGmPgo3bNPOHs4GbdkXnTgrXYO7MBOtieSvmU2NtTgvMbIKTedGxC3cM86XLLcPRvRzSYtLl4ypO+el0XLtxHffyOG/iOVVeGvJZWanyqoPEsxCiWJB4LmwknoUQQuQtiDMTm5lPuO+++yy4Vm1yOvHM3F6CgDF3F+FOoC+WgCKqNEtZ+RxhIma/k9mwMCOwCW7m55gfvSURtA6CksjZBP6iXIJ2EaWadOYbv5UR3349ZeLCzZxqzhPMDCs8lnnOMecYwQujRo8ud2030Zrh2NGjJqp93WzSKW/79u12DAcPHrRnILo5nTsgmBn5uAcDCMw79yjaQDncwe+Txs5nvj+3evtWXSSehRDFgsRzYSPxLIQQIu9xwVUX4pngXkSnJpo0bNq0yTo/WIwvuOACs8ZOnjzZ1lcm6jRzfLEis74yopZ1lW+66SY7TyRqh2fiedauXWPHCNuuXbua1brPw30s0jVRtnfs3GllUgZRq7kfovt3v/ud1YUGnLJZN5pGnWBe8VrYiN6xmefj+vbt21sgL/JceeWVloZg3rdvn4lmnpO01157zYR106ZNw3X16oWnxowxAY1FG+F+5MjhpPQyKhPEfq76kvkkEs9CiGKB33OJ58JF4lkIIUTBkAvxjNhLi0EaSyzOd955Z+iXEcawcuVKWyqKYFiLFy8yKy1LRWGhfv31161MRCnLT3E9grR169bh8OGTUbgRrJdffrktQYVonTFjurlNd+naxc7TOLNk1CN9+5oQZ81pIm/Pnj3bBDsW6vmZchHeCGLqkxbPCHbKACKCL1myxEQ6QdiIXI7QpywimvPcvA/Kx9pOxG/ENktwcS3nsY7zrJDtXZ0NJJ6FEMUCyw0invFeEvkLbZtPU4qnPy1fvjycd9551hbWBIlnIYQQOSOXlmcXhiw7xXxfhCrLSY0cMcIEKgKZedBYdqdMmRJuvvnmcPXVV4d+/fqFpUuXhpEjR5rIJB2rMFbdPn36lC/xRNndu3e3MhDiPkd61qxZ5Y2yi1hEc5MmTUKXLl3MMk2nizpw7z/96U/hlgYNwqWXXmprS+OyPW3aNLseOB48eHByVDYnmvWlAUGM2GctaJ9LPm7cuDB9+vTQs2dPE/bUG9G/NVMHoKzNiYt4rpB4FkIUC/y+Ip5pNyAXA5CiZvh3E39HLp5puyEdV+R0SDwLIYTIGbkSzzSU3lju3r3bAnr5nGLEKGITCy4il7WZcYfmPO54LK2FqzbnELq9HugVVq9ZYy7WdJqOZMQ40ODilh27cgNWaqzVH364Jzz22GPWQJMHAc9cau6Bux8iFzGP9frTgwfD0EydRo0cYeneKYMlmbog2rmeAGUzZ840Ec78aSzV3AOrOJ9YtTt16mQWcN4JFun9+/ebJXvf3r02x3rIkCFh186dSem56fhJPAshigXW4v/a175mA6NAW5CL31FRc/iOPjtxwvZpg//u7/7O2vmaIPEshBAiZ+TKbRsQu6Qz13dNRvw2atTI5jS3adPaIm1jVcbdGgs084A5N2DAY2b9ZR4x5xDCWJSvv/56m8M8b948i5KNAMeSPTQjRLFSx2BNRqBeddVVoXfvhyxoGPOt69WrF7p162aBvVasWGHlUy8Ch912221mQUbs4oqNSHYoD5Hs1zMYMCsjoP/4xz+aGzrH1AX3beZOE1EcUc59mVt9zTXXmPv44UOHzEI+ZswYy+9IPAshRNVhOg+Wyz/84Q/2+ywKi1tvvTX87d/+ra2OURMknoUQQuSMsyGeEZ+IS8fF4McZ8cg8Y+Y0A50cgoedOH7cjgFLrJ9nPerYfcvOfVZ2jnnOuH8DbtsIahOgmXv5/RDpsRBFJMfHlM88ZYfrOc9GXTM7lu5pvjmUF9eP8rzuQF53KXd4Bq5zEO24ekNc9tlG4lkIUUwwQPqVr3wlXHLJJRaAEk8m3IEZcNWWHxvxR1hd4q+ZTwbJGfRu0KCBfW94c2UaQfsuq9sWSjwLIYTIGWdDPOMWjRtWzOkaw9oWjpRnrntZ3Pey3asq9/cya0pl9/BzCH7gOJ3/TO6dRuJZCFFMMFDZv3//8M1vfjOcc8454dxzz7UIzt/97ne15dFm30lm4/OrX/1q+Id/+Ifw8MMPn5HHgMSzEEKInHE2xDPuyswTBheBCD+3BPsxwtbysJ8IRf/kvK9FDXac5PM8EO/7+VP2k/x+PRvE1zmkxemeP07349Ph1/hmZWWex67PbLwL9h3P4/nTaf5ZW0g8CyGKhfi3kdUMmGYzatSo8MQTT9hgrrb82JiuREBOvhc2VtPA5d6J27nqtHcSz0IIIXLG2XLbRpxB3BCaeI4EI5AeN5IuKPl0F2hrUKPr4jLZOB8L85jKjinzlMY6uQfHXo90fWM8T2VQlm8xXOv3jsuJ8/q+H0O8fyZIPAshioXa+l0UdQffIQHEvM2rzncq8SyEECJnnG3xDNYoYmnNbEBETQJxrV2zxo5dSEJFjSYidvv27Tav+CQnG9n4GvZ37doVPtq7l4Nw7OhRs0ZQhxgTxtF1MZxL14M51u+++64FBGODdB4nrhOfPB/BUPYzlzrBxXNlVCVPTZB4FkIUE/476/uicPDvLv4Oq4PEsxBCiJxRm+LZOyyIMg8YRppv8NJLL4WGDRuGzp0720YAEScOtuV4GtcTtdrzcxxHqIbYFRr3sOeee872WUqKiNkOQbtiuMavS5/j/l4HgpsRyZuyKN+fqTLiOuK2xtJaaRFv9//s1A5Duh6I+Wzvp6ZIPAshigFvX/z3uCq/y6JuqOi7ib9DNtrEivJmQ+JZCCFEzjgblufevXt/yW0bWLe5VatW4f3337djlp9i7WbEJOsts9RTx44dbY1lBC/i+uqrrw4DBgywKN0XXHCBCWiuZ11llqtiLWVEJZbgtm3b2HJTrLHMOZaJYv1Plr1iTWYCkjAf+9prrw1PP/20CduRI0eGnj172lIZo0ePDnfddVfo06d3OHL0aFiwYIGVwxJXiF6iZBPFlY15W5U17osWLbJ3y5JX/R7tZ2KYJalat24dbrrppjB+/HirNxFIWXKLuvJcLF3Fs5FGXuqItb1du3ZWDwYfXOifCRLPQohiwUWXkz4W+UFl35HvZ/P6Oh0Sz0IIIXLG2RDPiLLYbduZPXu2RdVMs237dlv/eMPbb5uYHTZsmIlT8rI29D333GPLOfXt29eWHmHDAr13797QsVPHsDEjkAcPHmxLXyCyFy5caNcjNMnnFmjqRPmsKd2mTRsrp3nz5pYP8d6sWTMT9J0732tLXyGYEbQIXJbR2PTee6Ffv362vAbBaCpjwoQJtuYz7uKsF42Y5nnYeBYEMsK+V69e5sY+afIkG3RA1DPAwHUMHrCsB1b8v2TENm7rDC7gOu5Ut5PhSDwLIYQoBiSehRBC5IxcimcioKYFG5ZVrK0uqhGW5EH8Yn0GhCuCESsz5z/44IPQokULs+re3ODmsGrVqtC1a1cTnA6Cc86cOeGVV14JkyZNsjTKYQ3QO+64I9SrV89ENoKc61hvGUGMVRfrNKId4X3nnXeF+vXr23vakRGvjz/+uIlxrNTlI+WZz7SbGdZpd13n/SKmx44dm3kH8+yZWZOU+/PcWMT379tvdaFcvw6hj/UbgX3FFVeYGL/55ptN2MfUREBLPAshhCgGJJ6FEELkjFyIZxd3BMzCqromCRTGJyISa2+HDh3CiePHw4wZM0zkImSxVOPu/MADD1ge3Lffeecds/6yFBb7WKURk926dTPBixBdvXq1ie/58+ebxXfKlCl2P5bGoFxcvF988cXw3nvvmXjFuowVGos3whYRi3Bu27ZtRtivsDWrcRfH7Rwr8sSJE0+xPMfi1YKQZcA67eKUehMgjTrPmzfX1iMljUEDXMapD+KdZ6BsrM+ASzsCm/nVuHnv2LHDLORYzs8UiWchhBDFgMSzEEKInHG2xbMLS//EknrjjTfa3GTcpBGNzP3F7fqaa64JjRs3NhGMpRbxjJjFEozA7d+/v4lXhCjzlhG0CFzyY9WmzNtvv90szuRhnjCiGGsu5WBhRqAyrxmXaNygsWbziWs2ghux/mhGnK9fv95EOsHNENNsiHUELZZsynQIJIboP3DgQPlzTps2zeYxN2nSxOqPizmimPnYiGeeBdGMyzhWcLYlS5aYtd3fHQHGcEXn2XlX1AWxT1nAvWLhXh0knoUQQhQDEs9CCCFyRi4sz7g0n4giTCN2EauIVgcBjSXW0wjORaAsxCHBvji/b9++8P6WLbaPqzau3AhXj0z91ltv2QZHjx61+/D5zDPPmGgFXL4R1JQP+zNlHs8Ia/JRFnXdv3+/3YM8iPvdu3bZOc9Dvfx6YB9XbizDDuIdgUw9KQ94Dpa78nu4q/eaNavNsg4Ia+5BOp9Y0gGrN/XmPHCepb/S7uJVReJZCCFEMSDxLIQQImfk0m27IpFXE/FXHRDdiPU0tXVfBDHW4XgJKuZmu3s6nMmzp/PURr0lnoUQQhQDEs9CCCFyRk7F8+dl6ymnxd/nn+N+fDKdT9/SayKDn/OybJ5xklZ+LnMd17KfDa4tZSSehRBCFAMSz0IIIXJGLuY8u5itjM8/r/w84LK8Yvlyc6muLl6PzZs3nxKVu1SReBZCCFEMSDwLIYTIGbkQz24BRvQyX3hTRsDu2bPHzjOPmHm9WI/ZJ7AXG8G0tmdELvOZmbuMcCbKNMs24Q69detWux7Iv/Gdd2yOMHAN5VNGuXU6swFzkFkCyucOlyoSz0IIIYoBiWchhBA542yL59hNm8jRje6+O9x6660WWXvXrl3hlenTbdkoxPOIESPD4sWLLbI16zbfcMMNVj/ys3wV4rlL58623NX1119vEbYR4ywx1aBBg3DvvfdaHiJYX3311bacFELa7+/wvMuWLUuOShOJZyGEEMWAxLMQQoickYs5z87cuXND8+bNTdCyvvP0RDizJjICd+DAx8OCBfNDx44dw4YNG8LUqVNNEBOlmiWaVq9aFdq3b29Rp7FGs5QUeUgjenXv3r3tWYh8XZkwnDtnTvnaz6WKxLMQQohiQOJZCCFEzujRo0etiWe38CJix44da/ukefr8+fNNNMO4ceNsbWSsxC+88IKlDRo0KMybN88+Ecys80zdiGb9+OOPm2hmXWbcs1nreMCAAWHMmDHhN7/5ja2p3OCWBibIWWN5/PjxVmaM14Nlq6ZMnmz7pcpTTz0l8SyEEKLgkXgWQghxVjFBm0Sbri3LcyySEc9uefY0wPI8cOBA2x8xYkSYOXNmmDRpkgljgng1btzYhO2jjz5qluRXXnnFXK9ZRxkrM/OV27RpY8tOLV261OY/I7axSpNnzpw5YfXq1eH55583cR6D+7hH2J49a5aJ9lKG7+fBBx+0/fi7E0IIIQoJiWchhBBnHV8CCvE8YcIE2z9TXJxW5LbNPGNPR+AigJn33LBhw9C2bVsTyCtWrLA8WJ4XLlwYJk+ebAHFsDCzdjLzm7t162aW5vXr15sL+OjRo20ONHOht2/fbgIcCzQBw7CAk8chKBmC/M0330xSSpNYPAshhBCFisSzEEKIs0psZezevXutz//Fcsy841xSkeV0y5YtyV4ZJ04ct2jdpQ4Wf1mehRBCFDoSz0IIIc4aLpTcSoxF90c/+lG44IILzmj71a9+FS688ELb/+d//ufwwx/+sDw9zud5+LzwQs6fb3OW2eJzJ/OUbZz3tF//+tflx57m13s9PO2iiy6yffJ5XS6++OLyvF5GqW18P+7aLvEshBCiMAnh/wGVH+cnK5C2JgAAAABJRU5ErkJggg==;" vertex="1" parent="1">
          <mxGeometry x="230" y="1050" width="975" height="1227" as="geometry" />
        </mxCell>
        <mxCell id="-mBPuyFU1Wo2kqZGpeOI-17" value="" style="shape=image;verticalLabelPosition=bottom;labelBackgroundColor=default;verticalAlign=top;aspect=fixed;imageAspect=0;image=data:image/png,iVBORw0KGgoAAAANSUhEUgAAAcMAAAFmCAYAAAARV/GDAAAAAXNSR0IArs4c6QAAAARnQU1BAACxjwv8YQUAAAAJcEhZcwAAFxEAABcRAcom8z8AAHLCSURBVHhe7Z0FmJTl+sZP/E96ztGjx3NMBMFWTFAMbFEMULqkQ5EGRUK6OxWku7t76e5cYgt26SWWXTbv/9wv86wv4ywsyMx+O/P8uJ5rZr6e2eH9zfPW9zsoSgBx6dIlhIWFYfHixRg2bBiGDx+OhQsXIjw83KxLSkpCWlqa2ZaPqampSElJMSHLFUUJPlSGSkARHx+PyMhILF++HKNGjTJCnDdvHg4dOoSLFy8iOTnZSE9CZagoClEZKgFFQkICjh49irVr12LcuHEYMmQIZs2ahX379uH8+fNeZSihMlSU4EVlqAQUiYmJiImJwaZNmzBx4kQMHjwYU6dOxc6dO3H27Nn0alJvoShK8KIyVAIKyu7kyZPYvn27keCgQYMwYcIEI8dTp06Z9XYmqCJUFIWoDJWAgm1/zAD37NmDGTNmYODAgabtcPXq1SZjZOZI+XnKUIWoKMGNylAJKCi5c+fOITQ0FHPmzEH//v0xdOhQLF261HSsuXz58lUylCxRXiuKEpyoDJWAglJjr1EOpZg/f76RIatKFyxYgMOHD5vepswePWWovUkVJbhRGSoBBYVG4bFH6ZIlS/Djjz/ip59+wuzZs7F//35cuHAhvd2Q2zJ0aIWiKCpDJeDg8Irjx49j1apVpoqUPUqnT5+e3qNU2g0JpcjhFipDRQluVIZKwEHZsefohg0bMHr0aCPEKVOmYMuWLWa5tBsSlaGiKERlqAQcrAaNjY3Ftm3bzFhDTsnGx40bN+LEiRMmc5RqUqkiVRkqSnCjMlQCDsqQbYO7d+82wytGjhyJsWPHYs2aNWZ4Becopfyk44zKUFEUlaEScFBsFB6HV8ydO9eMMxwxYoSZr5Qda+Li4tKrRiUoRkVRgheVoRJwUGxsF+TwikWLFhkZshMNh1dwGYdeiAQpRakyVRQleFEZKgGHtAUeO3bMZIPsRMPxhjNnzjR3r+CE3SpDRVFsVIZKQEK5cY5SthOOGTMGvXr1wqRJk7B3717TuUYkSCGqDBVFURkqAcuZM2dMD9Lx48ejZ8+ephMNe5hSkpQhBchQGSqKojJUAhbOUUr5cYwhM0P2KuXYw+joaNPjVGQooShK8KIyVAIKW2wyvIJthX369DF3vefdK6KiotJnobFDUZTgRWWoBBSUGqs9GRxCceDAAcybNw8DBgwwM9GsWLECYWFhZv5SqR5VGSqKojJUAgpbbhxreOTIETNhN4dWDBkyBIsXL8bBgwevGnivbYaKoqgMlYDCliGnXYuIiEBISIiZko0yZJa4b98+M9ZQBt6rDBVFURkqAYfIkO2CHGvIdkIZeD9r1izTjsjONexEQxnK9oqiBC8qQyVgoex4K6f169ebsYa8ye/UqVOxfft2M9ZQZagoiqAyVAIOkRurQU+fPm1u3TRhwgRzk1+OOdy0aZNZ7jm8QlGU4EVlqAQcFBvbAZn1sTqUN/WdNm2aues9q0vXrl1rBt57Dq9QFCV4URkqAYfIkMHhFewwM3v2bCNDDq9ghxq2JcpNflWGiqKoDJWAwxYce5Rycm7esYLVpGw35PAK9jLlWEN7eIWiKMGLylAJOGwZyq2cli1bZnqTDhw4EPPnzzdjDWV4hcpQURSVoRJwUIKUGx/ZLsgb+nJ4BccaUoYcXrFnz55f9ShVFCV4URkqAYnITYZX8O4VvGsF2w3ZmYYTeJ86dcrIUsSpKErwojJUAhpWg1J6O3bswOTJk02bIe9iwbtXUJKsRlUZKoqiMlQCCkpNglCGZ8+eNT1KefcKTsk2ceJEU23K6lN2sNH2QkVRVIZKQGHLkMFqUrYNssPM3LlzzdAKDrzn3SvsHqU29v6KogQHKkMloKDAmOlRcAzKkPc1ZI/ShQsXmnsacmo2Dq/gHS04DpHZo2CLUEJRlMBHZagEFJQXJUjBSVB4HGS/dOlSkxnyjve8e0VoaCjOnz//q2nZvIXgbR1DUZTsjcpQCSgoJskMRYasCj1x4oSpGqUMGWw/5PAKtifKTDTSkcZbCN7WMRRFyd6oDJWAQuRkC5GyO3PmjJmTdMSIEaYTDXuW8u4V7Gkqd72/Vtji8xaKomRvVIZKwEE5icSk3ZDVobx7xbhx4/Dzzz+bdkOOPeTwCs+73tvB5Z7rPEXIUBQle6MyVAIKikkkJtWkfE7hsVqU9zPktGzsSCPDKzzvem+HyFBClqsMFSWwUBkqAQXFRGmJCJkV8pFVoewww7tXUIYcfM82xMjISNPbVLbPSH52eK5XGSpK9kdlqAQU3mTIYGbIoRS8ewWrSQcMGGCGV4SFhZkqVHt7eW7LUDJAPre3UxkqSmCgMlQCCluGIkIGZ5qJiopK71Hap08fkyUeOHDADMoXAXrK0M7+VIaKErioDJWAQmQoEhSp8TmHV6xfv96MM+zVq5eZsHv37t1meAXXi/zskP1FenxkyHqVoaIEBipDJaCgnCRz4x0pRIocXnHy5Els2rQJo0ePRu/evTFp0iRs3brVSJKZo709j2GLUILi8wxFUbI/KkMloKC8KD72EGXGx6ET7CTDuUl52yZWjTIrbNGihREis0Nmi5zIm9tw2raYmBgzLpHH4LE8s0OVoaIEHipDJdsjUqKwmOGdO3fOTL+2d+9erFmzBnPmzDHjCnkvwzZt2qBq1ar4/PPPUaFCBTRu3Bhdu3Y1vUtHjRqF6dOnY/ny5WZAPifyphTZE5XZop0l8rktSEVRsjcqQ8VviLQkPDMtEY1n2NtIyPEoJMqKWSDlxbGEzPSWLFlixMb2wX79+qFjx45o2bIlGjZsiIoVK6JYsWIoU6YMatSoYYT4ww8/oEOHDujZs6fpbTphwgQzfyllunPnTtPrlNWski2ySvV6GSPD8z3Ic0VRnIXKUPELIgLJqCREFnxut9fxdUbtdgxuxwm4KahDhw4ZAXK+0eHDh6Nv375GaqwG7d+/v8kIObaQvUg5FdtPP/30q+UchM91XMb9e/ToYTJGHoPLeUPglStXmmyTWSezT2ahnhmjZ3i+B3lUISqKs1AZKn5BZEgxSEcVWxBcRrnYguG2fG5vy2UcM8hOLxRTSEiImVWGMuPYQWaBFB0lx44ybBPkrZs4pIJZHu9wz2nYGOxMI8/XrVtnjsVtuQ+rVXkMHo9tjJQrRckbAy9btsy0MbI9kpkir0+uzTP4viSLlPfKUBkqirNQGSp+QWRIcVB4dscUPnIZJccqT8pDpCEykaB8mJmxF+iMGTOMrFq3bm2qOSmssWPHmoH1lBurN5k1cso1ZpCsSuWYQmZ1HGjPRwaXsW2Q23AsIjvScMgFxTl//nxT1dqpUyc0bdoUrVq1MrJlOyTbFXktnMFGqk4l+D75aAteZagozkVlqPgFkSEF4dnmRlFwmUiSr7mOIdtTgpINsj2QnV1Ylcm2QFZnMoubNWuWyfY40wzFRuFxX5GPXAPD8zVDzkch83wU5OHDh40U2f7IzLBbt27o0qWLGbTPzJPXQnHy2lht6/k+5PrlPakMFcWZqAwVv8DCX8QnwdcUhEhDltnbUSzM3NiBhbdg4thAZoPM1ChDERKzQGZ1p0+fNpmanWGK7OR8Ep6v5ZzynOfmsXibJw7P4Dl4LmafzEIpYrYv8pqYiXIbZpoUKc/veVxeD1/zvCpDRXEWKkPFL0jm5RkiCgZfUxQiKcqDIuSUaZQQO75QQMzM2OOT1aEcO8hepKwCZTUrBSZi5TF4Xm9ZoGfIOeX8DB6Dx+NxJVNk1rl582bMnTvXXAOz0u7du5tOOBySwSpWCpkylPfF62F2yLCvSVEU56AyVPwCBWALj48iClkuwdcUB6s5WU3JDiuUDQfKN2/eHAMHDjRyZCbIqkkeQ4TGfSX4+nriEVHKNck+DL4WickxKTmKl1LkNXB8IodktG3b1lwjO+pQiJS4iJnB5wweU0WoKM5DZaj4BRGOSIdiERFKiHgoHIqQnV8oHA6XYPbFLIzPKRxWm3I7W3h8LvLh8URq15IP18m+IkN7mVybLUo+Z7ZIGbPqdvz48eb6KEXKkXfDoBClzZLXI+9NZagozkRlqPgFCoAiEenYkuEjRcHMiZkeqxmZEVKEzLbYLsdskL1Hebd69uDkdnIMW6oiHx7XlmFGApJ1tgxlP1nmeb3ymudiRx32KuW1sVMNO9iw+nTRokUme5QMUWWoKM5GZaj4BQqAghGZ2FKRzInSYBUk2whZNcrB7uwkQ7lwTtFdu3aZXptsv+M+lJVISaohRYS21CREfN5Cro37SXheI4PP7dcy5pEz33CMIuUts9iwDZFSlwyRwePyfIqiOAuVoeIXbOGIdPhoi4zZHntkcqYXVoeyo4xMps1xhezVye1FSNyfQuK+9hhFLhf5iQh5PnkuISKUsAXIkHPIc5GhiFCug+dl5xpKnJ16OA6xc+fORuas0mV1Kq+P+/AciqI4D5Wh4hdETLZwKBJKghKkUFg9yt6hbINr3769aYPjMAaO8+OdJCg92Z9i4Wvux+BxGCJLkZ0tv8yEpxC9Lee5eR4RolwLM0DOTEN5c+jHd999ZzJEVu0y4+UxRLyKojgLlaHiN2whikQoMI7l4/g8dpjh5Ngc3N6uXTszkH716tVm6ASFSRFxX9mfAmJQTBJc7ikxhryWZfa6jILbiLy8Xbu3YJUp5cdZa5o1a2YyRA7YZ4carvd2XDm2t+XyuclzRVF8g8pQ8Rss0D2FIhkVMz8OXB8xYoTpiMJ5RtkGx16jXC+CEzHIMUR+Ihn7kcF1thxlnezjLbzJR5bZ+8t7kOvgc4qdHXxWrVplpM4esOz8w3lPWZXK92ufwz6eXBOXcZ08l9eKovgOlaHiN6TwZ4hMmM1REvv37zedZNhzlCLk5NvsMMOMkdvJ/nbYovBcTpF4Skae2xKT7STs49l4Hl/OIcdm8HiUHYXITJAD8ylC9jDlLaHYyYbvlft4Hof7yrHkGuS48lpRFN+hMlT8ghT+fJSCnoU/5cGJtHlHCd55guJgFSNvycQqRxHhjSDnEtHIuUSCFDDPy+dcbm9rX6ONLLPX8VH2lf15DrZhsrMPp2/jrZ/Yu5SSpxw53ILn5b5yPrk+laGiZB0qQ8UveIqDQXEw85NOJ7xVEucdZYbI6lEK60YlIBKRTEsEw+BzESIfRTSewWPY5/W8dlkvyz2PL9khq0vtnrEckM/2RFb7ynHs40p4uy5uqyiK71AZKn5DCnoJZmi8JyCzQPa6pDB4Nwq2HXKw+s0IgOeglCg8yfzkfHwuwde2bCREcva5+Tyj7ficx7PlK5knRc+qUd5NgxkvO9NwIgFKktsTb8eT65V1sl5RFN+hMlT8Bgt1ykIyM/Yk5aB0dpThdGYUBsfpsb2NQrkZPM/B154iZHgTDkOkZMtHJOVtOz7n8WwZynO+B44xZI9YdqbhUJHJkyebtlBOHEC8HY/XxWPY18d1iqL4DpWh4jdYoIskGMz+OK6QgqAoOFid1Yhsb+N2NyMA7mPLz5aLBJdzmb2dLLPFJPC5SMkOWW4fR47L5TwXx07yfofsQMOepZyhhrPrsD2UZHQsuU5Zz1AUxXeoDBW/wQKfhT2zNnYyiY6ONkMO5E7yfGRWyKyJMuC2tpQygy0VCUpFqk1tGfK1jHPkOSloWcfj2GFLSeJa63kMHo9Vpew0wzvmsz2UwmenGraJcj9uZ+/D4DV4ipChKIrvUBkqfsEWBiUkww/Ynsb7FLLzDCe7ZnsaJSJi4H43gpzHFgsFKCIUGfIcHOZAKbHakkM7mMWxrc8WEY9nX7sdnuvkuX1OThbAMZTSW5a9StkuymyR18DtZH+5ZrluWS6hKIrvUBkqfsEu7EVEO3bsMNOtMWNiBxrO4ylVpCIACuZGECGJUESAIkE+SsbGGW84mfbEiRPThz3YWamc3xae5zI+yvviaz7a55P3yupgnofjDinFjRs3minaKF/ZV4KvVYaK4l9UhopfkEKeQUGwzYy9RjnlGifjnjRpkrkVEtsRKQIRDuNGEEmJUERMDFbNUkDM1JiV8vycB5XnHz16tBniwfPz+kRGcg0iJM9lch7Znq8lC+VzPsqcpXPmzDGTdzMoYbk5Mbezjy/H9FyuKIrvUBkqfkEKeQalxOpQCoFZIWXENjVWWbL6lALh9iKdG4Hbi0wkKDdmfJQPs1HekJf3G+QsN+zlySEdnAaOwyAkW/OUkVyLHVwvouX28h4pQwaXcR3PzayTHWd4Hv4AoBhZNUtRch87ZD85poSiKL5DZaj4BcpDZMFsiJNv847wbCvkXKSsIuWNcilKbyLKLCIpOQYfKVjeGortduy8wjY7ZmfszMJerK1atTKv2XbIKk2puvS8Bs/gepEhn3MZt7VlxmAnHcqfEmYGSgEzE2bVqdzNgvvJOe395fwMRVF8h8pQ8RsiC8mUmA1ybCFlyIH3XC4ZlQS3536ZhduLUPhIqbBKlvdDZJsdz0UBMxtlRtiyZUt8//33phMPs0bpRCNiEhGJACU8z2NvY69j8HhsC+WwEWkjZc9ZVtPyfLIvHxncR2Ron4PbKIriG1SGil9hoc5MjZ1XOO1ax44djZwoClZnSpYlEhBRZBZPmTDTpHg58wuzP04CznZCVlNSjpRi69atzVRpnjKUc9ui8nyd0XayjkHBsy2SmSfPTSGzwxCnauP5uB+R/e3r5/7yXLZTFOXWozJU/AoLd7aThYaGmvv8tW3bFj169DCZm0hAJMIQ0WQWkQnFSgnxXDIlGtvqxowZY6pL2YFm8+bNRog8PwfDc2JtW4Y8r4QIzvO1vczbcj7yPTHrZScayU6ZibJqODMy5CNDtlMU5dajMlT8Cgt7ZobsPML2O7bXsapUZCgCuBUyZMgQDk4ETuFxthtmoWzD4zXIbZZk7B+3535yXgm+tpfJa8/tvAWvh+2kPJ9ko2w3ZAciVp9yG7l2Bre3ZSgh2ymKcutRGSp+hYW9DDVgJxK22bHtjjJkgW8LgNveKCITCo0Zni1D3j2C2Shfc4JwVtVyLlRWkTJjlN6knjLkcwlvy+zlnkH4XihDvmdOy8ZqYQqYvUspQ9lfjmV/DvbxFUXxHSpDxW+wQGcBTxkyS6IMmzdvbqZi85QhHymBG0XOwczKs5qUnVYoQ/biZGa4d+9eM+sNZ4XhkAdmhpQh9+NxbEHZUrrWcs/1fM73wmpSno9thry/oZ0Zynayj/3+JbheURTfoTJU/IaIgbO/HDhwwGRrLVq0MDJk1aWIkIW/POc+NyICkQr3l7Y6ZoDsQMOqUAqRVaNsN+RYQ1adshMP2xPZwSWzMvQMgc+5nbwPvuZzXgelPG7cOJMZ8nyrVq3y2ptU9pdjyHpFUXyHylDxGyzQRYbswMLepOzJyfv8cXoyVk9yvS0Dxo2IgNvKeSg1Vk8yC9y0aZNpr+PYQmZlnBKNIqSY2ImHPU0pK14bJSrHERnZUvIWAp/bIpPXzFApW8qQHWh4/oyGVjDsY8h6RVF8h8pQ8Rss0CkaCoezzTAzY1bIWxvxnn8UBtd7E8KNwPNIZkjByvmYHTIjY+9RnlPuIsHhFqw+5b0V2bmH+/IYnoJiiJRkvYTA5/Z18zWPx4yT081xnCHPyUf2ZmWbpmxnn4fheRxFUXyHylDxGyzQKSgKh9kaqwmZmfHGvpyNhnOGstOLyIASuVEZilR4HoZkiHbbITvMsEcnO9SwqpadaFhNy041MgMOj+NNUCIlWe8Z3EYkJssoZA78Z/bLGWjYeYZTwXEoByXJ83meg6EyVBT/oTJU/IYU8JyejNWDzIwoJnYooRzYwYTSEgH8FhlyX4ZkhzwnZcdOMpQw5cvp0dizlO2XlDMlTXHaQuJzO0RKst4zuI0tMT6yvTA8PNz0HmX1KN8z7+7PyQD4fu33ea1zKIriO1SGit+Qwl6qLtmGxk4tzNIoCcqJ1YaSKYkgbkQEtjx4HMqN2SYzPrYf8vi8qTAn7aYc+ZpC4jq7zVKOIdcswWWe57HDc3uen9kfs9KZM2caEbJ9kh14OBcrzysytI/j7RyKovgOlaHiN0RuzNYoAWZkHF7BDiUMVleyOlGExLhREcj23JfH4bkoJIqOj/KcguRzqUqVbeXc9nHskGuR9Z7huT3PQ+lu2LDBjGVkOyXFz/ZDZqu8Flv6Et7OoSiK71AZKn6BhbkU+hQOJcE7V8gMMBx4TzHy7hLeBCHIa8/lApdxP+7PENFJyDEFOY5sy0dZxuD2dnCZ7MfXcp3egutYRcr3yc47nIKNYxrZeYa9aeWc3NY+p2fI8RRF8R0qQ8VvSMFOATArYxbIXqTsVMJepRzqIAPfbSHaspDX9nLB23o75Bie+9j72euIrJcQ+Jzbi2Q9g9fOTJPvhRMMsKMO20YpRE4SzjZKOY63ELwtUxTl1qMyVPwGC3QKhJJgsN2QPSo5CwyHOjBr4p0c2NmE1aie1ZZ8pGTssGUh28j2nnEtMrONDbeV6+F1SpWrPGewnZI9ZNlTlW2jHE9J8bO9kJKU43iGoij+R2Wo+A0W9BSISIPCo/iWLl1q2gxZVcpepZwuTQa/S4Yo+9oiZGQkPglfwuPL+5E2SJEgg71T2WM0JCTEDPSnDNmJhm2lXK8oinNQGSp+g/JgpidZFAXCuTk5LykzJ2aHrEakHNnpRLbzJkM+lxDxeb5m+Bqeg++J0pbg+6Ls2FOVHWUoeA70Z69ZZr4yH6miKM5BZaj4DYpDsj0RHTuYcOYX9iTlTDCUBjvScCjCtWaksYV3rfW+Rs4vkpdgT1EO32DHGXYQouhZRcrhJJoVKorzUBkqfoPisGVIgcjQA7aryR0deBd4TtXGKkYZh5eR7CSyQob2uXmNfG8MvieOIWTGy/fE+zVSiMx42VuW2yiK4ixUhorfoDgoKxEhn1MMbB9k26FkUaxO5C2VOJE1e5xSLiI5b2FLyX7N8CVyTluEFH1sbKzpQcqJyDkPKbNCZrtsK+Q6vhdFUZyFylDxG7Y8RG58TtlREqxClEH4IhBWl7LnJbeX/Rl8LSHL/CFAG7l+EaGInbeMmj9/vslymRVyDtT169enDxnhfoqiOAuVoeI3bJlJUCYiRJm8m1lhhw4dTFbFOUQ5QJ1ti9xO9qME+TqrZSgSlHZCmYOUvUd5F3++B76WyQTkPSiK4ixUhorf8JShnd1REuwww+pFzkrDMYfMqihG3hGenWyYdVE6IsCMZGiHL5FroMh57ZQ551fl5AGUObNb9iTdt29f+lARXq+vr0tRlBtHZaj4DUrAU4J2UHTseMIb8bLjCWXCsXmsZmTnE1Y/ihA9ZSjy43P7ta+QY1NwFCEzQrZxsscobxbMmxbzOW/bxKEU0k7Ka1MUxXmoDBW/QYFQXpSCiIwyEUkw2HuUN+JdsWKFmdS6SZMmaN68uXnO6kZKR4ZciERlX4anHH0Ns0JWgXJgPTv/NG3aFA0aNDD3aGSVL++QwW08r01RFGehMlT8hqcMGSI1kQQzKPYg5bAEDrFo2LAhvv76ayNFtsPxPoDsVMMMkpKRffkowdcStnj43DPsbWV7CXsfG27H62aWGhoaarJW3kH/u+++Q82aNVG/fn0zZpIz6fC+jWwr9Lw++zyZCUVRfIvKUPEbLNQpA1uGDFsQIkOKhO2FzZo1Q7169UzwOXuaci5TypLbMZOkFCkcu4OKBI9pP7cjo2uR9dyHr+2gBHlOVn1yXlVOr0bxsVqUMmzcuLG5Toqb7YcceM9p2TwzWTm+fS7PkHUMRVF8i8pQ8Rss1CkDT/nYkqDQ2BGF9/8bOXKkuZtF+/bt0a5dO9M7s02bNqaH5uTJk00bHXuaUooUDmd2kbY5OR7DPpfIhcv5msspKk9ZeVtP6XKKNU4GwKESMgyE18h5VSlFBjv+8JEdgXgXDu7D/eU6GHIO+3o8Q9ZJKIriO1SGit9ggS6CYYh4bOlwCAU7yrB9kB1n2A7Hm+JOmTLFvOaAfHas4bRtrEbl7ZA4ew3bEikdSpHSkuPLcUVGtmy43g7PZdyecuWQCbZTsv1vx44dpqqWN+hl5x6KmnLmLZqYCbLnKzvOcBm3YVuitBvyWAxeC8/lKbvrhaIovkNlqPgNFugUgS0EERCXURhsY2MVKeUyaNAgM4E3Z6bhMvYy5bhD9jRl5kUp9urVy0hn1qxZJptkG56dKUoVKs/nKToRpB28Du7HYHUor4cdetgrlOfguZgNUsZ8ZFUu51XlhAHMaDnLDGU5ZMgQ0+ln+vTpZh2rVSlVHp/nl/fuTYoCn9vbKYriO1SGit9g4U4BiZykkBcZMitkz0ze2YGSYbsbM0JmfrwvIMXEDJBiYrshhcgqSo7po5h4B3nOaUppcrwiJUZBsbMNZ7ihICXY+YXLmPEx+JozxHCeVLbzcV9WwVLCzFJ5bPYQ5bAJnpOiprB5b0Jux2ujQLk/zz9x4kQjQ74P7s9sl+fl+7QFx/dui5Ah8Lm9raIovkNlqPgNFu6SfdkyZPC1zOk5b948cysn9tBk1sVsS0RCYVKMe/fuNVWQlCWrSykeVqFysD73ZXsj13F/CovVmzwOpcQB/Ax5zkeu4zZsh2QmyoyO1Z2UHkXLdkCZRJwD6Tlsgr1aKVvKVDI+6WHK7JD78lrYtkipyhhJbifBz0Oey2chQlQZKor/UBkqfoOFuwiAIQU/HylDVm8yq6LE2ObGKlJ2VDl69Kip7uS+kllSiszGKB7KjpkiRUVpMXtjRxtmcBQZqyxZtcpMjr0/Gazy5D4SXDdhwgSTyVFgkgXKcZilcjtWxVKgrPbkNXi2T7JqlW2EmzdvNtkh96PUmR1S4lzP9yAClM9CjsGQz0VCZagovkdlqPgNu2C3C3yKgO1p7KXJrIwSZMcZyodTmbH6kttwW8pChEixsNMMq1aZUVKk3J9iY2bIzIwZIzM6dnZhj9RWrVqhRYsWZvjD999/b4LPubxjx45GgtyH+zIz5DVQZBzKwQySQmMGy3OzWlSqfEVozPyYxfK9sDMNr4NipxiZHXJ/7ifvnZ+DSNCWof35SCiK4jtUhorf8CzcGSz0mV1ReBy3R5Fxbk8GJcT2O4pHJMFHyofSoYgoFmZorKpktsY2RXZYYc9Oth9KdSczNEqRWR6lyIyPwfGBfM2hEdIDlNWarF5lVkrJsiqUAqSwRYA8v4QtQwbfD6+FwyqYgTLTZNbKO1nweKwu5XuRz0TkJ2FL0f6sFEXxHSpDxS/YhbodLPQpM1aFrl692oiL1ZqssmRVIzM/qSIVUYgMKR4+FxnxkeKkWFnlymOySpPti8zKWMXJKlW297GTDs/H4DKKj+eTtsWIiAjT8YaS5flFenIuuR65JvtauC2vg9WlPDaHhjDb5NAQtkkyO+R23j4P+3hyfAbXKYriO1SGil+Qgt6z4Gehz6yLbX/MnNi+RmmwEw2XUSoiPm5PUfC1LUNbHCIjLpP1fE2hMbPj8ShfVmXyOTM9hqyTzI/78lwS9vH42n4vnut5Ph6DGSCreZllstqXw0A4LpLLKFk5No8hyHuU88v7srdRFOXWozJU/IJIQwp3KfQpDWZxbJNj9SSrM8eNG2eqOZlBiZhEDny0ZWhLg48iI5GWHbaoKEc+cpkd9vEyG9yH+3I/uT4em3JlFSszTmaHrKblI7NSZq1yfh5DxGofj49yDpWhovgWlaHiF6SQ95QTszSO6WNnE2aEbF9jpxVWbTJ7kn3sffncFoUd9rYiGFs09nb2azs897OD8NHenuezRSqvKTtW2bLjDadmo+jZFsrerHx/zBylCliOb+/P5xI8j6IovkNlqPgFkYYU7nxOWbBNkOP12HGGg+jZXshZZthxhhmWLQQGj+MppozCc70n9jqGfeyMQuBzbs+Q98NHWc7nFBqzQ2a4bK9kOyg70rBdlG2JzBq5nvvKsUSEIlcJObaiKL5BZaj4BRGEBAt4ts+xkwlnlOEQBJlFhuJgO6ItHAlfCuFGj83tPa/RXsb3SOEzA2RHHt7qie+TQmR2yF6vHCtpS5/7iAxtKXLdjV6foiiZR2Wo+AWRBAt1FvAUAKtIKQlWkbLjDIc2sIMJqxApStnPqch7krCXiQwZrAql9LZv325mr6EMWSVMOXIoCDvziPTssGXI4ymK4jtUhorfoCRYsDNbkvY0CoJj8djbkmP8WH3IKlJKQPZxKiI+CYHPKS8722N1KNtGOSmAPRCf75/zmVL+3E72kR8NDD63j68oyq1HZaj4DRboLNxlKAPbzDi/KKtGKUP2JmX7IatIs0MmJBL0FiJDPjIoOraPctJxto9yHlXOcsOsmB1s2FlIxGfvozJUFP+gMlT8Bgt0FvCsNmQ7Gge3UwzsQUoxcHJrmYeUMhCxOBW5PgleM8XFkCxPxMbgjwBmh/wBwPfMNlK+fwqSM9YwW/YUojx38uegKIGAylDxKyIFVg2yowzbzninCZmUm9kTRSJyyQ4i8JQhr9+WoTxSdGw75LRzzILZe5ZVpqw6pSTZdsgfAt5EylAUxXeoDBW/Qmmw/YwdZ5gJsnqUU5XJpNwUAgv+QJChXD+XyXK+d3aa4byrvEMGOw7xLh2cdIA/ENipSHqXyr5yHEVRfIfKUPErlAaFx+xo8uTJpqqQQmDVIdsQmTWy4M9uMpRrFfExvAmSopPskD8AWD3M7JiTirPamJkxq0vtfficx1EUxXeoDBW/wkKdBT57jbL3KHtVcvo1yoGSlKyIIrHDqfDaRFwiLQmu46MtNgazQ7aNcsJwVpNSiOxExCno5AcB9+FnweA+Tv4MFCUQUBkqfoMFOkXAe/1xPCGrRzk9GSfoZtWhtw4kIhWnci0Z2iEi5DZ8n+w9yvGUHFbCHwWcqo3P5f6N/BwYKkNF8Q8qQ+WmyWwBLduxUOek3Jy4mlOS9ejRw0xRxo40vF0S12dXGfK6ef32ddvvw35vfE4hMgtkhszPgNXF/Ex4iyeOs2R2KDLkPjyPkz8HRcnuqAyVm+JGCmfZlgJgVsi5R1k92rVrVzOBNdvKpOMMC35bIgwnS4DXxuv1lKG9jM9tGcr7k+xw9uzZZtwhe5fy85BJyiUrlO2d/DkoSnZHZehwRCTewhvetmPYXGvd9ZB9PAtnWW4vE7iMBTqrSDnjCocVMCvkkAq2m3F+UoqS24lM7PB2TKcg743SsmUo8hOZeQb3k+yQt3RiuyGFyPZTZofsWcphFvYxuE9GIXhbx/A1mT2Xv65HUW4UlaGDYaHBQtAWA+NaBQqXe9vWM+z1N4LsK9fleTzPZdyOhTkLfg4s54wrnJuTImT1ICer5gB8WySex2E4Gfs67fB8D7JMPju+Z753aTvkHTvYs5Q3A2bbITsasbrUW4Yox8roHJ7LfU1mz5XZ7RTF36gMHQwLNBaAdkghlxF2YZNRSGF5vWNlhH0M+5ie18gCnJkNC3NWg3JgOYcTyHAKmaiaU7PZhb0dN3N9Tsb+rPjI7E/u3MGMmT8U+COB2aJM4i0Zov3ZynEyCtmG4Q8yey77ujK7j6L4A5Whg2FBwYKNhSBlwZCC7maQ49nxW44l+8pxeZ220JgNsiBndsMOMhxYzplmunfvbjqL8DU71MisK96EeLPX52T4nuR98j1TeJGRkWYmGsqQPUvHjx9vqpQ5JpE/FqQjjXwmEnwtn7u93unY7yE7XK8S+KgMHQoLCBZsUtjZsrjZwkMKHs8C9bcix7QLZAYlx5C72bOw55ycPXv2NBkiZ6GxJ6gOJhnyvcl75vvnZ0T5sc2wV69epv2QHY0iIiKu+owk5LOR43gudzq8RjsUJatRGToQFg5SyPFRnosQ+TojMlPIZLQ8M3geX0KukyGvmc0wO+RdKGQ+TvYiZRXpihUr0rNCeZ/2+5XgsQIN+Xzk78n3TdkxO6QAOUVdx44dTXXptm3bTFZt/2CQfezPia9lmfxNJJxKdrhGJXhQGToQKSi9FXhS2GUE18n2dmFjh2xnv84s9n4Scm2e18v3wCo+tomx1yirAOVWTcyCmA2xkLevVfZj8HmgYX9e8j7ls+Nge8qPVaTdunUzPUwpRw5H4efIz8reh8eRkGN4e81zOhH5mzv1+pTgQmXoMKSwZIFnV41JIXe9wk32l+3kuX0MLvfcLrN47svgse1CXYLLWMUXGhpqekuyepQ9JtlxhtWmkhXK+fnI18wopY0s0JD3aEtNnrNtldWi0nbIjkYUI9tW2XbILJvbS8hnL8/tv40cW5Y7Eblep16fElyoDB2GFGYsyKSQlIItMwWH7C+FoDyX49kFpL1dZuG2sq88el4rJS5ZDKtCOcPMmDFjzCB7Fu5S9SeFu5yfj9yHIqQoeQxZFyjYn5f8LeQz4+fB4RS7d+/GvHnzTEcatrFyqAV/UDCTln0kuC+Dz/lZ2X8Te5miKNdGZehA7AJNCjs+z0zBJvt6KxzlOLLO3i6zyDEl7GNLSMFOobGKj4U52wmZ6XCGFek4w/XcXs7PRx5L9g9kGUrYnx/fM3uWxsTEmGpk/nBgtTJ/SLCamcv5mcnfTT5rhhzLDvkbBdpnqCi+QGXoUGwxsNDj88wUbFzvrTDkax5DCk17HeNGkH3sY0pIAc1CW9rA2BGEU41xUu7Vq1ebQl0Gk3Mf+zp4TB6DweeBhufnxufymp8H2wb5Q4HVpbytEyfxZtvh1KlTsWfPnvSbH3Mffs7cx5ahfVz5TBVFuT4qQwcjBaQUfpkp3GQbb9vyNY9jH8vbdpmFxxFx8VrlOYOFOqcaY69RthNShizQd+zYkX5XBm5nX4tcmywLRLy9Vwn5EcEfCpytZ8uWLeaej+yBy8+QA/EpSX62/Oz43RAZyjHk8+dzOZeiKNdHZehQWIhJgWcXbr8FHkMyB4mbPS734f52dmIXzqzuYzsXJ6HmrZrY9sWOM6witdu+eBy5Lr5PWR7IyGcn4pL3zEd+dpQhh6Pws2JnGmaGnL5u+vTp5scEs0P5nBk8Bo/J4HNZ5vTPUa5ZwpPrrVeUW4nK0KHwP78Ujnz8LYUB95XC1i545fmNHpvbyzF5fSyY2d7FkOfMbDZt2mTavShDzjjDTEfGFsp5Pa9NrimQ4XuW9yoylPfNR36G/MHAybr5mXEoCjNrVpkuW7YsPTsUGXIf+SztY8pn7FTkmhn298FzuYSi+BKVoYORwkAKhpuF+0rGIIWkHTd6bLke7svjigAlW+HdKTiv5sKFC007ITvPcGjFoUOHTMbIfeQYGUUgw/cnnzv/Ht6Cnycn8eZnxqpm/phgdemUKVPMBAasapbPm9vL31L2l88wO3yW9ufhGfK+ZL2i+AqVYTZBCoebgfvZMuRzhhSiN3JcuQ6GHIuFMkPOIcMDJk6caIYHsDdkSEiI6TjDQp7nDFbsz48hBb38LezXrC5ldsjPktXNlCHvasHsUCY45+dt/y3lb8tjZxfkc7A/F1nG9yUh2yiKL1AZBgEsQFiYSKEpmRwL0hstYOxCSgpeOS7XsQqUd2rnHdyZFbKtcObMmWaoANvBsltBfauRz0+Crz2XSfDvw56lnKaNQysoQrYfsncuq6A9J/HmZ8u/K4PPeYzshOdnIc/53iS4TFF8gcowGyOFx/VggcLCUTJDPkpGIYVOZrELKPs4Ulix8Ob9+ebPn2/GyFGIvIchO4Ow4Oa+wYz9+clnby+TkNcUG6tEmR1ycnP2KqUQOSifVahcJ9m2LUP+XbgsuyGfBcP+XPje5PuqKL5AZZhN8Sw0MoLrWJjY7Ut2XG9/T+wCiseT47Kg4nN2kFm/fn36pNxjx45N7zjDbW7kXIGI/fnJZ28v8/y78JHZ9tGjR80YTX6e7JDER87sw+WsTuV28jeQv4l9/OyCvGe5Zj7y8xAZ8nl2ej9K9kFlmE2RQsIuODyRbVgwirBkHz5eb39vcFvuw5DCV6TIjjOccYaTS48YMcK0FzKb4V3b2XHmRs4TqNifn3z2skz+JvbfhcHXzLgPHDhgZvBh1TM/W1Y/cyA+O9rIPny0xSHHyS7IZyHXLO/ffk/Z6f0o2QeVYTZFComMCjsuY+HBKjOKSgoSeZS4mcKS28v5RbQ8DzvOsKcjx8OxBymFKHezZ3Zzo+cJROSzk5BlIjLPv4us49+Q87kyG+RwFU5tx8m8ORCfbbT8/O1jiTxu5u/rD651TfK+5bn92Tj1/SjZH5VhNsYuNGy4jAUHC0hWoVFEFBaXsYAUgckyFjA3gpzXPh7Pw1s1rV271tygltkLZ09hRw/2iOQ2yhXk85Pg5++twLeDnzOzQ2bZbI/l58sbAMtAfLYdyn58dLIMeU38PvD6rndt8n4knPZelMBBZehA+B9e4kaRwoMFDSUoMpSCkYWtiFAKJC7PLHJdUjjJ8ThI/ODBg2ZsIXs9Mmthoc2qPanGU64gn6H9Odphr7e34d+SbYRyFxDKcNSoUekD8fnjR2TKR3nOYzgJfl9Ybc4OVdf7Xnh+Bk57L0rgoDJ0IL/lPz/3oeBYrUYJSlYox5Jjc5vfKkN5znOxipT33eOgcPZ4ZCHNLJHzk7IQ53bKrwt3CW+fj2wr2/PvxeEp/NHBHxqsiuaPDs75yupprqMQPY/r7dhZBa+F3weOOeXQEL6na12fXL+T5a4EBipDByL/+W/mP76IkIUiQ4TH48mx+MhjSwFzI+fgtrK/PPIXPjMWZijMCjmcggU0hwOwgOb1KFewPz87uMxGtrO359+RnzV75m7evDn9hwfbZjlLDbNDmeFHjinhFHgtfA+sUueUffxuXOv6uI7vRb6r3j4rRbkVqAwdCP+zS9woIkMJvpYQ8XmGN7xt5y0oW2aFbMuaNm2aGVvIqcM4wTQLZ2YBPLdsH+zI58BCXUKW2WGvl+DnyB84bDtkr12O32QGLrd44u2yKEq7utTbse2w8XztC3gOfi8pbfY+zkxm6Pk5+OM6leBDZRhgsLCwBcjXLBjt19eCBU1mg8diNSyzwo0bN6bPnykdZ9j7kYWdFGAM5eoCXj4XO2SdZ/Dvx8+TnzmzKnac4Q8Qu+cuJcn2W/lbe4bnefgo2Ot8Cc8rP9bkB1pGcJ3n9SuKL1AZBhiehQfhIwud6xU8hOvtsI/lGTyedJxhQcz2K45/4+wo+/fvT79Vk3085Qr2ZyKfi/2an6/na/lBQ4kwq2Lmzc+d2SHvasGJDihIqX6UvxFD5Ggfj8s9l8lrX2Of63rnk238cV1K8KIyDBJupjDh9lJoeQtmKXITWlbTyW2G7LFvcl7Z50avIViRz0k+P4YtNspOOi1x8D1/hMhnL/eM5N9H9mHYx7L/jvKa2+jfSAlWVIZKhtiFpx1SiLI9kNkJO86wIGYVKe9UwQKaPQVZaMv2WtDeHPbnLlKTz1Nm/OE0bayiZmZOMbLKmr01pb1W/l72sTxD/0ZKsKMyVDLEs8C0gwUnxw9yOjAWwJwvk51nWEXKsYXMTKQQtgtx7qvcOLas5Dkzb/7o4MToc+bMMb14WWUq1dTSk9fzb5dRyLH5XFGCDZWhkiGehaUEC0xWwcmk3JxxpkePHiY75NhCdqiRQlgKbpXhb0M+Rz7Kc2Z9MmZv3bp1ZvJuVpcyS+RrGeMpn7sdGS2T5YoSbKgMlRtCCk1mJawi5RAKji3kXJlsN2SmyGzFswPHzRSyUkj/lggU+F7sz1M+UwqRQy3YiYnZIdttOVUbJ/Rmdsh1dlWpfQx7mUQgfWaKciOoDBWvZFQocjmzQhayFB/nxmT1HNur2HbIjjMcQ8ZtWAgzpOC9UXguz7AL7cxEIMH3LSKTz5SPzP6YpTMr5w8TVlczW+e0bZwXluvt7e2/i2cE2memKJlFZah4xVMqEixQOYMIq+ZY+HKOTMqQd19nr1JOGC1zodoFrgjsZvA8vxwrMxFIiMw8g1k622iZCc6aNSv9x4nMDctep/xxYu+vMlSUq1EZKlfhKRM7WJiyEPWcH5PZCDttcJlkIQwRlwSPcbPY12Af73oRKPC92NKS4N+DomO1NLNAzxsrs+2Q1dnseWoLUGWoKFejMlTSYUFoy4bhWVgy62NWyLkxOYyChS47bKxatcrMN8lC1kakJPFbycyxMrNNdoLvg5+9VD3L30VEKMHqaY4xZDsuO9Jwmja2HXISb44HlYxd/pbe/s6B8pkpyo2iMlSuQiRiF7h2yNg2FrjsPcrOGpwSzL6nnnJrERmKyGyBSVbIkGnaOM6TNwCmEOUWT/ybSVsu97OPY4fKUAlWVIbKr/AmQxaibJtiFSk7zlCAFCHnxKQYeTd7VpFqYeob5O/hGbYM+dz+scI7WnD8J6tNKUjOFWu359oSlNC/nxKsqAyVX2HLkCGFJJ8z++PdEdhbkdVwHHC/fft2s5zrtTD1DfL5e4bIkI8UHJ8zO2TVqIz/ZGcazmHKHyyUpWwrApRjqQyVYEZleAMEU0HB98rCUQpYFqIsZHmrJnac4bhCFrSUITNF9jBVfIvIyw7+fURuFBof5X6BCxYsMG26cicRCpI9S5nhiwxlH9mfy1SISjCiMlSuCQtIZn0sSDmom1Vv7dq1Q61atVCzZk10797d3FePU7MpvoWS8hYiMAmKje2DzOBZRcoMnn83/p3CwsLS7yYiMpRQESrBjMpQuS4sPDmGkF31Kb+mTZsaGX711Vfo0qWLKWQ1M3QOFBqzeU6AwF6+HAvK7JBi9LzPpEjQFqqiBCPZUoacc5GFMzsJTJkyxXTtZ685Pvoy/HEOp8XIkSNNR5mOHTuiUaNGqFatGsqUKYNixYqhRIkS5nXLli1N9uFtf6cG/5YMThbA6kQOFeGwBM6sEwhQbvwRExoaitmzZ6Nv375mqjYOyj906JDpSEMhUoYqQUXJZjJkmxXbqBo0aICiRYvi1VdfRZ48efC///0P//3vf82jxq2Pe+65B/fddx/uv/9+85yf9d133/2rbezXTg++B0aOHDnw0ksvoUiRIqbat23btli8eLERSXaHouP/GZmmrVu3bqa6lNO0se2QvX+l7VBRgp1sIUP+guUv3E6dOhn5/e53v8Mf//hH/PnPf8Zf//pX/P3vf8dtt91mHjVubfBzlfjHP/7hNWS9t/2dHLzmv/3tb+Z7xO+URP78+c2QkezeDmpnhwsXLjRVpRxqwdmCuIzvj9WpKkRFySYyDAkJwRdffIE77rjDSDB37tx488038fnnn6Ny5cqoU6cO6tatax41fB/8rCW8rc8uweuvUaOGqWV44YUXTLYrQuSPrq5du5rsKTvCak9mhrx+TuLNcYasHqYM2YbIGwJzJiG29UrvUq0uVYIZx8uQ7YMVKlTAn/70J/zhD39A6dKlza9c9pTjTU3ZzsO5FyMjI82jhkZmg98ZDlDn94hVh4sWLTKS5I8uCvHFF180c3tmx6yJUqPg2DbIdlC+X/6/YTWpdKaRGwBTmNKhRoWoBCuOliHHtrHzBtt2WDgVKlTISFBRfAV/XLGjENtIWYXKzJG9MrMjzAxZDUoh8h6TnByB95zkGFFO1bZy5UojSValSlWpCFFRgg1Hy5B3TGcVFjPCXLlymd5/iuJrmDGVLFnS/ABjZxv2Ws6OUGoUIrM+jjuk+NjkwBlpevfubQbis1c2RUkZcluVoRKsOFqG7ALOqioWShUrVjSzagj8Dxt3KR4nT8fixKmz1wxucyb2vNle/6Mr14Ni6NChg/ne/d///Z+ZkJzLsiOUG2XItkH2IN21a5fJDllVyttvsWqY07RxvV1VqijBhqNlyLFfDzzwgCmUOJyCDf02G7bsxo/DZ2Do2NkYNm5OhvHz6FkYPXkB1m/ehcTEJPfeipIxHF/J7x1rJShGiiQ7IjLk/x0Kj+2kzA451ILZIe9uweyQQzBkEm+VoRKMOFaG/E/M6b/uuusuUyi1aNHC4z9pGkLWbsWoifNdUtyFLdv2YuPW3VfFpm17sGX7XsxfshYjJ87F4hUbEZ9wtVAVxRscz8rvHnsvf/PNN6ajTXaD/19Y9UnBUYhsP6TUOZcs3x8H4ss9D1k1zKpUbsP/e06E7yerRC3nvl4o2RfHypD/edkF/M477zQy5HyYV5OG9S4JLl21CZcTLiElKRGJl+OviqTEBKQkJ+LgkQjMWbgKy1dvURkqmYKz0nB4BatJ2ZuZPU6zGyycKTZpN6ToKDy2xXMgPtvg2UGNj3JzZmaP3N6JZGUVrsiO1yDXIcHPi8HnSvbFsTJktQ6rqv79738bGbZv3969RkjD2k07sWSlS4b8NZtypTrIDv4i5hc39FAEZsxb4ZLhZpWhkinYlvb4448bGZYtW9ZkU9kNKaxFiJQhZceJ1w8cOGDuPsL2UE7TxnbE3bt3m8zRiTKU95CVwuE1sExh8Fr4Wq5LXqsQsy+OliF/sWYkwzTXF2/d5l2YOmepuaPCrp27sGPHzl/CtezK8p1Ys24Lps9dgWWuLDI+XmWoXB/K8LHHHjMyLFeuXLaUoTdYaFOIHC7CoRWcaYeTC1CI7DWbXYeRKMpvJdvKMDk5CVt2hqJTjx9RsVIllCpVygzI5yTSElxWvFgxdOneB3MWrXHJ0JUZxie4j6AoGZMdZChZX2aC2QzH7fKOFWz/5CQDHHhPEbJzWv369U2HGlaXsjONnfk4IXg9nhmZv4PnZ3bNYPkktU98lOV87rTPLjOhGW02liG/eBu37UPHbgPw5ZcVUaZsWZQvXx7lylcwwedly5YzQqQMZ85faapUL6kMlUzgVBlSZmzPZOcXdiqrXr26maqQE41fLz755BN8+OGHePfdd/H666+bYUtPPPEEcubMaSYsZ7UwJ7//6KOPvO6vUQSfffbZVZHRsuwS/O5wSstmzZqZ7xR/IHHe2mAk28owwSW1leu2YdjoqZg8eSqmTp3miumY4o7051OmYdqM+ZgwbREWrlivMlQyhRNlyGuqXbu2mUhc/l9oaNyq4Ny8efPmNYkE+2vs2LHDZLrBQraV4aW4OCwJ2YCJ0xe6/mh7sHv3XuzcydhzJXbtxS5X7N69D0tXrMOoCXOwYOk6laGSKZwkQ3Z4mThxIt544w3zf4FjH3ltL7/8Mt5++20ULlwYH3/8caaC2WFmwtu+GoEXrAXg9+rJJ59Mn/aS8eCDD5rvPcegBgvZVoacT3HR8nUYPXEOVq/ZgHXrNmHN2o2/Ci6fu2AFRoybhflL1qgMlUzhFBmyTYoifOihh8z/AxZYlSpVMuME2UGMd57g/xVup6Fxo8FJ2jnTF8d0d+nSBe+99x54WzyRYqtWrcxk7sFAtpXhuXPnjdwGjZiKabMWYsacRZg++9fB5eOnzMWQkdPMWEOVoZIZnCJDDnfgOEf+H/jLX/6CKVOm4Pjx40FVfaX4Hn6feHcTZoLVqlVLl2GBAgVMG3UwkG1leObMWcyctwKd+45E70Hj0Hfw+F9FH/djzx/HoveP4zB7wUqVoZIpnCJDTpvGKQl5HazWYgcaRfElrHGgEHnjbt65hR212EM20Mm2MuQQiQMHw7Fq/Xas3rDDFTuvETvMmMRDh6OQlBz4f1Tlt+MUGbIg4veft5TivQg5RlBRfA1nKGIvY3732KGGdzYJdLKtDBXFlzhBhmzTqVWrlvn+P/3002bieuHy5STEnDiDI+HHcPDI0WtGqOtHYETUcSRcTnTvrSjXhlPzFSxY0Hz3Pv30U1NdH+ioDBXFC06QIatEixcvbr7/L7zwwlWThR+LOYUZ81ZiyOhZGDKGd22Ze9WdWn6JufhxxHQMnzDPtc8J996Kcm3Yg7lmzZpmonq2Gy5dutS9JnBRGSqKF5wgQ04OXqhQIfP959hCu6oqLDIaU2cvx6wFq7B2405s2bHP3KXFM7bt3G+GII2fvhhRx46791aUa8PZinr06IH//Oc/ZmIGdtwK9FlqVIaK4gUnyJCDnt9//33z/eeYQruLO2XIWZVWrNlqMj7ejeLs2dhfRdzFizhwMAwzF6x0yVAzQyVzcMgF56tlW/Wjjz6KCRMmqAyzCpWhkpU4QYa8K/0HH3yQLkNWXQmU4fS5IWa+3TNnz5mJ62V+TDt4d5eIqBjMmB+CSM0MlUzCjlqcnu2ee+4x/w84TZvKMItQGSpZieNlGBGNGfNCsHDZOmzavA3bt2/Htm3bXHH14y5Xdrli1TpMmb0MUdGaGSqZQ2XoIAJbhq5f7WcO4OD+vaZd6EocxuGIS0h2b+EbLuPyqf0Itc8bGomI2Ju9s3kKki6dx+moUzh3MdH1Cki6cBqxUcdw7lKyj9+Lb3G6DI9EHMOsBasxfc4ytGnbAXXq1EGjRo1c0fiqx3p166Jp81YYM5kdaE6591aUa6MydBCBLMOk8NmY3vpRvPzsY+aLdiU+wNuFx2NJ9CUjlVtPGhLDpmNqq8eQL6913vxf4MPOK7Dvws0I8TjCFw5Fi7eaYuCUAziNVISNbYneb32Cn5ZEI/pmHesAnC7Dw2HHMHP+akyctgDVqtc0HW2KFCn6q+BdKspXrIoR42fhqMkMA7tAU24NKkMHEZgyjEPksHb4/rXXUaBsFTTrOxCDBg26EgN7o03lqnjts+LoOGsXbu1v+HBs6t0I5T76EG98+x26/+g+pysGdKqKCl/kx4clxmHu7nj39pklEvvGtUOZf5VAs4HbEOOS4d4e5dDoXw+i5aRwhKkMfxPXkuGhsKOYNGMpJs9cjHHjJ2HUyNEYPXqsiVHuxysxBkOGux5dmeHhsKiAL9CUW4PK0EEEogwvH+6O1lXy44kCjdBmTjQuupdfIRUXdw9Bk+Iv4MkP2qDDrMO4JdPjpl3AiZVNUPnDp3DXh63RYbPHnf5Td2LLgA/xzv1PI1+rqZgdeSNzXh5F6JRuqJajEtoN3YkTrvdwYEANtMjxNDrOiESEyvA3cW0ZRmHs5PlGhtu278HBg0ewf/8h7D9wCPvcj3x9+FA41qzfhjFT5mPfgSOmo42iXA+VoYMILBmmIPViGNb88Ao++OorfOMppHQSgdDxKJ/vNbxVpT+WceatlHgkHN+D1XujcTDyMMJ2zMe4ceNcMQGTpu3C/shrtcy5zhu7GdMrv4BXy3yDRtsyOG/sDqwaUArFeozEsH2yTSISw+diyazx7vO5YsJUTJuzE2Fn5JwqQ19yTRkeicKYSfMxYeoChKxch40bN2P9uk1Yv94V1uPmjVuwcPFKjJo4F3v2HQyKOSaV347K0EEElgwv4vL+8fg2bxlUqTkJG64liaRwrGrzCip8VQttNyUhNT4SUdNr45UKTVGpbTv0bPUp8uTJ44qcuP+uUqjWeQ32JWR0wAuI3zMWjZ4sg6q1JmPztb7LqZeRkJSEJB4qOQ4XwpZiYpsn8caLD7vPlwe5c+bEA/d8hnrDNmO/OadL0CpDn3EtGYYejsSwMbMwdPR0TJ+1CPMWLMOceUt/FfNdyydMmYvBo6Zhx+79Zoo3RbkeKkMHEVgyPI2Lq3vjrYcbofR3a3Ht0V4JuLSoLsrUqIGPBh3GxYRjiJxQFnlz3YH/fNwIPZfswaZNm7Bp/QwMrvQcnitTE9WXZjSJ7kmcD+mFN3M3QZlm61yyyiQn1mDpkK+Rv0oLtJ+4DFu2bjXd9NfP6Y1WhR9A7qLN0X7VOdeGJ3F4WneVoY+4XmY4dPRM9Bg4Dr0HTUDfwRPRx0twebcBY9H350nYvnMfkvXWT0omUBk6iICSYcoJXFjVEy+V6IaKQ/dee8hBWhJS1rZB8Wpf4bXuu3Hu8lFETayKfHe+gpeqTcUmq4/LpTkV8U65sijQd6crB/RC8nHEhvTAC8W7o/IwV0HoXnxd4qIQtnM5JqyPQYx70RVOIGzkp8hdpBFqTOWaUypDH3ItGZ6/cBH7Q8OwfVcotu484A55fvXjlh0HsGvvIZw4eVozQyVTqAwdREDJMNUlw5UuGX7aGeV/2o2MWgwNLhmmrrsiw1cpw/gwREyuhRcKNEf1QQeR/rs+NdFIs2T1b1Cw83pXjuaFFJcMV3TH8590wZeD9lz7vBkSgWWT+qJJgwZoWKcaqhfNj/8W/gFNFzDPVBn6kmvJ8GZgYRboBZpya1AZOojAqiY9g7i1ffDBg/VQtuEqRLuXeice5+dUQ7ma1VB0RCQuxblkOK0Wnq/UFrWn/3LXAqQm4HJIcxSr9jXe7LYR3itKT+H8ql5474H6KNd4tUeWZ5Pi+vbHYMOeSOyO4c2PXdcQsQmLZk3G5N5NUOrTD/BkgQIo8MqLeOnxnLjt7RZouZiDP1SGvuRWy1BRMovK0EEElgwvIfHwdLR/5XNUrDECS651W7nLBzCr4QsoXbMOeu52ffkuhSNycg08V6E1vp562L2Ri0zJMA4JodPQNv8XqPzVKCzPqLnIlUGeXtYWL33VG/Xmn0LahbVY0uktPJIrFx7KVRg1Oi7E1rhLuHR6D3aPKI2ny/6AerO0mtTXqAyVrEJl6CACS4ZpSEs4jp193kChr8qj7PwTGcwDEouL6wfg42c/wLtfjcRGNu/EhyN8YnU8V94lwyk3KkPXeeOjsb3Xa3j/qwqosNAlOvcam6TIBZhc73HcVakdWm5zHXdTd/T9MicKtRiFsSGHEC3TtSXsxsa+T+Gx4nVRfw7PqDL0JSpDJatQGTqIwJLhFZKPj0a/agXwVJ7SqDpsj0ev0ks4sboryr71KJ4r2QuD1x53LeHiMBy+aRleITm8J5qVeBJ3vPw1ai8/e3VHmksrsax9frx07wcoPWgd9rtOem5BEzT55L94ZvAO7HdvxtlmDo6tiNee+D3+UqA+Wq8471oWHDIsW7ZsltzpW2WoZBUqQwcRiDJk29zpmUMw8MsKKFHjK1RqyAmV3VG/Eap/Wgsf12yAYWvCfpmd5uJBHBhVGg8VaYIvx4a6F7pIjUfCkvp4v9SXeLbNWu8daNI5if1je6FhqcJ4tXQpfO06l5y3fq3PUfjzwqjYcDHWh18ZkB1/aCGmdvkCBQsUQemqDdO3rVmrFIp+9DJuu680SvbaijOuf6ET2qH0bcXw/YCtV6Zj614GDW67Hy0mBtZ0bCpDJZhQGTqIwJShm9Rw7JtUD5++9ypeeeUVd5TEF18uwFaTDlokxODYil6o1XkU+q60ut6kJSJp53C06dkXjSbtB/O065EcPgeTG76Kd1+Vc7qiUHVU+HnXrzrXJEaFYPrnH6FoAfd2hb9BtUErcXjrVHxXow0a9VuPaFfuGr1mCnqV64Yx848gFmmImtULw8tVx/g1J3EiG//f8cwMKSZ/k51kmHwxGsf2rMTO8BM4zT5Yv5W0JCSePoR1qxdizsypmOwqjFkg/xKTMTVkOzZwuKtyy1EZOoiAliFJScCluIu4eFHiEi55nUkmDWmpyUhMSkZyqseX0bU8Kdm1LiU1gzZIT9KQejnO3P08/bxxCUjIYOhZWrzrmq7ajmdJQ3JiEi4nprjyQNer1BQkX05CcorrOvk6xXWdlxPNtWbn/zq2DMuUKWPuF0j8WSBkJxnG7hqLkTUfQcVeM7DwqHvhbyH1BI4vbIf8TzyKu+55CA+7Z0H6JXLhwVeL48OBG3AsLtV8F5Vbh8rQQQS8DBVH45kZigw5t2eqnya7zk4yPLt9GAaX+w+KdZqEOZHuhb+F1AhETmuF3HdXwkd1R2PJxo3YeFXMx4jaRVDm6cL4fkY4om5uEK2SASpDB6EyVLISTxnu2LHDLOcMLhSiPwqGbJUZ7hyFYVVyoGz3aZgf5V74W0gNR+T0Tng6R3t8MyTcvfBqUtf2Qa8Sb+LJRnOx7NitqJtVBJWhg1AZKlmJpwx37txplicmJiIpKemWFgw8XlxcHM6fP28eZco0dtrJvjJMwYUjG7Bp6GBsPbQXW6dOwIgmTdDk26b4rm1XTNgWg2u+G2aGMzq6ZNgC1fvs8H47s3NLMXlgZdxVfigm7pcJCeMRu2cG2jT/Dk14vibfocPohVhnz1d4bD2W7d6A4Rs2YP2o79C1eRN0mLAWu5hdJh7D4amt0cm1zOzftAv6DNuAqF+NDY7FidVt0aPNt+7tOqPvyM2wfwckHV2JtevG4+ftkdi3ujfG9uQxv0XTtv3RY3kUTjn4BiIqQwehMlSyEn/JkMehAKOjoxEREYGYmBgkJFzJcrKtDE2bYSKOLuiAVrffjpJVWqF5xQaow45YLz+L5554GE9UGYrhW2ORYT6Xnhm2Q+3BR7y2P19a0wttKryDRxrMwZKjLpMlRWPfqqnoVrsqni5QwN1J7Dm88s7nqNd9CfbEplwZVrShM2p//xn+W74iWlbIh8/eegWftZmCpeGHcXBlO3xbPi/ekA5mzzyDl16tgfqzjiA87oq9UmIPYM/izvihRi4UeC3/le2efQ4v56+OxqN248BZ1/fDtV3C+mb4oeZ9uKNcA7Rr/QnqluExX0LeJ57DI2+3wqgNMTjnUCGqDB2EylDJSjJqM7zV1aQ8DuV36tQpHD9+HKdPnzbCJdm2mtQtw5MruqHp//0T/72dktiHmAsXcOH8QRyc+gPy5yqC4j8sxL6Mml9TIxE1swOeeagOSrWcgy0HXfvZEToXw756Hx/kLYQ6UyIQlZSGpN1d0ezz0njt85kIOXvZ/GhJSorB9t410eSZt1B5cCgOXEpF2v7+aPDeXfjXY4XQeVkMol3XdTEhEbGrW6JVwzzI3XUR1kZz30RcDp2KkV2/xqvN5mBZFNWdhMhpjVH3/cfwTJ1RmB16Ghf4vg7OwLBvCuHRR8qj9dwInHF9PVJ3dkb7z36Hf+V4FLVHbUXoOdd2F05g/5RWaPZwThRtPRfLTjlTMCpDB6EyVLISTxnyFlaEnWcyKhS4XOJG4DFZcPM7TxHK/tldhjFLuqDVf+7F2+WGweWrdFIjp6LTow+jerUBWOL1disuUo8jZn4rPPtwHtzxv4fx2BNP4Imr4iE89U5J1B+1B1EXUlgpi50/foQW1Yqj/cILsG7ugrRjczC2ViU89MIwjNxxFslHB6JxwTeR8/nemGN9pKdmfY1qn9+Pu7uuwY70IU5JSDh3FHsiz+Jcosvcqbsxu0E1lHyyCrqsPmdV37oy4WWd0fKT3Cjffzk28H3tao92Fe/EfV+0x9i9Vj3rkSkY/81/kevbwRi6L4Ou3FmMytBBqAyVrCSjDjTXKhBEhBK/lewuw6MLOqHDAw+hYZ+V2GbNixsfMxuj896HxlV7Yl5Gbyn1KI7Nboe8OYvg1eJN0bVfP/S7KgZi1MKN2J9ez3oEy796E2Uevw/5P/wMhT8shEKFGB/h40/fwIt5nsPv/q8d+m1wZd5R/dGwQiU8U2MZ9lz+JTW9dGgKBtV/A7/L/RzyvfUhCn9WH+1G7ru6bTN2LjqVqIN8Lw5BiMfg3rTjK7G638fI33E6Roe5FuxojdYNH0bO9iuwwcoA0yJmY2rXB3Bv84EYuNOZ95dUGToIlaGSlXjKkGK6Hr9Fht72y+4yjHLJsJNLhj/0X4Ndv9x7DJeiZuDnZ3KgQfU+WOC1Z4yL9DbDDqgz9HpjNVxCi1uJUZ+8hHfufhRvl6iELytVQqX0qIYaXzdHy3YrsfX4ZaTs6YW6DargubYhOBxv19PGImrDZHxftzqqVS6JQo/fj2ceLYgvGrVFu57LsIXtkqdn4bvPG+C+Vydh1SUPkR1fjRVDCuGeH0ai3z7X6x1t0PrbR5CzVwg28yYvblKOzMCktg/gweY/YdBulaFTUBkqihdsGd7IdGyeQssssp+9b6DIsHnfVdiRXkuYWRlavUn77sS1J5pxCe3sQvR+PSeKvlYV43irzWuxoQu+qVMZz7ZYjoNXydAmFdELXZldqTeQP++jeDx3ITSesgenT4WgV+l6eP6lYVh54eq/c2rYdExr+V881Wo4RoW7FjAzbJIHObsvx8aTv2yrMnQmKkNF8YKnDPWuFdfGpzLMaGiFTdpuLCz3Coo/9Snqzzvv0Us1EUlxMYiJvYSEFFeBvrmbVxmmXDqDM6dP4KTdwzMtHlEr+qLzZ3lQoe8ibI7ejyWNaqHEU99g4JY4/NLkmYITa3qjc/GHULrPIqymvbf+gNaNVYbZBZWhonhBZXhjxO4ciaGVHkDpblMxT2Q4vyM63vcgmvVZ6SHD6Rj81AOoX7U35l9LhtM74MkHmqNq70zIEJcRt7g1vnnjFTzyfm9MO5LougL3mt0DMah1QbzTei5CjrmW7umFb2pXxDPNl7lk+EsBf2JpJ7Su+yHeGboBu9JPGIuwKd1R96kSaDtxD6ISL+PoxDqo+cajeK7JTKyIcXeAObkMk5t+gicfLobvZxzGCZdjUzc0R6tGDyNHt2XYcJUMp2Nim/twf7Mf8ZPK0DGoDBXFCyrDG+Pstp/xY6l/4bP2EzDLNPElImJ2K7T6x+1o2HU5tloyjIuYhP45/oWaZbtgdkZvKTUM4ZNa4sF/NULZLluvPUBfSAzD9qkd8c3HL+Ox197De6YDTSG8+87beK16Q3RZEorwC660b0sHVKlaEjkbLcL+S79khnFHFmNax2J458HnUfBN6YBTAB+8+yHqtVmH7dEJZpxiyskt2DD1e9Sr9DjeKvT+le1efxmv5SvvymI3YNvxRFbc4vKqRvj267txR/tFWGvNWp9yaBLGfP8P/LNhH/TdoTJ0CipDRfGCyvDGiI/ejI0T22HMip3YZxr4UnBu/1Isbdse81YdQXR61WMaEs/twvpu7TBz0krst8dA2KSdReyuJejWbj4mrYy+aqjEtTmKw4u74ZvqX+LLL93RoA+6LT39y8D9iGWYNn0Cus8/hFNJVxfwqUc3YXndmqhTUfavhIbt+2DVGfcG6ZxA5IJv0LS2e7tKjfBDrxActKpYE8PnY8Gsjmi/4hAiL/5yntQzu7B9UVu0m7cW62KcOepeZeggVIZKVqIyVIIZlaGDUBkqWYnKUAlmVIYOQmWoZCUqQyWYURk6CJWhkpWoDJVgRmXoIFSGSlaiMlSCGZWhg1AZKlmJylAJZlSGDkJlqGQlKkMlmFEZOgiVoZKVqAyVYEZl6CBUhkpWojJUghmVoYPwlGHXrl3daxTF96xatcrcRFZlqAQjKkMHwTt+jxkzBrfffrspDBo3bozIyEiEh4draPg0IiIiMHr0aOTKlQt/+MMfzHRb+/bxBnX+RWWoZBUqQwfBP8awYcPMH+P3v/89XnzxRdSqVQtVq1ZFlSpVNDR8FjVr1sSHH36If/7zn/jrX/+K0qVLp9/p3p+oDJWsQmXoII4dO4YuXbogf/78pkD605/+hL///e/429/+pqHh0+D37M9//rOJBx98EG+88QYWLFjg/mb6D5WhklWoDB0E/+MPGDAAjz76qGm3yZEjB9566y28/vrrePXVVzU0fBKvvfYa3nzzTTz55JNGjGyz/uSTT7B27Vr3N9N/qAyVrEJl6CCSkpKuajOsXLkyQkJCsGzZMixZskRDwyexdOlS8z1jrcS9995r2gwrVqyI/fv3u7+Z/kNlqGQVKkMH4dmbtFOnTu41iuJ7li9fjscff1x7kypBicrQQXjKsGPHju41iuJ7mCWqDJVgRWXoIHTQvZKV6KB7JZhRGToIlaGSlagMlWBGZeggVIZKVqIyVIIZlaGDUBkqWYnKUAlmVIYOQmWoZCUqQyWYURk6CJWhkpU4UYbnzp1zr1EU35KQkIB+/fqpDJ2AylDJSpwmQ86Moyj+ZOjQobjvvvvMLGAqwyzEtzKMR8zKafi5bWu0bs1oi7Yj12PTcffqACDl3G7sXvwzhg/dil3RSe6lbtKSkXJ0HeZu3IjZhy66Fyo2TpNhzpw50bNnT/z0008aGj4PZoUlS5bEv/71Lzz11FMqw6zEZzJMOIntIX3RpuT7ePOpF/DCC1fiiXdKodLghdh2IvnKdreEFFyKOYSIjZsReSoBCbfku5SGpAvROLppI8IiTuNCqnuxB4kHB2Fgyd/jn38qiq8nHMFJ93JDyiUkLG6MD5s3x7sTI90LFRunyVBDI6uC5aPKMAu5aRmmJiEh/hLOXExEUqrHHy/tLC6s6oSPX8uFl8q3wvS9p3DqFCMK20cVxqfFCuKj9iGIcCVSGTjmBolH6Kjv0OXJfOg15xiOupf+NlJxZvsI/PTME2jTzSXvDNydeHAkfq70O/zjH3/GE9XHY8GRFPcaF5Thkm/xccuW+GCSytAbTpMh50jl3TT+8Y9/4LbbbtPQ8GnInVt4+7znn39eZZiV3LQMYzdi+oTBKNItBNtOX3YvvELC8dVY3CwvCldtgPbLY5DgXm64uASjyuVDuXzlMXpvKm5N5eEF7BlYA9/fmQOtJ4Uh7JZ8l1Jwcn0/dL3732jQYjrWXf0W00ncNwLDvvsL7nzzCTxy95fo1HU1DrjXIdUlw2Xfo0jr1ig8Jcq9ULFxmgzz5MmD4cOHY/bs2aZg0tDwVcyYMcPc3Jo3R+CNErSaNIu5aRmenI9+Xb/FnVUnY9mxS+6F5AKOrx2C1vleRcM+y7HNSpSE2LXzsWXcNGw/noZEsyQRx6b+iF7FiqBIkaIoWqoCfg45hCsd3GNxZlcIxnw7HDMH9UHH9l+bbT6vWBdV5h1BmCu1TNw8EF0+exiP/e0feOLlwmg3czuMei5uwc4xJVC5dFHXPkVQtER9/NBrDQ5fOambSzi2ejQ6uM5d1LVNkS+aY/CSw4g4tgqT6z2L/H/7K/I8/jK+HjADW710Mkzc9RN+bvMQ7qvfEjXefQaly9ZE/ZAzMK2HafGWDK3MMGY2RnaqYs5XtGQNVBiwEfvOu9cFGU6TIXuTxsbGutcoim+Jj4/X3qRO4aZlmLYJ44d1xaPfLceuq/qNHMa+8R3w3j0N0XrE3qvb0LwSj1Pb+2JQrY9RrGBJlCxZBMULPoL8X3RB98VHXao6i6g5HVDmtifxTMFi+KBeXbNN4TdfwL0f1UW/5QdwbOsI9C72CJ76+7/wzOtfoNPcnTiacAib5nR0bfscChUr7noshWKvP4nXi1ZGkzWnEGsknYCTIQMw7ssP8MVbJVGspOv8H36K977ohfpdf0S/xi/h1dtvw5NPvY46g2ZjuzcZ7uyPH394HA91nooJC79F2xLP46Oy/bDLVKumIHlZ0ysynBrNrV0/IvZifJOG+OyDT1DEdb5iH7+L5z4ohupTVmNrEJbBTpPhK6+8gvPng/SXieJ3WP72799fZegEMi/DNCTHRSNs+RIsnzcP8yZ0RL1a5XFvkVboNnYG5rmWrdsdjtiLodgyuCUeeKATWkwLu7qK9FekIvXiLsz56kVUqdkYAw5zmcsi+8ag7Mvv4c3qI7A+Lg4xC9qjyv25cE/ZAfgpnNsk4fSKTqh/312o0WIGdrqWRIyoh3Y5nkDnmdFXssIL6zFtyhiUG7Yf0nk1LaQGatV6Crn7bUd4vGtB8h6MK/4Bvsz7JcZK4ha7BB1q9UGlVkuwdusQ9HssJ1q2n4vNHh1FhcSdAzCw+UPI0WUmFpw5jrCe5fFtviJoMvk8YpNdaeva5ijSqjU+nukyXfJRnJ3fEI89+x3K9grlOwXOrsbC75/HvcVaouH8U1cyyiDCiZmhDrpX/IUOuncQmZdhMuIOz8GwN/Lh9dy5kTvnvbj7P//Gn26/B/c9lAu5XctKthyBbdHR2D68NR57oB1aTj6MOPfe3olDYuhEfP98SVSrMQEb5DuQchgLmz6PCl/Vx8BdxxE+tw9q5yqNJn3WQ279en7bz+iV4140ajEd212vw10ybOuSYafpUYgwWyThUuxpRIRFI+YEO++cxo5BxVC02LN4dOBuRF5ypYZHx6HGu1/hxU8nY4fZh6Qg/sIlnLt4CTGbB6NPrgfxfbs52HRV1eovXJHhg3ig/QzMOeZacHEpBteqjcdfGYwJocdxflNrlGzTGkXmxiHt5Hqs7fEIHqnbAa3XyQFPInZROzyfpwlKtNmUiUw6sFAZKsGMytBB3EhmmHLpOCJXr8Rq3q18ajc0/OZL3Pd5O/SePM/cl27z/kicuxyDQ9O7odQDNdBqsLvtLkPO4NLaPng3dyOUaLwGdIkh5Sg2dngO1et8jV5bjuHI3H6o83AVdBy8zS26ZJze8rMR1XetZhoZHh76DVo9+DjaTzmCI+a7dBKHZ/bEtwVewovP5kXevJVRtOCjyFuhAJ4ecgDHLrhktLkdvihfB6+4JHSCu3hwesNA9Mz5AL5tPQPrmUl6IV2G7aZhlslaLyN0WitUfC8/Xuo1x/U5NUPVrh3x+YKziA+bixl170ORjj9jXJjZ3cVpXFrdH6889C2++H5tehYbLKgMlWBGZeggbrrNMHUTxg/tike/XY6dV2VN8TizbSx6vf80vu4+Byu9pIaxmwdh5vB2GL01HDHrh6Lyk7XxZZ3FOORej7Rj2NzpOdSo8xV6bj6GsLl98c3DX6LVwE3ubZJw2pW19XLJ8FsPGXaYGgE6KWV/b3T/rgDyfFwH37btgs6dJ2N4m0Io3uglPPXzXkRdSAL29kbJIvXxfO1VZh9PYjfdiAynYpa7G2vameVY2qss8j1TF50afIn3e/RC8QXnkRS1BPOb3YPX2vbBj/vlC38G8WsH4pUcLhk2XYsY99JgQWWoBDMqQwdx0zI8MR/9unyLf1fx7E3qUtX5HdjauyDeKPwJqo7Y4sp9LOLWYVilgij4ejl0334Sp2PWYNQnr6FSte6YIcMX4jaga7F8KFSpPaZGnUb4vL6onevaMgz9sSZa/O8p9FwUB/ZzSVv4BSpUzoGHhxx15WokDdE/F8V77zyDJwbvwdHLri/cxRVo/9bneOfFtliaPuAxDofmLcXCScuxclFfdLrvIbTqugz73Gs9uVqG0nU2ARf3LsGQ9z/Cpy/lwZ2Vf0CZRS6bxu3DoVEf4H/vN0etqRfc24bj8M8lkCN/Y1QYdBCyNFhQGSrBjMrQQdy0DGM3YeakISjecyW2e4wzZHaYvGcCahV7Dq9+UgVdxi7AggWMuZg9qD5KFmqAsvXXwvSXwSnsHlYC39Yojbq9uc0UzO1eCflfqoYynVl1GouwmV1R6c7iaNp7PULNPkk4taE/utx9B+o2nYLNriXHJjdB2zz/RsUWozBl33Gc3tgGbas/hpyF26DP1PlYtHEmfvzydeTJ/TIe7LgOoWaampPY2qkS2hd8H037LcBMXuPsDvjuw6qoX2cwZi4fjX757kTF8s3Rd+1BRHgxVeL2Xujd+A7c3mICph22B9yfwamFdfDx/36H3+UqiaLzWcCeR/LOSaj8dkN8Vq0/prjON3tkOzQokRcvthmCYQeCrfuMylAJblSGDuKmZZiW7No3Aefjk5DsOQMNSUvCheOLMbZecbydM7fpYJM79yN4uHAztJhxEOcuprpytSukXt6LNa2roEIObpMLDz/8ECp1X4CNsSmubU4icuGPaJC3FjoP3YYjZo8knNk+Ej8+/zRad56LbTxG+CSMr303nnoiF95ptwBbYo5g59C6KHLPg3goVx7kLtkVHfu0xQ9tayP/D4ux7eyVKWVS43dhQ99vUMx17od5jQ8/iKJ1e2LB0TgknN2NdV0fxVtPPoinK/fCKC/pYeKeIRja/hk83X025kfYgyrTkHZ+KcZ98Dwef7k6Ki51d41JScCpJV1Q5/Pnkct1vocfeQEPVxyA8ftOg8lqsKEyVIIZlaGDuGkZZopUXIrYi03LlpgONkuWLMXSLRE46mW8RWLUQexbfmWbJSGrceRMvHuqtkRcjj2OsO2HcfREXHqVZ3LcSRzfsR2RR89e6bGaeg5no9Zj/eplWH/gJM65vJRyJgqhq1dg+VLXMTeHI+LkcZw8FYGd4WdxIemXL9zlM+HY5Tr3Ul7j0hXYGXHClduSRCSc2opt61dglev8UV6my0mLP4ETUdux/dhZxP7KZgm4uH83duw8hNBzVtaXfAxhu9eY8y1dvg6rQs8h/tbMS5ftUBkqwYzK0EH4VoaKcm0CT4auHz3Rq/FTh4no9POurOsdnHYGZ7fPQ+vvpmPUkihc3aqvOAWVoYNQGSpZSeDJ0KWdXQNQ6JEaePKTGdjrXupzkuNwZu8kTFkTgmVHU10yPIKIcU3wj9/VwKetN+KUezPFWagMHYTKUMlKsq0M0xKReD4aO48cR2Ss3YEsHtg7BMVeqo9XSs/9ZdJ2X3P5JA4OfQJ5G9RAhRUsTM/i3PrxqFpmKHpMOxx0vZSzCypDB6EyVLKSbCvDxKOICemHN+oNQZuFV6aCuAJlOBTF8zVAgTLzfpFh2iVcjD2BmOhoxBw/jVNx7BzmSTIunT2FE65toqNP4lRsPOwuWSkJF3E2hutcEXMcJy7Eu6s/U5B8ajdWds2DxyuXQtGJ4TgbfxlJcbE4GnEGJ88l/nKc5As4czLGHCPm1DmcszyemngRcZcvIPZSHC4ejzHXEXM8Fudd16r4BpWhg1AZKllJtpVhUiSOLe6IPBV6o+HM9OmEXHiTYSpSt/VH88pv4tlnn8WzL3+Mt1ovwubT9lCaJCRFzEX/koXwJrd59m18Un4QFh5LuzKHLcKxeUgLVHyO61zx3PN4sd4A9OL8hElHETG9Hj5+4Z/423/uwr8LN0bduZsRtmoC6lcaiZ6uzNB0MkuOxrE536HEBy9dOcZ7NVFp2C6c4ToX50K+R7vhFVCkQyd0y5cPH3Kb54ujVtvF2BN8o378gsrQQagMlawk+7YZxiFh80C8WGck2qy0b2eScKWalDIstxhRru0uhS5D6y/q4NOSddHS9f+rVZ2y+Ojjd1B0+CKscM8DeOHAXCyq8jbqFP8addq1R/u2tVHt0xp4rfQszDpwFHtXNECfagXx5dft0bZ9B7RvUQ7vvVwRFZstw4HLsTi9ZSQ6VLgP9xV4Cc81m4qJu7bjyORWyH1HI5TuupMjc3FgzhhUf7saSnzT1Pw//7Z8IbxVqjS+DglHlOuyE+Z9imJv/Q5/zVsFLep3Qk/XNs1KPomCn3yOGlNCccLqga3cGlSGDkJlqGQl2UuGpxExbyLGdeyIju2+Q9OqH+HefJ/hzYpN0NG1rM+QsdgQcRaJe0ej9MsN8GrFtYi6vA+7x5XG//K1Qf0p7nt0xW/Aitav4a7326DxXJ7rLHaPaokSf38DbSbJfTzPInzpNNT5Zg7m7T+K/asHYMWCae65eclKtH+rJN57pyeWmKrOCzg29jnkb1oH1dbx9XGcnNMZTz/UAjV+DMfluHkY0ewz3PbGSEwL53oXB35Cjyqv4I4yUzHzcALi1pRHhbfuRp7SY7BGpljcXBtVK76C3I0WY98lleGtRmXoIFSGSlaSvWR4BJva1EYNVh/mfRJP5r4Pf7vrfvw31xOm2vGdEtUwcvMJxO2ZgHIFGqJgtfXYFT0f09o8gOda/YhB+6TtLRrH53VB3geao2KvA0hN2Yx5nevhvuf648cNp9zjaz1IjMTR0DVYyTG7y+ZjydS2+ODpT/Bq0UFYSXElHseBIc/ghfo18OVSLjiGEy4Z5s3ZEl//HI6wvR3Qod7DeL7/GmyRetGkLVjYsRkefKgv+q89iajVZVGu3pvIP/oILkp5vLUH6tWrgmeaLcWBS0E6GNaHqAwdhMpQyUqylwyTkXjuDM6wA0vEZmyb/AOeLNcJ34zeYDqknDh1BnGJcUjbOwwl8jXCWzVDsPHwJIysfT+K95iIWUfdh3HJ8MT8HnjWJcNKvQ4iIX4JJnasgHvLjcXEfd5uLJyC44saonnxXGbWotyPP47cZT/Hyw98hrolf0aIy32pl2Ow/2eXDOtVRwWTKlKGLuHm/AG1h+7FjnXfo33lx1Buwj6EyuQRyduwqHML5MjRB/3WuGVYnzI8jAvivS1XZJi3+TKVoQ9QGToIlaGSlWTfNsOzuLCuL577eih+WGqP4rvSZlg8n5UZtn4Az7f6CYP3iUxcMpzX9deZ4fMD8NNGL5nhhfUYWaYUyr9ZEx1nLsKiJUuwaOXPaPpKeXxd5EescLnvigyfNjL0nhm2N5nhCwOukxnWfQP5Rhw0MzgZNndD3bqVVYY+QmXoIFSGSlaSbWWYGI6oBW3xUJkeqDMt/eZjLn7pTXqlzXAvdo0rdaXNcKq7zTBhI0LavI673muDxnN4ritthsX/XtC0GV7ZKg0Xty/HiLp9MXtWP9TJ/xZKvdcJm8w6F5tqoPzjefHa56OwOtm1dcIx7BmYB3kb1Ua1jdzgJE7P7Yxn0tsM52JEs09xW0GrzTB0EHpUKYDbS0/FjEMJiFteCmVUhn5FZeggVIZKVpJtZZh8BrH7FqLNqOWYutO+SdkvM9A88dlchJvepEvR6vM6+LRUfbTq2BFt6pVD4Y/fRpHhC7E8vTfpHCys/BbqFP8G9dp1RMeODdCo3Bf48pPemLxkEcZ8mw/Fn8uFIo1c67p3wPB+hfHJ/XehYMHmmMbTJ59DzIwv8PKn+ZGn6nCMW7kaeyb9gJz/bowy7t6k+2ePRtW3qqNknWamw0/TCh/i7VIl8dWKcES6HJ4w/X18VDUvHhm0H7Eiw/VtUbVqCeRosBB741SGtxqVoYNQGSpZSfatJs2Iy0DYTDSt2AtVmq9x9/5MRerWfmhWsSDy5s2LvPkL481WC7HplD14L9GVbM5BvxKFUJDb5H0W7xavgpG7Us2k8Unb26HnVy/guWfz4sWCb6HjvPkY36gufqrZEnOkLTJyLtrW+AgvFqiMGgPnYOuS4ahY/Gd0nBAK00yYFI2js79F8fdfvHId79ZAxaG70u83em5FYzTrXh0V50Thonhv32h0794WZX/cjIgEleGtRmXoIFSGSlYSeDJ0FWQpl3HhXBzOXbBmfkm7hAtnj+PYsWM4FnMKJy9mMAPN6RM4zm2ORePE6bNsgbxCqivDPM8ZbI6Z2WfOX05G4sWLSDh3HglykrRkxMWexonjp3D6QjwSL8fjXGw84hKSf2mHTD6P0yeir1zHiVjEpp/AdYrEC7gQx1lprGtLdu0fdxGxl5KQEthldJagMnQQKkMlKwk8GSpK5lEZOgiVoZKVqAyVYEZl6CBUhkpWojJUghmVoYNQGSpZicpQCWZUhg5CZahkJSpDJZhRGToIlaGSlagMlWBGZeggVIZKVqIyVIIZlaGDUBkqWYnKUAlmVIYOQmWoZCUqQyWYURk6CJWhkpWoDJVgRmXoIFSGSlaiMlSCGZWhg1AZKlmJylAJZlSGDkJlqGQlKkMlmFEZOgiVoZKVqAyVYEZl6CBUhkpWojJUghmVoYNQGSpZicpQCWZUhg5CZahkJSpDJZhRGToIynDkyJEqQyVLoAwff/xxI8OyZcuqDJWgQmXoIBITEzUzVLIMyvDRRx/VzFAJSlSGDiIlJQWTJ0/GnXfeaQqD1q1bu9coiu+ZO3cuHnjgASPDatWq4cCBA+41/kNlqGQVKkOHsXLlSvz3v/81hUHjxo1N1ami+IOJEyfiz3/+M/74xz+iefPmiI6Odq/xHypDJatQGTqMffv2mXYbFgZVq1bF8ePH3WsUxbf069fPfO/+8Ic/mOfx8fHuNf5DZahkFSpDhxEREYG3337bFAavvPIKlixZ4l6jKL6D0qldu7b53v3973/HtGnT3Gv8i8pQySpUhg7j9OnTpnqUBdKf/vQn1K1bF7Gxse61inLrYSEwZswYvPjiiyYrLFiwIHbu3Ole619UhkpWoTJ0GKmpqdi4cSMKFChgCoQHH3wQXbp0QVRUlGk/TEpKQnJysulso6FxM8HvD79HCQkJOH/+vOnB/MILL+D3v/89cuTIgdGjR5uCIStQGSpZhcrQgbCg+umnn5AnTx5TKNx3331m3Bc7NXTr1g2DBw82v+THjh1rHjU0Mhv8zgwbNsx8j+rVq4fixYvjkUceMd8zZoVffvklTpw44f4m+h+VoZJVqAwdysmTJ03h9emnn5pf7Cwc/vKXv+Duu+9Gzpw5TSebJ554wjxqaGQ2+J3JnTu3+R7xOyXBsa21atXCpk2b3N/ArEFlqGQVKkOHs3nzZtOGyM40Uoj99a9/vaog09C4keA4Qo5l5feJ1aPvvPMO2rZti0OHDrm/dVmHylDJKlSG2YALFy4gJCTEVG916tQJ9evXN8MuqlSpYh41NDIT/L4wvv76a7Rp0wZDhw41A+137NiBuLg497cta1EZKlmFyjCbwI417EDDQoudHtjDVEPjZuLcuXO4ePGi+T6xM42TUBkqWYXKUFEUx6AyVLIKlaGiKI6BVbbvv/++kSHbyZnFKoo/4IxLAwYMML332cN6woQJKkNFUbKG0NBQFC5c2MgwX758iImJca9RFN/CpoPOnTubzmVPP/00ZsyYoTJUFCVrYJtm6dKljQxZIG3dujXgCyTFGfC799VXX5ne1m+88QZWr17tXhO4qAwVxaFQfOztShly6MesWbMc18lHCUw42cTHH39svntFihTBwYMH3WsCF5WhojgY3seTBdK9996LgQMHZsndM5TgY/369ebm1vzucQgSh7QFOipDRXEwI0eONHOkcsYlThq+bNky9xpF8Q2sIuUMTJzQhLMxde/ePSiq51WGiuJg9u7dayYJ4C90xmeffYZFixbpMAvllsMq+O3bt5tJKNhxht83VpVm9bSE/kJlqCgOhzPj5MqVK12IzBD5a509/CjLsLAwREZGmvt/amhkNuQ7w6kHN2zYgHHjxpkfW/I9++Mf/2jGGiYmJrq/iYGNylBRHA5nWurfvz/uv//+9ELqtttuwx133GHadTgW8fPPPzcT2WtoZDbYMYZDdzhs53//+x9uv/12893id4xVpO+++66RZLCgMlSUbADbcZYvX46mTZvimWeeSf/1rqFxK4Pt06VKlTK3xtu2bVtQddhSGSpKNiI6Ohrz5s0z9/js2rUrGjZsiEqVKqF8+fKoUKGChkamg98Zfnd4L8927dqZ79SUKVOMBHnj62BDZago2Rj+cj927Fh6G5CGRmaD3xl+d5xyl5asRmWoKIqiBD0qQ0VRFCXoURkqiqIoQY/KUFEURQl6VIaKoihK0KMyVBRFUYIelaGiKIoS9KgMFUVRlKBHZagoiqIEPSpDRVEUJehRGSqKoihBj8pQURRFCXpUhoqiKErQozJUFEVRgh6VoaIoihL0qAwVRVGUoEdlqCiKogQ9KkNFURQl6FEZKoqiKEGPylBRFEUJelSGiqIoStCjMlQURVGCHpWhoiiKEvSoDBVFUZSgR2WoKIqiBD0qQ0VRFCXoURkqiqIoQY/KUFEURQl6VIaKoihK0KMyVBRFUYIelaGiKIoS9KgMFUVRlKBHZagoiqIEPSpDRVEUJehRGSqKoihBj8pQURRFCXKA/wfcYUFomPoFhgAAAABJRU5ErkJggg==;" vertex="1" parent="1">
          <mxGeometry x="830" y="1680" width="160" height="127.01" as="geometry" />
        </mxCell>
      </root>
    </mxGraphModel>
  </diagram>
</mxfile>
